<svg width="47" height="50" viewBox="0 0 47 50" fill="none" xmlns="http://www.w3.org/2000/svg">
<path fill-rule="evenodd" clip-rule="evenodd" d="M33.5986 36.0066C34.094 35.98 34.4865 36.0212 34.9857 35.9079C35.4669 35.7983 35.579 35.7037 36.1198 35.7C36.2265 37.2058 36.3807 38.0504 37.254 38.9108C38.3519 39.9929 38.8049 39.782 40.4836 39.9354C40.6794 40.2913 40.9886 41.4121 40.9977 41.8754C41.0423 44.1475 37.8661 43.3062 36.4206 42.4229C34.6786 41.3583 33.1915 39.0079 33.5986 36.0066ZM31.9194 35.4037C31.7119 36.03 30.919 36.92 30.5249 37.4629L29.4386 38.875C27.7803 40.497 26.0632 40.4358 23.9815 39.2391C22.4061 38.3337 23.2994 37.5088 24.4577 36.3879C24.8407 36.0175 24.7665 35.7596 25.4428 35.8237C28.2194 36.0858 28.1261 35.045 30.4069 34.0725L30.7361 34.5204C31.1832 35.0604 31.2807 34.9896 31.7444 35.2766C31.8594 35.3479 31.8619 35.3516 31.9194 35.4037ZM32.5707 31.1337C33.8153 30.8529 35.0744 31.4096 35.6782 32.0742C36.5869 33.0746 36.0927 34.2437 34.8565 34.4883C31.8086 35.0917 29.7669 31.7662 32.5707 31.1337ZM40.7948 28.7283C43.3365 28.2096 45.0903 30.9288 45.0236 33.3737C44.954 35.9208 43.1235 37.7883 41.0198 38.3437C37.3519 39.3121 37.6482 36.1625 37.4494 35.4746C37.124 34.3471 36.8878 35.2704 37.4161 34.0004C38.0036 32.5879 36.7986 32.8575 37.8498 31.385C38.449 30.5454 38.4394 29.2096 40.7948 28.7283ZM29.9344 32.8025C27.6465 33.3396 25.4636 37.3296 22.8319 31.2375C22.3699 30.167 22.0607 29.1934 22.6411 28.0083C23.4586 26.3396 25.7565 25.7612 28.1152 25.5362C29.3849 25.415 30.6178 25.5879 31.1019 26.4842C31.3982 27.0329 31.6211 29.2125 31.5931 29.9496C30.8315 30.4329 30.7831 30.2983 30.2873 31.0342C29.9228 31.5754 29.6969 32.0296 29.9344 32.8025ZM13.0724 29.0904C13.8574 27.8429 14.2473 27.5916 14.2907 25.5737C14.574 25.5429 15.1982 25.7058 15.479 25.835C15.8682 26.0146 15.924 26.3009 16.0757 26.7171C16.9715 29.1749 17.6111 31.1675 18.0978 33.8392C16.7107 33.1242 13.7019 30.2895 13.0724 29.0904ZM11.0745 22.3363C12.1161 22.3325 12.3411 22.0212 12.7203 24.0617C12.894 24.9975 13.0323 26.1646 12.7044 27.0379C12.2449 28.2613 10.5398 29.5783 8.87066 29.6987C6.38156 29.8792 7.17735 27.252 7.58528 26.9108C7.75487 26.7688 10.9903 25.9404 11.0745 22.3363ZM31.7686 24.9579C32.134 24.28 33.384 23.3442 34.1269 22.8558C34.6694 22.4988 36.296 21.5183 37.0736 21.4479C38.359 21.3321 38.6169 22.8533 38.9148 23.9429C39.109 24.6525 39.5186 26.9516 39.4065 27.6708C37.5961 28.7763 37.5994 28.8538 36.5699 30.8433C35.134 30.1838 35.1286 29.6429 32.9711 29.6179C32.9223 28.7946 32.8624 27.6829 32.734 26.8725C32.5836 25.9234 32.0794 25.6371 31.7686 24.9579ZM9.01568 19.7008C9.02568 20.39 9.01484 21.1475 9.40612 21.5529C9.71988 21.8775 9.74823 21.7733 9.70318 22.3625C9.49526 25.0712 6.50238 26.7371 4.04197 24.8833C0.484031 22.2025 0.795698 21.9037 3.39365 18.6517C4.20987 17.63 5.74654 15.6 7.30321 17.1854C8.12698 18.0238 7.64608 18.8804 9.01568 19.7008ZM14.1553 23.9204C13.9736 23.6083 13.8603 22.8246 13.7203 22.4121C13.4765 21.6963 13.7073 21.6266 14.1553 21.2754C14.644 20.8921 14.989 21.155 15.5011 21.4675C15.9595 21.7471 16.1915 21.9725 16.5548 22.2613C16.8923 22.5287 17.174 22.8825 17.769 22.9875C18.334 23.0871 18.9644 23.0658 19.4198 22.8437C20.2486 22.4392 20.7961 21.4375 21.2557 21.0125C21.9228 21.4112 22.9661 22.0754 22.4323 23.2696C22.1232 23.9613 21.0427 24.3329 20.1219 24.5629C19.0644 24.8267 18.0411 24.9434 16.9211 24.7558C16.5119 24.6875 14.3686 24.0587 14.1553 23.9204ZM13.6224 19.3187C13.4341 20.9733 10.7665 21.3979 10.4494 20.5771C10.0628 19.5754 12.4561 18.2829 13.6224 19.3187ZM14.0749 17.9025C14.5752 16.3813 14.1811 15.8741 13.7461 14.5325C13.3182 13.2129 13.4948 11.9804 14.8745 11.8108C15.9586 11.678 17.8703 11.7625 18.8111 12.1475C21.0215 13.0525 22.1469 15.1841 21.5944 17.533C21.2723 18.9008 20.7086 19.3288 20.0803 20.1771C19.5823 20.8504 18.7998 22.1992 17.5874 21.3225C16.5611 20.5812 16.6103 20.2125 15.0082 19.7421C14.8803 18.42 14.864 18.5283 14.0749 17.9025ZM7.15776 15.5537C7.1828 14.1717 7.74486 11.657 8.31321 10.525C9.50652 10.4508 11.2536 11.893 12.2103 12.3C12.164 13.43 12.0686 13.9842 12.4515 15.0871C13.554 18.2608 12.5736 17.16 11.0399 17.8829C10.5549 18.1112 10.2103 18.3592 9.79237 18.5691C8.91235 17.9758 9.03401 15.9209 7.15776 15.5537ZM42.1964 9.4629C42.7065 9.32956 43.2623 9.48709 43.4023 9.93498C43.4023 9.93498 43.4207 12.9416 41.3136 12.7921C39.5123 12.6646 39.3948 10.195 42.1964 9.4629ZM29.1448 11.0517C27.9356 9.44709 30.0498 8.28666 31.2328 7.57335C33.5081 6.20123 34.0465 7.55294 33.8294 9.98208C33.7427 10.9488 33.5032 11.6621 32.9611 12.1667C31.8215 13.2254 29.7156 13.0125 30.7744 11.4596C31.3844 10.565 31.9919 10.0754 32.4832 9.77247C33.3356 9.24665 32.6994 7.95541 31.7219 8.60211C31.2548 8.91127 30.7631 9.31499 30.5711 9.49919C29.894 10.1479 29.4615 10.7296 29.1448 11.0517ZM38.3111 1.41753C39.9861 1.02877 41.2936 5.29336 38.7278 5.57335C37.6253 5.69375 36.7186 4.75671 36.799 3.70543C36.8699 2.77791 37.5994 1.5825 38.3111 1.41753ZM26.3502 49.1171L26.5515 49.83L27.8019 49.3629C27.809 48.5479 26.824 46.8717 26.5594 45.8112C26.1248 44.0696 26.5073 43.1625 26.7556 41.5517C28.6394 41.22 28.8344 41.3071 30.0632 40.2375C30.934 39.4795 31.5836 38.0833 32.2077 37.8554C32.4598 43.2896 39.1831 46.3783 41.6377 43.8612C42.8857 42.5821 42.3806 41.1467 41.8832 39.5633C44.4211 38.5233 46.529 36.4258 46.4019 32.8113C46.3181 30.4263 45.1427 28.4895 43.1431 27.6571C42.189 27.26 41.6211 27.4696 40.8011 27.2504C40.779 25.4784 40.3961 23.6883 39.839 22.1812C39.2823 20.6758 38.2553 19.6716 36.2069 20.2191C34.5707 20.6562 31.914 22.5671 30.8411 23.8179C30.3394 24.4025 29.0607 24.1 28.2007 24.0937C28.404 23.3271 30.4156 20.6171 31.0886 19.9983C31.3882 19.7229 31.5573 19.6142 31.8098 19.3337C32.2444 18.8508 32.6765 18.3771 33.3094 18.0592C33.9548 17.735 34.8377 17.6433 35.5256 17.4142C38.5044 16.4208 40.0161 14.2333 40.5774 14.1125C41.3352 13.9491 43.2481 14.7854 44.3278 12.2533C46.2373 7.77497 41.9294 6.96456 39.6128 9.29541C38.254 10.6629 38.3836 11.6954 39.239 13.2175C38.7911 14.035 36.3644 15.78 35.5465 15.7508C35.7627 15.0946 36.2898 14.5179 36.6727 13.8429C37.8911 11.6975 38.8456 9.50502 39.114 6.93127C39.4548 6.76169 39.844 6.76582 40.2544 6.51711C42.7074 5.0304 41.5432 0.204625 38.724 0.00581058C36.4219 -0.156644 34.6027 3.12168 35.8752 5.53375C36.4765 6.67333 37.2373 6.6417 37.6198 6.83877C37.7282 9.68082 34.8519 14.7912 32.7327 16.65L30.7828 18.3975C30.5736 18.5908 30.3536 18.7463 30.1474 18.9179C29.4411 17.6933 29.5577 15.405 29.7848 13.8934C31.1307 14.0404 31.3544 14.5925 32.8602 13.9112C33.7065 13.5283 34.3923 12.8483 34.7982 12.0641C35.3107 11.0729 35.1811 9.88957 35.1803 8.6871C35.1794 7.27084 34.8707 6.61211 34.0519 6.05705C33.0603 5.38418 32.0511 5.52039 31.0961 6.04957C29.4619 6.95415 27.5607 7.85915 27.3969 9.91708C27.2632 11.593 27.9786 11.8754 28.6915 12.3855C28.6352 13.0646 28.394 13.6067 28.299 14.2529C27.8286 17.4466 28.8157 18.8658 28.9107 19.8871C28.9682 20.5013 27.9828 21.6612 27.384 22.6733C27.1228 23.115 26.8936 23.7067 26.6044 24.1113C26.0769 24.8479 20.9261 24.6691 20.9649 29.3054C20.9744 30.4821 21.4661 31.8079 21.9261 32.7008C22.8961 34.5863 23.2707 34.6762 23.6107 35.115C23.5574 35.215 23.4928 35.1587 22.9081 35.9479C22.2361 36.8554 21.3478 37.6217 21.8878 39.0216C22.4894 40.5812 24.6069 40.7966 25.3981 41.4129C24.3153 44.5741 25.3986 46.3146 26.0248 48.6232C26.0111 48.6308 26.0398 48.85 25.599 48.4483C25.2453 48.1258 24.6086 47.1646 24.3331 46.7479C23.8245 45.9796 23.3799 45.1104 22.9219 44.2754C19.3407 37.7433 20.1353 34.2787 18.4369 29.2554C18.1232 28.3284 17.5974 27.2908 17.4977 26.2537C20.374 26.2334 24.899 25.3554 23.7894 21.7808C23.3407 20.3363 22.5969 20.2975 22.099 19.8733C22.8045 18.4954 23.3715 17.5633 23.0973 15.5358C22.9019 14.0883 21.9782 12.665 21.2598 12.0121C19.5586 10.465 17.3565 10.2067 14.934 10.4104C13.9315 10.4946 13.6857 10.7104 13.0277 11.1288C12.1544 10.8708 8.44487 8.09749 7.46278 9.04041C7.04029 9.44624 6.53029 11.1375 6.32404 11.8758C5.99153 13.0658 5.93276 14.0209 5.68321 15.2096C3.80193 15.9238 3.65319 15.9979 2.35111 17.7008C0.846549 19.6687 -1.9247 22.2208 2.04363 25.1254C3.08359 25.8871 4.1057 26.9891 5.93984 27.0596C5.01442 30.34 7.28152 31.5979 10.1282 30.8375C10.9036 30.6304 11.5336 30.15 12.1823 30.0646C12.5186 30.9221 12.9603 31.1958 13.4203 31.7758C14.3523 32.9521 17.0094 35.1729 18.4402 35.6304C18.784 39.2808 20.9465 44.0225 22.864 47.0142C23.2457 47.6091 24.5923 49.5942 25.0453 50C25.5711 49.7779 25.8994 49.2817 26.3502 49.1171Z" fill="#CCAE9C"/>
</svg>
