<svg width="34" height="50" viewBox="0 0 34 50" fill="none" xmlns="http://www.w3.org/2000/svg">
<path fill-rule="evenodd" clip-rule="evenodd" d="M2.71606 25.645C4.2162 25.645 5.43211 26.8609 5.43211 28.3611C5.43211 29.8613 4.2162 31.0772 2.71606 31.0772C1.21585 31.0772 0 29.8613 0 28.3611C0 26.8609 1.21585 25.645 2.71606 25.645ZM2.71606 27.0235C3.45466 27.0235 4.05362 27.6225 4.05362 28.3611C4.05362 29.0997 3.45466 29.6987 2.71606 29.6987C1.97739 29.6987 1.37842 29.0997 1.37842 28.3611C1.37842 27.6225 1.97739 27.0235 2.71606 27.0235Z" fill="#CCAE9C"/>
<path fill-rule="evenodd" clip-rule="evenodd" d="M3.05147 13.7432C4.63836 13.7432 5.92428 15.0291 5.92428 16.616C5.92428 18.2029 4.63836 19.4887 3.05147 19.4887C1.46465 19.4887 0.178711 18.2029 0.178711 16.616C0.178711 15.0291 1.46465 13.7432 3.05147 13.7432ZM3.05147 15.0966C3.89059 15.0966 4.57083 15.7769 4.57083 16.616C4.57083 17.4551 3.89059 18.1353 3.05147 18.1353C2.21241 18.1353 1.53214 17.4551 1.53214 16.616C1.53214 15.7769 2.21241 15.0966 3.05147 15.0966Z" fill="#CCAE9C"/>
<path fill-rule="evenodd" clip-rule="evenodd" d="M11.5003 17.9492C13.5311 17.9492 15.1767 19.5949 15.1767 21.6257C15.1767 23.6565 13.5311 25.3021 11.5003 25.3021C9.46949 25.3021 7.82385 23.6565 7.82385 21.6257C7.82385 19.5949 9.46949 17.9492 11.5003 17.9492ZM11.5003 19.2948C12.7875 19.2948 13.8312 20.3385 13.8312 21.6257C13.8312 22.9128 12.7875 23.9566 11.5003 23.9566C10.2131 23.9566 9.1694 22.9128 9.1694 21.6257C9.1694 20.3385 10.2131 19.2948 11.5003 19.2948Z" fill="#CCAE9C"/>
<path fill-rule="evenodd" clip-rule="evenodd" d="M23.2653 19.6162C25.7096 19.6162 27.6903 21.597 27.6903 24.0413C27.6903 26.4856 25.7096 28.4664 23.2653 28.4664C20.821 28.4664 18.8402 26.4856 18.8402 24.0413C18.8402 21.597 20.821 19.6162 23.2653 19.6162ZM23.2653 21.078C24.9018 21.078 26.2285 22.4048 26.2285 24.0413C26.2285 25.6778 24.9018 27.0046 23.2653 27.0046C21.6288 27.0046 20.302 25.6778 20.302 24.0413C20.302 22.4048 21.6288 21.078 23.2653 21.078Z" fill="#CCAE9C"/>
<path fill-rule="evenodd" clip-rule="evenodd" d="M29.8854 13.4453C31.3856 13.4453 32.6015 14.6612 32.6015 16.1614C32.6015 17.6616 31.3856 18.8774 29.8854 18.8774C28.3852 18.8774 27.1693 17.6616 27.1693 16.1614C27.1693 14.6612 28.3852 13.4453 29.8854 13.4453ZM29.8854 14.8296C30.6211 14.8296 31.2172 15.4256 31.2172 16.1614C31.2172 16.8971 30.6211 17.4931 29.8854 17.4931C29.1497 17.4931 28.5536 16.8971 28.5536 16.1614C28.5536 15.4256 29.1497 14.8296 29.8854 14.8296Z" fill="#CCAE9C"/>
<path fill-rule="evenodd" clip-rule="evenodd" d="M29.8608 28.709C31.6253 28.709 33.0554 30.1391 33.0554 31.9036C33.0554 33.668 31.6253 35.0982 29.8608 35.0982C28.0964 35.0982 26.6663 33.668 26.6663 31.9036C26.6663 30.1391 28.0964 28.709 29.8608 28.709ZM29.8608 30.1566C30.8254 30.1566 31.6078 30.9391 31.6078 31.9036C31.6078 32.8682 30.8254 33.6505 29.8608 33.6505C28.8963 33.6505 28.1139 32.8682 28.1139 31.9036C28.1139 30.9391 28.8963 30.1566 29.8608 30.1566Z" fill="#CCAE9C"/>
<path fill-rule="evenodd" clip-rule="evenodd" d="M13.0002 13.4909C10.7826 13.0344 8.24914 12.3371 6.57725 11.8536C5.02535 11.4047 3.72779 10.7661 2.79031 9.15793C0.824543 5.7845 3.49352 0.846704 7.93028 1.40985C8.45964 1.47694 14.7125 3.07133 15.5274 3.41313C15.612 4.16929 14.5525 7.57022 14.2957 8.52058L13.0002 13.4909ZM17.4686 3.38772C18.752 3.11636 20.0071 2.71617 21.2693 2.37604C23.8357 1.68494 26.4921 0.59662 28.8006 2.4073C32.4649 5.28222 30.9597 10.2079 27.6521 11.4593C26.9131 11.739 20.6294 13.4442 20.0709 13.4651C19.1122 9.94487 18.2823 6.38598 17.4686 3.38772ZM16.5733 5.06254C17.2173 8.13915 17.8654 10.1008 18.8508 13.9974C19.1718 15.2662 19.4189 15.0523 20.7103 14.756C22.02 14.455 23.7177 13.9944 24.4192 13.8106C25.9436 13.4113 28.109 12.9361 29.2495 12.2196C33.9517 9.26589 33.0326 2.10054 27.8948 0.333588C26.0382 -0.305036 24.2663 0.083479 22.4464 0.580313C20.7799 1.0351 19.0855 1.50031 17.3878 1.94341C16.1831 2.25808 15.888 2.06885 14.7534 1.75663C13.8893 1.51906 13.0723 1.28059 12.2095 1.04175C8.95817 0.140155 6.3455 -0.843567 3.42643 1.28274C0.035511 3.75242 -0.0995072 8.48055 2.58318 11.2242C3.81323 12.4821 4.76441 12.7985 6.86862 13.3617C8.55926 13.8144 10.2279 14.2766 11.9314 14.7135C14.1919 15.2929 13.8609 15.6046 14.8772 11.8932C15.246 10.5468 16.2548 6.9124 16.5733 5.06254Z" fill="#CCAE9C"/>
<path fill-rule="evenodd" clip-rule="evenodd" d="M25.1416 4.05421C24.2522 4.27639 24.4901 5.33139 25.1437 5.36512C25.3179 5.37392 25.5201 5.35392 25.7498 5.35847C27.1111 5.38561 26.6776 6.84154 27.6976 6.78152C29.2178 6.6919 27.6155 3.34891 25.1416 4.05421Z" fill="#CCAE9C"/>
<path fill-rule="evenodd" clip-rule="evenodd" d="M14.9241 29.0449C20.7105 29.0449 25.4016 33.736 25.4016 39.5225C25.4016 45.3089 20.7105 50 14.9241 50C10.0843 50 6.01102 46.7182 4.80805 42.2585C4.65506 41.3136 5.95729 40.9668 6.20654 42.2298C7.35908 45.9483 10.8263 48.649 14.9241 48.649C19.9644 48.649 24.0506 44.5628 24.0506 39.5225C24.0506 34.4821 19.9644 30.3959 14.9241 30.3959C10.7825 30.3959 7.28612 33.1553 6.17067 36.9352C5.99144 38.0298 4.53047 38.0319 4.79057 36.8527C5.97059 32.3592 10.0601 29.0449 14.9241 29.0449Z" fill="#CCAE9C"/>
<path d="M18.4642 36.1391C17.753 35.6573 16.8353 35.4279 15.7111 35.4279C14.6099 35.4279 13.6463 35.8409 12.8433 36.6439C12.0403 37.4469 11.6503 38.4564 11.6503 39.6723C11.6503 40.9571 12.0632 41.9896 12.8662 42.7467C13.6692 43.5267 14.7017 43.9167 15.9406 43.9167C16.9959 43.9167 17.9365 43.5726 18.7395 42.8614C18.8543 42.7467 18.9919 42.6778 19.1525 42.6778C19.3131 42.6778 19.4278 42.7237 19.5425 42.8384C19.6573 42.9302 19.7031 43.0449 19.7031 43.2055C19.7031 43.3661 19.6573 43.4808 19.5425 43.5956C18.556 44.5592 17.34 45.0409 15.8488 45.0409C14.2199 45.0409 12.9121 44.5591 11.9256 43.5726C10.8932 42.5861 10.3884 41.3013 10.3884 39.6723C10.3884 38.1352 10.8702 36.8733 11.8567 35.8409C12.8433 34.8084 14.0593 34.3037 15.5276 34.3037C17.0418 34.3037 18.2807 34.6249 19.2213 35.2673C19.359 35.382 19.4278 35.5197 19.4278 35.7032C19.4278 35.8179 19.3819 35.9327 19.2902 36.0474C19.1525 36.185 18.9919 36.2539 18.8313 36.2539C18.7166 36.2539 18.5789 36.208 18.4642 36.1391Z" fill="#CCAE9C"/>
</svg>
