<svg width="43" height="43" viewBox="0 0 43 43" fill="none" xmlns="http://www.w3.org/2000/svg">
<path d="M21.6495 9.73535C19.4132 9.73535 16.0589 10.9001 14.6613 11.4824C11.5166 12.5306 7.32367 14.2777 5.22724 16.7235C3.08204 19.2263 5.22722 20.9165 2.78133 23.0129C1.65579 23.9777 0.817577 27.52 1.03428 28.6035C1.3837 30.3505 2.43192 30.6999 3.13074 34.194C3.68979 36.9893 6.85778 39.0858 8.37188 39.7846C10.7013 40.9493 16.1987 42.9992 19.553 41.881C23.7459 40.4834 27.9388 41.881 30.0353 41.881C32.1317 41.881 35.2764 41.1822 36.3247 39.4352C37.3729 37.6881 38.4211 36.9893 39.1199 35.9411C39.8188 34.8929 40.5176 34.8929 41.5658 30.0011C42.614 25.1094 41.5658 21.6153 40.5176 18.82C39.4694 16.0247 35.9753 13.2294 32.8306 13.2294C30.3148 13.2294 27.5894 11.5989 26.5412 10.7836C25.8424 10.4342 23.8857 9.73535 21.6495 9.73535Z" stroke="#CCAE9C" stroke-width="1.5"/>
<path d="M17.806 10.4342C17.6896 9.85187 17.6663 8.47752 18.5049 7.63894C19.3434 6.80036 20.6013 5.54248 21.6495 5.54248C22.3483 5.54248 24.4448 6.87024 25.8424 7.98835C27.5895 9.38599 28.2883 9.7354 28.6377 12.1813" stroke="#CCAE9C" stroke-width="1.5"/>
<path d="M22.6976 5.89174C23.7459 4.72704 26.052 2.25788 26.8905 1.69882C27.7291 1.13976 28.4047 1 28.6376 1C28.987 1.11647 29.7557 1.7687 30.0352 3.44587C30.3846 5.54233 30.0352 6.93997 29.6858 8.3376C29.4316 9.35454 29.3364 11.4823 29.6858 12.5305" stroke="#CCAE9C" stroke-width="1.5"/>
<path d="M24.7942 7.28934C25.0271 6.82346 26.4015 5.96158 30.0353 6.24111" stroke="#CCAE9C" stroke-width="1.5"/>
<path d="M31.7825 12.8797C32.3648 12.1808 33.7392 11.0627 35.9754 10.7832" stroke="#CCAE9C" stroke-width="1.5" stroke-linecap="round"/>
<path d="M35.9752 13.928C36.4411 13.8116 37.7223 13.5786 39.1199 13.5786" stroke="#CCAE9C" stroke-width="1.5" stroke-linecap="round"/>
<path d="M14.3118 11.4825C13.7295 10.7837 12.425 9.31615 11.866 9.03662" stroke="#CCAE9C" stroke-width="1.5" stroke-linecap="round"/>
<path d="M11.1672 12.5303C10.2354 11.9479 8.23215 11.0627 7.6731 10.7832" stroke="#CCAE9C" stroke-width="1.5" stroke-linecap="round"/>
<path d="M16.059 42.2304C16.7578 41.1822 18.2952 38.7363 18.8542 37.3386C19.5531 35.5916 20.9507 35.2422 21.6495 35.2422C22.6113 35.2422 24.2361 36.4299 26.1918 35.941C28.1476 35.4521 29.6859 36.2904 30.3848 36.9892C31.0836 37.6881 33.18 40.8327 34.5777 40.8327" stroke="#CCAE9C" stroke-width="1.5"/>
<path d="M9.3353 23.1315C8.69341 22.7491 7.19566 23.2909 6.52702 23.6096C5.72465 24.0877 5.72477 26 7.32951 26C8.93412 26 9.33524 25.522 9.73639 25.044L9.73648 25.0439C10.1377 24.5658 10.1377 23.6096 9.3353 23.1315Z" stroke="#CCAE9C" stroke-width="1.5"/>
<path d="M14.3324 37.1756C13.8195 37.0966 13.0463 37.8712 12.7238 38.2683C12.365 38.8088 12.93 40.0873 13.9299 39.6455C14.9297 39.2037 15.0385 38.7737 15.1472 38.3437L15.1473 38.3436C15.256 37.9135 14.9736 37.2743 14.3324 37.1756Z" stroke="#CCAE9C" stroke-width="1.5"/>
<path d="M35.3387 21.7647C34.9615 21.2338 33.658 21.4709 33.0128 21.4914C32.205 21.5926 31.4512 22.7936 32.7306 23.3562C34.0099 23.9187 34.4979 23.677 34.9858 23.4352L34.986 23.4351C35.474 23.1934 35.8103 22.4284 35.3387 21.7647Z" stroke="#CCAE9C" stroke-width="1.5"/>
<path d="M36.3766 24.6625C35.6257 25.3049 35.6365 25.9616 35.6257 26.507C35.6258 27.5553 37.1697 28.1367 37.7637 27.1803C38.3575 26.2239 38.1512 25.7645 37.9448 25.305L37.9447 25.3049C37.7383 24.8454 36.9092 24.2067 36.3766 24.6625Z" stroke="#CCAE9C" stroke-width="1.5"/>
<path d="M10.5954 18.0311C10.0784 17.9618 9.45593 18.8291 9.20935 19.2714C8.95239 19.8708 9.73127 21.2427 10.6346 20.73C11.5378 20.2173 11.5689 19.7462 11.6001 19.275L11.6001 19.2749C11.6312 18.8038 11.2418 18.1177 10.5954 18.0311Z" stroke="#CCAE9C" stroke-width="1.5"/>
<path d="M13.5468 22.2498C13.1263 22.1821 12.6383 22.8931 12.4469 23.2571C12.2501 23.7517 12.9077 24.9102 13.6302 24.5001C14.3526 24.0901 14.3688 23.698 14.385 23.3059L14.385 23.3058C14.4013 22.9136 14.0724 22.3344 13.5468 22.2498Z" stroke="#CCAE9C" stroke-width="1.5"/>
<path d="M13.4393 34.051C13.133 33.7882 12.3277 34.0291 11.9634 34.1824C11.5201 34.4234 11.3993 35.5626 12.2254 35.6502C13.0515 35.7378 13.2882 35.475 13.5249 35.2122L13.5249 35.2121C13.7617 34.9492 13.8221 34.3796 13.4393 34.051Z" stroke="#CCAE9C" stroke-width="1.5"/>
</svg>
