<svg width="20" height="50" viewBox="0 0 20 50" fill="none" xmlns="http://www.w3.org/2000/svg">
<path fill-rule="evenodd" clip-rule="evenodd" d="M9.822 39.082L9.65409 38.6244C9.61827 38.4503 9.58952 38.2599 9.55993 38.0986C9.34613 36.9282 9.277 35.7723 9.29701 34.5781C10.2874 34.5769 10.1578 34.6132 10.5345 34.2235C10.437 34.9511 10.2191 35.7673 10.1049 36.5415C9.9803 37.3898 9.9091 38.2194 9.822 39.082ZM15.8842 13.2304C16.0146 14.082 16.0829 14.1446 15.9996 15.0554L15.8708 15.6095C15.6242 16.3662 15.3296 17.3846 15.3808 18.2455C15.4179 18.875 15.5729 20.4163 16.3837 20.393C17.5037 20.3609 16.7133 18.9879 16.6829 18.1829C16.6662 17.7475 16.9888 16.075 17.2604 15.5837C17.7287 16.3438 17.7571 17.6288 17.6621 18.6109C17.5638 19.6321 17.3212 20.6471 17.3183 21.6904C17.3162 22.4122 17.3396 24.4664 18.4408 23.8747C18.9038 23.6259 18.7592 22.9846 18.7821 22.4405C18.8804 20.0463 20.15 18.4792 19.7809 14.975C19.5534 12.8108 19.0463 11.365 18.1854 9.66946C17.99 9.28489 17.7788 8.93243 17.5542 8.54989C16.9392 7.50321 16.0695 6.39029 15.6116 5.35277C15.2591 4.55361 14.9866 3.64067 14.7833 2.73315C14.575 1.80442 14.7833 0.590262 13.8871 0.1852C13.2408 -0.106886 9.88202 -0.14602 9.61449 0.763963C9.35326 1.65232 9.36325 2.10316 8.39318 2.98151C7.83818 3.57611 7.34486 3.95649 6.72774 4.76488C6.21192 5.40027 5.55606 6.60903 5.32897 6.81276C4.42773 7.62115 3.37526 8.27158 2.56525 9.18743C1.55146 10.3333 0.823095 12.0295 0.446007 13.9554C-0.00607875 16.2633 0.21812 18.1654 0.0393706 20.44C-0.121888 22.4938 0.211864 24.6759 1.04733 26.3143C1.75358 27.6997 2.21101 28.3114 3.06685 29.4918C3.3019 29.816 3.5394 30.1348 3.75194 30.4985C4.29112 31.4222 4.44731 32.0422 4.43773 33.2877C4.43192 34.0623 3.61815 35.1535 3.27856 35.6032C2.79521 36.2423 2.3115 36.819 1.95939 37.729C1.71649 38.3565 1.25684 40.2853 2.40314 40.1349C2.61771 40.107 2.84858 39.9078 2.91316 39.7452C2.97941 39.579 2.96772 39.1744 2.99983 38.9603C3.08022 38.4232 3.20313 38.1024 3.41896 37.6815C3.71937 37.0965 4.77278 35.8369 4.82106 35.6961C4.93565 36.5511 4.33315 38.6803 4.74983 40.7195C4.9036 41.4715 5.16065 42.1545 5.52192 42.7045C5.83857 43.187 7.71734 45.8445 8.41443 44.6228C9.09989 43.4215 5.92942 43.412 5.90109 39.1136C5.89066 37.4744 6.20693 35.7148 6.25695 34.0377C6.30319 32.4773 6.13738 30.5752 5.78821 29.0885C5.44113 27.6093 4.97944 26.273 4.60691 24.8189C4.38647 23.9576 4.32944 23.3026 4.49735 22.4017C4.61314 21.7801 4.91439 20.8376 5.22732 20.42L6.41817 24.068C6.63568 25.2451 5.87733 26.1822 6.04069 28.336C6.07777 28.8247 6.35488 30.9218 6.73364 31.2135C7.0053 31.4231 7.41276 31.3606 7.60906 31.156C8.12572 30.6181 7.13778 29.2822 7.36529 26.9968C7.69649 27.5347 7.9928 29.0735 8.12615 29.8143C8.7707 33.3835 6.74237 34.9111 9.37863 42.2324C9.98071 43.9041 11.1557 46.2445 10.4928 47.8875C10.2911 48.3875 10.052 48.6187 9.80946 48.9646C9.34408 49.6283 10.2324 50.4396 10.8783 49.7167C11.9845 48.4791 12.5933 46.7899 12.3157 45.0612C11.8687 42.2807 10.8561 42.4857 11.1207 39.2373C11.2103 38.1357 11.3178 37.1361 11.5116 36.054C11.882 33.9881 12.4899 32.0252 12.4858 29.9006C12.4837 28.7602 12.2424 27.6922 12.2166 26.5897C12.552 26.838 13.3403 28.1931 13.5933 28.6185C14.2478 29.7198 14.2874 29.646 13.972 31.0547C13.5724 32.8352 12.8216 34.4777 12.712 36.3011C12.6703 36.9965 12.9132 38.5773 13.3237 38.9173C13.7132 39.2407 14.2754 38.9744 14.3687 38.5953C14.4529 38.2519 14.1604 37.679 14.082 37.2811C13.905 36.3794 14.0825 35.2373 14.3629 34.4602C14.5171 34.0339 14.595 33.6006 14.7337 33.2107C14.8291 32.9431 15.0183 32.1477 15.1299 31.9581C15.4779 32.5185 15.6883 33.911 15.7242 34.7261C15.8842 38.3911 12.4141 40.2853 13.7266 43.8374C14.2192 45.1695 15.3999 44.4724 15.0024 43.5054C14.2512 41.6778 15.2883 40.2982 16.1421 38.5586C16.2787 38.2799 16.4783 37.659 16.6304 37.4277C16.6375 38.1619 16.1341 39.1015 16.16 39.4719C16.1841 39.8149 16.4966 40.0757 16.8767 40.0403C17.6621 39.9674 17.9517 37.9436 17.9625 37.2969C17.9854 36.0019 17.495 35.5402 17.4258 35.3181C17.3925 35.2106 17.7196 33.5181 17.7504 33.161C18.2079 27.9472 16.4917 23.4772 14.2287 18.9609C13.8308 18.1667 12.7503 16.1812 12.7941 15.2341C12.8387 14.2516 13.372 11.8599 13.8341 11.1945C14.0941 11.385 14.4825 11.6816 14.7166 11.9162C15.1325 12.365 15.5712 12.7216 15.8842 13.2304ZM7.69985 20.0121C7.17654 20.1533 7.09737 20.8563 7.50489 21.1734C7.79278 21.3967 8.82278 21.4147 9.18568 21.3188C9.70905 21.1809 9.86032 20.5142 9.43741 20.1759C9.14448 19.9417 8.96447 20.0646 8.60949 20.0596C8.31446 20.0555 7.97445 19.9379 7.69985 20.0121ZM17.7267 13.5062C17.1471 12.6166 16.332 11.3857 14.5499 10.1124C14.6712 9.78741 14.9445 9.40697 15.115 9.01449C15.3454 8.48405 15.3575 7.98321 15.5175 7.7657L16.4824 9.31035C17.4404 10.7799 18.385 13.0458 18.4404 14.8658C18.2037 14.292 18.0354 13.9499 17.7267 13.5062ZM7.29612 10.652C6.98654 10.8083 6.80235 11.1458 7.02651 11.5529C7.1786 11.8308 7.58527 11.9524 7.90198 12.0574C8.4653 12.2445 9.72362 12.4954 10.2962 12.2258C10.5911 12.0866 10.7558 11.6754 10.5845 11.322C10.4049 10.9524 10.057 10.997 9.61281 11.0191C8.25949 11.0874 7.86987 10.3624 7.29612 10.652ZM7.78278 16.3988C7.45487 16.5162 7.27072 16.8767 7.41358 17.2471C7.68572 17.9517 9.87363 18.0733 10.6649 17.795C11.3908 17.5396 11.2999 16.3392 10.1449 16.5758C9.18366 16.7725 8.1407 16.2712 7.78278 16.3988ZM12.357 22.2438C12.782 22.2047 13.3462 21.8913 13.6007 21.6063L13.8424 21.3376C13.8474 21.3167 13.8649 21.3155 13.8762 21.305C14.0496 21.5151 14.8154 23.2722 14.855 23.5513C14.4437 23.8159 13.722 23.9072 13.9757 24.6589C14.2066 25.343 14.925 24.9514 15.3175 24.8168C15.9242 25.7614 16.6675 30.3839 16.5083 31.7993C16.3524 31.5468 16.2421 31.1352 16.1129 30.7969C15.992 30.4822 15.8483 30.1835 15.7167 29.8785C15.4454 29.2489 15.105 28.696 14.8437 28.146C15.0637 27.943 16.1125 27.6868 15.745 26.9026C15.3775 26.118 14.5366 26.8826 14.1266 26.9555C13.9429 26.7551 13.9178 26.6509 13.772 26.4322C13.3278 25.7668 12.6425 24.9576 12.3199 24.4996C12.1283 24.2288 12.3408 22.6401 12.357 22.2438ZM12.4587 20.848C12.412 20.5484 12.4812 18.7708 12.5599 18.5784C13.192 19.6038 13.3191 20.143 12.4587 20.848ZM3.80028 20.3238C3.76943 20.39 3.75983 20.4234 3.71688 20.4926C3.63398 20.6238 3.67938 20.5655 3.59773 20.6342C3.29481 20.3217 3.17649 19.8467 2.92729 19.6654C2.50647 19.3592 1.96647 19.6675 1.914 20.0734C1.8269 20.7463 2.72316 21.6951 3.19358 22.028C3.19693 23.2172 2.93434 24.1201 3.52061 25.7818C3.79269 26.7255 4.31026 28.206 4.44606 29.1318C4.2715 28.9948 3.74232 28.1876 3.58603 27.9705C1.74103 25.4047 1.07689 23.4192 1.38269 20.0992C1.55018 18.2792 2.24355 17.5912 2.39977 17.0333C2.41145 17.0446 2.42685 17.0609 2.43356 17.0692C2.44063 17.0771 2.45856 17.095 2.46688 17.1054C2.47521 17.1154 2.48898 17.1308 2.49814 17.1421L2.62857 17.3309C2.7098 17.4525 2.74441 17.5083 2.83103 17.6325C3.48067 18.5625 4.53854 17.6971 3.96731 16.9337C3.70978 16.59 3.36187 16.1662 3.36229 15.6029C3.36229 15.3666 3.85816 14.555 4.00732 14.3825C4.12227 14.8821 4.17526 15.6738 4.25858 16.2092C4.31028 16.5446 4.8144 18.5688 4.73443 18.7517C4.7073 18.8125 4.58153 18.9592 4.52276 19.0434C4.43027 19.175 4.40151 19.2146 4.32232 19.3421C4.19695 19.5434 4.0932 19.7479 3.96482 19.9913C3.89444 20.1242 3.85569 20.205 3.80028 20.3238ZM1.50816 16.0108C1.40231 15.1054 2.03231 12.8183 2.35063 12.0446C2.75066 11.0737 3.14732 10.5195 3.79649 9.7928C3.97985 9.5874 4.25401 9.42656 4.384 9.24949C4.38898 9.32617 4.07357 11.0699 4.02314 11.2699C3.79395 12.1787 2.86977 13.6883 2.38564 14.525C2.25559 14.7504 1.53398 15.88 1.50816 16.0108ZM7.62694 5.78692C7.8711 5.29195 9.36409 3.76234 9.73992 3.49859C11.2866 4.2103 11.9187 4.23696 13.7508 4.02155C14.0104 4.55277 14.5741 6.83074 14.1566 7.30822C13.5433 7.82656 12.1566 6.76322 11.897 7.74156C11.6308 8.74738 13.067 8.73157 13.7799 8.75326C13.3708 9.70619 12.5762 10.1437 11.9812 12.3991C11.3545 14.775 11.2707 17.455 11.1641 19.9351C11.1366 20.5784 11.1445 22.0005 11.0261 22.5575C10.8728 23.2822 9.36907 22.5859 9.11903 23.3997C8.807 24.4151 10.2282 24.3851 10.8999 24.1617L10.8978 26.5834C9.78656 26.8593 10.3703 26.643 9.80862 26.7189C9.50653 26.7593 9.27699 27.0401 9.29406 27.3918C9.33492 28.2539 10.3228 27.9685 11.0445 27.9509C11.2491 30.4543 11.3041 31.2231 10.5815 33.9494C10.5991 33.3023 10.0386 33.2606 9.44237 33.2731C9.40864 32.4423 9.64491 31.6493 9.5632 30.6497C9.24446 26.7401 6.02192 20.413 5.44901 15.315C5.83275 15.3542 7.14065 15.5892 6.91901 14.5608C6.75985 13.8241 5.8653 14.2396 5.33487 13.8808C5.24861 13.77 5.25732 13.017 5.25732 12.7908C5.25732 9.96743 6.12398 7.86741 7.40315 6.06194C7.26232 7.29737 9.17696 7.7303 9.59741 7.32158C9.78407 7.14032 10.0891 6.41028 9.13279 6.18032C8.29278 5.97779 8.29941 5.42403 7.62694 5.78692ZM10.8041 1.28147C11.3995 1.18856 12.5562 1.19023 13.1287 1.31645C13.4849 1.3948 13.3858 2.41938 13.4137 2.74106C12.5178 2.92107 11.1611 2.87691 10.4907 2.38691C10.5461 2.20312 10.6153 1.31064 10.8041 1.28147Z" fill="#CCAE9C"/>
</svg>
