<svg width="50" height="47" viewBox="0 0 50 47" fill="none" xmlns="http://www.w3.org/2000/svg">
<path fill-rule="evenodd" clip-rule="evenodd" d="M32.7828 31.8704C33.2729 32.7113 33.639 33.7175 34.0606 34.6618C34.7074 36.1109 37.4204 42.0917 37.7072 43.0239C34.2392 43.9502 30.0424 43.0211 28.0858 42.0878L32.7828 31.8704ZM39.0143 42.6267C38.4989 41.3252 36.0555 35.9868 35.3959 34.4464C35.041 33.618 34.4245 32.5018 34.1654 31.7204C34.7511 31.8351 35.3443 32.1347 35.8359 32.3631L46.3056 37.1348C45.0372 39.417 40.8068 42.4034 39.0143 42.6267ZM19.8911 34.8831C20.6004 34.6003 20.9716 34.5004 21.3362 34.3876C22.7542 33.9494 30.9115 31.416 31.4991 31.3585C31.4495 31.7697 27.2281 41.1035 26.9252 41.5018C23.4967 39.8956 20.8286 36.7349 19.8911 34.8831ZM30.8747 30.0824C29.2406 30.5187 27.5865 31.1485 25.9499 31.6549C25.6775 31.7392 19.3445 33.703 19.3323 33.6999C18.2804 32.2581 17.6364 26.4164 18.5496 24.5666L30.8747 30.0824ZM34.4424 45.6833C31.539 45.6833 27.0011 44.2714 24.4755 42.7062C20.0943 39.9908 16.62 35.6182 15.8631 30.4067C15.4384 27.4829 15.8623 25.8148 16.5387 23.6818C16.7572 23.7547 16.8927 23.802 17.3203 24.0405C16.994 25.1376 16.892 26.0028 16.8318 27.2589C16.6642 30.7514 17.4719 33.2529 19.0298 36.0408C20.0998 37.9557 22.5596 40.4565 24.4869 41.6569C25.2012 42.1015 25.9331 42.5045 26.681 42.861C30.4817 44.6708 34.7027 45.2767 39.1715 44.0414C40.9514 43.5495 42.6152 42.622 44.0243 41.5422C44.6339 41.0753 45.8824 39.9372 46.7034 38.9419C47.0828 38.4821 47.4036 37.9871 47.5384 37.615L48.3833 37.9639C48.202 39.157 45.807 41.6362 44.7074 42.4873C41.9498 44.6235 38.3246 45.6833 34.4424 45.6833ZM23.1798 43.4626C21.428 43.998 19.8462 44.2686 17.4855 44.1307C13.1324 43.8765 9.20017 42.3572 6.13818 39.0923C3.46921 36.2449 2.4466 33.9831 1.56387 30.1627C0.975403 27.6137 1.28526 24.5219 2.03906 22.1508C3.41458 17.8221 6.42617 14.3159 10.3342 12.0642C12.4631 10.8382 14.7189 10.2406 17.0596 10.2178C16.831 10.8872 15.2207 12.0043 16.5903 12.334C17.2542 12.4942 17.527 11.9827 18.1678 11.2084C18.3214 11.0228 18.4496 10.9385 18.5758 10.7556C18.822 11.0846 18.9908 11.1198 19.498 11.4935C20.0631 11.9094 20.3276 11.7183 20.6906 11.3266C20.768 10.8785 20.6187 10.6772 20.5167 10.2801C21.904 10.3921 23.2607 10.7815 24.5014 11.2855C27.9549 12.6884 30.7036 14.9488 32.6801 18.0829C34.2134 20.5147 35.177 23.2345 35.3923 26.3949C35.4283 26.9201 35.2685 29.9723 34.9609 30.373C33.7304 29.99 22.6698 25.0256 19.5906 23.5255C16.046 21.7994 15.8487 21.4497 15.1621 23.5267C13.6459 28.1151 14.2547 31.6691 16.1124 35.6781C16.4571 36.4215 17.1233 37.3 17.5551 37.9538C18.4387 39.2901 19.804 40.7812 21.0071 41.8543C21.4694 42.2664 22.6401 43.1664 23.1798 43.4626ZM19.5351 6.95563C19.6403 5.43165 20.5226 3.47332 21.2885 2.64655C22.3784 1.46994 24.1411 1.3822 26.1578 1.4594C26.1156 3.58339 25.3985 4.79015 24.3365 5.78691C23.3689 6.696 21.1611 7.03632 19.5351 6.95563ZM19.11 3.84699C19.1096 3.70678 19.1103 2.76519 19.1025 2.60775C19.0787 2.13775 18.9756 1.6717 18.5223 1.69834C18.1331 1.72142 17.8634 2.05943 17.8447 2.46012C17.8185 3.01977 17.8146 3.51252 17.8158 3.87869C17.8216 5.48341 17.8666 7.137 17.8037 8.74167C17.1429 8.78514 16.4434 8.8403 15.9581 8.91125C10.1939 9.75413 4.67591 13.4946 1.98902 18.7237C-0.148499 22.8848 -0.667418 28.6916 0.943715 33.1252C2.47081 37.3251 5.05655 40.6222 8.89582 43.0031C10.6312 44.0794 12.5698 44.8568 14.7749 45.236C18.0088 45.7922 21.6562 45.6856 24.7335 44.4362C25.8339 45.0092 27.5607 45.7013 28.8674 46.0977C32.9665 47.3408 36.9374 47.2676 40.6134 46.0742C44.2839 44.8823 47.9085 41.9989 49.7115 38.5827C50.4157 37.2479 49.8131 37.1818 48.0969 36.4403C46.1282 35.5892 44.0982 34.6571 42.1451 33.7421C41.0557 33.2322 36.8299 31.4242 36.2793 30.9801C36.8644 27.4598 36.8925 24.4392 35.6545 21.0228C34.3814 18.0723 33.3858 16.0431 30.6304 13.5893C28.1577 11.3866 24.8776 9.70713 21.789 9.10435C21.0192 8.95395 20.2272 8.86734 19.1354 8.79138C19.1486 8.72989 19.1264 8.6085 19.1416 8.46869C19.7059 8.20314 22.7574 8.55206 24.8636 7.09622C26.3915 6.04028 27.1066 4.42313 27.4958 2.54859C27.6013 2.04063 27.658 1.45981 27.6142 0.929448C27.5653 0.343902 27.2187 0.163775 26.6505 0.0889419C25.5881 -0.0512649 24.3458 -0.0258304 23.3088 0.166123C22.0778 0.393664 21.6831 0.658045 20.8547 1.25925C19.8192 2.01084 19.2409 3.23363 19.11 3.84699Z" fill="#CCAE9C"/>
</svg>
