<svg width="46" height="50" viewBox="0 0 46 50" fill="none" xmlns="http://www.w3.org/2000/svg">
<path fill-rule="evenodd" clip-rule="evenodd" d="M26.3974 36.6536C28.5227 36.8731 30.9283 36.6511 32.0016 36.4078C34.477 35.8477 37.1916 34.6355 39.2171 33.0362C41.0697 31.5733 41.7 30.3383 42.8473 28.8704C42.8523 30.1408 41.5907 33.3253 41.0563 34.3594C39.2516 37.852 35.2846 39.843 31.2992 39.1061C29.0691 38.6936 27.2515 37.415 26.3974 36.6536ZM22.6774 25.8444C23.0308 24.4181 24.1194 22.8545 25.2185 22.0274C23.2583 22.3867 22.1659 22.3489 20.2127 22.0117C21.8656 23.8916 22.2586 24.6522 22.6774 25.8444ZM14.0588 20.2593C12.2121 20.0178 10.4543 20.3953 8.91328 20.9791C8.13898 21.2723 5.73963 22.5451 4.9337 23.151C5.82571 23.1232 6.85241 22.7855 7.86159 22.7339C10.4423 22.6017 13.0808 23.2042 15.3541 24.2505C18.3947 25.6498 20.1375 27.0445 21.97 29.6792C21.8993 27.7119 21.2157 26.1143 20.3557 24.7832C18.8471 22.4466 16.9588 20.6394 14.0588 20.2593ZM2.55807 28.7893C2.96435 29.359 3.32365 29.9745 3.75898 30.525C6.14339 33.5398 9.4842 35.4215 13.3153 36.3745C15.7308 36.9759 17.3231 36.7263 19.1029 36.5679C15.9458 40.1116 8.11071 40.8398 4.4231 34.4156C3.95321 33.5968 2.52519 30.0127 2.55807 28.7893ZM43.7393 24.9986C43.4786 25.7018 41.1728 28.8766 40.5877 29.7478C39.4225 31.1775 38.086 32.3771 36.3981 33.329C28.566 37.746 19.8405 34.8996 26.0069 28.633C27.37 27.2474 28.8641 26.3214 30.6385 25.4735C35.1041 23.339 38.9672 24.1178 43.7393 24.9986ZM1.71144 25.0423C2.69486 24.7262 7.32021 24.0567 8.51364 24.0572C15.9766 24.0604 23.497 30.6036 20.9733 33.9602C18.4562 37.3072 8.91286 34.9441 4.88839 29.7981C4.31537 29.0658 3.81638 28.2841 3.31199 27.4927L1.95057 25.4573C1.7231 25.1158 1.8811 25.4053 1.71144 25.0423ZM23.3913 29.8056C23.2129 28.0192 24.3103 25.6652 25.0759 24.3411C25.8822 22.9461 27.4594 21.6649 29.099 20.9837C31.8152 19.8556 33.9485 20.029 36.0979 20.817C37.6419 21.3833 39.2258 22.1086 40.4929 23.1656C36.1957 22.8574 34.7378 22.1514 29.9952 24.3041C27.7131 25.3404 25.3532 26.9634 23.909 28.9997L23.3913 29.8056ZM14.6006 6.65912C16.8919 6.40253 19.5869 8.6027 20.5965 10.0606C21.6041 11.5152 21.8989 12.6941 21.9825 13.9374C22.0661 15.175 22.0744 17.0204 22.0715 18.1793L23.4109 18.1765C23.3855 16.7227 23.3846 15.1899 23.4554 13.9644C23.5252 12.7477 23.7926 11.5938 24.7669 10.1716C25.8959 8.52331 28.3319 6.58428 30.789 6.63497C34.492 11.3954 30.9611 20.9014 22.7597 20.9222C16.2132 20.9384 10.4897 13.9429 14.6006 6.65912ZM1.33302 29.5632C2.09482 32.7909 3.38851 37.1783 7.60382 39.381C11.3055 41.315 16.3775 40.8015 19.4825 38.0391C21.0527 36.6423 20.8015 36.5779 21.6174 35.6394C21.8527 35.3686 21.6818 35.4593 22.0032 35.3341L22.0636 37.6033L22.0498 50.0001L23.2745 49.9873L23.2587 39.4309L23.3019 34.9282C23.9282 35.9458 24.7781 36.8935 25.599 37.6982C26.5134 38.5955 27.6137 39.2355 28.771 39.7237C33.8828 41.8806 39.7053 39.9174 42.4298 34.5748C43.6582 32.1659 44.0337 29.3545 44.8787 26.7946C45.5016 23.6239 46.6064 24.858 42.2182 22.5069C38.1447 20.3242 35.2954 18.2201 30.3569 19.1033C30.9441 18.8734 32.0444 17.116 32.422 16.3821C33.0299 15.2007 33.417 13.8896 33.5663 12.4334C33.8184 9.97786 33.2736 8.22223 32.212 6.23579C31.6668 5.21572 31.814 5.2565 30.5299 5.22075C29.9515 3.96574 28.2162 1.62086 26.9454 1.06201C27.1675 2.02588 27.259 1.68822 27.0062 2.59141C27.6819 3.05341 28.9689 4.70304 29.0932 5.47524C27.9476 5.6345 26.1699 6.70737 25.3149 7.47706C24.747 7.9885 22.9938 9.9824 22.7331 10.7892L22.4345 10.2914C21.2186 8.42305 20.4069 7.44208 18.2712 6.1842C17.7543 5.87985 16.7106 5.46442 16.2826 5.37833C16.3147 5.31431 16.4061 5.15379 16.4519 5.07183C16.8548 4.34913 17.7389 3.02136 18.2682 2.83173C17.9697 2.06078 18.2346 1.98015 18.3972 1.16054C16.9792 1.79052 15.6593 3.92874 14.8954 5.21699C13.5939 5.29393 13.9444 5.07477 13.3107 6.10936C12.2773 7.79683 11.6153 10.118 11.8632 12.2695C11.9746 13.2384 11.9962 13.5515 12.2408 14.3624L12.7676 15.795C13.3228 17.0038 14.0513 18.225 15.0447 19.1054C10.2888 18.2296 6.94597 20.5546 3.35856 22.4375C2.3755 22.9535 1.09849 23.5727 0.00238256 24.2206C-0.06003 24.8747 1.12264 28.6721 1.33302 29.5632Z" fill="#CCAE9C"/>
<path fill-rule="evenodd" clip-rule="evenodd" d="M19.2023 2.33364C20.4941 1.11743 23.3763 1.07636 25.4355 1.85484C26.1514 2.12554 26.7064 2.3515 25.9849 3.22582C24.4548 5.08032 19.1004 4.75314 19.2023 2.33364ZM17.967 1.58216C17.7541 2.65609 18.0042 3.93281 18.933 4.61743C19.9109 5.33817 21.5491 5.79065 22.7597 5.78515C23.7465 5.78073 24.8814 5.52558 25.6704 5.11206C27.1942 4.31367 27.8067 3.21876 27.4224 1.55042C27.1198 0.693026 24.0232 0.00284141 22.7603 3.16505e-05C21.7055 -0.00235964 20.9212 0.130608 19.9573 0.447394C19.4539 0.612811 18.1888 1.10779 17.967 1.58216Z" fill="#CCAE9C"/>
</svg>
