<svg width="78" height="103" viewBox="0 0 78 103" fill="none" xmlns="http://www.w3.org/2000/svg">
<path d="M44.3032 7.53387C44.3067 7.49834 44.3227 7.46522 44.3484 7.44044C44.3741 7.41566 44.4077 7.40084 44.4433 7.39863C47.3149 7.24231 50.1923 7.57255 52.9539 8.37543C55.4741 9.12495 57.7306 10.5734 59.462 12.5532C61.1391 14.5569 62.4657 17.7678 61.6898 20.4127C61.6781 20.4517 61.6517 20.4845 61.6161 20.5042C61.5806 20.5239 61.5387 20.5288 61.4995 20.5179C61.4711 20.5083 61.4458 20.4911 61.4264 20.4681C61.407 20.4452 61.3942 20.4174 61.3894 20.3877C61.3082 19.6684 61.1709 18.9566 60.9789 18.2587C60.3457 15.8792 59.03 13.7372 57.1942 12.0973C53.6898 9.00159 48.8989 8.22516 44.4133 7.7092C44.3945 7.70507 44.3767 7.69722 44.3609 7.68613C44.3452 7.67505 44.3318 7.66093 44.3215 7.64461C44.3113 7.6283 44.3044 7.61011 44.3012 7.59109C44.2981 7.57208 44.2987 7.55263 44.3032 7.53387ZM37.2945 15.0478L38.4559 14.9476C42.516 14.5869 46.7612 14.5118 50.7111 15.6639C54.661 16.8161 58.4307 19.4209 60.0477 23.253L60.1629 23.5235C60.1777 23.5549 60.2026 23.5804 60.2337 23.596C60.2647 23.6115 60.3001 23.6162 60.3341 23.6093C60.3681 23.6024 60.3988 23.5842 60.4213 23.5578C60.4438 23.5313 60.4568 23.4981 60.4582 23.4634C60.4448 23.0586 60.3929 22.656 60.303 22.2612C59.4119 18.2988 54.7411 15.4235 51.1917 14.4817C47.1217 13.4047 42.4709 13.6151 38.3858 14.4817L37.2494 14.7322C37.213 14.7383 37.1805 14.7586 37.1589 14.7887C37.1373 14.8187 37.1285 14.856 37.1343 14.8925C37.1298 14.9146 37.1303 14.9374 37.1358 14.9593C37.1413 14.9811 37.1516 15.0015 37.1661 15.0188C37.1805 15.0361 37.1986 15.05 37.2191 15.0593C37.2396 15.0687 37.2619 15.0733 37.2845 15.0728L37.2945 15.0478ZM27.6575 53.8747C27.7971 53.9535 27.9194 54.0595 28.0173 54.1865C28.1151 54.3135 28.1865 54.4589 28.2271 54.614C28.2677 54.7691 28.2768 54.9308 28.2538 55.0895C28.2307 55.2482 28.1761 55.4006 28.0931 55.5378C28.0078 55.6939 27.8925 55.8316 27.7538 55.9429C27.6151 56.0542 27.4558 56.1369 27.285 56.1863C27.1142 56.2356 26.9353 56.2507 26.7586 56.2305C26.582 56.2103 26.4111 56.1554 26.2558 56.0688C25.7852 55.7682 25.9053 54.9868 26.0055 54.7062C25.7973 55.0213 25.6859 55.3905 25.6851 55.7682C25.6854 56.1392 25.7947 56.502 25.9993 56.8114C26.2039 57.1208 26.4948 57.3632 26.836 57.5086C27.1771 57.654 27.5534 57.6959 27.9181 57.6291C28.2829 57.5623 28.6199 57.3897 28.8875 57.1329C29.1551 56.876 29.3413 56.5462 29.4231 56.1843C29.5049 55.8224 29.4787 55.4445 29.3477 55.0974C29.2167 54.7503 28.9866 54.4494 28.6861 54.232C28.3857 54.0147 28.028 53.8904 27.6575 53.8747ZM23.1519 16.9163L24.1932 16.2801C24.2237 16.2614 24.2469 16.2328 24.2588 16.199C24.2706 16.1652 24.2705 16.1284 24.2583 16.0947C24.2521 16.076 24.2423 16.0587 24.2292 16.044C24.2162 16.0292 24.2003 16.0172 24.1825 16.0088C24.1647 16.0004 24.1454 15.9956 24.1257 15.9949C24.1061 15.9942 24.0864 15.9975 24.0681 16.0046L22.9166 16.4554C18.4461 18.1485 14.5763 21.8153 12.2033 25.9029C10.1057 29.5246 8.53879 34.5239 9.24968 38.7517C9.25634 38.7846 9.27283 38.8146 9.29698 38.8379C9.32112 38.8611 9.35177 38.8765 9.38484 38.8819C9.40497 38.884 9.42531 38.882 9.44464 38.876C9.46396 38.87 9.48188 38.8601 9.49731 38.847C9.51274 38.8339 9.52536 38.8179 9.53442 38.7997C9.54349 38.7816 9.54879 38.7619 9.55004 38.7417C9.55004 38.4762 9.61513 38.2107 9.65518 37.9452C11.0069 29.2942 15.5725 21.5248 23.1519 16.9163ZM64.8787 19.451C65.2372 19.2517 65.6327 19.128 66.0408 19.0875C66.4489 19.047 66.861 19.0906 67.2517 19.2155C67.8904 19.5323 68.4063 20.0519 68.7185 20.6932C69.8749 22.697 70.1653 25.0914 70.5257 27.3556C70.5295 27.3923 70.5472 27.4263 70.5751 27.4504C70.603 27.4746 70.639 27.4873 70.6759 27.4858C70.6958 27.4859 70.7156 27.4818 70.7339 27.4739C70.7522 27.466 70.7686 27.4544 70.7823 27.4398C70.7959 27.4252 70.8064 27.408 70.813 27.3892C70.8197 27.3704 70.8225 27.3504 70.8211 27.3305C70.8211 27.3305 70.8211 27.0951 70.8211 26.6844C70.771 24.4101 70.5157 21.7853 69.2391 19.8417C68.7644 19.0442 68.0121 18.4502 67.1265 18.1736C65.5596 17.7829 63.8324 18.8398 62.8712 20.017C62.7245 20.1883 62.5937 20.3728 62.4807 20.568C62.4757 21.0589 64.5333 19.6263 64.8887 19.451H64.8787ZM25.7401 46.2957C27.6421 46.8069 29.5826 47.1621 31.5423 47.3576C33.1193 47.4779 33.8752 46.3207 34.496 45.2988C35.1168 44.2769 34.1956 43.5756 33.1043 43.3402C31.0467 42.8894 26.2558 42.3383 22.8215 43.5606C17.0243 45.6044 15.4273 49.0307 15.5175 50.8441C15.5175 51.1797 15.8128 51.1096 15.8929 50.8441C16.11 50.2407 16.3955 49.6642 16.744 49.1259C17.0794 48.5849 18.1057 47.2124 20.5637 46.2055C23.0218 45.1986 23.7827 45.7747 25.7502 46.2957H25.7401ZM35.2519 71.5324C34.9656 71.3642 34.7299 71.1219 34.5696 70.8311C34.4092 70.5402 34.3302 70.2114 34.3408 69.8794C34.3587 69.2667 34.5089 68.6651 34.7814 68.1161L34.8865 67.8706C34.9007 67.8395 34.9035 67.8043 34.8943 67.7713C34.8852 67.7383 34.8647 67.7096 34.8364 67.6903C34.8046 67.6664 34.7645 67.6561 34.7251 67.6618C34.6856 67.6674 34.6501 67.6885 34.6262 67.7204C33.9203 68.6872 33.4297 69.9795 33.9754 71.1417C34.4159 72.0884 35.5874 72.6094 36.4384 71.8129C36.4929 71.7639 36.5432 71.7102 36.5886 71.6526C36.7255 71.6099 36.8664 71.5814 37.0091 71.5675C37.1071 71.5631 37.2049 71.58 37.2957 71.6172C37.3864 71.6544 37.468 71.711 37.5348 71.7829C38.9916 73.1604 40.5385 73.1755 42.0404 71.7829C42.1071 71.711 42.1887 71.6544 42.2795 71.6172C42.3703 71.58 42.468 71.5631 42.566 71.5675C42.7071 71.5814 42.8464 71.6099 42.9815 71.6526C43.0264 71.7092 43.0749 71.7627 43.1267 71.8129C43.3171 71.9879 43.5494 72.1107 43.8011 72.1695C44.0528 72.2283 44.3154 72.2211 44.5635 72.1486C44.7956 72.0626 45.0073 71.9291 45.1849 71.7566C45.3625 71.5841 45.5021 71.3763 45.5948 71.1467C46.1404 69.9846 45.6498 68.6921 44.944 67.7254C44.9192 67.6931 44.8827 67.672 44.8425 67.6663C44.8022 67.6607 44.7614 67.6711 44.7287 67.6953C44.7021 67.7159 44.6831 67.745 44.675 67.7777C44.6668 67.8104 44.6699 67.8449 44.6837 67.8757L44.7888 68.1211C45.0619 68.6696 45.2106 69.2717 45.2243 69.8844C45.237 70.2162 45.1595 70.5452 44.9999 70.8364C44.8403 71.1275 44.6047 71.3698 44.3182 71.5374C44.2028 71.5905 44.0773 71.618 43.9502 71.618C43.8232 71.618 43.6977 71.5905 43.5823 71.5374C43.6725 71.4777 43.749 71.3994 43.8068 71.3079C43.8647 71.2164 43.9025 71.1136 43.9177 71.0065C43.9139 70.882 43.8706 70.762 43.7941 70.6638C43.7176 70.5657 43.6119 70.4944 43.4922 70.4604C43.3184 70.4402 43.1424 70.461 42.9781 70.521C42.8138 70.581 42.6658 70.6786 42.546 70.8061C42.2831 71.0282 42.0403 71.2729 41.8201 71.5374C41.5749 71.8453 41.2634 72.094 40.9089 72.2649C40.5544 72.4357 40.166 72.5245 39.7726 72.5245C39.3791 72.5245 38.9907 72.4357 38.6362 72.2649C38.2817 72.094 37.9702 71.8453 37.725 71.5374C37.508 71.2717 37.2667 71.0269 37.0041 70.8061C36.8838 70.6793 36.7358 70.5821 36.5716 70.5221C36.4074 70.4621 36.2316 70.441 36.0579 70.4604C35.9381 70.4949 35.8321 70.5661 35.7548 70.6641C35.6776 70.762 35.633 70.8818 35.6274 71.0065C35.6447 71.1136 35.6839 71.216 35.7425 71.3073C35.801 71.3987 35.8777 71.477 35.9678 71.5374C35.8555 71.5861 35.7343 71.6107 35.6119 71.6098C35.4895 71.609 35.3686 71.5826 35.2569 71.5324H35.2519ZM60.8337 23.5636L60.7336 23.6537L60.6985 23.6838C60.6783 23.7046 60.6643 23.7306 60.6581 23.7589C60.6519 23.7872 60.6538 23.8168 60.6635 23.8441C60.6691 23.8632 60.6786 23.8811 60.6914 23.8964C60.7042 23.9117 60.72 23.9242 60.7379 23.9331C60.7557 23.9421 60.7752 23.9472 60.7952 23.9483C60.8151 23.9493 60.835 23.9463 60.8537 23.9393C61.4889 23.6853 62.1751 23.5851 62.8563 23.6469C63.5375 23.7087 64.1944 23.9308 64.7736 24.2949C65.7653 24.9899 66.5395 25.9523 67.0064 27.0701C67.538 28.3018 67.9504 29.5817 68.2379 30.8921C68.318 31.2278 68.3881 31.5333 68.4531 31.8088C68.5182 32.0843 68.5533 32.3098 68.5983 32.5202C68.6834 32.9159 68.7285 33.1413 68.7285 33.1413C68.7357 33.178 68.7558 33.2108 68.7852 33.2338C68.8147 33.2568 68.8514 33.2684 68.8887 33.2665C68.9938 33.2665 69.0138 32.9309 68.9788 32.465C68.9037 31.378 68.5683 29.5346 68.5082 29.2491C68.2447 27.7193 67.6631 26.2619 66.8011 24.9712C65.5495 23.1929 63.2617 22.1059 61.2442 23.273C61.0998 23.3587 60.9625 23.4559 60.8337 23.5636ZM29.9704 59.3999C27.6144 59.8573 25.1774 59.6439 22.9367 58.7838C21.3904 58.2354 20.0488 57.2268 19.0919 55.8934L19.0669 55.8584C18.838 55.7967 18.627 55.6817 18.4511 55.5228C18.4056 55.485 18.3637 55.4431 18.3259 55.3975L18.2859 55.3525C18.258 55.3235 18.2425 55.2849 18.2425 55.2447C18.2425 55.2046 18.258 55.166 18.2859 55.1371C18.3119 55.1175 18.3435 55.107 18.376 55.107C18.4085 55.107 18.4401 55.1175 18.4661 55.1371L18.5112 55.1671L18.6413 55.2322C18.7963 55.3142 18.967 55.3621 19.1419 55.3725C19.7962 55.3592 20.4236 55.1101 20.9091 54.6712L21.0293 54.581C20.9292 54.6111 20.8341 54.6411 20.7339 54.6612C20.1959 54.7957 19.6401 54.8447 19.0869 54.8064C18.8666 54.8064 18.6764 54.7613 18.5512 54.7413L18.351 54.7012C18.3313 54.6988 18.3124 54.6924 18.2953 54.6824C18.2782 54.6724 18.2634 54.6591 18.2517 54.6431C18.2399 54.6272 18.2316 54.609 18.2272 54.5897C18.2227 54.5704 18.2223 54.5504 18.2258 54.5309C18.232 54.4928 18.2526 54.4585 18.2834 54.4352C18.3141 54.4119 18.3527 54.4013 18.391 54.4057H18.5913C18.7574 54.4254 18.9246 54.4355 19.0919 54.4357C19.6018 54.4367 20.1086 54.3573 20.5938 54.2003C20.8155 54.1337 21.0328 54.0534 21.2446 53.9599H21.0443C20.4921 54.0047 19.9363 53.9625 19.3973 53.8346C19.177 53.7845 19.0018 53.7244 18.8966 53.6844L18.7064 53.6142C18.6877 53.608 18.6703 53.5981 18.6554 53.5852C18.6404 53.5722 18.6282 53.5565 18.6194 53.5388C18.6105 53.5211 18.6053 53.5019 18.6039 53.4821C18.6025 53.4624 18.605 53.4426 18.6113 53.4239C18.6249 53.3878 18.6514 53.3582 18.6856 53.3406C18.7198 53.323 18.7593 53.3188 18.7965 53.3287L18.9918 53.3838C19.1069 53.4139 19.2821 53.4589 19.4924 53.494C19.9998 53.575 20.5169 53.575 21.0243 53.494C21.4736 53.426 21.9171 53.3238 22.3509 53.1884C22.1807 53.1884 22.0105 53.1884 21.8503 53.1884C21.2965 53.1648 20.7495 53.0567 20.2283 52.8678C20.0576 52.8054 19.8904 52.7335 19.7277 52.6524L19.5424 52.5623C19.5066 52.545 19.4791 52.5141 19.466 52.4766C19.4529 52.439 19.4551 52.3978 19.4724 52.3619C19.4897 52.3273 19.5193 52.3004 19.5554 52.2865C19.5915 52.2726 19.6316 52.2727 19.6676 52.2868L19.8528 52.3669C20.0165 52.4314 20.1836 52.4866 20.3535 52.5322C20.8408 52.6759 21.3474 52.7435 21.8553 52.7326C22.1907 52.7222 22.5252 52.6904 22.8566 52.6374C22.4659 52.533 22.0894 52.3816 21.7352 52.1866C21.5747 52.1022 21.4192 52.0085 21.2696 51.9061L21.1044 51.7908C21.0878 51.7798 21.0736 51.7655 21.0626 51.7489C21.0516 51.7323 21.0441 51.7136 21.0403 51.694C21.0366 51.6745 21.0368 51.6543 21.0409 51.6348C21.045 51.6153 21.053 51.5968 21.0643 51.5805C21.0858 51.5489 21.1184 51.5267 21.1556 51.5184C21.1928 51.51 21.2317 51.5161 21.2646 51.5354L21.4398 51.6406C21.5858 51.7267 21.7362 51.8053 21.8904 51.876C22.2475 52.0375 22.6221 52.1568 23.0067 52.2317L23.1169 52.1816C23.202 52.1415 23.3221 52.0814 23.4823 52.0163C23.6425 51.9511 23.8428 51.871 24.0731 51.7958C24.3276 51.7044 24.5866 51.6259 24.849 51.5604C25.1394 51.4853 25.4548 51.4151 25.7952 51.355C26.148 51.2923 26.504 51.2488 26.8615 51.2248C28.6143 51.0227 30.3788 51.4896 31.8027 52.5322C32.7438 53.2536 33.4247 54.2003 34.2707 55.0118C34.2999 55.0397 34.3169 55.0781 34.3178 55.1185C34.3187 55.1589 34.3036 55.198 34.2757 55.2272C34.2478 55.2565 34.2095 55.2734 34.1691 55.2743C34.1288 55.2753 34.0897 55.2601 34.0605 55.2322C34.0605 55.2322 33.9203 55.087 33.69 54.8215C33.4597 54.556 33.1443 54.1903 32.7338 53.7795C31.5914 52.6166 30.068 51.9051 28.4435 51.7758C27.6282 51.6998 26.8069 51.7166 25.9955 51.8259C25.5899 51.881 25.1845 51.9511 24.784 52.0413C24.4467 52.1701 24.0955 52.2592 23.7377 52.3068C24.1312 52.3293 24.5256 52.3293 24.9191 52.3068L25.4898 52.2768C25.9869 52.191 26.4883 52.1324 26.9917 52.1014C27.947 52.022 28.9086 52.1344 29.8198 52.432C30.7311 52.7296 31.5738 53.2065 32.2983 53.8346C32.8072 54.2872 33.2686 54.7908 33.675 55.3374C34.0404 55.8083 34.3008 56.3393 34.8514 56.6448L35.0417 56.74C35.0779 56.7583 35.1054 56.79 35.1185 56.8284C35.1316 56.8668 35.1292 56.9088 35.1118 56.9454C35.0946 56.9788 35.0655 57.0045 35.0303 57.0174C34.995 57.0304 34.9563 57.0297 34.9215 57.0155L34.7213 56.9454C34.5183 56.8589 34.3266 56.7479 34.1506 56.6148C33.5048 56.1138 33.0692 55.3374 32.4685 54.7714C31.8343 54.1558 31.1038 53.6481 30.3058 53.2686C30.1656 53.2035 30.0255 53.1484 29.8803 53.0933C30.5311 53.614 30.9812 54.3446 31.1538 55.1604C31.3263 55.9762 31.2106 56.8266 30.8264 57.5665C30.7113 57.797 30.2908 58.5684 29.9854 58.6335C31.0573 58.5477 32.1017 58.2515 33.0592 57.7619L33.2094 57.6718C33.2441 57.6511 33.2854 57.6448 33.3247 57.6541C33.3639 57.6635 33.398 57.6878 33.4197 57.7218C33.705 58.2228 30.9166 59.1194 30.5611 59.2246C30.3458 59.3048 30.1606 59.3499 29.9704 59.3849V59.3999ZM25.1895 58.6285C24.501 58.0497 24.0434 57.2425 23.9001 56.3543C23.7567 55.466 23.9372 54.5558 24.4085 53.7896C24.639 53.445 24.9329 53.1475 25.2746 52.9129C24.2323 53.0996 23.262 53.5711 22.4711 54.2754C21.7702 54.8866 21.0794 55.5829 20.1482 55.8183C19.9404 55.8702 19.7265 55.8938 19.5124 55.8885L19.6576 56.0638C20.9992 57.5665 23.187 58.3931 25.1644 58.6235L25.1895 58.6285ZM30.5511 56.1589C30.6393 55.5017 30.5196 54.8334 30.209 54.2477C29.8984 53.662 29.4123 53.1882 28.819 52.8929C28.754 52.8619 28.6871 52.8351 28.6187 52.8127C28.0824 52.7291 27.5389 52.7005 26.9967 52.7276H26.7113C26.3854 52.8436 26.0809 53.0129 25.8102 53.2285C25.3372 53.5832 24.9666 54.0571 24.7362 54.6018C24.5058 55.1465 24.4238 55.7425 24.4986 56.3292C24.5891 56.8712 24.8223 57.3792 25.1743 57.801C25.5263 58.2227 25.9843 58.543 26.5011 58.7287C26.7464 58.7287 27.0017 58.7588 27.227 58.7638C27.6025 58.7638 27.9729 58.7638 28.3334 58.7638C28.9001 58.5675 29.4044 58.2236 29.7942 57.7675C30.184 57.3115 30.4453 56.7597 30.5511 56.169V56.1589ZM8.93928 52.9981C8.93928 53.499 9.70023 53.469 9.6702 52.9981C9.58509 51.6406 8.04317 51.4402 7.28222 52.4521C6.25094 53.8196 6.64144 57.251 7.70276 58.4632C7.70698 58.4684 7.71231 58.4727 7.71837 58.4756C7.72444 58.4784 7.73107 58.48 7.73779 58.48C7.74451 58.48 7.75115 58.4784 7.75721 58.4756C7.76327 58.4727 7.76861 58.4684 7.77284 58.4632C7.81143 57.807 7.72652 57.1494 7.52253 56.5246C7.4018 55.9278 7.34308 55.3201 7.34731 54.7113V54.2404C7.27722 53.2986 7.80787 52.8879 8.93928 53.0081V52.9981ZM10.336 64.5645C10.3259 64.7855 10.3892 65.0036 10.516 65.1849C10.6427 65.3661 10.8259 65.5002 11.0369 65.5664C11.0737 65.5767 11.1125 65.577 11.1495 65.5673C11.1864 65.5576 11.2201 65.5383 11.2472 65.5113C11.7478 64.9652 11.3823 64.1688 11.0519 63.6378C10.1308 62.135 9.55004 60.4819 10.1157 58.7086C10.1908 58.4732 9.98558 58.4432 9.81537 58.5083C9.41988 58.6586 9.23966 59.2897 9.19961 59.6654C9.02385 60.7658 9.24381 61.8929 9.82038 62.8463C10.0214 63.1591 10.251 63.4526 10.5062 63.7229C10.6965 63.9233 11.0069 64.2239 10.8066 64.5295C10.6064 64.835 10.5413 64.4693 10.336 64.5745V64.5645ZM67.522 65.4912C67.5493 65.5178 67.583 65.5369 67.6199 65.5465C67.6567 65.5562 67.6954 65.5561 67.7322 65.5463C67.9442 65.4811 68.1284 65.3473 68.2562 65.166C68.3839 64.9847 68.4479 64.7661 68.4381 64.5445C68.2329 64.4393 68.1227 64.7449 67.9675 64.4894C67.8123 64.2339 68.0777 63.8833 68.2679 63.6829C68.5217 63.4113 68.7512 63.118 68.9538 62.8063C69.5303 61.8529 69.7503 60.7257 69.5745 59.6254C69.5295 59.2497 69.3543 58.6235 68.9588 58.4682C68.7836 58.4031 68.5783 58.4332 68.6584 58.6686C69.2291 60.4419 68.6584 62.0949 67.7172 63.5977C67.3868 64.1387 67.0314 64.9552 67.522 65.5012V65.4912ZM70.9963 58.4782C71.0005 58.4835 71.0059 58.4877 71.0119 58.4906C71.018 58.4935 71.0246 58.495 71.0314 58.495C71.0381 58.495 71.0447 58.4935 71.0508 58.4906C71.0568 58.4877 71.0622 58.4835 71.0664 58.4782C72.1277 57.251 72.5232 53.8196 71.4869 52.4671C70.726 51.4653 69.1841 51.6556 69.099 53.0131C69.0689 53.484 69.8298 53.514 69.8298 53.0131C70.9613 52.8929 71.4852 53.3053 71.4018 54.2504L71.4268 54.7213C71.4318 55.3304 71.3713 55.9384 71.2466 56.5346C71.1215 57.2109 70.8812 57.7769 70.9963 58.4682V58.4782ZM65.4895 70.0597C63.1966 78.7308 57.5496 86.5903 50.6761 92.2458C47.0165 95.2513 42.586 97.756 37.69 97.0397C33.0342 96.3384 29.0743 93.3278 25.7802 90.1369C20.0581 84.5966 15.3923 77.8191 13.3297 70.0597C12.8942 68.4267 12.5738 66.8337 12.2834 65.3309C11.9931 63.8282 11.6827 62.4456 11.4274 61.1382C11.1721 59.8307 10.8817 58.6335 10.7015 57.5565C10.5462 56.6211 10.4409 55.678 10.3861 54.7313C10.351 53.9448 10.351 53.3187 10.3611 52.9079C10.3711 52.4972 10.3611 52.2667 10.3611 52.2667C10.3611 52.2667 10.336 52.1515 10.2759 51.9361C10.1384 51.1834 9.75449 50.4978 9.18459 49.9875C8.92433 49.7789 8.61322 49.6434 8.28327 49.595C7.95332 49.5465 7.61644 49.5869 7.30726 49.712C6.19088 50.2129 5.84045 51.7908 5.74533 52.8879C5.67485 54.2763 5.79103 55.668 6.09076 57.0255C6.38438 58.7506 6.88878 60.4329 7.59262 62.0348C8.27347 63.5376 9.44491 64.8851 9.86543 66.4881C10.1107 67.4248 10.1258 68.4217 10.4762 69.3333C10.7916 70.1549 11.6376 71.3621 12.6339 70.6708C12.754 70.5957 12.9443 70.25 13.1345 70.4053C13.1569 70.4258 13.173 70.4522 13.1809 70.4815C13.1889 70.5107 13.1884 70.5417 13.1795 70.5706L13.1495 70.6558C12.4687 72.2638 10.5963 71.6176 9.78033 70.4504C8.71902 68.9476 9.24466 66.9439 8.58384 65.2758C8.08322 64.0736 7.40738 62.9715 6.83167 61.8094C5.64174 59.5975 4.99804 57.1327 4.95434 54.6211C4.95434 52.8127 5.3298 50.2179 6.87672 49.0758C7.14205 48.8754 6.44118 45.394 6.3761 44.9933C6.15082 43.1849 5.94057 41.3716 5.77536 39.5532C5.40836 36.0153 5.34138 32.4527 5.57512 28.9035C6.07574 22.3413 8.17834 15.8292 12.6539 10.8701C21.5099 1.09194 35.8026 -1.93366 48.3382 1.16708C53.7048 2.49454 61.1641 5.64037 62.656 11.6265C62.7361 11.9471 62.7861 12.1975 62.8162 12.3829L62.9513 12.3378C64.0892 11.9996 65.3011 12.0025 66.4373 12.3462C67.5735 12.6898 68.5841 13.3592 69.3442 14.2714C70.6409 15.7441 71.3467 17.6376 71.9024 19.5261C73.4043 24.7057 73.7147 30.1357 73.4744 35.4907C73.3492 38.1957 73.0839 40.8907 72.7485 43.5706C72.6734 44.1617 71.4268 48.7602 71.8373 48.9907L71.8874 49.0157C73.0539 49.8773 73.5244 51.5204 73.7147 52.9129C73.7779 53.378 73.8147 53.8463 73.8248 54.3155C73.8899 57.9422 72.2679 60.9729 70.721 64.284C70.2185 65.1805 69.8667 66.1536 69.6797 67.1643C69.5946 68.1311 69.7297 69.0578 69.2792 69.9745C68.7786 71.0215 67.2166 72.1987 66.1052 71.2569C65.9714 71.1461 65.8608 71.0099 65.7798 70.8562C65.731 70.775 65.6939 70.6873 65.6697 70.5957L65.6397 70.5105C65.4895 70.0597 66.3255 70.7059 66.4106 70.7309C66.5738 70.7778 66.7449 70.79 66.913 70.7667C67.0811 70.7434 67.2425 70.6851 67.3868 70.5957C67.834 70.2711 68.1558 69.8023 68.298 69.2682C68.6183 68.3515 68.7235 67.3847 68.9638 66.448C69.2349 65.564 69.6256 64.7213 70.1252 63.9434C70.5758 63.1469 71.0313 62.3254 71.4168 61.4387C72.6447 58.6681 73.1873 55.6423 72.9988 52.6174C72.9653 51.9614 72.7948 51.3198 72.4982 50.7339C72.3512 50.4417 72.1395 50.1869 71.8793 49.989C71.619 49.7911 71.317 49.6552 70.9963 49.5918C70.5458 49.5675 70.0985 49.6811 69.714 49.9173C69.3295 50.1535 69.0259 50.5012 68.8436 50.9142C68.4994 51.7474 68.357 52.6503 68.4281 53.5491C68.4782 56.2942 67.8123 59.0343 67.3117 61.7192C66.8061 64.5094 66.2054 67.2996 65.4895 70.0497V70.0597ZM17.4699 30.5766C21.0643 26.7845 25.9354 24.3701 30.9866 23.0626C37.2594 21.4547 44.6136 20.8535 51.0115 22.1159C52.4821 22.3962 53.9152 22.8467 55.2818 23.4584C55.8533 23.7185 56.4025 24.0251 56.9238 24.3751C57.3687 24.6707 57.7859 25.006 58.1704 25.3769C58.7162 25.8971 59.1638 26.5113 59.492 27.1903C59.5758 27.3719 59.6461 27.5594 59.7023 27.7513V27.7964L59.8575 27.7413C61.2392 27.1753 62.8612 27.7764 63.9025 28.7432C64.7786 29.6278 65.4607 30.6856 65.905 31.8489C67.6972 36.0116 68.1578 40.5951 68.4081 45.0784C68.4632 46.0352 68.4782 46.997 68.5332 47.9588C68.5633 48.5048 68.8286 49.3914 68.5332 49.8873C68.7931 49.4312 69.1954 49.073 69.6783 48.8676C70.1611 48.6622 70.698 48.621 71.2066 48.7502C71.216 48.3107 71.2544 47.8722 71.3217 47.4378C71.572 45.1636 72.1327 40.6903 72.1678 40.1693C72.3821 36.9463 72.4289 33.7143 72.3079 30.4864C72.259 27.6558 71.9524 24.8356 71.3918 22.0608C70.5007 18.0534 68.4682 11.7868 63.1265 12.999L62.676 13.1042H62.6509C62.5749 13.1161 62.4971 13.0983 62.4338 13.0545C62.3704 13.0107 62.3263 12.9442 62.3105 12.8688L62.2605 12.6083C62.0907 11.6283 61.7283 10.6919 61.1941 9.85317C58.9213 6.24148 54.4207 4.21773 50.4908 3.04556C45.4485 1.55097 40.1586 1.0792 34.9315 1.65798C25.7401 2.65984 16.4686 7.12812 11.3172 15.0578C8.3886 19.5662 7.05695 24.9562 6.68149 30.3161C6.48539 33.6193 6.52722 36.9323 6.80664 40.2294C6.8567 40.9207 7.78285 48.7452 7.49249 48.8203H7.56257C7.89287 48.7435 8.23514 48.7332 8.56947 48.79C8.90379 48.8468 9.22349 48.9695 9.50999 49.151C9.77032 49.3263 10.3811 49.8322 10.3761 50.1829C10.3761 49.8573 10.3761 49.4916 10.4011 49.0909C10.4261 48.6901 10.4612 48.089 10.4962 47.528C10.8767 41.3615 13.2146 35.0849 17.4699 30.5766ZM64.4582 69.7691C65.4895 65.6515 66.2554 61.4788 67.3267 57.3662C67.7842 55.5638 68.0345 53.7151 68.0727 51.856C68.0873 48.8495 67.8529 45.847 67.3718 42.8793C66.9262 39.6934 66.4757 36.4875 65.4244 33.4519C64.7035 31.3881 63.3468 28.2422 60.7836 28.097C60.5071 28.073 60.2291 28.073 59.9526 28.097L59.6522 28.132H59.6072C59.5742 28.1295 59.5428 28.1172 59.5169 28.0967C59.491 28.0762 59.4719 28.0483 59.462 28.0168C59.449 27.9568 59.4306 27.8981 59.4069 27.8415C59.3448 27.6682 59.2677 27.5006 59.1766 27.3406C56.8387 23.0927 50.2706 22.742 46.0554 22.742C39.9328 22.742 33.73 23.4484 27.9479 25.5422C16.6889 29.6198 9.50499 42.1229 10.8717 53.9048C11.1871 56.6599 12.0632 59.2997 12.769 61.9697C13.4449 64.5395 13.7202 67.1744 14.366 69.7491C16.6439 78.9011 22.9917 86.4901 30.3358 92.1506C33.1143 94.2946 36.3433 96.2833 39.8476 96.113C42.4409 95.9877 44.8238 94.6853 46.9715 93.2326C55.0515 87.8076 62.0552 79.3469 64.4582 69.7842V69.7691ZM50.5209 79.0764C50.5209 79.0764 50.5209 79.1014 50.5209 79.1115H50.4959L49.6498 79.6124C46.417 81.4878 42.7271 82.4278 38.9916 82.3274C35.287 82.2072 31.9528 80.9899 28.7939 79.1215H28.7689V79.0864C28.7665 79.0715 28.7665 79.0563 28.7689 79.0413C28.7666 79.0264 28.7666 79.0112 28.7689 78.9962L28.8089 78.9512H28.859H28.9641L29.4297 79.1165C30.7558 79.6449 32.2338 79.6449 33.5598 79.1165C34.1956 78.841 34.7713 78.4302 35.3971 78.1146C36.0048 77.7718 36.7128 77.6514 37.3996 77.774C38.2507 77.9844 38.8114 78.7107 39.4021 79.3068L39.6474 79.5573C39.5172 79.4371 40.8539 78.2599 40.9841 78.1747C41.5539 77.8002 42.2436 77.6536 42.9165 77.764C44.2882 78.0144 45.3445 79.0864 46.7412 79.382C47.9727 79.5896 49.2378 79.4383 50.3857 78.9462H50.4758H50.5009C50.509 78.9438 50.5177 78.9438 50.5259 78.9462C50.5381 78.9542 50.548 78.9652 50.5547 78.9782C50.5614 78.9911 50.5646 79.0056 50.5641 79.0202C50.5636 79.0348 50.5594 79.049 50.5518 79.0614C50.5442 79.0739 50.5336 79.0842 50.5209 79.0914V79.0764ZM48.183 80.0031C48.0578 80.0031 47.9327 80.0031 47.8025 80.0031C46.825 79.9696 45.8638 79.7432 44.974 79.3369C44.2339 79.0035 43.45 78.7775 42.6461 78.6656C42.184 78.6296 41.7194 78.6897 41.2817 78.8424C40.844 78.995 40.4426 79.2367 40.103 79.5523C40.0092 79.6299 39.9205 79.7136 39.8376 79.8027L39.7425 79.8979C39.7263 79.914 39.7065 79.926 39.6847 79.9329C39.663 79.9399 39.6399 79.9416 39.6174 79.938C39.5869 79.9399 39.5568 79.931 39.5323 79.9129H39.5022L39.3921 79.8378C38.4509 79.2567 37.715 78.5855 36.5235 78.6656C35.1018 78.7608 33.8652 79.6675 32.4685 79.928C32.1302 79.9919 31.7864 80.0221 31.4422 80.0181C31.3187 80.0181 31.1936 80.0181 31.0667 80.0181C31.3871 80.1634 31.7376 80.3137 32.113 80.464C36.9502 82.3051 42.2945 82.3051 47.1317 80.464C47.4871 80.2987 47.8376 80.1684 48.183 80.0031ZM45.5798 83.6749C45.5798 83.6749 45.3745 83.7601 45.0291 83.9204C43.1167 84.812 41.3745 85.6085 39.2018 85.5233C37.2365 85.4004 35.3477 84.7154 33.7601 83.5497C33.6049 83.4445 33.4898 83.3543 33.4047 83.2942L33.2795 83.204C33.2535 83.1845 33.2219 83.174 33.1894 83.174C33.1569 83.174 33.1253 83.1845 33.0993 83.204C33.0671 83.2289 33.0459 83.2653 33.0403 83.3056C33.0347 83.3459 33.0451 83.3867 33.0692 83.4194C34.2889 85.0688 36.0696 86.2145 38.0754 86.6404C39.1095 86.826 40.1702 86.8038 41.1955 86.5751C42.2209 86.3463 43.1905 85.9155 44.0479 85.3079C44.4897 85.0083 44.9143 84.6839 45.3194 84.3361C45.6048 84.0807 45.76 83.9254 45.76 83.9254C45.7908 83.9025 45.8117 83.8686 45.8184 83.8308C45.825 83.7929 45.8169 83.754 45.7958 83.7219C45.7746 83.6899 45.742 83.6671 45.7047 83.6584C45.6673 83.6497 45.6279 83.6556 45.5948 83.6749H45.5798ZM52.3982 53.8597C52.5377 53.9385 52.66 54.0445 52.758 54.1714C52.8559 54.2982 52.9275 54.4434 52.9686 54.5984C53.0096 54.7533 53.0193 54.9149 52.997 55.0737C52.9747 55.2324 52.9209 55.3851 52.8388 55.5228C52.753 55.679 52.6373 55.8168 52.4981 55.9282C52.359 56.0396 52.1992 56.1223 52.028 56.1716C51.8568 56.221 51.6775 56.236 51.5005 56.2158C51.3235 56.1955 51.1522 56.1404 50.9965 56.0537C50.5259 55.7532 50.646 54.9717 50.7512 54.6912C50.5153 55.0393 50.4017 55.4558 50.428 55.8755C50.4543 56.2952 50.6191 56.6943 50.8966 57.0101C51.174 57.326 51.5485 57.5407 51.9611 57.6206C52.3737 57.7005 52.8011 57.641 53.1763 57.4516C53.5515 57.2622 53.8532 56.9535 54.0341 56.5739C54.2151 56.1944 54.2649 55.7654 54.1759 55.3545C54.0869 54.9435 53.864 54.5738 53.5423 54.3032C53.2205 54.0327 52.8181 53.8767 52.3982 53.8597ZM59.1967 54.6211L59.0815 54.591C59.3665 54.8133 59.6796 54.9969 60.0127 55.1371C60.2528 55.2525 60.5174 55.3075 60.7836 55.2973C60.9568 55.2953 61.1276 55.256 61.2843 55.1821C61.3471 55.16 61.4075 55.1315 61.4645 55.097C61.4987 55.0779 61.5389 55.0724 61.5769 55.0817C61.615 55.091 61.6482 55.1143 61.6697 55.1471C61.6889 55.1741 61.6992 55.2065 61.6992 55.2397C61.6992 55.2729 61.6889 55.3053 61.6697 55.3324L61.6247 55.3725C61.5871 55.4184 61.5433 55.4589 61.4945 55.4927C61.3194 55.6379 61.1142 55.7423 60.8938 55.7983L60.8437 55.8784C60.7786 55.9786 60.6835 56.1139 60.5483 56.2892C60.3943 56.4968 60.2271 56.6942 60.0477 56.8803C58.3907 58.5784 55.7073 59.445 53.3845 59.6153C51.2418 59.7756 48.2681 59.435 46.596 57.9573C46.5818 57.9437 46.5705 57.9274 46.5627 57.9093C46.555 57.8912 46.551 57.8718 46.551 57.8521C46.551 57.8324 46.555 57.8129 46.5627 57.7948C46.5705 57.7768 46.5818 57.7604 46.596 57.7469C46.6192 57.7204 46.6509 57.7028 46.6857 57.6973C46.7205 57.6918 46.7561 57.6987 46.7863 57.7168L46.9365 57.807C47.8898 58.3114 48.9391 58.6085 50.0153 58.6786C49.5637 58.2851 49.218 57.7845 49.0098 57.2226C48.8016 56.6608 48.7377 56.0556 48.8238 55.4626C48.9089 54.8064 49.3244 53.484 50.0403 53.2135C49.9251 53.2536 49.815 53.2987 49.7049 53.3487C48.7092 53.8382 47.8195 54.5191 47.0866 55.3525C46.546 55.9285 46.0403 56.72 45.2744 56.9905L45.0741 57.0606C45.0554 57.0678 45.0355 57.0711 45.0154 57.0705C44.9954 57.0698 44.9757 57.0651 44.9575 57.0567C44.9393 57.0483 44.923 57.0363 44.9095 57.0215C44.896 57.0067 44.8856 56.9893 44.8789 56.9704C44.8676 56.9356 44.8689 56.898 44.8826 56.8641C44.8964 56.8302 44.9216 56.8022 44.954 56.7851L45.1492 56.6899C45.6949 56.4244 45.9252 55.9085 46.2706 55.4376C46.6668 54.8826 47.1292 54.378 47.6473 53.9348C48.639 53.0608 49.8509 52.4752 51.1517 52.2417C52.4583 52.0263 53.7549 52.2818 55.0615 52.3419C55.4019 52.3419 55.8275 52.3419 56.263 52.3419C55.5972 52.387 54.666 51.9461 53.9852 51.8409C53.1894 51.7224 52.3815 51.7089 51.5822 51.8009C49.9523 51.9592 48.4241 52.6655 47.2468 53.8046C46.8413 54.2153 46.5259 54.5961 46.2957 54.8465C46.0654 55.097 45.9302 55.2472 45.9302 55.2472C45.9158 55.2618 45.8986 55.2733 45.8797 55.2812C45.8608 55.2891 45.8405 55.2931 45.8201 55.2931C45.7996 55.2931 45.7793 55.2891 45.7604 55.2812C45.7415 55.2733 45.7243 55.2618 45.7099 55.2472C45.6957 55.2337 45.6843 55.2174 45.6766 55.1993C45.6689 55.1812 45.6649 55.1617 45.6649 55.142C45.6649 55.1224 45.6689 55.1029 45.6766 55.0848C45.6843 55.0668 45.6957 55.0504 45.7099 55.0369C45.7099 55.0369 45.8551 54.8966 46.0854 54.6511C47.3069 53.3387 48.3532 52.1465 50.1354 51.5754C51.7717 51.1101 53.5053 51.1101 55.1416 51.5754C55.432 51.6506 55.6923 51.7257 55.9226 51.8109C56.1529 51.896 56.3481 51.9662 56.5083 52.0313C56.6685 52.0964 56.7937 52.1565 56.8788 52.1966L56.9889 52.2467C57.372 52.1719 57.745 52.0525 58.1003 51.891C58.2565 51.8213 58.4086 51.7427 58.5559 51.6556L58.7211 51.5554C58.7384 51.5444 58.7578 51.537 58.7781 51.5336C58.7984 51.5301 58.8191 51.5308 58.8392 51.5354C58.8592 51.5401 58.8781 51.5487 58.8948 51.5607C58.9115 51.5727 58.9256 51.588 58.9363 51.6055C58.9556 51.6384 58.9617 51.6774 58.9534 51.7146C58.945 51.7518 58.9228 51.7844 58.8913 51.8059L58.7211 51.9211C58.5733 52.0237 58.4195 52.1174 58.2605 52.2016C57.9063 52.3966 57.5297 52.548 57.1391 52.6524C57.4705 52.7057 57.8049 52.7375 58.1404 52.7476C58.6483 52.7594 59.1551 52.6918 59.6422 52.5472C59.8121 52.5016 59.9792 52.4465 60.1428 52.382L60.3231 52.3068C60.3409 52.2971 60.3606 52.2912 60.3808 52.2893C60.401 52.2875 60.4214 52.2898 60.4408 52.296C60.4601 52.3023 60.478 52.3124 60.4933 52.3258C60.5086 52.3391 60.521 52.3555 60.5298 52.3738C60.5387 52.3921 60.5437 52.412 60.5446 52.4323C60.5455 52.4527 60.5422 52.4729 60.5351 52.492C60.5279 52.511 60.517 52.5284 60.5029 52.543C60.4888 52.5577 60.4719 52.5694 60.4532 52.5773L60.273 52.6675C60.1528 52.7276 59.9826 52.8027 59.7724 52.8829C59.2513 53.0723 58.7043 53.1804 58.1504 53.2035C57.9802 53.2035 57.8049 53.2035 57.6497 53.2035C58.0833 53.34 58.5268 53.4422 58.9764 53.509C59.4821 53.59 59.9975 53.59 60.5033 53.509C60.7135 53.474 60.8837 53.4289 61.0039 53.3988L61.1891 53.3437C61.229 53.3327 61.2715 53.3375 61.3079 53.3571C61.3443 53.3767 61.3717 53.4096 61.3844 53.4489C61.3941 53.4854 61.3897 53.5243 61.3721 53.5577C61.3544 53.5911 61.3249 53.6167 61.2893 53.6293L61.094 53.6994C60.398 53.939 59.6601 54.0328 58.9263 53.9749H58.7261C58.9378 54.0684 59.1552 54.1487 59.3769 54.2153C59.8621 54.372 60.3689 54.4514 60.8787 54.4508C61.0461 54.4507 61.2132 54.4406 61.3794 54.4207H61.5746C61.5948 54.4171 61.6156 54.4179 61.6355 54.423C61.6554 54.428 61.6741 54.4372 61.6901 54.45C61.7062 54.4628 61.7194 54.4788 61.7288 54.4971C61.7383 54.5154 61.7437 54.5354 61.7448 54.556C61.7492 54.593 61.7392 54.6303 61.7168 54.6602C61.6944 54.69 61.6614 54.7101 61.6247 54.7163L61.4244 54.7564C61.2943 54.7564 61.109 54.8064 60.8838 54.8215C60.3143 54.846 59.7446 54.7783 59.1967 54.6211ZM55.3969 56.5397C55.5068 55.9292 55.4452 55.3001 55.2189 54.7226C54.9926 54.1451 54.6106 53.6417 54.1154 53.2686C53.8551 53.0566 53.5627 52.8875 53.2493 52.7677L52.9289 52.7426C51.7624 52.6925 50.6461 52.8729 49.9252 53.8747C49.643 54.2749 49.4565 54.7347 49.3801 55.2184C49.3037 55.7022 49.3395 56.1971 49.4846 56.6649C49.6216 57.0851 49.8403 57.4741 50.1281 57.8093C50.4159 58.1446 50.7672 58.4196 51.1617 58.6185C51.2999 58.6867 51.442 58.747 51.5872 58.7988C52.4433 58.8289 53.3794 58.914 54.1204 58.4081C54.7545 57.9642 55.2006 57.2999 55.3719 56.5447L55.3969 56.5397ZM58.0352 54.7062C57.5052 54.1869 56.9033 53.7466 56.248 53.3988C55.7432 53.1631 55.2097 52.9946 54.661 52.8979C55.1424 53.2499 55.526 53.7189 55.7757 54.2606C56.0254 54.8023 56.1328 55.3988 56.0878 55.9936C56.048 56.5052 55.9034 57.0031 55.6631 57.4563C55.4229 57.9096 55.092 58.3086 54.6911 58.6285H54.7461C56.7837 58.3881 58.8562 57.6617 60.253 56.0688C60.3185 55.9968 60.3803 55.9216 60.4382 55.8434C60.2186 55.8473 59.9995 55.8203 59.7874 55.7632C59.1257 55.5458 58.5192 55.1869 58.0102 54.7113L58.0352 54.7062ZM56.3431 43.5556C52.9139 42.3433 48.1179 42.8843 46.0604 43.3352C44.969 43.5706 44.0579 44.2669 44.6686 45.2938C45.2794 46.3207 46.0453 47.4728 47.6223 47.3526C49.5836 47.1567 51.5257 46.8015 53.4295 46.2907C55.3919 45.7897 56.1479 45.1936 58.6009 46.2005C61.054 47.2074 62.1053 48.5799 62.4207 49.1209C62.7684 49.6604 63.0555 50.2366 63.2767 50.8391C63.3518 51.1046 63.6322 51.1747 63.6472 50.8391C63.7023 49.0307 62.1153 45.6044 56.3181 43.5606L56.3431 43.5556ZM78 87.1363C77.9858 87.1864 77.959 87.232 77.9222 87.2688C77.8854 87.3057 77.8398 87.3325 77.7897 87.3467C74.4957 88.3085 71.2266 89.1451 69.7798 92.6365C69.1805 94.2655 68.7706 95.9581 68.5583 97.6809C68.5522 97.7199 68.5384 97.7574 68.5177 97.791C68.4969 97.8246 68.4696 97.8537 68.4374 97.8766C68.4052 97.8995 68.3687 97.9157 68.3302 97.9242C68.2916 97.9328 68.2517 97.9335 68.2129 97.9263C67.7122 97.8462 67.7122 96.2532 67.6371 95.8775C67.4888 95.0017 67.2712 94.1391 66.9863 93.2977C66.5435 91.9074 65.7258 90.6663 64.6234 89.7111C62.9663 88.3636 60.7185 87.9278 58.7111 87.3467C58.6726 87.3352 58.6367 87.3163 58.6056 87.2909C58.5744 87.2656 58.5486 87.2343 58.5295 87.199C58.5105 87.1636 58.4986 87.1248 58.4945 87.0849C58.4904 87.0449 58.4943 87.0045 58.5058 86.966C58.5204 86.9191 58.5456 86.8762 58.5795 86.8406C58.6134 86.805 58.6549 86.7776 58.701 86.7606C60.0309 86.398 61.3396 85.9616 62.6209 85.4532C63.7794 84.9639 64.8079 84.2109 65.6246 83.2541C66.9363 81.6311 67.4068 79.392 67.7673 77.3883C67.8224 77.0677 67.8874 76.7471 67.9575 76.4265C67.9703 76.3574 68.0068 76.295 68.0608 76.2501C68.1147 76.2052 68.1827 76.1806 68.2529 76.1806C68.3231 76.1806 68.3911 76.2052 68.445 76.2501C68.499 76.295 68.5355 76.3574 68.5483 76.4265C68.6083 76.7471 68.6634 77.0677 68.7135 77.3933L68.7936 77.8942C69.2642 80.1183 69.7948 82.5228 71.522 84.1307C73.2491 85.7387 75.6571 86.1745 77.7998 86.7807C77.8624 86.8088 77.9138 86.8571 77.9456 86.918C77.9774 86.9789 77.9877 87.0488 77.975 87.1163L78 87.1363ZM76.1677 87.0512C75.7495 87.0136 75.3375 86.9245 74.9412 86.7857C74.4596 86.6944 73.9872 86.5603 73.5294 86.3849C72.5849 86.0228 71.717 85.4858 70.9713 84.802C69.3893 83.3443 68.7585 81.5059 68.303 79.4721C68.303 79.412 68.303 79.3569 68.2779 79.2968L68.2479 79.4872L68.0376 80.489C67.3418 83.7851 64.9188 85.9291 61.7649 86.7807C61.4394 86.8558 61.114 86.941 60.7886 87.0061L60.4182 87.0812L60.7786 87.1564C62.696 87.6573 64.4732 88.1582 65.895 89.661C67.3167 91.1638 67.7773 92.7918 68.1878 94.6703C68.1878 94.7955 68.2279 94.9157 68.2479 95.0359C68.2479 94.9157 68.2879 94.7955 68.313 94.6753L68.5332 93.6734C69.2692 90.3924 71.6021 88.3335 74.736 87.4168L75.7072 87.1714L76.1677 87.0512ZM24.9441 93.2476C24.9292 93.296 24.9028 93.34 24.867 93.3758C24.8312 93.4116 24.7873 93.4381 24.7389 93.453C23.1622 93.8423 21.6328 94.4033 20.1782 95.1261C18.9337 95.8787 17.9794 97.0294 17.4699 98.3922C17.3247 98.7629 16.3985 102.74 16.4086 102.76C16.4887 102.936 16.1082 103.021 16.0131 102.996C15.7728 102.931 15.8128 102.725 15.7678 102.495C15.6276 101.844 15.5625 101.172 15.4173 100.521C15.0569 98.8831 14.4862 97.22 13.3047 96.0128C11.7428 94.4298 9.51 94.0391 7.47747 93.4129C7.40068 93.3887 7.33655 93.3351 7.29904 93.2638C7.26154 93.1925 7.2537 93.1093 7.27723 93.0322C7.29259 92.9833 7.31983 92.9389 7.35652 92.9031C7.39321 92.8673 7.43821 92.8411 7.48748 92.8269C9.48997 92.2458 11.7378 91.825 13.2847 90.3222C14.1219 89.4379 14.7289 88.3609 15.0519 87.1864C15.3702 86.018 15.6209 84.8321 15.8028 83.6348C15.8579 83.3393 16.1132 83.1339 16.3635 83.4044C16.5387 83.5797 16.5587 84.3161 16.6088 84.5716C17.0393 86.6805 17.55 88.9347 19.1119 90.4124C20.6738 91.8901 22.8065 92.2708 24.7339 92.8369C24.7759 92.8481 24.8151 92.868 24.849 92.8953C24.8828 92.9226 24.9106 92.9567 24.9304 92.9954C24.9502 93.0342 24.9617 93.0766 24.964 93.1201C24.9664 93.1635 24.9596 93.207 24.9441 93.2476ZM23.0418 93.1575L22.8365 93.1174C22.5412 93.0523 22.2508 92.9721 21.9554 92.902L21.0793 92.6365C18.1057 91.6998 16.7139 89.2001 16.1032 86.3298V86.2196C16.1055 86.253 16.1055 86.2865 16.1032 86.3198L15.9029 87.2115C15.556 88.7382 14.7486 90.1214 13.5901 91.1738C12.3735 92.2808 10.9618 92.6766 9.41488 93.0923L9.14454 93.1525L9.41989 93.2076L10.301 93.423C11.8284 93.7991 13.21 94.6202 14.2709 95.7823C15.3623 97.0046 15.7728 98.4373 16.1182 100C16.121 100.037 16.121 100.074 16.1182 100.11C16.1206 100.072 16.1206 100.034 16.1182 99.9951C16.4386 98.292 16.9843 96.709 18.2208 95.4367C19.4573 94.1643 21.0844 93.6334 22.8315 93.2026L23.0418 93.1575ZM7.39737 82.5678C7.1771 83.3844 6.89676 84.1408 6.65145 84.0706C6.2059 83.9604 6.22092 82.7031 6.15083 82.3374C6.01883 81.6251 5.80376 80.9308 5.51004 80.2686C4.53382 78.1697 2.27101 77.4985 0.223468 76.8973C0.159406 76.8804 0.102759 76.8427 0.0623409 76.7901C0.0219224 76.7376 0 76.6731 0 76.6068C0 76.5405 0.0219224 76.4761 0.0623409 76.4235C0.102759 76.371 0.159406 76.3333 0.223468 76.3163C2.01069 75.9055 3.72782 75.5599 4.95935 74.0771C6.10077 72.7096 6.19088 71.0715 6.43118 69.3834C6.4367 69.3443 6.44988 69.3066 6.47 69.2725C6.49011 69.2385 6.51675 69.2087 6.54837 69.185C6.58 69.1612 6.616 69.144 6.65431 69.1342C6.69261 69.1244 6.73247 69.1223 6.7716 69.128C6.83211 69.1376 6.88833 69.1651 6.93297 69.2071C6.97761 69.2491 7.0086 69.3036 7.02191 69.3634C7.07197 69.5788 7.11202 69.7992 7.15207 70.0146C7.51753 72.0183 8.11826 73.982 9.96055 75.069C11.0006 75.5998 12.0973 76.0115 13.2296 76.2962C13.3068 76.3216 13.371 76.3761 13.4084 76.4482C13.4458 76.5203 13.4535 76.6042 13.4299 76.6819C13.415 76.7252 13.3913 76.7649 13.3602 76.7986C13.3292 76.8322 13.2916 76.859 13.2496 76.8773C12.2076 77.1886 11.1902 77.577 10.2059 78.0395C9.15546 78.6194 8.34212 79.5503 7.908 80.6693C7.78785 80.9298 7.63266 81.7764 7.39737 82.5678ZM7.48748 79.0163C8.35256 77.8145 9.62777 76.9715 11.0719 76.6469L11.3823 76.5818L11.092 76.5117C10.8667 76.4515 10.6464 76.3864 10.4211 76.3163C9.5014 76.0089 8.67909 75.4639 8.03737 74.7365C7.39566 74.009 6.95729 73.1249 6.76658 72.1736L6.66146 71.6727L6.54631 72.1385C6.32981 73.0548 5.89082 73.9036 5.2682 74.6096C4.64559 75.3156 3.85859 75.8571 2.97689 76.186L2.32108 76.4014L1.6953 76.5768L2.3461 76.7421L3.01192 76.9424C3.92578 77.2465 4.74295 77.7871 5.38042 78.5095C6.01789 79.2318 6.45295 80.1101 6.64143 81.0551L6.67146 81.2154C6.67146 81.1553 6.6965 81.0901 6.71152 81.03C6.76159 80.8046 6.83167 80.5742 6.89675 80.3487C7.02177 79.876 7.22117 79.4263 7.48748 79.0163Z" fill="#787F8B"/>
</svg>
