<svg width="50" height="50" viewBox="0 0 50 50" fill="none" xmlns="http://www.w3.org/2000/svg">
<path fill-rule="evenodd" clip-rule="evenodd" d="M42.1052 40.0163C42.3433 41.6824 43.1839 42.4343 42.7718 44.3897C42.0745 47.6998 39.0936 48.1049 36.2839 48.4954C33.7927 48.8422 31.9613 47.8693 31.0137 45.8971C30.5858 45.0067 30.7453 44.8052 31.1911 44.0558C31.5704 43.4188 31.8518 42.9938 32.3539 42.5221C32.7323 42.1661 33.2569 41.5446 33.6841 41.2499C36.0624 39.6075 38.7589 39.1645 42.1052 40.0163ZM4.38087 43.8548C3.36965 42.9239 2.94332 41.0251 3.17018 39.2028C3.54906 36.1579 5.97988 33.4227 9.06476 32.9972C11.3903 32.6762 13.5664 33.17 15.086 34.5055C13.1801 33.8806 11.6514 33.7528 9.54319 34.4938C8.3138 34.926 7.32672 35.6983 6.624 36.4102C4.26556 38.799 4.40837 40.9176 4.38087 43.8548ZM4.23182 33.8964C2.93791 29.516 6.72845 25.454 10.9182 25.6672C13.3037 25.7887 15.0202 27.0302 15.9494 28.3312C17.1625 30.0297 17.6817 33.1171 16.8699 34.3657C16.0069 33.5014 14.4915 31.752 10.7342 31.5518C9.36161 31.4785 8.04396 31.7233 6.90203 32.2237C6.34877 32.4656 5.91835 32.7204 5.48327 33.0364C5.14105 33.2849 4.62729 33.7212 4.23182 33.8964ZM2.96332 35.4106C2.22975 34.4043 1.26514 32.6704 1.38296 30.4019C1.55572 27.0626 3.93829 24.0756 7.21971 23.4174C9.17056 23.026 11.9032 22.8483 14.3599 25.0548C11.0806 23.9266 9.49984 24.1372 7.63435 24.8695C5.258 25.8025 3.43581 27.9594 2.84918 30.4939C2.4824 32.0784 2.90588 33.7791 2.96332 35.4106ZM16.3345 24.7787C16.0035 23.0698 15.404 21.8387 15.3079 20.7097C15.0339 17.4907 18.6097 15.8646 21.0635 17.544C22.1388 18.28 22.9298 19.9978 22.7645 20.8392C18.3062 21.2426 17.6863 23.9357 16.3345 24.7787ZM41.8804 32.2878C42.6377 32.27 43.1231 31.5863 44.0961 32.0784C44.626 32.3465 45.0931 33.006 44.8691 33.8411C44.6831 34.5355 44.1277 34.8736 43.659 35.2299C42.1057 36.411 41.8354 36.8502 41.7289 38.508C40.8009 38.4863 40.0391 37.9884 37.9038 38.2207C36.7065 38.351 35.6474 38.7095 34.6607 39.1562C31.408 40.6283 30.99 42.4884 29.9784 42.9447C29.4738 41.4022 28.2861 40.1803 27.5488 39.2307C26.8606 38.3444 26.2112 38.0925 25.548 37.6375C25.5867 36.187 26.6562 34.4797 27.2823 33.5447C28.4726 31.767 29.9251 30.9027 29.3327 30.1996C28.5384 29.2562 26.7095 31.9398 26.2911 32.5563C25.6604 33.4856 24.59 35.1904 24.5096 36.5538C22.2582 35.7724 19.3619 31.7025 18.155 29.2866C17.1384 27.2516 17.287 25.9985 18.5968 24.3949C19.6467 23.1093 20.8573 22.2738 23.3061 22.2687C23.4622 23.3262 25.0501 26.439 26.0018 26.929C26.6138 27.2446 27.4064 27.0955 27.8065 26.7238C28.6824 25.9099 27.9122 23.7833 27.8023 22.5781C27.6083 20.4515 30.6603 18.2013 33.231 18.2205C36.3667 18.2438 34.948 18.7663 35.3364 20.7634C35.5008 21.6093 36.4163 21.6414 36.6519 20.8783C37.0712 19.5203 36.2781 17.5819 37.0454 16.626C37.3122 16.2938 38.0104 15.6585 38.1482 15.3176C41.9308 15.8791 44.2717 18.1934 44.738 21.5673C44.8929 22.6859 44.7206 22.8683 44.2105 23.5107C43.8196 24.0031 43.4612 24.484 43.0565 24.9598C42.8546 25.1979 42.6598 25.4428 42.48 25.6855C42.2884 25.944 42.1947 26.1189 41.9737 26.3807C41.0124 26.2388 40.0362 26.203 39.0741 26.1293C38.4613 26.0826 35.2777 26.1626 34.9846 26.7463C34.7656 27.1829 34.9929 27.6713 35.3968 27.7575C35.7031 27.8232 37.6119 27.5023 38.2547 27.5023C38.7114 27.4344 40.2202 27.5843 40.7818 27.6176C40.6144 28.1704 39.9529 28.7008 39.7656 29.2929C39.231 30.9852 40.5632 32.3194 41.8804 32.2878ZM39.4517 14.3005C39.8676 13.3284 41.4458 11.9554 42.7218 11.6094C44.5299 11.119 46.39 11.9637 47.2226 12.863C48.1023 13.8126 48.9182 15.4762 48.4769 17.3604C48.2118 18.492 47.1806 19.651 46.4869 20.5731C46.4657 20.6015 46.3546 20.7413 46.3092 20.7875C46.1585 20.9395 46.335 20.8083 46.1244 20.9395C45.9312 20.2979 45.4815 19.1431 45.1772 18.5315C44.7746 17.723 44.2771 17.116 43.7676 16.5969C42.892 15.7043 41.37 14.4233 39.4517 14.3005ZM27.249 19.355C27.0442 17.2409 27.008 13.2684 27.6179 11.1989C28.1682 9.33091 31.0021 7.86259 32.7865 7.62448C34.8768 7.34557 36.012 7.88301 37.6065 8.54745C37.5449 9.89754 35.4175 12.542 35.4171 17.0436C34.7922 17.0803 33.9051 16.7734 32.9638 16.8305C29.319 17.0524 28.6237 19.2409 27.249 19.355ZM30.5458 3.70987C32.4701 0.0208677 37.7077 0.878921 38.5507 4.79891C38.7385 5.67109 38.4871 6.38968 38.4725 7.29433C37.4421 7.12361 37.0716 6.71856 36.2056 6.49626C32.5313 5.55082 30.3806 7.18106 28.7636 7.45583L30.5458 3.70987ZM26.7033 25.8212C23.0788 21.0835 24.9635 17.4287 20.7346 15.8271C17.3121 14.5307 14.0011 17.1306 13.8849 20.3413C13.8424 21.5227 14.4203 22.5265 14.586 23.6785C13.9757 23.2184 12.2059 21.8495 8.87125 21.8621C1.95246 21.8878 -2.62576 29.6479 1.66353 35.9206C1.92332 36.3007 2.03947 36.4593 2.24931 36.8519C1.84544 37.8277 1.66018 38.9514 1.71098 40.431C1.78885 42.6999 2.83094 44.6116 3.93375 45.8297C5.17979 47.2069 8.90825 49.6103 11.2242 49.8742C11.5273 49.9292 11.8899 49.9642 12.2633 49.9854C15.9365 50.1957 17.3811 48.0691 17.7075 47.6544C17.984 47.0258 17.3232 46.4534 16.8632 46.8293C16.4727 47.1478 15.8482 47.7881 15.2116 48.0845C12.4486 49.3717 8.62227 48.2901 6.88748 45.7623C5.02941 43.0546 5.49285 39.411 7.53153 37.4118C12.0369 32.9951 18.688 36.2345 18.9552 41.6337C18.9906 42.3444 18.5668 43.8697 18.9069 44.3356C19.3595 44.7665 19.9098 44.4496 20.098 43.9355C20.6167 42.5167 20.2029 40.0109 19.6455 38.7698C18.7811 36.8452 18.073 36.396 17.7308 35.9713C18.2008 35.0788 18.4069 34.0821 18.4444 33.0863C19.0206 33.3528 20.2191 34.7062 20.7149 35.2791C23.4826 38.4797 27.4805 39.0546 29.1795 44.7577C29.5846 46.1178 29.9064 46.9264 30.6507 47.8439C31.2761 48.6145 32.3347 49.3214 33.3181 49.6402C34.7773 50.1136 35.8743 49.9591 37.3751 49.6877C40.4096 49.139 42.0357 48.6774 43.3193 46.6078C44.9804 43.9293 44.0857 42.187 43.2426 39.436C42.2248 36.1121 45.9445 36.7361 46.2713 33.7349C46.4961 31.6692 44.5282 30.2113 42.7543 30.6047C41.7722 30.8228 41.8971 31.1513 41.0449 30.5173C40.9113 29.5689 41.5045 29.0976 41.9238 28.5688C42.3317 28.0547 42.7731 27.5019 43.1977 26.9602C44.8317 24.8791 46.79 22.5311 48.2917 20.5257C49.0948 19.4524 49.9337 18.32 49.9636 16.4404C50.0152 13.1944 47.7471 10.6303 44.7979 10.1694C40.3888 9.48081 38.8455 13.5066 37.2777 14.1057C37.3127 12.3905 38.5349 10.2323 39.1598 8.79094C40.0096 6.8314 40.3834 4.9513 39.3217 2.91466C37.5391 -0.50454 32.545 -1.11651 29.9239 2.15742C29.0026 3.30852 28.2041 5.37847 27.5563 6.94834C23.7953 16.0595 26.9814 21.1668 26.7033 25.8212Z" fill="#9EA4BD"/>
</svg>
