<svg width="40" height="46" viewBox="0 0 40 46" fill="none" xmlns="http://www.w3.org/2000/svg">
<path d="M5.57366 23.6239C5.57366 23.2848 5.29882 23.01 4.9598 23.01C4.62078 23.01 4.34595 23.2848 4.34595 23.6239V38.1621C4.34595 38.5012 4.62078 38.776 4.9598 38.776C5.29882 38.776 5.57366 38.5012 5.57366 38.1621V23.6239Z" fill="#98ACCB"/>
<path fill-rule="evenodd" clip-rule="evenodd" d="M6.76532 11.6069C7.32578 11.4915 13.2109 11.5712 14.3258 11.5664C15.7497 11.5599 16.2839 11.9125 16.2839 13.3718C16.2839 14.592 16.4038 15.8475 15.2283 16.0903C14.6611 16.2076 8.73955 16.1275 7.61825 16.1309C6.22139 16.135 5.65866 15.8219 5.65866 14.351C5.65866 13.047 5.48611 11.8701 6.76532 11.6069ZM9.13351 10.3477C9.09103 9.1572 9.08574 7.75018 9.12259 6.55938C9.20452 3.92996 12.7436 3.92239 12.8177 6.55971C12.85 7.74343 12.8579 9.16136 12.8034 10.3451L9.13351 10.3477ZM7.90126 10.3123C7.02617 10.4307 6.54618 10.2116 5.7748 10.6638C3.85963 11.7859 4.2524 14.651 4.80951 16.1997C3.8532 16.6594 2.47066 17.648 1.84551 18.3006C0.76258 19.4309 0.796033 20.5436 0.796411 22.3468C0.797168 25.7332 0.796411 29.1205 0.796411 32.5074C0.796411 34.6665 0.519343 40.6618 1.20123 42.28C1.74067 43.5599 2.47666 44.4004 3.50139 45.0605C4.83994 45.9232 5.912 45.9397 7.7299 45.9394C9.9458 45.939 15.8448 46.2299 17.5119 45.5405C20.5338 44.2904 21.1461 41.8921 21.145 38.9928C21.145 37.2993 21.1458 28.0879 21.145 26.3948C21.145 26.1137 21.145 25.4758 21.1386 24.9653C21.1326 24.4864 21.1255 24.1293 20.9616 23.9681C20.7439 23.7545 20.2865 23.7214 20.0669 24.0293C19.9105 24.2485 19.8974 25.1382 19.9207 26.3291C19.9331 26.9658 19.956 35.2067 19.9726 35.9589C20.0263 38.3642 20.0196 41.0753 19.42 42.2548C18.8979 43.2814 17.8788 44.1877 16.6214 44.547C15.5633 44.8493 8.23432 44.7508 6.64464 44.7215C4.89744 44.6888 4.02537 44.0498 3.13153 43.16C1.50381 41.5384 2.01769 36.8874 2.01769 34.129C2.01769 30.7417 2.01769 27.3549 2.01769 23.9681C2.01769 19.9215 1.4903 19.4674 5.42185 17.2206C6.1199 16.8218 5.59024 17.3612 7.51184 17.3559C9.67219 17.3507 13.2477 17.4593 15.0656 17.3534C16.3718 17.2777 15.699 16.6982 16.921 17.4811C17.4522 17.8214 17.9416 18.1126 18.434 18.4532C20.5755 19.9339 19.4286 21.4292 20.3932 21.6164C21.3765 21.8066 21.1642 20.5191 20.9935 19.8974C20.8105 19.2313 20.492 18.693 20.0985 18.2987C19.3309 17.5285 18.0979 16.626 17.1203 16.211C17.6856 14.8483 18.1164 11.6663 16.0993 10.6217C15.4117 10.2661 14.8397 10.398 14.036 10.3198C14.051 9.22826 14.1555 6.36916 13.8902 5.48769C13.5514 4.36261 12.42 3.3642 10.9724 3.36085C9.53568 3.35669 8.37342 4.42876 8.05128 5.48391C7.77427 6.38834 7.90013 9.18763 7.90126 10.3123Z" fill="#98ACCB"/>
<path fill-rule="evenodd" clip-rule="evenodd" d="M27.8244 27.2555C27.7101 26.9796 27.4245 26.1733 27.3696 25.9602C27.3038 25.7039 27.4583 25.3531 28.144 23.5522C28.7721 21.9009 32.1202 12.88 32.3754 12.5864L34.2407 13.2777L29.3536 26.3564C29.2145 26.6677 28.536 26.9307 27.8244 27.2555ZM37.3163 13.0243C35.9055 12.721 31.9353 11.0926 30.6366 10.6096C29.7987 10.2972 29.7949 9.72317 30.0081 9.30705C30.3226 8.69212 30.8328 8.83571 31.1778 8.93682C32.7859 9.40822 36.4453 10.8825 37.4471 11.2553C38.3286 11.5835 38.3774 12.0715 38.1451 12.665C37.9876 13.0676 37.6681 13.1003 37.3163 13.0243ZM32.7893 8.22034C33.387 6.70287 33.8336 5.42965 34.2651 4.26928C34.5549 3.49 34.6925 2.92803 35.2481 2.55401C35.7871 2.19128 36.6272 1.96161 37.3716 2.25219C39.3172 3.0119 38.6947 4.76656 38.3184 5.84317C38.0117 6.72237 37.3276 8.42596 36.7964 9.71079L32.7893 8.22034ZM31.6214 7.80876C31.4834 7.73846 30.7621 7.53433 30.4595 7.57492C29.5336 7.70008 28.8168 8.50075 28.6946 9.52397C28.4875 11.2467 29.878 11.652 31.156 12.1034C30.8846 13.2288 30.0829 15.0133 29.637 16.1861L26.4986 24.4979C26.0975 25.5884 25.9205 25.5057 26.372 26.6579C27.2012 28.7712 26.8129 29.2749 29.3141 27.8577C30.4294 27.2255 30.2027 27.536 30.6737 26.2959L35.4127 13.7412C36.8393 14.1404 37.9203 14.976 39.0086 13.4413C39.8183 11.9519 39.2807 10.6126 37.9989 10.1777C38.5515 8.63532 39.23 7.03851 39.7747 5.45559C41.229 1.22973 35.2409 -0.948618 33.5005 2.86566C32.8047 4.38952 32.28 6.29723 31.6214 7.80876Z" fill="#98ACCB"/>
<path fill-rule="evenodd" clip-rule="evenodd" d="M27.2766 30.7013C27.5083 30.9959 28.2281 32.1504 28.3942 32.5165C29.4136 34.761 25.3588 34.8982 26.2035 32.6342C26.432 32.0211 27.0056 31.1692 27.2766 30.7013ZM29.7347 33.513C29.982 32.2199 28.5889 30.4802 28.0736 29.4965C27.118 27.6719 26.3956 29.9386 25.4859 31.382C23.0057 35.3181 29.0197 37.2569 29.7347 33.513Z" fill="#98ACCB"/>
</svg>
