<svg width="30" height="50" viewBox="0 0 30 50" fill="none" xmlns="http://www.w3.org/2000/svg">
<path fill-rule="evenodd" clip-rule="evenodd" d="M13.3049 44.0771C13.8554 43.7462 14.5062 43.325 14.9425 42.9879C15.5275 42.5358 16.147 41.9733 16.3024 41.1933C16.2033 42.2754 16.9758 43.7416 17.412 44.2646C18.28 45.3046 19.1833 45.4779 19.8395 45.8162C19.8687 48.0375 18.2249 48.5129 16.6149 48.0983C16.0766 48.1204 15.3499 47.7146 14.9133 47.5079C13.4362 46.8083 13.457 45.9429 13.3049 44.0771ZM21.0549 12.7542C21.4062 12.97 23.297 13.5121 23.1304 17.1408L23.4537 16.4942C26.1466 9.0142 24.3716 0.468776 22.8629 1.8609C22.0658 2.59631 20.5895 11.3975 21.0549 12.7542ZM19.9099 12.7825V9.97082C19.9058 9.81004 19.912 9.63129 19.9283 9.43044C20.0641 7.74666 20.3183 5.72834 20.7829 4.1313C20.9212 3.6546 21.4541 2.18047 21.4549 1.83921L20.2854 3.09254C19.2187 4.4359 18.2962 6.54796 17.8191 8.23378C17.637 8.87629 17.3641 9.83125 17.2625 10.7475C17.1874 11.4225 17.0749 12.3917 17.1541 12.733C17.6887 13.0392 17.8562 13.2275 18.177 13.2254C18.7532 13.2213 19.3154 13.0358 19.9099 12.7825ZM13.9537 22.4134C13.4254 20.8721 10.3654 19.4754 8.77287 19.0421C6.99498 18.5584 3.86912 18.6825 3.31162 20.5217C3.60957 20.6275 11.1966 21.8792 13.9537 22.4134ZM3.24165 21.6437C3.86038 22.7996 6.03332 23.7842 8.18452 24.065C10.1353 24.3196 12.0328 23.9596 13.4216 23.3092C9.2495 22.7108 7.79204 22.3879 3.24165 21.6437ZM17.3216 36.8204C18.3266 36.6875 19.6179 36.7462 20.5278 36.4871C21.7982 36.1254 22.527 35.175 22.8683 35.2175C23.9662 35.8246 25.0978 37.8883 25.5495 39.6725C25.6766 40.1733 25.7699 40.6791 25.8258 41.2204C25.9795 42.7175 24.5579 43.1737 23.1608 43.9192C21.1624 44.9862 19.1582 44.8033 18.1729 43.0671C17.1866 41.3295 17.1683 39.0333 17.3216 36.8204ZM15.6387 36.3467C16.6053 44.16 6.76203 45.6079 5.25412 38.7712C4.52164 35.4504 6.64287 31.9325 9.09328 32.1387C9.97617 32.2129 11.2091 33.5963 12.1312 34.4354C12.987 35.2141 14.1837 35.9279 15.6387 36.3467ZM10.8408 29.5862C10.6158 27.5962 11.1929 25.9 12.2866 25.0729C12.8629 24.6375 13.4104 24.3063 14.2499 24.0434C15.3391 23.7025 15.9241 24.0883 16.952 23.9313C19.3258 23.5692 20.0691 23.5042 21.3329 25.0538C22.1653 26.0741 22.8887 27.6758 23.0341 29.4062C23.3616 33.2958 20.9925 35.7975 17.0729 35.3846C13.917 35.0525 11.1874 32.6579 10.8408 29.5862ZM22.6099 24.5667C26.7428 24.6113 29.7687 29.8946 27.5454 32.8121C26.7595 33.8437 25.477 33.6979 24.9733 35.2204C24.6395 35.0679 23.72 34.2679 23.5279 34.0241C23.8841 32.1583 25.6261 30.4558 23.8391 26.5317C23.4112 25.5921 22.7537 24.9712 22.6099 24.5667ZM20.0749 13.9759C21.347 13.7896 21.8674 15.8255 21.972 16.6129C22.0387 18.1704 21.7512 19.8379 20.7062 21.0742C19.4162 22.6004 16.97 23.2067 15.8929 22.2517C13.9662 20.5429 13.8866 15.9759 15.4674 14.4863C16.6166 13.4033 17.0195 14.4613 17.6245 14.5613C18.3066 14.6746 19.0912 14.1196 20.0749 13.9759ZM7.25496 15.1667C9.21202 16.2971 11.2858 18.0963 12.0204 19.2387C11.6054 19.08 11.2141 18.7408 10.7424 18.5288C8.37285 17.4629 7.8091 17.8796 5.76495 17.5304C4.37121 17.2917 1.66119 15.3183 1.4716 13.9212C3.96537 13.8083 4.97833 13.8517 7.25496 15.1667ZM2.6833 12.9375C4.70038 11.9409 7.8133 11.9454 9.83786 12.9071C10.8824 13.4033 11.602 14.1029 12.2403 14.7638C13.2316 15.79 13.0041 16.4817 12.8803 18.175C12.6733 18.0579 11.9579 17.4154 11.7654 17.2296C10.8454 16.3417 9.47079 15.2504 8.40202 14.5258C5.29832 12.4209 3.83162 12.84 2.6833 12.9375ZM13.932 14.3004C13.5774 14.2013 13.0991 13.6796 12.5758 13.2521C11.1483 12.0858 9.5891 11.1488 7.56454 10.9217C5.99499 10.7454 4.63831 11.0129 3.19581 11.365C2.5454 11.5238 1.94872 11.7004 1.38582 11.9959C0.930802 12.2346 0.237032 12.7117 0 13.1029C0.0062298 14.1217 0.351622 14.9567 0.841201 15.6325C1.68162 16.7929 2.17329 17.37 4.05786 18.2263C2.79286 18.6958 1.14999 19.7459 1.40536 21.335C1.60453 22.5734 3.41872 23.8675 4.52828 24.3817C6.03493 25.0792 8.69453 25.5421 10.3654 25.1517C9.11498 26.0562 8.7633 29.4158 9.51123 30.8367C8.30583 30.8158 6.92663 30.7508 5.08123 33.0837C2.94704 35.7821 3.63917 41.0825 6.37579 43.0737C7.98122 44.2412 9.48577 44.6133 11.8454 44.4133C12.1404 45.5354 11.8316 47.6625 14.5645 48.7579C15.245 49.0304 15.1466 48.9829 15.6812 50C16.5308 49.9829 16.5845 49.6971 17.1262 49.5733C17.9941 49.375 19.3925 50.3008 20.7862 47.7012C21.787 45.8337 20.8141 45.9171 22.3949 45.5117C23.107 45.3287 23.1995 45.2041 23.7345 44.9446C24.4175 44.6129 24.6612 44.9746 25.4041 44.9024C25.8683 44.3291 25.6724 44.082 26.2329 43.6379C26.6553 43.3029 27.0891 43.09 27.1082 42.3604C27.1387 41.2004 26.7408 39.8263 26.5154 38.7012C26.3312 37.7821 26.1145 36.9571 26.0858 36.5583C26.3716 34.3471 27.9862 34.9858 29.0687 33.0712C30.5028 30.535 29.1483 25.9916 26.0841 24.2879C24.8807 23.6188 23.39 23.5467 21.8553 23.3359C22.8741 22.5983 25.9124 22.2125 25.4687 21.2696C25.3158 20.2238 23.9195 21.1196 22.8166 21.3109C24.2433 18.8021 25.527 15.0688 26.0549 11.7537C26.5803 8.45543 26.5662 3.02544 24.4933 0.972125C23.0095 -0.497449 21.5762 -0.212849 20.1491 1.23546C18.2879 3.12507 16.3908 7.07337 15.9504 9.89379C15.8241 10.7017 15.7333 12.1117 15.6971 12.8492C15.1579 13.0258 14.4204 13.6634 13.932 14.3004Z" fill="#9EA4BD"/>
</svg>
