<svg width="53" height="46" viewBox="0 0 53 46" fill="none" xmlns="http://www.w3.org/2000/svg">
<path fill-rule="evenodd" clip-rule="evenodd" d="M41.4143 37.0354C42.4248 36.0288 43.0853 35.5772 43.7346 34.6583L44.6872 36.4255C45.0468 37.0085 45.409 37.5153 45.5041 38.3061L41.4143 37.0354ZM48.0065 25.6618C48.3772 24.6985 48.4596 24.1365 48.6229 23.0237C49.2175 23.2928 49.7108 23.8479 50.0753 24.2803C50.5059 24.7909 50.8868 25.1957 51.2215 25.7274C50.5848 25.8623 48.7965 25.671 48.0065 25.6618ZM5.15962 16.2908C6.03251 16.972 6.79648 17.8476 7.65664 18.6288L8.86764 19.811C9.2851 20.2227 9.69909 20.5439 10.1238 20.9533C11.4682 22.2494 13.9606 23.9549 15.6002 25.0554C16.7988 25.86 20.4927 27.9545 21.8094 28.5119C22.9257 28.9842 24.0189 29.5097 25.1049 30.0058C25.6527 30.2561 26.2274 30.501 26.7966 30.708C28.0953 31.1803 28.0397 31.0503 29.6586 29.2038C31.4369 27.1748 33.324 24.646 34.7282 22.2966C35.3388 21.2749 35.8724 20.3139 36.4651 19.2451C37.5346 17.3174 38.5945 14.7103 39.3025 12.4172C40.0024 10.1505 40.28 8.77324 40.5116 7.06048C40.617 6.27852 40.745 5.07712 40.8669 4.03791C42.1108 5.31288 43.4628 7.00263 44.2119 8.16143C49.6134 16.5178 48.4922 27.5666 41.7095 34.5824C40.249 36.0931 36.0101 39.593 32.8341 40.0468C33.0545 39.3729 34.1904 37.7882 32.872 37.6383C32.0042 38.1083 31.558 39.9805 31.1333 41.0274C30.9002 41.6043 29.9426 44.3652 29.6218 44.5955C28.9851 44.8002 28.9429 44.0469 28.7903 43.5969L27.699 40.669C27.4655 40.0139 27.2152 39.3776 26.9909 38.7251C26.7207 37.9389 26.3082 37.2895 25.6106 38.147C25.5024 38.8888 26.3427 40.0997 26.4095 41.1819C24.7484 41.1815 23.2707 41.1064 21.7201 40.7499C21.004 40.5854 18.4449 39.9084 17.9231 39.6014C18.8907 38.431 19.0302 38.3889 19.4228 37.9711C20.01 37.344 19.1701 36.3998 18.4204 37.1876C18.0738 37.5517 17.641 37.8799 17.4674 38.0531C16.6026 38.9145 14.2462 41.6661 13.1898 42.1238C13.1898 39.8935 13.4209 37.7875 13.4845 35.581C13.5064 34.822 13.6283 34.109 12.7086 34.1608C12.3039 34.4847 12.3238 34.9761 12.3234 35.6515C11.1389 35.5388 8.25543 32.0451 8.17227 30.9863C8.5 30.9798 8.91019 31.0105 9.08462 30.6934C9.26323 30.3684 9.1168 30.0844 8.92589 29.9203C8.34244 29.6393 4.11925 29.7489 2.0696 29.7896C1.12694 29.8084 0.858602 29.8175 1.74488 28.85C2.04005 28.5276 2.39238 28.2528 2.67295 27.9641L5.24857 25.6615C5.42029 25.5058 5.49275 25.3901 5.66183 25.2229C5.80556 25.0807 5.92173 24.9976 6.07427 24.8641C6.31345 24.6548 6.73439 24.3117 6.39436 23.8279C6.1111 23.4239 5.70168 23.7329 5.20795 23.6129C4.72838 22.6139 4.57776 17.309 5.15962 16.2908ZM9.2797 10.4894C9.12985 11.411 8.90329 11.4029 8.70892 12.096C8.62576 12.3931 8.6369 12.4349 8.46209 12.6104C8.14542 12.0163 7.41135 11.4616 7.08515 10.7497L9.2797 10.4894ZM50.4844 9.05843C49.7327 9.77679 48.11 11.5685 47.3272 11.6237C47.1958 11.3707 47.1011 10.9947 46.9688 10.7079L45.7122 8.13194L50.5112 8.03339C52.012 8.00274 51.3223 8.25575 50.4844 9.05843ZM26.2005 25.147C25.2372 25.16 21.1761 22.8336 20.3018 22.3211C16.5819 20.141 13.4937 17.7544 10.4742 14.7863C9.37057 13.7014 9.15168 13.8198 10.0521 12.0802C10.5493 11.1189 11.0415 10.249 11.6457 9.39422C15.4353 4.03328 22.5776 0.695988 29.7758 2.24502C32.8736 2.91169 33.5544 3.60702 35.9388 4.71567C35.864 5.46815 35.3802 6.9624 35.1721 7.77428C34.9344 8.69964 34.594 9.73348 34.2674 10.6324C32.4339 15.6759 30.7702 18.7449 27.7817 22.9643C27.2478 23.7187 27.1949 23.8881 26.2005 25.147ZM6.10303 11.7805C6.39203 11.9702 7.9392 13.8432 8.27846 14.2454C9.05546 15.1665 12.1628 17.9767 13.0563 18.7043C15.7792 20.9207 17.901 22.5974 21.282 24.3328C22.2728 24.8415 23.2925 25.3824 24.3819 25.8531C26.2093 26.6431 26.1878 27.0123 27.347 25.5227C32.5723 18.8078 36.0189 11.851 37.4066 3.24406C37.5054 2.62953 37.5687 2.17066 37.5901 1.52433C38.0624 1.80688 39.0445 2.49995 39.6333 3.04967C39.6022 12.3156 34.5027 21.6901 28.6826 28.3966C28.3425 28.7883 27.9634 29.3568 27.5755 29.6504C26.6735 29.1628 25.2774 28.6951 24.3015 28.2397C23.2561 27.7529 22.1525 27.2883 21.1378 26.7865C19.0866 25.7722 17.0514 24.5214 15.2578 23.343C12.3433 21.4283 11.1899 20.2813 8.78448 18.1005C8.36394 17.7192 8.00324 17.3737 7.6076 16.9674C6.89459 16.2353 6.07885 15.2202 5.36667 14.5988C5.68978 13.9218 6.04395 12.6434 6.10303 11.7805ZM33.6966 2.11435C34.2497 1.869 35.3273 1.41125 36.2968 1.38789C36.3754 2.04149 36.2255 2.62838 36.2132 3.27967C35.3522 2.80054 34.8098 2.60692 33.6966 2.11435ZM49.2194 11.9856C49.6383 11.613 50.0075 11.2572 50.4085 10.8628C50.8313 10.4469 51.2131 10.156 51.6225 9.76952C51.9472 9.46322 52.3995 8.99632 52.3922 8.29636C52.3746 6.55637 50.7588 6.8378 49.2941 6.83819C47.7807 6.83819 46.265 6.84468 44.7516 6.83664C44.3893 6.02779 42.6958 4.22418 42.1219 3.66492C41.1448 2.71229 40.2233 1.91233 38.9851 1.06937C37.4184 0.00254797 37.0297 -0.351658 34.727 0.400815C34.0259 0.629687 32.8713 1.27137 32.3101 1.61939C31.5676 1.4561 31.4304 1.36645 30.5157 1.16133C27.3037 0.354081 23.4305 0.529221 20.3803 1.5347C16.7762 2.72343 14.1412 4.56806 11.7461 7.27209L10.511 8.85758C10.0295 9.32795 7.50835 9.10101 5.94928 10.0294C5.24933 10.4461 4.48076 13.049 4.22466 14.0349C3.23643 17.8356 3.46108 20.5819 3.98319 24.3528C4.0518 24.8469 4.00158 25.1014 3.70564 25.4031C2.77836 26.3484 0.382119 28.1144 0.109986 28.9888C-0.178681 29.9172 0.107291 30.6387 0.892333 30.8664C1.75718 31.1171 5.35134 30.976 6.51703 30.981C6.80801 31.5912 7.40486 32.4162 7.78126 32.9582C9.67033 35.6749 10.6636 36.128 12.2199 36.9794C12.2885 37.9879 12.1341 39.7896 12.0884 41.1665C12.0524 42.246 11.9688 43.0288 12.8743 43.2082C13.787 43.3891 14.8837 42.4803 15.2666 42.095L16.4446 40.8798C16.6141 40.7012 16.6056 40.6575 16.7919 40.4589C17.255 40.5613 18.8317 41.4303 21.4345 41.9624C24.2834 42.5447 25.4813 42.3764 26.9982 42.4814C27.6553 43.5562 27.6925 45.3787 28.7784 45.8325C30.4969 46.5513 30.9933 44.7994 31.443 43.5605C32.23 41.3927 31.9241 41.8052 34.0236 41.009C35.368 40.4992 36.3547 40.0775 37.5012 39.44C38.1054 39.1046 39.5586 38.2145 40.0906 37.8465C40.4195 37.9531 40.4713 37.9868 40.998 38.147C42.1526 38.5346 43.735 39.087 44.9206 39.3557C45.6816 39.5278 46.3125 39.044 46.5755 38.5925C46.9819 37.8948 46.5356 37.2044 46.2451 36.6631L44.4039 33.4428C44.9241 32.4204 45.6662 31.3486 46.2738 30.337C47.0957 28.9677 47.469 27.2891 47.7546 26.8414C49.4896 26.8659 51.8985 27.6302 52.3535 25.978C52.6119 25.04 51.8594 24.3972 51.4872 23.9809L50.0593 22.4982C49.6226 22.0408 49.25 21.702 48.905 21.3432C49.3439 18.311 48.4703 14.5539 47.944 13.0007L49.2194 11.9856Z" fill="#9EA4BD"/>
<path fill-rule="evenodd" clip-rule="evenodd" d="M21.1921 6.40098C22.2619 6.15293 22.6505 6.63586 22.7989 7.60673C23.2654 10.6601 21.9098 9.79315 20.2501 10.8132C19.7129 11.1434 19.0886 11.8804 18.1411 11.4778C17.878 11.366 16.7405 10.2383 16.5917 10.0348C15.9831 9.2027 16.3286 8.58556 16.9841 8.14655C18.03 7.44616 19.7641 6.73198 21.1921 6.40098ZM20.8261 5.19115C19.333 5.50616 15.954 6.86904 15.2729 8.145C15.0203 8.61812 14.9407 9.25922 15.0858 9.83154C15.3366 10.821 17.4141 12.7344 18.4483 12.8837C19.4216 13.0241 20.5843 12.0121 21.3431 11.6471C22.6506 11.0183 23.29 11.2399 23.9474 9.97569C24.2989 9.29977 24.6965 4.37469 20.8261 5.19115Z" fill="#9EA4BD"/>
<path fill-rule="evenodd" clip-rule="evenodd" d="M28.6965 5.54039C29.6188 5.17727 30.5239 5.69805 30.7562 6.39007C31.0575 7.28748 30.5103 8.24806 29.903 8.49248C27.8782 9.30744 26.8561 6.26503 28.6965 5.54039ZM28.7183 4.26149C27.239 4.56062 26.1666 5.86422 26.5755 7.75598C26.6524 8.11188 26.8306 8.43823 27.0181 8.67796C29.0235 11.2412 32.7907 8.96324 32.085 6.34194C31.7457 5.08184 30.4228 3.91688 28.7183 4.26149Z" fill="#9EA4BD"/>
<path fill-rule="evenodd" clip-rule="evenodd" d="M15.8117 31.4757C15.8155 35.0464 17.6104 34.2622 20.4541 32.9999C20.8534 32.8226 21.579 32.6535 21.5421 32.0873C21.4998 31.4354 20.752 31.54 20.2172 31.7351C19.2462 32.0894 18.1898 32.6957 17.121 32.8648C17.121 32.2229 17.2244 29.5018 16.9904 29.1408C16.6634 28.6363 15.9943 28.8957 15.8724 29.5245C15.7889 29.9551 15.8111 30.9925 15.8117 31.4757Z" fill="#9EA4BD"/>
<path fill-rule="evenodd" clip-rule="evenodd" d="M41.1245 17.2346C40.7417 17.3119 40.399 17.3453 40.1512 17.4478C39.4924 17.7202 39.5892 18.7833 40.6166 18.61C40.8577 18.5697 41.351 18.4663 41.688 18.3946C42.3205 18.2596 43.05 18.1466 43.6445 17.9564C44.3092 17.7441 44.6236 17.355 44.6327 16.5059C44.642 15.6415 43.3048 14.2749 42.7536 13.4703C42.2001 12.6626 41.3257 13.0651 41.522 13.8329C41.6225 14.2258 42.5275 15.0699 43.0637 15.9811C43.5084 16.7359 43.5153 16.8183 42.9691 16.91C42.5685 16.977 41.7723 17.1039 41.1245 17.2346Z" fill="#9EA4BD"/>
<path fill-rule="evenodd" clip-rule="evenodd" d="M36.9423 29.243C36.5595 29.3202 36.2169 29.3537 35.969 29.4561C35.3103 29.7285 35.4071 30.7916 36.4344 30.6183C36.6755 30.5781 37.1689 30.4746 37.5058 30.4029C38.1383 30.268 38.8678 30.1549 39.4624 29.9647C40.1271 29.7524 40.4414 29.3633 40.4507 28.5142C40.4599 27.6498 39.1228 26.2832 38.5715 25.4786C38.018 24.6709 37.1436 25.0734 37.3398 25.8412C37.4403 26.2341 38.3453 27.0782 38.8816 27.9895C39.3263 28.7443 39.3332 28.8267 38.7869 28.9182C38.3864 28.9853 37.5902 29.1122 36.9423 29.243Z" fill="#9EA4BD"/>
</svg>
