<svg width="50" height="50" viewBox="0 0 50 50" fill="none" xmlns="http://www.w3.org/2000/svg">
<path fill-rule="evenodd" clip-rule="evenodd" d="M23.5057 37.65L30.2949 30.8844L31.3393 29.8436L32.2969 30.8045L39.9851 38.5195L46.7422 31.7858C48.8636 29.6717 48.8696 26.2063 46.7556 24.0849L46.755 24.0842C44.6409 21.9628 41.1755 21.9568 39.054 24.0709L34.5886 28.5208C33.9455 29.1617 32.9717 28.2168 33.6478 27.5431L38.1633 23.0432C40.8135 20.4023 45.1418 20.4097 47.7829 23.0599L47.7834 23.0606C50.4244 25.7108 50.417 30.039 47.7667 32.6801L40.9427 39.4804L39.8983 40.5212L33.1092 47.2869C30.4589 49.9279 26.1307 49.9203 23.4896 47.2702L23.489 47.2695C20.848 44.6193 20.8556 40.291 23.5057 37.65ZM31.2525 31.8453L24.5303 38.5442C22.4088 40.6584 22.4028 44.1238 24.5169 46.2452L24.5175 46.2458C26.6316 48.3673 30.0971 48.3733 32.2185 46.2592L38.9408 39.5603L31.2525 31.8453Z" fill="#9EA4BD"/>
<path fill-rule="evenodd" clip-rule="evenodd" d="M1.94241 28.2693H1.94333C2.35755 28.2693 2.69582 27.931 2.69582 27.5168V19.0773C2.69582 18.663 2.35497 18.3247 1.94333 18.3247H1.94241C1.53077 18.3247 1.18994 18.6656 1.18994 19.0773V27.5168C1.18994 27.9285 1.52819 28.2693 1.94241 28.2693Z" fill="#9EA4BD"/>
<path fill-rule="evenodd" clip-rule="evenodd" d="M14.1817 34.6342L14.1821 34.6334C14.3672 34.2627 14.2658 33.8131 13.9077 33.6051L2.36701 26.9114C2.00892 26.7034 1.63134 26.8937 1.33878 27.1863L1.33836 27.1867C1.04538 27.4797 1.25463 28.0074 1.61321 28.215L13.1539 34.9091C13.512 35.1167 13.9966 35.0045 14.1817 34.6342Z" fill="#9EA4BD"/>
<path fill-rule="evenodd" clip-rule="evenodd" d="M12.9334 34.6128L12.933 34.6119C12.7479 34.2412 12.8493 33.7917 13.2074 33.5837L24.7481 26.8899C25.1062 26.682 25.4838 26.8722 25.7764 27.1648L25.7768 27.1652C26.0698 27.4582 25.8605 27.9859 25.5019 28.1935L13.9613 34.8876C13.6031 35.0952 13.1186 34.983 12.9334 34.6128Z" fill="#9EA4BD"/>
<path fill-rule="evenodd" clip-rule="evenodd" d="M25.353 12.8901H25.3521C24.9379 12.8901 24.5996 13.2284 24.5996 13.6426V22.0822C24.5996 22.4964 24.9404 22.8347 25.3521 22.8347H25.353C25.7646 22.8347 26.1055 22.4939 26.1055 22.0822V13.6426C26.1055 13.231 25.7672 12.8901 25.353 12.8901Z" fill="#9EA4BD"/>
<path fill-rule="evenodd" clip-rule="evenodd" d="M13.1136 6.52559L13.1132 6.52643C12.9281 6.89711 13.0295 7.34673 13.3876 7.55471L24.9283 14.2485C25.2864 14.4564 25.664 14.2661 25.9565 13.9736L25.9569 13.9731C26.2499 13.6802 26.0407 13.1524 25.6821 12.9449L14.1415 6.2507C13.7833 6.0432 13.2988 6.15534 13.1136 6.52559Z" fill="#9EA4BD"/>
<path fill-rule="evenodd" clip-rule="evenodd" d="M14.3623 6.54659L14.3628 6.54741C14.5479 6.91808 14.4465 7.3677 14.0883 7.57568L2.54766 14.2694C2.18957 14.4774 1.81199 14.2871 1.51943 13.9946L1.51903 13.9941C1.22605 13.7012 1.43528 13.1734 1.79385 12.9659L13.3345 6.27169C13.6927 6.06419 14.1772 6.17633 14.3623 6.54659Z" fill="#9EA4BD"/>
<path fill-rule="evenodd" clip-rule="evenodd" d="M36.9629 0H36.962C36.5478 0 36.2095 0.33832 36.2095 0.752542V7.03465C36.2095 7.44887 36.5525 7.78714 36.962 7.78714H36.9629C37.3723 7.78714 37.7154 7.44414 37.7154 7.03465V0.752542C37.7154 0.343052 37.3771 0 36.9629 0Z" fill="#9EA4BD"/>
<path fill-rule="evenodd" clip-rule="evenodd" d="M36.2947 6.56758L36.2943 6.56843C36.1092 6.9391 36.2106 7.38872 36.5688 7.5967L48.1094 14.2904C48.4675 14.4984 48.8451 14.3081 49.1376 14.0156L49.1381 14.0152C49.431 13.7222 49.2218 13.1944 48.8633 12.9869L37.3226 6.29269C36.9644 6.08519 36.4799 6.19733 36.2947 6.56758Z" fill="#9EA4BD"/>
<path fill-rule="evenodd" clip-rule="evenodd" d="M37.543 6.58907L37.5435 6.58991C37.7286 6.96058 37.6271 7.41021 37.269 7.61819L25.7283 14.3119C25.3702 14.5198 24.9927 14.3296 24.7001 14.037L24.6997 14.0366C24.4067 13.7436 24.616 13.2159 24.9745 13.0083L36.5152 6.31417C36.8733 6.10667 37.3579 6.21881 37.543 6.58907Z" fill="#9EA4BD"/>
<path fill-rule="evenodd" clip-rule="evenodd" d="M13.6762 0.0864258H13.6754C13.2612 0.0864258 12.9229 0.424686 12.9229 0.838968V7.121C12.9229 7.53528 13.2659 7.87357 13.6754 7.87357H13.6762C14.0857 7.87357 14.4288 7.53049 14.4288 7.121V0.838968C14.4288 0.429478 14.0905 0.0864258 13.6762 0.0864258Z" fill="#9EA4BD"/>
<path fill-rule="evenodd" clip-rule="evenodd" d="M13.6128 37.8457H13.6119C13.1977 37.8457 12.8594 38.184 12.8594 38.5982V48.7637C12.8594 49.178 13.205 49.5162 13.6119 49.5162H13.6128C14.0197 49.5162 14.3653 49.1706 14.3653 48.7637V38.5982C14.3653 38.1913 14.027 37.8457 13.6128 37.8457Z" fill="#9EA4BD"/>
<path d="M13.6124 50.0002C14.5892 50.0002 15.3811 49.2084 15.3811 48.2315C15.3811 47.2547 14.5892 46.4629 13.6124 46.4629C12.6356 46.4629 11.8438 47.2547 11.8438 48.2315C11.8438 49.2084 12.6356 50.0002 13.6124 50.0002Z" fill="#9EA4BD"/>
<path d="M25.4557 29.2907C26.4325 29.2907 27.2243 28.4989 27.2243 27.5221C27.2243 26.5453 26.4325 25.7534 25.4557 25.7534C24.4789 25.7534 23.687 26.5453 23.687 27.5221C23.687 28.4989 24.4789 29.2907 25.4557 29.2907Z" fill="#9EA4BD"/>
<path d="M1.76868 15.6565C2.74548 15.6565 3.53733 14.8646 3.53733 13.8878C3.53733 12.911 2.74548 12.1191 1.76868 12.1191C0.791869 12.1191 0 12.911 0 13.8878C0 14.8646 0.791869 15.6565 1.76868 15.6565Z" fill="#9EA4BD"/>
</svg>
