<svg width="51" height="50" viewBox="0 0 51 50" fill="none" xmlns="http://www.w3.org/2000/svg">
<path fill-rule="evenodd" clip-rule="evenodd" d="M22.1802 42.2504C21.9265 36.1316 24.4494 28.9528 26.7385 34.4816C27.2914 35.817 27.6136 37.3458 27.7848 38.9195C28.1081 41.8925 27.8102 46.0191 26.1827 47.9712C24.9223 49.4833 23.6352 47.9912 23.0769 46.7937C22.561 45.6879 22.2365 43.6104 22.1802 42.2504ZM21.7681 34.4366C21.2935 37.4124 18.4364 42.6429 16.691 44.0612C16.1939 44.4654 15.6469 44.9458 14.9519 45.2987C12.6964 46.4437 12.2364 44.4871 12.5497 42.5321C13.1214 38.9691 16.6981 33.3695 19.5102 31.8162C21.9235 30.4828 22.0681 32.557 21.7681 34.4366ZM28.214 33.8787C27.3868 26.7582 36.9531 36.4583 37.559 43.0971C37.9573 47.4612 33.9623 45.4725 31.7369 42.1354C30.359 40.0687 28.574 36.9791 28.214 33.8787ZM32.5277 28.2461C35.2819 27.7745 39.5644 30.0429 41.329 31.1462C42.6036 31.9433 43.5786 32.7408 44.499 33.8391C45.2273 34.7083 46.6303 36.9108 44.5928 37.4487C41.0069 38.3946 32.7769 33.2445 31.5786 29.9216C31.1486 28.7299 31.3828 28.442 32.5277 28.2461ZM16.2502 28.2453C18.9852 27.9137 19.1435 29.2866 17.864 31.005C17.0489 32.0983 16.0227 33.0483 14.8985 33.9C8.05727 39.0841 2.56639 38.2587 4.95349 34.6512C7.10643 31.397 12.1214 28.7466 16.2502 28.2453ZM24.5427 18.9486C28.0356 18.6162 30.8085 21.3207 31.0919 24.4799C31.4035 27.9562 28.7031 30.8203 25.5535 31.0566C22.0056 31.3228 19.2181 28.7233 18.9448 25.5108C18.6385 21.9157 21.3235 19.2553 24.5427 18.9486ZM39.5902 22.1928C42.5157 21.9611 46.9419 22.3699 48.3616 24.2095C49.4387 25.6053 47.3969 26.7229 46.3211 27.0912C39.4632 29.4391 27.2181 25.7854 35.061 23.0866C36.524 22.5832 37.9102 22.3257 39.5902 22.1928ZM7.08811 22.2216C9.93976 21.9245 14.1422 22.459 16.356 23.6553C18.1731 24.637 17.6027 25.7749 15.9918 26.5287C14.7743 27.0982 13.1756 27.4304 11.7052 27.6316C4.13928 28.6687 -1.29651 25.5953 2.76767 23.347C4.00058 22.6649 5.52395 22.3841 7.08811 22.2216ZM42.5466 12.5599C44.457 12.2345 46.422 12.6911 45.364 14.8795C45.0286 15.5737 44.5319 16.1328 44.1328 16.6257C42.5719 18.5533 37.769 21.0745 34.5769 21.6661C33.6952 21.8299 32.7219 21.8945 31.9052 21.5974C31.0011 21.2694 31.4627 20.1737 31.8432 19.497C33.5453 16.4687 38.9615 13.1703 42.5466 12.5599ZM5.83433 12.4836C8.46182 11.952 12.7189 14.5228 14.2581 15.617C15.6702 16.6212 16.3502 17.3232 17.3914 18.4374C18.1401 19.2382 19.8085 21.6361 17.3006 21.7945C10.8543 22.202 0.510526 13.5607 5.83433 12.4836ZM24.6511 1.48315C26.0227 0.922762 26.9277 3.09359 27.2715 4.18357C29.4219 10.9953 25.5911 23.0674 22.9498 14.5516C21.8573 11.0307 21.5073 2.76733 24.6511 1.48315ZM35.7407 4.46445C37.8878 3.83901 37.6873 6.67274 37.349 8.17071C36.8644 10.3165 35.6961 12.4024 34.484 14.137L33.1794 15.8087C32.6406 16.489 29.1115 19.9411 28.4002 18.122C27.6144 16.1115 29.1802 12.2978 30.0569 10.6374C31.3065 8.2707 33.2603 5.18651 35.7407 4.46445ZM13.3939 4.45612C14.6506 4.00985 16.8027 5.95486 17.1985 6.4415C18.889 8.51903 20.5893 11.3282 21.411 14.0441C21.6873 14.9574 22.4297 18.534 21.0198 18.5995C18.0193 18.7394 13.6844 11.8153 12.8944 8.98112C12.516 7.62362 11.8964 4.98859 13.3939 4.45612ZM20.8102 9.07444C19.8715 7.72149 18.984 6.0598 17.531 4.8094C13.1527 1.04233 10.3964 3.53232 11.221 8.05362C11.5923 10.0874 12.6997 12.0845 13.2444 13.2119C12.4881 12.8003 11.1214 12.204 10.5556 11.9694C3.53268 9.05443 0.498506 13.3882 5.43013 18.1157C6.08936 18.7478 7.26225 19.6507 8.63724 20.7411C6.55348 20.7824 4.85059 20.9511 3.03723 21.6661C-1.07985 23.289 -0.964024 26.8128 3.09722 28.357C4.82223 29.0124 6.63891 29.2237 8.63186 29.2549C7.3427 30.332 5.36014 31.7416 4.39308 33.0004C4.05139 33.445 3.68016 34.0037 3.4835 34.387C3.07059 35.1921 2.81894 36.1637 3.15727 37.1345C4.1039 39.8491 8.2243 39.0283 10.6289 38.0004C11.2193 37.7483 12.4306 37.3283 12.9948 37.0462C12.311 38.5958 11.5635 39.9391 11.208 42.0141C10.3393 47.0833 13.7839 48.6558 17.6356 45.0996C18.7819 44.0416 20.2477 41.8949 20.771 41.1758C20.8961 43.1783 20.9652 45.2458 21.6981 46.965C22.2793 48.3292 23.2494 49.9954 25.0169 50C26.8152 50.0045 27.7069 48.3246 28.3452 46.9754C28.979 45.6362 29.2903 42.587 29.2903 40.9404C29.664 41.565 30.3161 42.6512 30.8898 43.3545C36.0582 49.6896 39.6927 46.9733 38.8556 42.0816C38.4698 39.8266 37.3502 37.7366 36.921 36.9191C37.9619 37.4541 38.7561 37.7499 39.594 38.0912C41.9045 39.0312 46.0661 39.7554 46.9236 37.0854C47.7165 34.6166 44.9669 32.1329 43.3282 30.8229C42.7352 30.3491 42.124 29.927 40.9786 29.2049C42.2594 29.2008 43.9815 29.1349 44.9715 28.9408C51.3495 27.6879 51.7136 22.987 46.0899 21.3291C44.8636 20.9678 42.9169 20.7507 41.122 20.7457C42.8573 19.6224 43.6207 19.1728 45.0932 17.6249C45.6344 17.0561 46.154 16.3757 46.5832 15.5374C48.3748 12.0373 45.1365 9.72444 39.5327 11.9307C38.709 12.2553 37.8361 12.6153 36.7348 13.2836C37.4569 12.1774 37.7807 11.1957 38.0723 10.4703C40.4882 4.45948 37.6307 0.326535 32.4815 4.87946C30.9386 6.24403 30.2352 7.64113 29.2556 9.15905C29.2556 7.68114 29.1077 5.66113 28.8515 4.57073C27.3857 -1.66599 22.3635 -1.55184 21.0818 5.10737C20.896 6.07275 20.8169 7.83231 20.8102 9.07444Z" fill="#9EA4BD"/>
</svg>
