<svg width="54" height="40" viewBox="0 0 54 40" fill="none" xmlns="http://www.w3.org/2000/svg">
<path fill-rule="evenodd" clip-rule="evenodd" d="M50.5264 18.3555H50.5267C50.8385 18.3555 51.0932 18.6102 51.0932 18.922V22.2776C51.0932 22.5894 50.8385 22.8441 50.5267 22.8441H50.5264C50.2147 22.8441 49.9599 22.5894 49.9599 22.2776V21.2063H48.3143V22.2776C48.3143 22.5894 48.0595 22.8441 47.7478 22.8441H47.7474C47.4357 22.8441 47.1809 22.5894 47.1809 22.2776V18.922C47.1809 18.6102 47.4357 18.3555 47.7474 18.3555H47.7478C48.0595 18.3555 48.3143 18.6102 48.3143 18.922V20.073H49.9599V18.922C49.9599 18.6102 50.2147 18.3555 50.5264 18.3555Z" fill="#98ACCB"/>
<path fill-rule="evenodd" clip-rule="evenodd" d="M42.9036 18.3384H42.904C43.0325 18.3384 43.1513 18.3818 43.2466 18.4544C43.3178 18.49 43.383 18.5412 43.4356 18.6078L43.8969 19.1878C43.9105 19.2014 43.9233 19.217 43.9359 19.2323L45.0645 20.6523V18.9239C45.0645 18.6122 45.3192 18.3574 45.631 18.3574H45.6313C45.9431 18.3574 46.1979 18.6122 46.1979 18.9239V22.2796C46.1979 22.5913 45.9431 22.846 45.6313 22.846H45.631C45.4325 22.846 45.2575 22.7429 45.1561 22.5879L45.1364 22.5642L44.9892 22.3793L44.6744 21.9831C44.6608 21.9695 44.6483 21.9549 44.636 21.9396L44.4888 21.7547L43.4705 20.4735V22.2606C43.4705 22.5723 43.2157 22.827 42.904 22.827H42.9036C42.5919 22.827 42.3372 22.5723 42.3372 22.2606V18.9049C42.3372 18.5932 42.5919 18.3384 42.9036 18.3384Z" fill="#98ACCB"/>
<path fill-rule="evenodd" clip-rule="evenodd" d="M31.9107 14.947C31.58 15.2041 29.739 16.2191 29.2098 16.5329C28.297 17.0736 27.4018 17.5658 26.4699 18.116C25.5601 18.6534 24.6465 19.167 23.7296 19.6989C22.9287 20.1636 23.1699 20.069 22.3588 19.611L15.5092 15.6529C15.0258 15.3798 14.6082 15.1413 14.139 14.8612C12.3333 13.7834 12.7296 13.8377 11.262 14.6763L7.14959 17.0475C6.69466 17.3172 6.24353 17.5773 5.77707 17.8365C5.05859 18.2355 5.45788 19.0781 6.11838 18.9173C6.30289 18.8722 7.28259 18.2602 7.51086 18.1313L11.623 15.7591C12.6535 15.1688 12.4076 15.1475 13.0159 15.5057C13.4904 15.7852 13.9036 16.0233 14.385 16.2988C16.9723 17.7778 20.087 19.5194 22.5569 21.0266L22.5559 32.5834C21.7835 33.0892 20.8744 33.5522 20.0588 34.0397L12.5501 38.3425C12.3815 38.3479 6.04777 34.6269 4.9962 34.0316L2.5171 32.62C2.4859 31.0023 2.51372 29.357 2.51372 27.7358C2.51372 26.977 2.56664 26.0109 2.51302 25.2775C2.45945 24.5509 1.39429 24.3982 1.39429 25.4542L1.39462 32.7194C1.39462 33.345 1.59477 33.3501 2.01064 33.596L4.86527 35.2447C5.67667 35.7019 12.1939 39.5386 12.4408 39.5695C12.832 39.6183 14.0973 38.7777 14.4467 38.5762L22.0189 34.1998C22.7717 33.7517 23.616 33.4664 23.673 32.9023C23.7574 32.0715 23.6503 22.4917 23.6814 21.0229L33.6483 15.2747C33.9288 15.2279 39.7832 18.8396 40.1221 18.919C40.7263 19.0604 41.2412 18.2755 40.4213 17.8189L36.8821 15.775C36.5327 15.5769 35.7376 15.1682 35.4916 14.947C35.397 14.755 35.49 8.38702 35.4825 7.19834C35.4757 6.15184 34.3644 6.24918 34.3644 7.14169L34.3617 14.292C34.1435 14.2091 33.9427 14.0355 33.6879 14.0379C33.4108 14.0409 33.2805 14.2187 33.0373 14.2886L33.038 7.14169C33.038 6.25667 31.9101 6.09823 31.9155 7.32113C31.925 9.55124 32.0017 12.9476 31.9107 14.947Z" fill="#98ACCB"/>
<path fill-rule="evenodd" clip-rule="evenodd" d="M12.3063 16.9061C11.9284 17.093 11.7221 17.5953 12.481 18.0225L18.3815 21.4283C18.7845 21.662 19.1604 21.8737 19.561 22.1101C19.8724 22.2936 20.5142 22.7879 20.9247 22.6054C21.1414 22.5091 21.5977 21.9724 20.7229 21.487C18.4287 20.2142 15.9761 18.7257 13.6418 17.4003C13.3053 17.209 12.6903 16.7161 12.3063 16.9061Z" fill="#98ACCB"/>
<path fill-rule="evenodd" clip-rule="evenodd" d="M20.4234 31.0252C19.5774 31.4333 16.711 33.148 15.6821 33.7461L12.1575 35.8049C11.6972 36.2391 12.1653 36.9651 12.8075 36.6991L21.0524 31.9136C21.5036 31.4784 21.0503 30.7226 20.4234 31.0252Z" fill="#98ACCB"/>
<path fill-rule="evenodd" clip-rule="evenodd" d="M33.3899 0.998322C34.9225 0.520347 35.2078 3.22501 33.9971 3.60257C32.513 4.06528 32.1331 1.39015 33.3899 0.998322ZM33.2942 0.0498608C32.1073 0.283586 31.4024 1.2823 31.6083 2.74841C31.7735 3.92348 32.7555 4.81633 34.1576 4.54359C36.7632 4.03646 36.2086 -0.524116 33.2942 0.0498608Z" fill="#98ACCB"/>
<path fill-rule="evenodd" clip-rule="evenodd" d="M3.83887 25.3941V31.3384C3.83887 31.7705 3.98844 32.0864 4.44333 32.0589C4.95017 32.028 4.96067 31.6013 4.95797 31.1586L4.95697 25.7544C4.95934 25.2947 4.98136 24.8405 4.55492 24.7329C4.06884 24.6105 3.83887 24.9561 3.83887 25.3941Z" fill="#98ACCB"/>
<path fill-rule="evenodd" clip-rule="evenodd" d="M52.6181 21.8132C52.7999 21.5795 52.8854 21.2762 53.1174 21.4496C53.5873 21.8519 52.3738 22.6867 52.059 23.2444C51.9291 23.4748 51.9868 23.6783 52.2663 23.6963C52.6975 23.7244 53.2253 23.7241 53.684 23.7095C54.1189 23.6959 54.1114 23.1454 53.6215 23.1057C53.437 23.0908 53.2076 23.122 52.9817 23.0979C53.2036 22.779 54.418 21.8468 53.7436 21.0703C53.2145 20.4608 52.2605 20.7887 52.0819 21.4097C51.9263 21.9508 52.3679 22.1348 52.6181 21.8132Z" fill="#98ACCB"/>
<path fill-rule="evenodd" clip-rule="evenodd" d="M0.566534 18.6416H0.566867C0.69544 18.6416 0.814167 18.685 0.909506 18.7576C0.980761 18.7933 1.04586 18.8445 1.09844 18.911L1.55982 19.491C1.57338 19.5046 1.58626 19.5202 1.59882 19.5355L2.72744 20.9555V19.2271C2.72744 18.9154 2.98214 18.6606 3.2939 18.6606H3.29424C3.606 18.6606 3.86077 18.9154 3.86077 19.2271V22.5827C3.86077 22.8945 3.606 23.1493 3.29424 23.1493H3.2939C3.09545 23.1493 2.92042 23.0462 2.81897 22.8911L2.7993 22.8674L2.65211 22.6825L2.33732 22.2863C2.32376 22.2727 2.31118 22.2581 2.29895 22.2429L2.15176 22.058L1.13336 20.7767V22.5638C1.13336 22.8755 0.878627 23.1303 0.566867 23.1303H0.566534C0.254774 23.1303 0 22.8755 0 22.5638V19.2081C0 18.8964 0.254774 18.6416 0.566534 18.6416Z" fill="#98ACCB"/>
</svg>
