<svg width="38" height="50" viewBox="0 0 38 50" fill="none" xmlns="http://www.w3.org/2000/svg">
<path fill-rule="evenodd" clip-rule="evenodd" d="M18.0485 19.034C17.934 18.9019 17.8393 18.7957 17.7179 18.629C17.5845 18.4463 17.5496 18.3729 17.4344 18.1771L16.3664 16.3023C15.1162 13.3521 14.5806 10.8925 15.5321 7.69028C15.9224 6.37723 16.7415 4.66516 17.4784 3.56758C17.751 3.16102 18.457 2.05813 18.7843 1.83889C19.4181 2.2636 20.7546 4.68232 21.1446 5.45547C23.0866 9.30812 22.829 12.4379 21.2411 16.1578C20.9095 16.9353 20.0867 18.382 19.5199 19.034V11.8617C19.5221 11.0264 19.6283 10.2068 18.7843 10.2068C17.9402 10.2068 18.0464 11.0264 18.0485 11.8617V19.034ZM18.9582 50H18.5719C18.289 49.9057 18.0511 49.5991 18.0426 49.0863C18.0352 48.6244 18.0321 45.2411 18.0321 44.7788C18.0316 42.4787 18.1019 40.1733 18.0564 37.8763C18.0476 37.4304 18.0792 37.504 17.8494 37.2555L14.999 34.4052C14.7289 34.1557 14.8357 34.2241 14.3752 34.2013L12.2031 33.8909C11.2442 33.6976 10.442 33.4653 9.59981 33.1836C9.01558 32.9885 7.65814 32.6453 7.65814 31.9071C7.65814 31.4625 7.94891 31.1714 8.39386 31.1714C8.67115 31.1714 10.1572 31.8774 10.6003 31.9996C11.2164 32.1694 12.3739 32.5507 13.0833 32.5507C12.6056 31.8375 10.7845 30.2062 10.072 29.4933C9.5689 28.9906 7.19821 26.8757 7.19821 26.298C7.19821 25.9776 7.61351 25.5623 7.93393 25.5623C8.3754 25.5623 10.6808 28.0794 11.1293 28.5278C11.8421 29.2407 13.4734 31.0615 14.1866 31.5392C14.1866 30.1478 13.3759 27.9917 12.7779 26.7873C11.7528 24.7217 10.3714 23.1689 8.44604 22.016C7.13419 21.231 5.65471 20.6396 4.10966 20.2836C3.45889 20.1337 2.17117 19.8614 1.49733 19.8614C1.49733 20.8089 1.91636 22.6284 2.1746 23.4141C3.87767 28.5975 5.65877 28.9866 6.19364 29.7903C6.48314 30.2259 6.29391 30.8957 5.63505 30.8957C5.19975 30.8957 4.61056 30.2855 4.27888 29.9533C2.39006 28.0595 1.24377 25.6738 0.576105 23.0815C0.506499 22.8117 -0.685648 18.3904 0.577743 18.3904C3.13825 18.3904 5.9045 19.2114 7.77715 20.0186C9.66598 20.8329 11.3356 22.175 12.5856 23.7613C14.1819 25.7869 15.2064 28.6812 15.6716 31.4335C15.717 31.6998 15.8374 33.1503 15.9174 33.3026C16.008 33.475 17.8409 35.2623 18.0485 35.4013C18.0485 33.6945 18.239 21.8633 17.972 21.3172L16.4304 19.2729C16.1787 18.8954 15.9655 18.5703 15.7538 18.2024C15.6339 17.9945 15.5702 17.8268 15.4437 17.5932C14.2121 15.3175 13.6351 13.3658 13.6351 10.4825C13.6351 8.06715 14.5291 6.03315 15.3513 4.38285C15.6939 3.6956 17.8378 0 18.7843 0C19.7363 0 21.8691 3.68434 22.2172 4.38285C23.4097 6.77569 23.9334 8.42004 23.9334 11.4939C23.9334 14.436 22.3203 17.7487 20.69 19.9283C20.3471 20.3867 19.5455 21.129 19.5134 21.6941C19.4194 23.3387 19.5199 28.5401 19.5199 30.4358C19.993 30.1191 20.8127 29.1752 21.2907 28.7124C21.8925 28.1301 21.6473 28.4232 21.7785 27.4531C22.3727 23.0574 23.9674 18.836 27.6842 16.3479C28.0624 16.095 28.3184 15.9445 28.7103 15.719C29.2102 15.4312 31.7495 13.8061 31.7495 15.4477C31.7495 16.3554 28.8749 16.4147 26.211 19.6563C25.0557 21.0621 23.3819 24.6325 23.3819 26.5741C24.0951 26.0963 25.7263 24.2752 26.4392 23.5626C26.942 23.0596 29.0569 20.6889 29.6346 20.6889C29.955 20.6889 30.3703 21.1043 30.3703 21.4246C30.3703 21.8177 29.2187 22.8061 28.922 23.1027C28.107 23.9174 24.8333 27.0203 24.3933 27.6772C25.7804 27.6772 27.9403 26.8672 29.1453 26.2687C30.5117 25.5901 31.6667 24.7599 32.6469 23.7016C34.1789 22.0485 35.1416 19.8034 35.649 17.6004C35.7989 16.9497 36.0711 15.6619 36.0711 14.9881C35.461 14.9881 34.9439 15.1332 34.361 15.22C33.3411 15.3721 32.0437 13.517 36.5308 13.517C37.0308 13.517 37.5422 13.5108 37.5422 14.1606C37.5422 17.1951 36.5174 20.9322 34.7066 23.3703C33.798 24.5937 33.0907 25.4062 31.8557 26.3124C29.4514 28.0776 26.3122 29.114 23.2805 29.3232C22.4742 29.3788 22.7184 29.2894 22.2547 29.7685L20.0945 31.9302C19.227 32.7924 19.5199 32.9073 19.5199 34.2978V42.9414C19.993 42.6244 20.813 41.6805 21.2907 41.218C21.8622 40.6647 21.6792 40.8533 21.791 39.9712C22.1279 37.3161 23.0615 34.6856 24.8742 32.8477C26.9376 30.7555 30.2784 29.4244 33.4045 29.4244C34.2372 29.4244 34.1648 30.176 34.0758 30.8308C33.8216 32.6994 33.4485 34.4093 32.6395 36.0155C32.1742 36.9395 31.5434 37.8771 30.7869 38.5766C30.3781 38.9548 30.0424 39.2568 29.5818 39.5784C29.0441 39.954 28.2553 39.9837 28.2553 39.3551C28.2553 38.7078 28.4858 38.6079 29.0313 38.2004C32.3447 35.7263 32.3525 31.5552 32.6688 30.8957C31.6162 30.9832 29.9852 31.4125 29.12 31.7607C27.0497 32.5934 25.5209 33.8831 24.4836 35.8594C23.9846 36.8105 23.6567 37.8997 23.3819 39.0794C24.1573 38.5601 27.2368 34.9417 27.7954 34.9417C28.1829 34.9417 28.6232 35.2142 28.6232 35.677C28.6232 36.2481 24.7949 39.5827 24.3933 40.1829C25.0809 40.0227 26.6922 39.2874 26.6922 40.5505C26.6922 41.8029 23.2783 41.4859 22.5757 41.9512C22.1279 42.2475 20.4092 44.1392 19.909 44.6179C19.5358 44.9752 19.4923 45.0617 19.5028 45.3553C19.5083 45.5114 19.5294 48.6473 19.5243 48.9929C19.5158 49.5678 19.257 49.901 18.9582 50Z" fill="#9EA4BD"/>
</svg>
