<svg width="47" height="46" viewBox="0 0 47 46" fill="none" xmlns="http://www.w3.org/2000/svg">
<path fill-rule="evenodd" clip-rule="evenodd" d="M22.5384 34.9964C25.1274 34.6922 27.1092 36.4356 27.3974 38.6362C27.7231 41.1229 25.8263 43.1461 23.664 43.4063C21.1964 43.7028 18.8881 41.8867 18.7593 39.7383C18.6031 37.1372 20.2086 35.2709 22.5384 34.9964ZM14.6486 13.872C18.0479 13.3872 20.7646 15.7715 21.1424 18.6575C21.5867 22.053 19.1429 24.4999 16.1926 24.9151C12.7889 25.3937 10.0985 22.9065 9.68941 20.1357C9.19806 16.8082 11.8133 14.2763 14.6486 13.872ZM24.8984 1.3174C28.2637 0.781667 31.0438 3.15199 31.5207 5.93634C32.0824 9.21701 29.488 11.9461 26.7898 12.3694C23.3254 12.9133 20.5801 10.4583 20.1088 7.70138C19.5383 4.36577 22.1004 1.76274 24.8984 1.3174ZM18.8948 5.18408C17.9336 4.37269 17.595 5.09364 17.9066 6.16939C16.1077 6.22004 15.8955 7.48219 17.8961 7.47056C17.781 7.99819 17.391 8.35775 17.9685 8.72032C18.3478 8.90973 18.6277 8.6654 18.9742 8.56179C19.7103 10.4142 20.2168 11.2754 21.4806 12.2449C26.0071 15.7185 32.5816 12.3728 32.7445 7.65109C34.1367 7.70521 37.6222 8.57923 39.2892 8.94373C39.6415 9.02067 40.0049 9.09953 40.3615 9.16021C40.641 9.20777 41.17 9.311 41.5481 9.38871C41.2823 10.0532 38.6436 12.1549 37.8445 12.6833C34.2779 15.0424 32.7492 13.9941 28.3029 17.1178C27.6507 17.5763 27.0309 17.9409 26.7628 18.1782C26.5451 18.2323 26.278 18.2616 25.9323 18.2598C24.7477 18.2531 23.5611 18.2594 22.3764 18.2594C20.7971 10.8792 10.6153 10.6531 8.60223 17.7043C7.89907 16.9787 6.63411 17.339 7.60736 18.804C5.92124 18.6262 5.65659 20.0881 7.61643 20.0332C6.68582 21.157 7.52169 21.7782 8.61042 21.1082C8.71809 21.5273 8.83516 21.927 8.99568 22.2598C10.2285 24.8184 13.1671 26.5401 16.2145 26.2162C19.5987 25.8567 22.3239 23.1562 22.4335 19.6142L25.5612 19.5582C25.0898 20.2053 23.994 21.3978 23.175 23.6835C22.5588 25.4029 21.9007 26.7102 20.9885 28.023C20.0501 29.3732 19.1884 30.3833 17.6435 31.2205C16.9392 31.6021 13.6823 33.0841 12.9577 33.151C12.527 31.8436 12.2154 31.0373 11.3784 30.2584C10.8784 29.7926 9.37108 28.6407 8.42484 29.0315C7.96096 30.73 9.31355 29.5398 10.8886 31.6828C13.7313 35.5507 8.96397 40.6366 4.4609 37.3425C2.08841 35.6072 2.78016 31.8321 5.24899 30.5259C5.72113 30.2762 6.78248 29.8664 6.25201 29.1664C5.84372 28.6271 4.7291 29.2862 4.33488 29.5387C3.10594 30.3256 2.60052 31.0192 2.01401 32.5306C0.965629 31.7451 0.420252 32.4575 0.959316 33.5306C-0.362782 33.6056 -0.271114 34.7266 0.944098 34.8317C0.31065 35.7966 0.747551 36.441 2.04732 35.7363C2.61067 39.0634 8.48122 41.6517 11.8846 37.5063C12.906 36.2624 12.7917 35.1908 13.0477 34.7208C13.2724 34.3076 17.2231 32.9245 18.5244 32.1773C18.9719 31.9202 19.2874 31.7037 19.7091 31.3782C19.908 31.2244 20.6905 30.379 20.7039 30.372C21.0045 30.7617 21.4923 33.258 21.4579 33.9307C20.5524 34.2851 19.5717 34.6647 18.6869 35.7579C16.0458 39.0189 17.9368 43.5362 21.3851 44.406C20.9388 45.5347 21.9031 45.7404 22.4046 45.0647C22.4927 46.229 23.6288 46.3735 23.722 45.1161C24.2626 45.8667 25.0824 45.5563 24.7438 44.3878C29.7867 43.5911 30.7435 33.9009 22.7679 33.7119C22.5279 32.9879 22.2977 31.1177 22.1242 30.253C21.9994 29.6295 22.0068 29.4965 21.8991 29.0052C22.365 28.2375 22.4903 28.0203 22.9867 27.2607C24.0661 25.6081 24.5711 23.2725 25.6967 21.5574C26.8821 19.751 28.2363 18.6934 30.0455 17.4685C32.0472 16.1132 33.9319 16.0583 36.0092 15.0873C36.1948 16.6219 36.082 18.3652 36.0773 20.5845C36.8274 20.5972 38.256 20.6486 39.611 21.4504C40.4946 21.973 41.1382 22.5833 41.6836 23.5076C42.9129 25.5908 42.6843 28.1772 41.2165 29.7818C37.5736 33.7625 31.8918 31.5387 31.0716 27.4029C30.5505 24.7728 32.0539 22.5892 33.45 21.6861C34.4447 20.9238 33.5776 20.0262 32.7261 20.6258C32.1439 20.9741 31.4517 21.6011 30.7615 22.7082C29.5263 24.6901 29.2934 26.9622 30.3626 29.2147C30.933 30.4169 32.2739 31.7664 33.4135 32.3547C33.8658 32.5882 34.5148 32.8963 34.9146 32.9902C34.3485 34.7876 35.6788 34.0335 36.1231 33.9272C36.1223 34.3741 36.0726 34.7482 36.3013 35.0598C36.4954 35.2724 36.7401 35.3509 37.1038 35.2184C37.4428 34.8956 37.3552 34.3918 37.3477 33.9005C37.7709 34.0443 37.9526 34.2693 38.4357 34.1429C39.0238 33.642 38.5755 33.2739 38.4666 32.9141C43.5985 31.7033 45.6613 25.4937 41.6453 21.4082C40.863 20.6127 39.797 20.0197 38.6397 19.673C38.3171 19.5763 37.83 19.4596 37.3532 19.3985L37.3521 14.4386L40.2315 12.3918C41.9271 11.127 43.8885 9.02723 45.2568 7.4331C45.949 6.62711 47.6751 4.97654 46.7171 4.41331C46.0477 4.01977 44.8861 5.91394 44.2374 6.68356C43.8678 7.12191 43.2943 7.832 42.9121 8.19772C42.6608 8.30287 41.9553 8.16988 41.1723 8.0137C39.5272 7.68513 34.0556 6.44891 32.896 6.35186C32.694 5.13772 32.6164 3.79213 30.8664 2.03835C27.9729 -0.861228 22.5134 -0.774658 19.9714 2.9912C19.7263 3.35416 18.9468 5.13035 18.8948 5.18408Z" fill="#9EA4BD"/>
</svg>
