<svg width="50" height="41" viewBox="0 0 50 41" fill="none" xmlns="http://www.w3.org/2000/svg">
<path fill-rule="evenodd" clip-rule="evenodd" d="M14.1015 39.0104C14.0923 38.1662 14.1749 37.0156 14.2706 36.3035C14.6215 33.6944 15.6574 31.9066 17.232 30.4758C18.1302 29.6596 19.2511 28.8861 20.7913 28.3968C22.535 27.8434 23.9693 28.0597 25.7878 28.1178C26.7099 32.6442 24.493 37.3363 20.1124 39.0801C19.122 39.4743 18.0943 39.7073 16.9877 39.7869C16.4476 39.8259 15.4124 39.8378 14.8292 39.8057C16.2419 38.5266 17.9543 36.7818 18.8237 35.9448C19.0707 35.7064 19.9908 35.0213 19.2856 34.5061C18.9768 34.3223 18.5863 34.542 18.1763 34.911C16.8856 36.0729 15.3714 37.75 14.1015 39.0104ZM12.6096 39.7822C11.9779 39.7996 11.174 39.8184 10.8504 39.8129C7.80025 39.7589 5.74283 38.83 3.60656 36.7073C2.03602 35.1471 0.438146 31.2404 1.39989 28.1341C5.51875 27.783 7.58977 28.4146 9.94166 30.4672C11.8064 32.0945 12.9444 34.83 13.0195 37.4873C13.0274 37.7678 13.0646 38.2363 13.0486 38.514C11.4941 37.183 10.1743 35.9424 9.02403 34.9445C8.02471 34.1457 7.36874 35.1659 8.28982 35.9052C9.11252 36.6654 11.3827 38.6524 12.6096 39.7822ZM12.5034 31.6931C11.2649 29.9018 10.7227 29.5701 10.3735 29.1714C10.2895 28.8424 10.258 28.2404 10.312 27.5171C10.5125 24.8345 11.3968 23.0949 12.6834 21.4933C13.557 20.4055 17.7588 16.1971 18.9607 15.0208C19.3423 14.6471 19.6485 14.3399 20.0376 13.9743L21.0868 13.0136C21.5111 13.2129 24.549 16.371 25.1271 16.9467C26.4745 18.2879 27.7615 19.5657 29.1113 20.908L37.0815 28.8144C36.3357 29.6985 34.5783 31.607 33.9999 32.182C32.9012 33.2746 31.8353 34.2913 30.743 35.3914C29.7885 36.3527 28.6604 37.5635 27.2292 38.3442C26.3026 38.8495 24.9607 39.3988 23.6371 39.6397C23.1687 39.7251 21.5719 39.9038 21.1267 39.8963C22.302 39.3698 22.8237 38.9048 23.3208 38.4996C26.2111 36.1437 27.687 32.1956 26.9877 28.3893C26.8271 27.5141 26.8551 27.252 26.0096 27.0576C23.3362 26.443 20.3287 26.9524 18.3725 28.197C16.931 29.1137 15.64 30.1854 14.7428 31.5865C14.0575 32.6575 13.9529 33.6889 13.6226 34.4108C13.3615 33.677 12.9153 32.2889 12.5034 31.6931ZM38.0204 27.9678C36.9575 26.9879 23.8203 13.8418 22.0598 12.1889C23.2207 10.9218 27.6156 6.36902 28.8763 5.19445C30.3505 3.82174 29.3655 3.2293 28.7058 3.73014L21.2019 11.166C19.7824 12.5729 12.7455 19.4831 11.5696 20.9316C10.2096 22.6073 9.33323 25.0118 9.16958 27.7303C9.15793 27.9227 9.17846 28.2308 9.17399 28.4266C8.75719 28.128 7.66189 27.6207 7.15216 27.4416C5.44153 26.8403 3.65236 26.6593 1.8355 26.9309C0.688922 27.1024 0.359218 27.086 0.141632 28.2568C-0.152183 29.8376 0.0257847 32.254 0.539935 33.6756C2.14089 38.1023 6.32573 41.3322 11.2239 40.9697C12.0978 40.9048 13.0695 40.6178 13.9102 40.6636C14.8624 40.7156 15.6229 40.9133 16.6861 40.9007C17.6738 40.8887 18.5467 40.6359 19.519 40.7822C20.5207 40.9328 21.3225 40.9806 22.41 40.927C25.7342 40.7641 28.4171 39.3169 30.5793 37.1669L45.5998 22.1653C46.9315 20.8561 47.2755 20.5866 48.3182 18.8797C49.9629 16.1879 50.4932 12.5815 49.4972 9.02287C47.7651 2.83062 41.1331 -1.16323 34.826 0.304123C34.2671 0.434331 33.0177 0.799219 32.6036 1.04038C31.7567 1.53405 32.058 2.42782 33.2688 1.99324C34.865 1.4203 36.6234 1.0838 38.4706 1.21803C46.9349 1.83336 51.7292 11.5788 46.9325 18.879C46.6633 19.2887 46.1477 19.894 45.5242 20.5749C44.1877 22.0344 40.2237 25.7877 38.0204 27.9678Z" fill="#98ACCB"/>
</svg>
