<svg width="45" height="50" viewBox="0 0 45 50" fill="none" xmlns="http://www.w3.org/2000/svg">
<path fill-rule="evenodd" clip-rule="evenodd" d="M2.15719 39.3616C0.341713 36.2923 2.01977 29.8232 3.27048 27.0342C4.77506 23.6793 7.08641 20.4119 12.1649 21.8912C16.2636 23.0853 17.1817 26.9301 16.3317 31.8253C15.9591 33.9702 15.4478 35.779 14.5875 37.5236C13.94 38.8369 12.4248 41.2214 11.3887 41.7046C12.2592 39.8824 14.4715 36.3014 14.4168 33.5651C13.1004 37.0495 10.4508 41.9482 7.79931 43.2259C8.22707 42.1403 8.85198 41.044 9.34228 39.8706C10.4516 37.2166 12.1828 31.506 12.3618 28.8347C11.1906 31.2145 7.52957 42.4639 5.9652 43.1466C5.25949 39.1612 7.31847 32.3535 7.59732 28.262L7.22107 29.0517C5.82503 33.1813 4.53389 38.0142 4.48633 42.3744C3.51165 41.29 3.23286 38.7347 3.15014 36.9826C3.03165 34.4791 3.53111 31.6723 3.4808 30.8355C3.25424 32.4272 2.07045 33.1124 2.15719 39.3616ZM32.1134 44.5958C32.5867 39.1711 32.1618 37.5061 30.519 32.5975C30.5395 33.537 30.8813 34.9576 31.0081 36.0114L31.2699 40.0159C31.2699 41.8104 30.8398 46.3661 29.5598 47.1749C29.5795 44.0385 28.8596 40.5759 28.09 37.6962C27.6218 35.9437 26.1458 30.5396 25.3573 29.386L27.149 38.2301C27.5771 40.5157 28.5589 45.7582 28.0413 47.9709C26.8266 47.5681 24.1699 41.4298 23.4166 39.7541L19.5885 30.4894C19.8621 32.9211 21.4407 37.6281 22.2931 39.9086C23.1865 42.3003 23.899 44.0279 25.0408 46.266C25.3763 46.9238 25.9719 47.6402 26.1703 48.1959C24.1656 47.6588 21.8139 44.692 20.8154 43.1855C20.0835 42.0805 18.588 39.3929 18.0339 38.099C17.7746 37.4927 17.5615 36.8705 17.2355 36.3156C17.4185 38.903 19.4467 43.018 20.8681 45.1986C21.4487 46.0893 22.0261 46.6714 22.6942 47.5277C20.594 46.0857 20.9599 46.5772 19.0138 44.4314C18.0387 43.3565 17.0688 41.6738 16.3246 40.088C15.2604 37.8198 15.8819 38.9838 17.0403 35.0043C17.9214 31.9765 18.8894 25.9693 16.5583 23.3648C17.1195 22.4547 18.7671 21.7815 20.1081 21.3898C24.5299 20.0979 27.8813 22.2832 29.9566 25.8921C32.2679 29.9111 34.0252 35.3267 33.4303 40.2468C33.2675 41.5953 32.8632 43.715 32.1134 44.5958ZM13.0937 20.6983C13.5602 19.1604 14.5801 17.8289 14.8355 15.4063C15.826 15.8729 18.013 19.3549 18.4244 20.4222C18.0613 20.7054 17.3164 20.989 16.9235 21.2294C16.3833 21.5604 15.9979 21.8931 15.5638 22.1577C14.9523 21.6108 14.0438 21.1882 13.0937 20.6983ZM38.6934 21.5716C33.4592 18.4618 29.4821 15.5611 23.4689 13.8392C25.366 13.5781 27.987 14.0835 29.9494 14.1243C29.6211 13.7726 29.01 13.5599 28.5217 13.386C28.0445 13.2165 27.4892 13.0644 26.9284 12.9255C25.5482 12.5841 23.9783 12.6312 23.4729 12.2759C26.2076 12.0577 27.7161 11.5488 30.7213 12.0264C32.8667 12.367 34.8494 13.066 36.5005 13.9801C38.3564 15.0071 39.7318 15.9873 40.9021 17.2986C41.8554 18.3671 43.4325 20.2539 43.3948 22.3462C43.3656 23.9617 42.1996 23.3431 41.2269 22.9062C40.3762 22.524 39.4748 22.0357 38.6934 21.5716ZM17.3686 9.51387C19.3025 6.56612 21.7865 4.27574 25.5747 2.56803C29.0259 1.01236 34.7048 0.327129 38.0268 2.37514C41.2209 4.34427 38.3964 5.0144 36.3662 5.48607C34.2517 5.97794 32.2409 6.3954 30.0738 6.79064C27.9898 7.17084 25.9319 7.63701 23.8899 8.17919C21.6598 8.77169 20.2839 9.58636 18.5072 10.2921L20.9892 8.18948C21.474 7.79856 21.8312 7.5459 22.3101 7.16138C22.7917 6.77525 23.3259 6.45405 23.6115 6.07618C22.5002 6.25523 21.1057 6.9507 20.1683 7.50114C19.6696 7.79383 19.0779 8.18518 18.6724 8.49014C18.1778 8.86202 17.8122 9.27588 17.3686 9.51387ZM17.1317 12.7931C18.2391 12.0573 18.4047 11.7484 19.8898 10.9571C22.9703 9.31541 27.0484 8.51386 30.5538 7.80893C32.3336 7.45089 40.2241 6.06905 40.7291 4.05955C41.4566 1.16559 32.584 -2.28475 23.9592 2.04802C21.6059 3.23062 20.3786 4.28245 18.6055 5.93523C17.6403 6.83461 15.1543 9.81723 14.6327 11.2482C11.0893 10.2347 12.1919 12.4902 12.4477 14.2455C12.778 16.5129 12.3982 18.2226 11.9507 20.303C10.7197 20.3074 10.0294 19.9525 8.56528 20.1965C2.36553 21.2306 -0.393713 31.3183 0.0450751 36.3639C0.22688 38.4507 0.768701 40.3383 1.74691 41.8266C2.4721 42.9308 4.0721 44.6124 5.6349 44.9764C8.69635 45.6897 12.2627 43.3685 14.0026 41.0781C14.2651 40.7327 14.4232 40.4495 14.7357 40.1454C15.4406 40.9268 17.8177 47.9356 24.244 49.6838C30.1907 51.3013 33.7004 46.4283 34.6402 41.5573C35.9317 34.8665 32.6358 24.511 27.2187 20.9133C24.2966 18.9731 22.1208 19.6919 19.5801 20.0294C19.2716 18.278 18.0704 16.2071 17.3587 14.7865C24.1386 14.0419 28.0619 16.6844 32.7126 19.2844C34.6077 20.3442 40.7176 24.1118 42.8895 24.3043C44.7564 24.4699 44.9751 22.8571 44.5533 21.2373C43.92 18.8047 41.8566 16.4241 40.4225 15.2926C34.5095 10.6288 28.2207 9.50717 20.7711 11.5579L17.1317 12.7931Z" fill="#98ACCB"/>
</svg>
