<svg width="53" height="50" viewBox="0 0 53 50" fill="none" xmlns="http://www.w3.org/2000/svg">
<path fill-rule="evenodd" clip-rule="evenodd" d="M25.7719 40.0047H35.3781C35.3952 40.5835 35.5372 42.6852 35.2539 42.9943C35.0781 43.2131 34.6851 43.181 34.3131 43.1914C33.0464 43.2268 26.1215 43.2697 25.9048 43.0801C25.6119 42.8243 25.7573 40.5381 25.7719 40.0047ZM19.1382 27.3344L24.5619 27.7248C28.4744 27.8802 35.531 27.9094 39.2631 27.5573C40.1306 27.4756 41.1585 27.3311 42.0047 27.3261C41.8447 27.7503 40.8585 29.2523 40.5772 29.4857L31.5635 29.8628C30.9635 29.8823 29.8706 29.7182 29.9581 30.5311C29.9927 30.8507 30.1115 30.9356 30.2935 31.0427C30.9814 31.3402 38.0422 30.7886 39.5223 30.8898C38.2143 32.1836 35.7364 33.2031 34.2706 33.619C30.1252 34.7952 25.8627 33.8923 22.5294 31.3948C21.3548 30.5148 19.8457 28.971 19.1382 27.3344ZM17.072 25.7756C15.6149 25.519 12.8986 25.3023 11.9841 24.4665L16.6153 24.4931C16.7686 24.8052 16.8411 25.3094 17.072 25.7756ZM44.2559 25.6877C44.2797 25.3219 44.7438 23.4019 44.898 21.9878C46.1692 22.1886 50.1563 22.8919 50.763 23.9345C50.0484 24.6361 45.6263 25.7598 44.2559 25.6877ZM19.5819 1.33041C22.7677 1.33712 30.4215 1.36462 31.8602 1.36462C33.3393 1.36462 40.4664 1.27626 41.5672 1.36293C42.5976 1.44416 42.4868 3.2004 42.0793 3.64331C41.7559 3.99499 39.6597 3.82957 38.9743 3.82957H29.2731C26.8028 3.82957 21.859 3.93246 19.5765 3.82751C18.8573 3.79456 18.8603 3.67039 18.8094 2.94204C18.7836 2.5758 18.764 2.15753 18.8161 1.84706C18.8999 1.35209 19.1415 1.32963 19.5819 1.33041ZM20.8461 5.16874C21.1707 7.12375 21.1449 8.12913 20.5131 9.86077H17.6894C18.1861 8.5058 17.954 6.96082 16.5465 6.29789C15.6211 5.86168 14.7278 5.75876 13.8574 5.75498C12.9766 5.75085 12.3082 5.91622 12.1333 6.21243C11.9274 6.94581 12.5095 6.99999 13.262 7.00622C14.1957 7.01413 15.3182 6.99705 16.0299 7.40204C16.9536 7.92786 17.1511 9.86623 14.4915 9.86203C13.6291 9.86036 12.7686 9.80702 11.9028 9.8187C11.5195 9.82409 11.0499 9.787 10.7929 10.0554C10.5507 10.3078 10.5916 10.7308 10.8345 10.9308C11.2128 11.2416 15.0965 11.077 15.8766 11.077C17.6012 11.077 19.3257 11.0749 21.0502 11.0753C21.6473 11.0753 23.109 10.9958 23.579 11.1279C24.224 11.3091 24.6223 12.1653 24.0669 12.7915C23.5119 13.4166 20.2715 13.1316 19.2024 13.1316C18.332 13.1316 17.4865 13.1328 16.6153 13.0962C15.8762 13.0654 14.7616 12.947 14.4478 13.537C14.1516 14.6679 15.627 14.4762 16.5228 14.4775L22.8057 14.3999C23.7223 14.397 25.1053 14.2791 25.4332 15.0058C25.9269 16.0987 24.7802 16.5074 23.9186 16.512C22.1265 16.5216 15.3553 16.2657 14.499 16.6986C14.4144 17.012 14.4137 17.2674 14.4866 17.549C15.8745 18.244 22.9552 17.1303 24.0044 17.9986C24.6081 18.4982 24.3382 19.3853 23.7206 19.6507C23.1603 19.8919 17.2299 19.7294 16.2453 19.7608C15.5586 19.7828 14.4599 19.6637 14.4128 20.4107C14.3587 21.272 15.4645 21.0994 16.1536 21.094C17.8153 21.0807 19.4803 21.094 21.1428 21.089C22.0127 21.0861 22.6861 21.1645 22.7165 22.0657C22.7469 22.9657 22.0365 23.0824 21.2344 23.1224C19.5923 23.2049 17.8974 23.1927 16.2457 23.1907C13.689 23.1878 8.89787 23.4024 6.70745 22.7315C6.0916 22.5432 5.48827 22.2348 5.00205 21.9407C4.40579 21.5802 4.09412 21.2557 3.64163 20.809C2.76371 19.9416 2.11707 18.8961 1.71537 17.6528C0.799593 14.8178 1.60371 11.5162 3.17499 9.91412C4.49786 8.56496 6.10244 7.58996 8.03366 7.29165C8.80118 7.17292 9.78327 7.32996 9.69198 6.35578C9.10452 4.97499 2.44832 6.69664 0.502057 12.0466C-0.255818 14.1299 -0.124148 16.6128 0.685003 18.5898C1.47666 20.5244 2.7637 21.9844 4.1929 22.9357C5.53289 23.8282 6.92908 24.1778 8.57619 24.3665C10.0462 24.5349 9.31118 25.8807 15.8653 26.8832C16.8715 27.0369 17.117 27.0961 17.5057 27.1403C18.6628 30.129 21.4207 32.3794 23.7478 33.6848C24.0827 33.8723 24.3923 34.0244 24.7415 34.1877L15.137 34.1702C13.5716 34.1385 13.0345 34.5089 12.8399 35.4052C12.7045 36.0285 12.7266 37.3023 12.7728 38.161C12.7999 39.5122 13.0816 39.9156 14.4557 39.9514C15.7103 39.9648 17.1049 39.9889 18.2657 39.9806C19.3823 39.9723 19.4428 38.6964 18.1715 38.7022C17.2228 38.7064 16.0357 38.7031 14.837 38.7272C14.0791 38.6443 13.9716 38.7514 13.9403 38.031C13.9144 37.4431 13.9395 36.679 14.019 36.0919C14.1245 35.3156 14.7003 35.5127 15.5565 35.4756C20.4978 35.2606 41.1847 35.3002 46.2626 35.3051C46.7676 35.3056 47.0146 35.4952 47.1088 35.974C47.243 36.6552 47.2092 37.8964 47.073 38.2918C47.0651 38.3147 47.0547 38.3398 47.0459 38.3605C46.9871 38.501 46.988 38.4785 46.938 38.5431C46.4901 38.7135 43.8634 38.6922 40.8856 38.6973C38.0502 38.7018 34.8685 38.7381 33.9852 38.7368L24.1915 38.6943C23.8377 38.6922 23.1836 38.7022 22.7882 38.7022C21.8144 38.7031 21.6932 39.9618 22.6619 39.9644C23.1427 39.9756 24.0523 39.9481 24.4394 39.9814C24.454 41.1277 24.2257 42.5639 24.6923 43.5493C25.1919 44.6043 26.3673 44.5072 27.7148 44.5014C27.7148 45.906 27.6414 47.4368 27.6886 48.823C27.7102 49.4659 27.8552 50.038 28.4385 49.998C28.9343 49.9676 28.9573 49.558 28.9744 49.0163C28.9881 48.5692 28.989 47.9313 28.9856 47.5776C28.9765 46.5405 29.0319 45.5793 29.0319 44.5418L32.111 44.503C32.111 45.5105 32.1148 46.4905 32.1114 47.4701C32.1102 47.8205 32.1152 48.5651 32.1231 49.0472C32.1331 49.6509 32.1885 49.9676 32.6947 49.9972C33.2402 50.0293 33.3335 49.5989 33.3568 48.9672C33.374 48.4943 33.3752 47.838 33.3727 47.5626C33.3635 46.5418 33.3297 45.5222 33.326 44.5014C34.5385 44.4964 36.0331 44.5748 36.4077 43.6076C36.8176 42.5485 36.6814 40.6773 36.7206 39.9572C37.681 39.9389 41.2422 39.9868 43.9976 39.966C45.4613 39.9548 46.5251 40.0226 47.2318 39.8326C48.3246 39.538 48.3826 38.5618 48.363 37.3077C48.3088 33.8556 47.9213 34.1798 44.333 34.1781C41.8901 34.1773 39.0302 34.1885 36.5873 34.1885C38.9339 33.4723 40.9105 31.5148 41.5584 30.6402C43.7184 30.529 46.4801 30.0981 48.5659 29.6202C48.9742 29.5306 50.0542 29.2481 50.7097 29.0157C51.7388 28.6248 51.2097 27.489 50.1942 27.7986C49.2301 28.0469 47.6142 28.4965 47.1671 28.5882C45.9109 28.8465 43.6222 29.2036 42.3451 29.3553C42.8318 28.679 43.4393 27.6131 43.6447 27.1965C44.2572 26.7886 53.668 26.1907 51.8755 23.2045C51.5159 22.6057 50.7792 22.2144 50.0101 21.9278C48.6901 21.4361 46.3776 20.8203 44.8767 20.7986C44.8684 19.5307 44.6922 18.2711 44.3592 17.1412C44.2589 16.8012 44.1301 16.2511 43.9343 15.7778C43.4405 14.5841 42.2168 14.232 42.7326 16.2699C43.0201 17.4045 43.5364 19.0878 43.6093 20.3974C43.7151 22.2998 43.3401 24.4795 42.6814 26.0119C39.813 26.3078 34.2935 26.6523 29.864 26.5661C26.2852 26.4965 22.5932 26.349 18.4632 26.0094L17.9257 24.4765C19.3394 24.414 21.2078 24.6882 22.5024 24.2519C23.1569 24.0311 23.5357 23.6482 23.7761 23.1249C24.1919 22.2211 23.9332 21.9223 23.8044 21.0261C24.4611 20.8453 25.0265 20.4311 25.3181 19.8616C25.794 18.9324 25.5015 18.5103 25.3552 17.6278C26.0869 17.0107 26.7331 16.5966 26.7806 15.502C26.8356 14.2333 26.2986 13.8133 25.3352 13.3645C25.5906 12.1858 25.6444 11.2453 24.939 10.5041C24.1661 9.69286 23.2448 9.85915 21.9748 9.86077C22.2861 8.59828 22.5048 7.29585 22.1736 5.1621L38.9876 5.1467C38.581 7.56625 38.8805 9.93409 40.1572 12.0095C40.2789 12.207 40.3993 12.4232 40.5326 12.6058C41.0218 13.2745 42.0476 13.1824 41.6105 12.105C41.2335 11.1758 40.2576 9.47662 40.0926 7.91954C40.0314 7.3425 39.8926 5.30579 40.553 5.15873C41.6734 4.90918 42.2484 5.4487 43.1485 4.43247C44.028 3.43918 43.8589 0.393355 41.8272 0.087497C40.7009 -0.0820844 21.9169 0.0470634 21.0015 0.0470634C19.5161 0.127511 17.699 -0.428289 17.5844 1.98628C17.4653 2.97544 17.5545 3.98829 18.1349 4.55957C18.8173 5.23125 19.7569 5.06877 20.8461 5.16874Z" fill="#9EA4BD"/>
<path fill-rule="evenodd" clip-rule="evenodd" d="M9.58004 27.9941C9.44227 28.2697 9.55331 28.5944 9.96735 28.8044C10.7803 29.2168 14.9315 30.1949 15.4707 30.0604C16.0213 29.9231 16.2046 29.1686 15.4395 28.8728C15.0188 28.7102 14.0315 28.5799 13.5268 28.4739C13.1043 28.3852 11.2274 27.8083 10.4298 27.6337C10.0652 27.554 9.76975 27.6147 9.58004 27.9941Z" fill="#9EA4BD"/>
</svg>
