<svg width="45" height="48" viewBox="0 0 45 48" fill="none" xmlns="http://www.w3.org/2000/svg">
<path fill-rule="evenodd" clip-rule="evenodd" d="M10.2318 9.63841C10.3018 9.50138 10.3962 9.38123 10.5153 9.28911C10.7159 9.03585 11.0281 8.87277 11.3796 8.87277C11.612 8.87277 11.8279 8.94408 12.005 9.06582C12.1723 9.02154 12.3474 8.98865 12.5281 8.96847C12.5069 8.82004 12.4275 8.66702 12.2667 8.53389C12.1313 8.42187 12.0229 8.33042 11.8832 8.23697C11.8966 7.64058 12.4848 7.30564 13.0649 7.30564C13.4126 7.30564 13.6574 7.39224 13.8846 7.56056C14.0783 7.70381 14.2215 7.89715 14.2469 8.2009C14.2212 8.3005 13.7794 8.64326 13.7394 9.02476C14.1346 9.10814 14.4933 9.25267 14.7945 9.4441C14.9006 9.33829 14.9934 9.21166 15.0705 9.09642C15.1119 9.09739 15.1522 9.10094 15.1916 9.10715C15.2841 8.85258 15.5146 8.67191 15.7847 8.67191C16.1363 8.67191 16.4212 8.9779 16.4212 9.3552C16.4212 9.64198 16.2565 9.88775 16.023 9.98902C16.0318 10.045 16.0367 10.1023 16.0374 10.1602C16.3046 10.2351 16.5673 10.3309 16.8242 10.4461C17.0064 10.3025 17.2197 10.2198 17.4479 10.2198C17.5078 10.2198 17.567 10.2256 17.6246 10.2367C17.3707 10.0086 17.2734 10.1078 17.2226 9.80931C17.1936 9.63777 17.1513 9.57463 17.1477 9.41868C17.567 9.32103 17.7581 8.93262 17.5417 8.52347C18.4066 8.72463 18.9763 8.24811 19.1534 8.2009C19.0701 8.35812 18.557 8.80795 19.017 9.26858C19.1185 9.37048 19.1785 9.37601 19.2933 9.42196L19.3682 9.45453C18.8477 9.49783 18.2643 9.92032 17.9697 10.3744C18.3506 10.6131 18.6214 11.1033 18.6566 11.6811C18.7224 11.7423 18.7875 11.8052 18.8519 11.869L18.9096 11.8608C18.6504 11.2381 19.1573 10.6365 19.6905 10.6365C20.5056 10.6365 20.8777 11.5357 20.3976 12.0955C20.308 12.2 20.1225 12.3276 19.9337 12.3736C20.116 12.634 20.226 12.9725 20.226 13.3427C20.226 13.4247 20.2205 13.5054 20.2101 13.5842L20.2423 13.6359C21.8462 13.3452 22.0695 11.9718 21.8908 10.8715C22.1021 10.5896 22.5158 9.95385 22.132 8.9828C22.0152 8.69665 21.7108 8.2699 21.4455 8.12924C21.493 8.06483 21.8035 7.8877 21.8035 7.55629C21.8035 7.26042 21.6863 7.41243 21.8739 7.16148C21.9627 7.04232 22.0213 6.94235 22.0903 6.80462C22.7876 5.41298 22.0754 3.29345 20.5144 3.25866C20.5144 1.5141 18.391 1.05864 17.4974 1.49552C17.3145 1.53853 17.191 1.61207 17.0403 1.64692C16.8886 1.07951 15.9768 0.465529 15.2496 0.465529C14.6512 0.465529 14.3582 0.629579 13.9243 0.859086C13.7004 0.709053 13.255 0 12.2413 0C11.3578 0 10.6722 0.469147 10.3333 1.17164C10.0938 1.66711 10.3854 1.54627 9.77961 1.65662C8.95112 1.80769 8.371 2.36044 8.11775 3.11049C8.0178 3.40803 8.01521 3.64077 8.01521 4.04676C7.69749 4.12066 7.32474 4.47645 7.14509 4.71671C6.88694 5.0614 6.86285 5.36742 6.76221 5.5155C6.68803 5.62522 6.08514 5.73268 5.62549 6.34857C5.11668 7.02996 5.11375 8.03551 5.5796 8.73898C5.65183 8.8487 5.73061 8.92873 5.79508 9.02476C5.22117 10.1088 5.53825 11.6915 6.58285 12.3911C6.21665 12.6838 6.08934 13.4364 6.13689 14.1263C6.17042 14.6145 6.30061 15.0322 6.51936 15.3678C6.44742 15.0387 6.40936 14.6979 6.40936 14.3479C6.40936 13.2519 6.78079 12.2414 7.4068 11.4311C6.93053 11.2492 6.68734 10.8687 6.68734 10.2781C6.68734 9.9757 6.81334 9.63194 6.95037 9.46396C7.11639 9.26016 7.32934 9.12345 7.65712 9.09642C7.73171 9.14622 7.84787 9.25135 7.93252 9.32231C8.02953 9.40403 8.09825 9.47399 8.20889 9.54726C8.48722 9.73214 8.69298 9.6602 8.94623 9.5261C8.94135 9.7468 8.87464 9.84709 8.87464 10.1349C8.81541 10.1746 8.76101 10.2153 8.71086 10.2572C9.17183 9.9724 9.68456 9.76015 10.2318 9.63841ZM20.156 8.88158C21.0633 8.90176 21.1134 9.86106 21.159 9.95577C21.033 9.92225 20.8751 9.72046 20.5304 9.58176C20.2439 9.46623 20.0424 9.41868 19.6547 9.41868C19.7459 9.33955 19.7862 9.35616 19.933 9.19566C20.0121 9.10877 20.1287 8.98377 20.156 8.88158ZM9.16108 9.02476C9.14256 8.80112 9.0364 8.65723 8.89091 8.54297C8.75451 8.43624 8.60735 8.28555 8.48072 8.2009C8.55169 8.05339 8.54651 7.78971 8.86843 7.55014C9.41468 7.14322 10.7012 7.28937 10.7012 7.9144C9.85609 8.11136 9.62596 8.42352 9.21024 8.96586C9.15912 9.03257 9.19173 8.98997 9.16108 9.02476ZM6.6545 8.16504C6.2036 7.49182 6.5591 6.92057 6.90517 6.84012C6.92242 7.04944 7.27039 7.50134 7.40645 7.59214C7.28926 7.83631 7.42371 7.88834 7.13692 7.96782C6.92174 8.02739 6.82116 8.07683 6.6545 8.16504ZM17.8997 5.58648C19.1058 5.58648 19.172 7.34145 17.8639 7.34145C17.2288 7.34145 16.7539 6.45179 17.3069 5.85344C17.4274 5.7229 17.6673 5.58648 17.8997 5.58648ZM19.4398 4.97777C19.9705 4.97777 20.0336 4.44063 20.2276 4.44063C21.3055 4.44063 21.4624 6.37265 20.5242 6.74604C20.4246 6.78578 20.3972 6.79976 20.3253 6.77084C19.9998 6.63961 20.0382 6.30921 20.0186 6.18971C19.9083 5.51488 19.7589 5.45433 19.4398 4.97777ZM16.0374 5.55072C15.9931 5.74245 15.9137 5.87457 15.8723 6.10184C15.841 6.2724 15.841 6.65559 15.8723 6.8265C15.9879 7.46194 16.2786 7.67251 16.3241 7.84279C16.0191 7.55405 15.2948 7.59277 15.2948 7.59277C15.1955 7.40496 14.9914 6.94886 14.8498 6.8017C14.5135 6.45276 14.0666 6.22129 13.5568 6.13342C12.8722 6.01553 12.1293 6.14027 11.5857 6.54293C11.5069 6.60089 11.4548 6.64777 11.3816 6.69693C11.2712 6.62269 11.1801 6.54584 11.0593 6.48201C11.1029 5.95824 11.5411 5.48725 11.9552 5.5133C12.0922 5.52175 12.1964 5.66107 12.3998 5.82185C12.4858 5.88925 12.5366 5.94882 12.6228 5.99276C13.27 6.32318 13.8423 5.41431 13.2602 4.96151C13.1909 4.9078 12.8673 4.64959 12.85 4.58386C12.9422 3.47572 14.937 3.41453 15.1959 4.46372C15.2847 4.82509 14.37 5.16594 14.8176 5.80397C14.9472 5.98886 15.2075 6.12039 15.5077 6.02407C15.7789 5.93712 15.8449 5.67959 16.0374 5.55072ZM9.23273 3.90318C9.23273 3.27003 9.58754 2.82889 10.1641 2.82889C10.3278 2.82889 10.36 3.27297 10.7998 3.66165C10.9164 3.76418 11.1231 3.87452 11.2081 3.96958C11.3533 4.13266 11.3688 4.23681 11.6681 4.2616V4.33321C10.9877 4.34816 10.2786 5.03248 9.9948 5.73986C9.94891 5.85413 9.92027 5.99926 9.8776 6.08782C9.02536 6.08782 8.63438 6.24672 8.12263 6.58952C7.61187 5.82676 8.27566 5.08519 8.6598 5.08519C8.81472 5.08519 9.58237 5.73916 9.98565 5.08618C10.1804 4.7707 10.0648 4.40579 9.65137 4.20135C9.52768 4.14017 9.23273 4.03993 9.23273 3.90318ZM16.9687 3.50926C17.2796 2.17495 19.3324 2.54506 19.3324 3.50926C19.3324 3.71732 18.721 3.95819 18.8669 4.58386C18.6689 4.47937 17.9623 4.25475 17.6491 4.40478C17.6285 4.15871 17.5423 4.00505 17.3883 3.87779C17.2425 3.75732 17.067 3.65642 16.9687 3.50926ZM15.1063 1.68268C15.4133 1.68268 15.5767 1.73417 15.771 1.91387C16.3222 2.4243 15.8508 2.81261 15.8225 3.15115C15.6571 3.10693 15.122 2.50663 14.2827 2.50663C14.3176 2.08701 14.6646 1.68268 15.1063 1.68268ZM11.3458 2.22014C11.3458 1.87545 11.3389 1.73247 11.6218 1.45742C12.1762 0.918989 13.1007 1.36434 13.1007 2.07696C13.1007 2.58577 12.7547 2.91905 12.2924 2.99036C11.8448 3.05971 11.3458 2.64401 11.3458 2.22014Z" fill="#9EA4BD"/>
<path fill-rule="evenodd" clip-rule="evenodd" d="M14.6586 36.1878C14.5443 36.1113 14.52 36.031 14.4553 35.8898C14.3978 35.7634 14.3403 35.6362 14.2954 35.5129C13.6524 33.7518 14.882 31.7388 15.903 30.5918C16.0275 30.4517 16.0888 30.3694 16.2259 30.2343C16.3561 30.1056 16.4139 29.9926 16.5479 29.876C16.6248 29.8091 16.6503 29.8041 16.7272 29.7329C16.953 29.5243 16.988 29.4622 17.2728 29.2399C17.3405 29.187 17.3831 29.1463 17.4521 29.0968L18.068 28.6742C18.2553 28.5532 18.7712 28.2433 19.0281 28.2376C19.0399 28.38 19.1933 28.8612 19.2329 29.1782C19.3734 30.302 19.3049 31.2762 19.0848 32.3768C18.9557 33.0228 18.7586 33.6562 18.5275 34.1835C18.2873 34.7313 18.0174 35.2384 17.5849 35.6046C17.1932 35.9362 16.5266 36.1966 15.948 36.3314C16.4642 35.356 16.9827 33.7476 17.3957 32.7651C17.7201 31.9923 17.8792 31.7821 18.2279 31.0905C18.3535 30.8411 18.6116 30.5434 18.6733 30.2799C18.7357 30.0154 18.5759 29.5623 18.0612 29.5623C17.6668 29.5623 17.5309 29.8894 17.3824 30.1376C16.9873 30.7981 16.6195 31.4803 16.3214 32.1921C16.2514 32.3593 16.1886 32.4952 16.1322 32.6478C15.6769 33.8832 15.241 35.0873 14.6586 36.1878ZM17.3447 25.3005H17.1658C16.7272 25.3005 16.3778 24.9241 16.3778 24.3694C16.3778 23.34 18.1327 23.1954 18.1327 24.4771C18.1327 24.8742 17.7414 25.3005 17.3447 25.3005ZM12.116 23.546C12.3927 23.546 12.6192 23.6419 12.7848 23.8079C13.2553 24.2788 13.0894 25.3005 12.0802 25.3005C11.6092 25.3005 11.2499 24.8263 11.2621 24.4083C11.2747 23.9758 11.6644 23.546 12.116 23.546ZM6.60167 24.082C6.90053 24.1539 6.78483 24.2099 6.87391 24.4748C7.41182 26.0753 9.56421 26.3456 10.4326 25.6588C10.5277 25.7224 10.6043 25.8549 10.7093 25.9554C11.2141 26.4373 12.0082 26.6322 12.6969 26.4548C12.8503 26.4152 12.923 26.368 13.0471 26.3395C13.0338 26.4967 12.9733 26.7258 12.9425 26.8793C12.4441 29.3682 12.1555 32.845 12.9531 35.2791C13.0627 35.6142 13.1308 35.8887 13.263 36.1871C13.6467 37.0554 14.0651 37.7144 14.6533 38.4495C14.785 38.6139 16.5913 41.3324 16.7124 41.4097C17.2548 41.7573 17.6626 41.326 17.6626 40.9388C17.6626 40.595 15.7565 37.8876 15.6255 37.6923L16.758 37.3562C17.1647 37.2206 17.4483 37.1213 17.7898 36.9195C17.886 36.8628 17.9279 36.851 18.0155 36.7874C18.0943 36.7303 18.1453 36.6983 18.2252 36.6386C18.936 36.1064 19.4419 35.2598 19.74 34.4291C20.3541 32.7186 20.4964 31.7269 20.4964 29.8848C20.4964 28.9235 20.2989 28.1241 19.9444 27.3208C19.6349 26.62 18.8797 26.9238 18.3478 27.1633C17.7749 27.4214 17.232 27.7587 16.736 28.1298C16.2369 28.5033 15.8109 28.9343 15.3659 29.3743C14.9311 29.8041 14.5417 30.3192 14.1998 30.8228L13.6916 31.6397C13.6916 31.3169 13.6901 30.9941 13.6905 30.6713C13.6908 30.3972 13.7476 30.0412 13.7624 29.7763C13.8252 28.6411 14.0616 27.5166 14.2916 26.4377C14.4005 25.9261 14.2577 25.9398 14.7659 25.9451C15.2133 25.9496 15.3168 25.9181 15.6613 25.8377C15.8661 25.9752 16.0546 26.1712 16.2814 26.2923C17.0074 26.6798 17.8259 26.5595 18.4845 26.1179C19.2413 25.6105 19.7309 24.0066 18.8488 22.8653C18.8606 22.726 18.9002 22.7047 18.9421 22.5646C19.0212 22.297 19.1279 21.7126 19.0281 21.5044C20.6776 21.2345 20.9076 19.843 20.7268 18.7311C20.938 18.4493 21.3519 17.8135 20.9681 16.8424C20.8512 16.5565 20.5466 16.1298 20.2813 15.9894C20.3289 15.9246 20.6396 15.7472 20.6396 15.416C20.6396 15.1199 20.5223 15.2722 20.7096 15.0213C20.7987 14.9021 20.8573 14.8024 20.9266 14.6645C21.6236 13.2728 20.9118 11.1535 19.3502 11.1184C19.3502 9.37376 17.2271 8.91847 16.3336 9.35512C16.1505 9.39813 16.0271 9.47199 15.8764 9.50701C15.7249 8.93943 14.8127 8.32495 14.0856 8.32495C13.4872 8.32495 13.1944 8.48944 12.7605 8.719C12.5362 8.56902 12.0909 7.85938 11.0774 7.85938C10.1938 7.85938 9.50826 8.32877 9.16903 9.03115C8.92998 9.52679 9.22119 9.40613 8.61553 9.51654C7.78716 9.66766 7.20698 10.2204 6.95384 10.9704C6.85372 11.2681 6.85142 11.5007 6.85142 11.9065C6.53353 11.9803 6.16083 12.3363 5.98118 12.5761C5.7231 12.9214 5.69871 13.2275 5.59819 13.3751C5.52395 13.4852 4.92135 13.5925 4.46147 14.2081C3.95248 14.8899 3.94984 15.8953 4.41541 16.5984C4.4881 16.7085 4.56653 16.7884 4.63088 16.8843C4.05715 17.9685 4.37429 19.5514 5.41889 20.2511C5.05269 20.5435 4.92555 21.2961 4.9731 21.9859C5.04964 23.096 5.62562 23.8421 6.60167 24.082ZM15.5182 20.4659C15.5182 21.0395 16.1863 21.4244 16.6964 20.7845C16.7733 20.6878 16.7737 20.7365 16.8076 20.609C16.9316 20.6425 17.0135 20.8511 17.3801 21.1107C17.6866 21.3277 17.8461 21.1766 17.8461 21.7552C17.8461 21.9871 17.7837 22.2117 17.7029 22.364C17.2849 22.364 17.2439 22.2512 16.6778 22.4172C16.401 22.4979 16.5236 22.3887 16.2152 22.3461C15.8726 22.2989 15.5539 22.5897 15.5539 22.9369C15.5539 23.3339 15.7043 22.8531 15.3506 23.5574C15.1272 24.002 15.1599 24.2403 15.1599 24.7276C14.3856 24.7276 14.8002 24.7531 14.2288 24.6203C14.2988 24.4748 14.2451 24.1733 14.2086 23.9959C14.166 23.7911 14.094 23.6255 14.0141 23.474C14.1976 23.1999 14.2646 23.345 14.2646 22.8653C14.2646 22.6118 13.9638 22.3213 13.6067 22.3533C13.4244 22.3697 13.405 22.3997 13.2976 22.4713C13.3022 22.2677 13.3696 22.1325 13.3696 21.8983C13.8092 21.6658 13.9429 21.3148 14.1603 20.9345C14.2162 20.8363 14.217 20.8789 14.2703 20.7578C14.298 20.6943 14.3285 20.5956 14.3365 20.5016C15.3095 20.4205 15.8269 19.3104 15.9122 19.248C15.948 19.4026 16.0195 19.4445 16.0195 19.642C16.0195 19.7821 15.5182 20.1742 15.5182 20.4659ZM7.99729 19.4989C8.20782 19.5553 8.3563 20.2622 9.53718 20.5374C9.60377 21.338 10.4006 22.0719 11.2628 22.2859C11.4068 22.3217 11.5483 22.332 11.6862 22.364C11.6485 22.3902 11.6987 22.3654 11.6169 22.402C11.5689 22.4233 11.5792 22.418 11.5392 22.4321C11.3953 22.4827 11.2031 22.5413 11.0774 22.6506C10.9248 22.5485 10.4071 22.0728 10.0111 22.5516C9.70694 22.9194 9.92966 23.329 10.2536 23.546C10.1954 23.656 10.1478 23.7881 10.1185 23.9122C9.99516 24.4379 10.1684 24.4284 9.77704 24.6092C9.34264 24.8099 8.64676 24.7798 8.30948 24.4513C7.9139 24.066 8.02127 23.9998 7.96152 23.7965L8.3502 23.4333C8.42214 23.369 8.42444 23.38 8.48574 23.2822C8.84964 22.7047 8.19562 22.1108 7.67445 22.4352C7.59641 22.4839 7.11831 22.9369 7.10192 22.9369C5.88831 22.9369 5.87876 20.5731 7.10192 20.5731C7.31624 20.5731 7.86784 21.4758 8.45452 20.9588C8.72974 20.7164 8.71715 20.2857 8.34485 19.9751C8.26567 19.9092 8.20856 19.8636 8.12748 19.7985C7.98814 19.6855 7.99729 19.7357 7.99729 19.4989ZM18.6341 20.2511C18.237 20.2511 17.9283 20.1137 17.7631 19.7608C17.465 19.1239 17.982 18.4961 18.5263 18.4961C19.3414 18.4961 19.7137 19.3953 19.2337 19.9553C19.1225 20.0848 18.8633 20.2511 18.6341 20.2511ZM7.78256 17.3861C7.77761 17.6065 7.71062 17.7066 7.71062 17.9948C7.07943 18.4174 7.00444 18.9892 6.45739 19.3558C5.83955 19.2119 5.52321 18.8113 5.52321 18.1379C5.52321 17.8353 5.6492 17.4915 5.78624 17.3236C5.9526 17.12 6.16543 16.9833 6.49322 16.9563C6.5678 17.0062 6.68431 17.1109 6.76844 17.182C6.86551 17.2639 6.93406 17.3336 7.04481 17.407C7.32308 17.592 7.52907 17.5201 7.78256 17.3861ZM18.9919 16.7412C19.8995 16.7614 19.9494 17.7207 19.9951 17.8155C19.8691 17.782 19.711 17.5802 19.3665 17.4413C19.0799 17.3259 18.8785 17.2784 18.4906 17.2784C18.582 17.1992 18.6223 17.2163 18.7693 17.0553C18.848 16.9689 18.9649 16.8439 18.9919 16.7412ZM17.9892 16.0609C17.9062 16.2178 17.3931 16.6677 17.8529 17.1284C17.9546 17.23 18.0143 17.2357 18.1293 17.2817L18.2043 17.3141C17.6386 17.3613 16.9986 17.8563 16.736 18.3531C16.6438 18.2914 16.5947 18.2285 16.5129 18.1463C16.2198 17.8532 16.1128 17.9872 16.0588 17.669C16.0298 17.4976 15.9872 17.434 15.9838 17.2784C16.4029 17.1809 16.5944 16.7922 16.3778 16.383C17.2423 16.5847 17.8126 16.1081 17.9892 16.0609ZM11.9009 15.1655C12.2484 15.1655 12.4932 15.252 12.7205 15.4202C12.9143 15.5638 13.0574 15.7568 13.0829 16.0609C13.0471 16.1983 12.2187 16.7995 12.7494 17.3256C13.2481 17.8201 13.6577 17.3278 13.9067 16.9563C14.4587 16.9685 14.8737 17.4653 14.8737 18.0306C14.8737 18.4673 14.8451 18.8864 14.4142 19.1829C14.035 19.4437 14.0906 19.3002 13.7221 19.0029C13.5344 18.8513 13.5234 18.7467 13.1903 18.7467C12.9177 18.7467 12.6173 18.9865 12.6173 19.248C12.6173 19.9938 13.0829 19.7825 13.0829 20.1792C13.0829 21.4663 10.7192 21.4388 10.7192 20.2154C10.7192 20.0825 11.3279 19.8119 11.3279 19.32C11.3279 18.7029 10.4767 18.4341 9.85962 19.3558C9.6879 19.3158 9.62741 19.3188 9.47628 19.2373C8.68218 18.8098 8.73239 17.2647 9.65099 16.9959C9.94225 16.911 9.99286 17.0606 10.3545 17.3564C10.5399 17.5079 10.7481 17.5559 10.9846 17.4733C11.347 17.3461 11.5765 16.7861 11.1026 16.3936C10.9674 16.2817 10.8589 16.1903 10.7192 16.0967C10.7326 15.5006 11.3207 15.1655 11.9009 15.1655ZM7.99729 16.8843C7.97866 16.6612 7.87244 16.517 7.72701 16.4028C7.59032 16.2962 7.44299 16.1454 7.31699 16.0609C7.38784 15.9132 7.38249 15.6498 7.70452 15.4099C8.25043 15.0029 9.53718 15.1491 9.53718 15.7742C8.69207 15.9711 8.46176 16.2832 8.04605 16.8257C7.99539 16.8923 8.02777 16.8497 7.99729 16.8843ZM5.49048 16.0251C5.03935 15.3517 5.39531 14.7807 5.74098 14.7C5.75846 14.909 6.10643 15.3608 6.24232 15.4518C6.12547 15.6962 6.25946 15.748 5.97319 15.8276C5.75772 15.887 5.6576 15.9364 5.49048 16.0251ZM16.736 13.4464C17.9416 13.4464 18.0079 15.2013 16.7002 15.2013C16.0652 15.2013 15.5897 14.3117 16.1429 13.7132C16.2635 13.5826 16.5034 13.4464 16.736 13.4464ZM18.2759 12.8376C18.8066 12.8376 18.8694 12.3005 19.0639 12.3005C20.1416 12.3005 20.2985 14.2325 19.3601 14.606C19.2603 14.6455 19.2333 14.6596 19.1613 14.6307C18.8358 14.4993 18.8743 14.1689 18.8545 14.0494C18.7441 13.3748 18.5949 13.3143 18.2759 12.8376ZM14.8737 13.4105C14.8288 13.602 14.7496 13.7345 14.7081 13.9614C14.6772 14.1324 14.6772 14.5153 14.7081 14.6863C14.8238 15.3216 15.1146 15.5321 15.1599 15.7027C14.9483 15.7522 15.0411 15.7335 14.6684 15.3707C14.5417 15.2473 14.2737 15.0578 14.0499 15.1655C13.7152 14.5332 13.1179 14.1183 12.3927 13.9934C11.7083 13.8754 10.9655 13.9999 10.4219 14.4027C10.3431 14.4609 10.2909 14.5077 10.2178 14.5568C10.1075 14.4826 10.0161 14.4057 9.89539 14.3417C9.93921 13.8179 10.377 13.347 10.7912 13.3729C10.9282 13.3816 11.0325 13.521 11.2362 13.6816C11.3215 13.749 11.3728 13.8088 11.4589 13.8525C12.1061 14.183 12.6786 13.2743 12.0961 12.8212C12.0269 12.7676 11.7033 12.5098 11.6862 12.4436C11.7783 11.3355 13.7731 11.2745 14.032 12.3237C14.121 12.6846 13.2059 13.0257 13.6536 13.6637C13.7834 13.8488 14.0434 13.98 14.3438 13.8838C14.6148 13.7969 14.681 13.5396 14.8737 13.4105ZM8.06888 11.7634C8.06888 11.1299 8.42369 10.6886 9.00002 10.6886C9.16374 10.6886 9.19606 11.1325 9.63575 11.5212C9.75226 11.624 9.95939 11.734 10.0439 11.8295C10.1893 11.9925 10.2049 12.0964 10.5041 12.1212V12.1931C9.82385 12.208 9.11463 12.8921 8.83061 13.5994C8.78495 13.714 8.75602 13.859 8.71375 13.9477C7.8614 13.9477 7.47042 14.1064 6.95878 14.4491C6.4479 13.6866 7.11146 12.945 7.49595 12.945C7.65047 12.945 8.41834 13.599 8.82186 12.9457C9.01641 12.6305 8.90105 12.2654 8.48724 12.061C8.36389 12.0001 8.06888 11.9 8.06888 11.7634ZM15.8048 11.3693C16.1155 10.0346 18.1685 10.405 18.1685 11.3693C18.1685 11.5771 17.5571 11.8182 17.7029 12.4436C17.505 12.3389 16.7981 12.1143 16.4851 12.2647C16.4645 12.0184 16.3785 11.8646 16.2243 11.7374C16.0781 11.6171 15.9034 11.5162 15.8048 11.3693ZM13.9425 9.54277C14.2497 9.54277 14.4131 9.59377 14.6068 9.77347C15.1584 10.284 14.6867 10.6723 14.6586 11.0111C14.4933 10.9669 13.9577 10.3666 13.1187 10.3666C13.1537 9.94668 13.5005 9.54277 13.9425 9.54277ZM10.1821 10.0799C10.1821 9.73499 10.1748 9.5923 10.4581 9.31742C11.012 8.77876 11.9366 9.22411 11.9366 9.93678C11.9366 10.4454 11.5906 10.7789 11.1284 10.85C10.6807 10.9193 10.1821 10.5036 10.1821 10.0799Z" fill="#9EA4BD"/>
<path fill-rule="evenodd" clip-rule="evenodd" d="M10.2318 9.63841C10.3018 9.50138 10.3962 9.38123 10.5153 9.28911C10.7159 9.03585 11.0281 8.87277 11.3796 8.87277C11.612 8.87277 11.8279 8.94408 12.005 9.06582C12.1723 9.02154 12.3474 8.98865 12.5281 8.96847C12.5069 8.82004 12.4275 8.66702 12.2667 8.53389C12.1313 8.42187 12.0229 8.33042 11.8832 8.23697C11.8966 7.64058 12.4848 7.30564 13.0649 7.30564C13.4126 7.30564 13.6574 7.39224 13.8846 7.56056C14.0783 7.70381 14.2215 7.89715 14.2469 8.2009C14.2212 8.3005 13.7794 8.64326 13.7394 9.02476C14.1346 9.10814 14.4933 9.25267 14.7945 9.4441C14.9006 9.33829 14.9934 9.21166 15.0705 9.09642C15.1119 9.09739 15.1522 9.10094 15.1916 9.10715C15.2841 8.85258 15.5146 8.67191 15.7847 8.67191C16.1363 8.67191 16.4212 8.9779 16.4212 9.3552C16.4212 9.64198 16.2565 9.88775 16.023 9.98902C16.0318 10.045 16.0367 10.1023 16.0374 10.1602C16.3046 10.2351 16.5673 10.3309 16.8242 10.4461C17.0064 10.3025 17.2197 10.2198 17.4479 10.2198C17.5078 10.2198 17.567 10.2256 17.6246 10.2367C17.3707 10.0086 17.2734 10.1078 17.2226 9.80931C17.1936 9.63777 17.1513 9.57463 17.1477 9.41868C17.567 9.32103 17.7581 8.93262 17.5417 8.52347C18.4066 8.72463 18.9763 8.24811 19.1534 8.2009C19.0701 8.35812 18.557 8.80795 19.017 9.26858C19.1185 9.37048 19.1785 9.37601 19.2933 9.42196L19.3682 9.45453C18.8477 9.49783 18.2643 9.92032 17.9697 10.3744C18.3506 10.6131 18.6214 11.1033 18.6566 11.6811C18.7224 11.7423 18.7875 11.8052 18.8519 11.869L18.9096 11.8608C18.6504 11.2381 19.1573 10.6365 19.6905 10.6365C20.5056 10.6365 20.8777 11.5357 20.3976 12.0955C20.308 12.2 20.1225 12.3276 19.9337 12.3736C20.116 12.634 20.226 12.9725 20.226 13.3427C20.226 13.4247 20.2205 13.5054 20.2101 13.5842L20.2423 13.6359C21.8462 13.3452 22.0695 11.9718 21.8908 10.8715C22.1021 10.5896 22.5158 9.95385 22.132 8.9828C22.0152 8.69665 21.7108 8.2699 21.4455 8.12924C21.493 8.06483 21.8035 7.8877 21.8035 7.55629C21.8035 7.26042 21.6863 7.41243 21.8739 7.16148C21.9627 7.04232 22.0213 6.94235 22.0903 6.80462C22.7876 5.41298 22.0754 3.29345 20.5144 3.25866C20.5144 1.5141 18.391 1.05864 17.4974 1.49552C17.3145 1.53853 17.191 1.61207 17.0403 1.64692C16.8886 1.07951 15.9768 0.465529 15.2496 0.465529C14.6512 0.465529 14.3582 0.629579 13.9243 0.859086C13.7004 0.709053 13.255 0 12.2413 0C11.3578 0 10.6722 0.469147 10.3333 1.17164C10.0938 1.66711 10.3854 1.54627 9.77961 1.65662C8.95112 1.80769 8.371 2.36044 8.11775 3.11049C8.0178 3.40803 8.01521 3.64077 8.01521 4.04676C7.69749 4.12066 7.32474 4.47645 7.14509 4.71671C6.88694 5.0614 6.86285 5.36742 6.76221 5.5155C6.68803 5.62522 6.08514 5.73268 5.62549 6.34857C5.11668 7.02996 5.11375 8.03551 5.5796 8.73898C5.65183 8.8487 5.73061 8.92873 5.79508 9.02476C5.22117 10.1088 5.53825 11.6915 6.58285 12.3911C6.21665 12.6838 6.08934 13.4364 6.13689 14.1263C6.17042 14.6145 6.30061 15.0322 6.51936 15.3678C6.44742 15.0387 6.40936 14.6979 6.40936 14.3479C6.40936 13.2519 6.78079 12.2414 7.4068 11.4311C6.93053 11.2492 6.68734 10.8687 6.68734 10.2781C6.68734 9.9757 6.81334 9.63194 6.95037 9.46396C7.11639 9.26016 7.32934 9.12345 7.65712 9.09642C7.73171 9.14622 7.84787 9.25135 7.93252 9.32231C8.02953 9.40403 8.09825 9.47399 8.20889 9.54726C8.48722 9.73214 8.69298 9.6602 8.94623 9.5261C8.94135 9.7468 8.87464 9.84709 8.87464 10.1349C8.81541 10.1746 8.76101 10.2153 8.71086 10.2572C9.17183 9.9724 9.68456 9.76015 10.2318 9.63841ZM20.156 8.88158C21.0633 8.90176 21.1134 9.86106 21.159 9.95577C21.033 9.92225 20.8751 9.72046 20.5304 9.58176C20.2439 9.46623 20.0424 9.41868 19.6547 9.41868C19.7459 9.33955 19.7862 9.35616 19.933 9.19566C20.0121 9.10877 20.1287 8.98377 20.156 8.88158ZM9.16108 9.02476C9.14256 8.80112 9.0364 8.65723 8.89091 8.54297C8.75451 8.43624 8.60735 8.28555 8.48072 8.2009C8.55169 8.05339 8.54651 7.78971 8.86843 7.55014C9.41468 7.14322 10.7012 7.28937 10.7012 7.9144C9.85609 8.11136 9.62596 8.42352 9.21024 8.96586C9.15912 9.03257 9.19173 8.98997 9.16108 9.02476ZM6.6545 8.16504C6.2036 7.49182 6.5591 6.92057 6.90517 6.84012C6.92242 7.04944 7.27039 7.50134 7.40645 7.59214C7.28926 7.83631 7.42371 7.88834 7.13692 7.96782C6.92174 8.02739 6.82116 8.07683 6.6545 8.16504ZM17.8997 5.58648C19.1058 5.58648 19.172 7.34145 17.8639 7.34145C17.2288 7.34145 16.7539 6.45179 17.3069 5.85344C17.4274 5.7229 17.6673 5.58648 17.8997 5.58648ZM19.4398 4.97777C19.9705 4.97777 20.0336 4.44063 20.2276 4.44063C21.3055 4.44063 21.4624 6.37265 20.5242 6.74604C20.4246 6.78578 20.3972 6.79976 20.3253 6.77084C19.9998 6.63961 20.0382 6.30921 20.0186 6.18971C19.9083 5.51488 19.7589 5.45433 19.4398 4.97777ZM16.0374 5.55072C15.9931 5.74245 15.9137 5.87457 15.8723 6.10184C15.841 6.2724 15.841 6.65559 15.8723 6.8265C15.9879 7.46194 16.2786 7.67251 16.3241 7.84279C16.0191 7.55405 15.2948 7.59277 15.2948 7.59277C15.1955 7.40496 14.9914 6.94886 14.8498 6.8017C14.5135 6.45276 14.0666 6.22129 13.5568 6.13342C12.8722 6.01553 12.1293 6.14027 11.5857 6.54293C11.5069 6.60089 11.4548 6.64777 11.3816 6.69693C11.2712 6.62269 11.1801 6.54584 11.0593 6.48201C11.1029 5.95824 11.5411 5.48725 11.9552 5.5133C12.0922 5.52175 12.1964 5.66107 12.3998 5.82185C12.4858 5.88925 12.5366 5.94882 12.6228 5.99276C13.27 6.32318 13.8423 5.41431 13.2602 4.96151C13.1909 4.9078 12.8673 4.64959 12.85 4.58386C12.9422 3.47572 14.937 3.41453 15.1959 4.46372C15.2847 4.82509 14.37 5.16594 14.8176 5.80397C14.9472 5.98886 15.2075 6.12039 15.5077 6.02407C15.7789 5.93712 15.8449 5.67959 16.0374 5.55072ZM9.23273 3.90318C9.23273 3.27003 9.58754 2.82889 10.1641 2.82889C10.3278 2.82889 10.36 3.27297 10.7998 3.66165C10.9164 3.76418 11.1231 3.87452 11.2081 3.96958C11.3533 4.13266 11.3688 4.23681 11.6681 4.2616V4.33321C10.9877 4.34816 10.2786 5.03248 9.9948 5.73986C9.94891 5.85413 9.92027 5.99926 9.8776 6.08782C9.02536 6.08782 8.63438 6.24672 8.12263 6.58952C7.61187 5.82676 8.27566 5.08519 8.6598 5.08519C8.81472 5.08519 9.58237 5.73916 9.98565 5.08618C10.1804 4.7707 10.0648 4.40579 9.65137 4.20135C9.52768 4.14017 9.23273 4.03993 9.23273 3.90318ZM16.9687 3.50926C17.2796 2.17495 19.3324 2.54506 19.3324 3.50926C19.3324 3.71732 18.721 3.95819 18.8669 4.58386C18.6689 4.47937 17.9623 4.25475 17.6491 4.40478C17.6285 4.15871 17.5423 4.00505 17.3883 3.87779C17.2425 3.75732 17.067 3.65642 16.9687 3.50926ZM15.1063 1.68268C15.4133 1.68268 15.5767 1.73417 15.771 1.91387C16.3222 2.4243 15.8508 2.81261 15.8225 3.15115C15.6571 3.10693 15.122 2.50663 14.2827 2.50663C14.3176 2.08701 14.6646 1.68268 15.1063 1.68268ZM11.3458 2.22014C11.3458 1.87545 11.3389 1.73247 11.6218 1.45742C12.1762 0.918989 13.1007 1.36434 13.1007 2.07696C13.1007 2.58577 12.7547 2.91905 12.2924 2.99036C11.8448 3.05971 11.3458 2.64401 11.3458 2.22014Z" fill="#9EA4BD"/>
<path fill-rule="evenodd" clip-rule="evenodd" d="M11.1048 36.5462C11.1194 36.4093 11.0737 36.3389 11.0072 36.1985C10.9473 36.0734 10.8873 35.9473 10.8218 35.8335C9.88835 34.2076 7.55636 33.8524 6.02136 33.8951C5.834 33.9001 5.73164 33.894 5.5402 33.9116C5.35768 33.9287 5.23393 33.9001 5.05853 33.9277C4.95773 33.9434 4.93754 33.9597 4.83357 33.9727C4.52856 34.0112 4.45857 33.998 4.10508 34.0727C4.0213 34.0907 3.96259 34.0966 3.88012 34.1178L3.15991 34.3167C2.94703 34.3824 2.37778 34.5775 2.20796 34.7705C2.30929 34.8711 2.5787 35.2984 2.79584 35.5328C3.56499 36.3637 4.35477 36.9386 5.33882 37.4786C5.91572 37.7964 6.52764 38.0531 7.07981 38.2157C7.65366 38.3846 8.21573 38.5049 8.77406 38.4096C9.27999 38.3233 9.90842 37.9809 10.3841 37.6249C9.30547 37.3919 7.74096 36.7531 6.72322 36.4365C5.92308 36.1871 5.65953 36.1733 4.90574 35.9947C4.63437 35.9306 4.2404 35.9364 3.99916 35.814C3.75648 35.6914 3.51283 35.2774 3.84418 34.8836C4.09813 34.5818 4.43586 34.6884 4.72137 34.7346C5.48114 34.8575 6.23988 35.0153 6.97653 35.2456C7.1498 35.2998 7.29391 35.3391 7.44699 35.3942C8.68538 35.8413 9.88731 36.283 11.1048 36.5462ZM12.0024 35.4776C12.2139 35.9098 12.4876 36.5436 12.6226 36.9572C12.8991 37.1336 15.3592 37.9704 15.5682 38.0278C16.4757 38.278 15.922 39.4858 15.0134 39.263C14.3184 39.0926 12.2414 38.4917 11.633 38.2545L10.6466 38.9046C10.2812 39.1284 10.0228 39.2811 9.64797 39.4125C9.54285 39.45 9.50691 39.4745 9.40185 39.5005C9.30742 39.524 9.25015 39.5425 9.1529 39.5652C8.28807 39.7664 7.31455 39.6083 6.48704 39.3016C4.78296 38.6702 3.93251 38.1406 2.52298 36.9545C1.78748 36.3356 1.30299 35.6697 0.916605 34.8814C0.579907 34.1935 1.29856 33.8107 1.82371 33.558C2.39037 33.286 2.99792 33.0878 3.60133 32.9473C4.20842 32.8059 4.81218 32.7577 5.43595 32.7005C6.04442 32.6443 6.68929 32.6779 7.29477 32.7407C8.29244 32.8841 10.883 33.4804 12.0024 35.4776Z" fill="#9EA4BD"/>
<path fill-rule="evenodd" clip-rule="evenodd" d="M23.9243 29.281C24.2 28.8367 24.2935 28.9461 23.9229 28.5977C23.5966 28.2902 23.5443 28.1966 23.3512 27.9001C23.1084 27.8571 22.8369 27.8676 22.5895 27.7984C22.1135 27.6636 21.7402 27.374 21.4817 26.9961C21.3946 26.791 21.2968 26.5907 21.1888 26.3962C21.1621 26.3149 21.1398 26.2317 21.1211 26.147C20.9269 25.2569 21.6842 23.7606 23.1107 23.5484C23.1984 23.4392 23.1854 23.3961 23.2514 23.2667C23.3799 23.019 23.7079 22.5235 23.9239 22.4427C22.9211 21.1055 23.7193 19.9422 24.62 19.2651C24.6618 18.9163 24.8036 18.1709 25.7531 17.736C26.0358 17.6103 26.5511 17.5138 26.8394 17.5958C26.8499 17.5165 26.7493 17.1731 26.9783 16.9344C27.1833 16.7212 27.162 16.9119 27.2008 16.6015C27.219 16.4539 27.2463 16.3406 27.2917 16.1939C27.7535 14.7068 29.7342 13.6715 30.8849 14.7271C32.093 13.4688 33.9405 14.6105 34.2816 15.5447C34.3839 15.7026 34.4222 15.8406 34.5069 15.971C35.009 15.6663 36.0922 15.8546 36.6161 16.3586C37.0492 16.7736 37.1458 17.0936 37.2998 17.5603C37.5658 17.6072 38.3782 17.404 39.109 18.1062C39.7465 18.718 39.9162 19.5311 39.6745 20.2732C39.5037 20.7963 39.377 20.5069 39.7376 21.006C40.2309 21.6884 40.2669 22.4894 39.9292 23.2057C39.7955 23.4897 39.6364 23.6595 39.3549 23.9525C39.5334 24.2255 39.5553 24.7403 39.5192 25.0378C39.4661 25.4661 39.2712 25.7028 39.2416 25.8794C39.2192 26.0102 39.5795 26.5055 39.4844 27.2676C39.3806 28.1117 38.6857 28.8391 37.8625 29.0239C37.7341 29.053 37.6219 29.0561 37.5087 29.0812C37.1722 30.2597 35.8473 31.1822 34.6096 30.9629C34.6707 31.4279 34.2409 32.0591 33.729 32.5241C32.9049 33.2716 31.9725 33.4106 31.1027 32.907C30.837 32.7523 30.8818 32.8733 30.6335 33.0025C29.1378 33.7843 27.3981 32.4888 27.247 31.392C27.1344 31.3727 26.9876 31.4149 26.842 31.4145C26.1446 31.4122 25.4361 31.0026 25.0626 30.3985C24.979 30.2627 24.959 30.1792 24.8898 30.0727C24.7903 30.1955 24.675 30.4022 24.5912 30.5339C22.3633 34.0286 19.5766 37.1391 15.3441 37.6956C14.2006 37.846 14.1346 37.0343 14.4622 36.6925C14.5881 36.5612 14.7141 36.5216 14.8382 36.5071C19.1739 36.0063 21.8002 32.706 23.9243 29.281ZM22.5095 26.3463L22.6379 26.4709C22.9544 26.7743 23.4677 26.7445 23.8516 26.3441C24.565 25.602 23.3987 24.2824 22.5116 25.2067C22.236 25.4928 22.2232 26.0722 22.5095 26.3463ZM27.4959 28.702C27.2965 28.51 27.0666 28.4224 26.8324 28.4281C26.167 28.4412 25.5794 29.2944 26.3071 29.9927C26.6459 30.319 27.2345 30.2251 27.5153 29.9157C27.8054 29.5951 27.822 29.015 27.4959 28.702ZM27.1756 24.1235C26.7777 24.5379 26.0296 24.3528 26.1051 23.5373C26.1159 23.4149 26.0824 23.4499 26.1454 23.3346C26.0328 23.2721 25.8294 23.3659 25.3847 23.2994C25.0136 23.2435 25.0039 23.0242 24.6036 23.4417C24.4428 23.6094 24.3323 23.8141 24.2845 23.9809C24.5862 24.2696 24.6935 24.2172 24.9877 24.7291C25.1311 24.9789 25.1177 24.8149 25.3698 24.9973C25.6493 25.2005 25.6791 25.6313 25.4377 25.8818C25.1629 26.1685 25.3878 25.7169 25.1554 26.47C25.0083 26.9452 24.8191 27.0951 24.4824 27.4462C25.0407 27.9834 24.7234 27.714 25.2276 28.0137C25.2781 27.8602 25.5257 27.6798 25.6752 27.5774C25.8485 27.4595 26.0139 27.3897 26.1761 27.3358C26.2338 27.0104 26.0853 27.0691 26.4175 26.723C26.5931 26.5399 27.0107 26.5393 27.2466 26.8091C27.3667 26.9474 27.3603 26.9824 27.3876 27.1083C27.5256 26.9588 27.5708 26.8145 27.7334 26.6456C27.5773 26.173 27.7234 25.8274 27.8303 25.402C27.858 25.2929 27.8274 25.3228 27.8733 25.1987C27.8972 25.1339 27.9437 25.0411 28.0029 24.9685C27.3569 24.2365 27.7529 23.0768 27.7349 22.9732C27.6014 23.0589 27.5206 23.0401 27.3844 23.1827C27.2871 23.2838 27.3774 23.9133 27.1756 24.1235ZM33.2704 28.6353C33.0795 28.5297 32.4818 28.9377 31.4396 28.3184C30.8374 28.8496 29.7544 28.8263 28.9845 28.3837C28.856 28.3107 28.7465 28.2188 28.6251 28.1471C28.6341 28.1922 28.6141 28.1397 28.6479 28.2231C28.6686 28.2713 28.6647 28.2605 28.6837 28.2986C28.752 28.4335 28.8503 28.6101 28.8658 28.7753C29.046 28.8074 29.7484 28.8234 29.7027 29.4417C29.6677 29.9184 29.2236 30.0597 28.8395 29.992C28.8055 30.1116 28.7478 30.2402 28.6835 30.3495C28.4082 30.8148 28.2902 30.6877 28.4464 31.0884C28.6215 31.5345 29.1435 31.9947 29.6151 31.9908C30.1671 31.9877 30.1347 31.8649 30.3192 31.7605L30.2912 31.2286C30.283 31.1327 30.274 31.1392 30.2968 31.0263C30.435 30.3574 31.3175 30.3822 31.4692 30.9771C31.4921 31.0667 31.5233 31.7244 31.5346 31.7349C32.41 32.5754 34.0544 30.8776 33.1718 30.0303C33.0176 29.8825 31.9944 30.1512 31.9289 29.372C31.8982 29.0063 32.2056 28.704 32.6891 28.738C32.7922 28.7449 32.865 28.7522 32.9686 28.7605C33.1473 28.7763 33.1056 28.806 33.2704 28.6353ZM25.0767 21.811C25.3628 22.0863 25.6806 22.2005 26.0446 22.0602C26.7 21.8075 26.7621 20.9966 26.3689 20.6198C25.7814 20.0553 24.8903 20.446 24.849 21.1828C24.839 21.3526 24.9104 21.652 25.0767 21.811ZM34.8881 27.2601C34.7394 27.4221 34.7179 27.5409 34.5186 27.7483C34.6808 28.4909 34.339 28.9549 34.4797 29.5979C35.0247 29.9229 35.5302 29.8526 35.9971 29.3671C36.2069 29.1489 36.3542 28.8131 36.3713 28.5976C36.3926 28.3354 36.334 28.0895 36.1162 27.8426C36.0281 27.8271 35.8709 27.8224 35.7606 27.8155C35.6342 27.8073 35.5365 27.8095 35.406 27.7864C35.0769 27.7264 34.9781 27.5318 34.8881 27.2601ZM27.2486 19.0314C26.5799 18.4173 25.88 19.075 25.7808 19.1117C25.895 19.1749 26.1498 19.1384 26.4939 19.277C26.7809 19.3924 26.9589 19.498 27.2386 19.7666C27.2274 19.6457 27.1858 19.6298 27.1916 19.4126C27.1953 19.295 27.1977 19.1247 27.2486 19.0314ZM28.4432 19.2355C28.3946 19.4053 28.4538 20.086 27.8018 20.0996C27.6592 20.1028 27.6116 20.0654 27.4961 20.0188L27.4202 19.9903C27.7958 20.4166 27.9142 21.2163 27.7603 21.7567C27.8691 21.776 27.9487 21.764 28.0642 21.7617C28.4786 21.7533 28.4633 21.9247 28.7217 21.732C28.8626 21.6284 28.9364 21.6123 29.0471 21.5027C28.8122 21.1415 28.9435 20.7284 29.3827 20.5836C28.6194 20.1298 28.5386 19.3921 28.4432 19.2355ZM33.4553 22.8059C33.2044 22.565 32.9682 22.458 32.6879 22.4223C32.4489 22.3909 32.2118 22.4316 31.9824 22.6328C31.9125 22.7572 32.0942 23.7641 31.3474 23.7769C30.6447 23.788 30.6908 23.1491 30.7684 22.7084C30.3613 22.3354 29.7186 22.4062 29.3266 22.8135C29.0242 23.129 28.7548 23.4508 28.8601 23.9628C28.9532 24.4135 29.0123 24.2714 29.4838 24.3126C29.7245 24.3331 29.8045 24.2656 30.0448 24.496C30.2414 24.6848 30.2922 25.066 30.1107 25.2549C29.595 25.7928 29.4054 25.3171 29.1302 25.6039C28.2389 26.5324 29.9626 28.1496 30.8106 27.2666C30.9026 27.1709 30.651 26.5539 30.9916 26.1993C31.4185 25.7546 32.219 26.1497 32.0257 27.2418C32.1775 27.3322 32.2193 27.3769 32.3843 27.4226C33.2536 27.6641 34.2869 26.5146 33.8102 25.6843C33.6599 25.4221 33.5185 25.4947 33.0538 25.4575C32.8155 25.4379 32.6314 25.3282 32.5182 25.1048C32.3446 24.7626 32.5669 24.1996 33.1808 24.2441C33.3555 24.2572 33.4974 24.2663 33.6633 24.2958C34.0663 23.857 33.8737 23.208 33.4553 22.8059ZM35.0811 26.7499C35.2493 26.601 35.4254 26.5704 35.6091 26.5895C35.7815 26.607 35.9922 26.5996 36.1425 26.6263C36.1928 26.4709 36.3795 26.2845 36.3135 25.8884C36.2007 25.2162 35.172 24.4309 34.7392 24.8824C35.2115 25.6095 35.1622 25.9942 35.0865 26.6737C35.077 26.7563 35.083 26.7031 35.0811 26.7499ZM37.4842 27.8656C38.276 27.6921 38.4156 27.034 38.2215 26.736C38.0634 26.8748 37.5001 26.9599 37.3389 26.9315C37.2541 27.1886 37.1207 27.1333 37.273 27.388C37.3869 27.5804 37.4247 27.6863 37.4842 27.8656ZM31.158 18.2171C30.2885 17.3821 29.0245 18.6018 29.9688 19.5078C30.427 19.9473 31.386 19.6354 31.4018 18.8198C31.4043 18.6427 31.3252 18.3776 31.158 18.2171ZM30.469 16.7116C30.086 16.3441 30.4126 15.9132 30.2724 15.7779C29.4952 15.0317 28.0441 16.3167 28.4615 17.2364C28.5065 17.3341 28.5168 17.363 28.5884 17.391C28.9146 17.5216 29.1157 17.2571 29.2121 17.185C29.7591 16.7743 29.9089 16.8347 30.469 16.7116ZM32.5269 19.4814C32.4253 19.6499 32.3918 19.8004 32.2645 19.993C32.1685 20.1376 31.9031 20.4144 31.762 20.5156C31.2389 20.8937 30.8829 20.8452 30.732 20.9359C30.8512 21.119 30.7968 21.041 31.3171 21.0373C31.4943 21.0364 31.8181 21.0843 31.9047 21.3177C32.5848 21.093 33.3032 21.207 33.9126 21.6192C34.4878 22.0085 34.9374 22.6127 35.0513 23.2802C35.0671 23.3762 35.0726 23.4457 35.091 23.5323C35.2222 23.5557 35.3411 23.5635 35.4724 23.6007C35.8036 23.1923 35.8138 22.5489 35.4975 22.2813C35.3925 22.1921 35.2208 22.2208 34.9632 22.1957C34.8545 22.1855 34.776 22.1925 34.6834 22.1649C33.9881 21.9549 34.2041 20.9033 34.9383 20.9799C35.0251 20.9889 35.4374 21.027 35.4953 20.9909C36.1961 20.1279 34.8002 18.7028 33.886 19.2801C33.5719 19.4783 33.9954 20.3589 33.2313 20.5085C33.0093 20.5521 32.7307 20.4673 32.5805 20.1895C32.4459 19.9393 32.5754 19.7076 32.5269 19.4814ZM38.5755 23.0059C39.0143 22.5486 39.0636 21.9842 38.6482 21.5856C38.5302 21.472 38.1999 21.7705 37.6129 21.7454C37.4576 21.7394 37.2329 21.6757 37.1053 21.6856C36.8878 21.7024 36.8049 21.7663 36.5708 21.5767L36.5209 21.6293C37.0019 22.1114 37.0398 23.096 36.7548 23.803C36.7084 23.9168 36.6286 24.0416 36.5983 24.1349C37.2122 24.7256 37.3849 25.1107 37.517 25.712C38.4129 25.5158 38.4483 24.5212 38.1708 24.2551C38.0595 24.1474 37.0527 24.0871 37.2139 23.3373C37.2916 22.9746 37.6277 22.7921 38.0678 22.9308C38.1995 22.9726 38.4808 23.1045 38.5755 23.0059ZM33.268 17.3636C33.9688 16.1853 32.231 15.0311 31.5635 15.7271C31.4198 15.8768 31.6937 16.4738 31.1551 16.8238C31.3696 16.8853 32.0357 17.2134 32.1576 17.5385C32.3429 17.3744 32.5119 17.3241 32.7108 17.3388C32.8993 17.3533 33.0956 17.4019 33.268 17.3636ZM35.8767 17.3362C35.6551 17.1232 35.502 17.0471 35.2382 17.0427C34.4867 17.0289 34.5581 17.6355 34.3432 17.8993C34.4932 17.9823 35.2959 17.9193 35.9005 18.5013C36.1656 18.1738 36.1949 17.6418 35.8767 17.3362ZM38.2174 20.328C38.457 20.0788 38.5606 19.9809 38.5464 19.5866C38.5199 18.8142 37.5439 18.4956 37.0508 19.0089C36.698 19.3764 36.7172 19.8562 37.0015 20.2276C37.2764 20.5883 37.924 20.6329 38.2174 20.328Z" fill="#9EA4BD"/>
<path fill-rule="evenodd" clip-rule="evenodd" d="M38.4875 19.9752C38.5324 19.8275 38.5476 19.6759 38.525 19.5266C38.5555 19.205 38.4439 18.8711 38.1902 18.6273C38.0229 18.4668 37.8169 18.3687 37.6055 18.3337C37.5147 18.1858 37.4116 18.0406 37.2955 17.9012C37.4131 17.8093 37.5762 17.7534 37.7848 17.7688C37.9598 17.7811 38.1013 17.791 38.2672 17.8205C38.6701 17.3809 38.4776 16.7319 38.0602 16.33C37.8091 16.0895 37.572 15.9819 37.2921 15.9461C37.0527 15.9148 36.8156 15.9554 36.5867 16.1567C36.5366 16.2468 36.6177 16.7995 36.3818 17.103C36.0398 16.8897 35.681 16.7448 35.3311 16.6747C35.3277 16.5248 35.349 16.3693 35.3726 16.2322C35.3415 16.2052 35.3101 16.179 35.2783 16.1558C35.3877 15.9087 35.3465 15.6189 35.1509 15.4315C34.8979 15.1877 34.4808 15.212 34.2187 15.4834C34.0202 15.6911 33.9694 15.9827 34.0672 16.217C34.0221 16.2516 33.9785 16.2891 33.9382 16.3302C33.6937 16.1992 33.4386 16.0859 33.1729 15.9911C33.1409 15.7612 33.0442 15.5551 32.8798 15.397C32.8371 15.355 32.7891 15.3184 32.7407 15.2856C33.0819 15.2975 33.0829 15.4366 33.3267 15.2566C33.4665 15.1531 33.5407 15.1361 33.6513 15.0265C33.4161 14.6661 33.5474 14.253 33.9866 14.108C33.2236 13.6537 33.1428 12.9159 33.0474 12.7593C32.9989 12.9299 33.0577 13.61 32.4061 13.6235C32.2634 13.6266 32.2153 13.5893 32.1012 13.5433L32.0241 13.5143C32.3702 13.906 32.4981 14.6151 32.3961 15.1463C31.9568 15.0544 31.4216 15.2203 30.9955 15.6139C30.9059 15.6126 30.8149 15.6128 30.7244 15.6136L30.6887 15.5683C31.307 15.2986 31.3577 14.5132 30.9727 14.1444C30.3853 13.5792 29.4944 13.9699 29.4529 14.7067C29.4449 14.8442 29.4901 15.0642 29.5947 15.2291C29.2829 15.2902 28.9689 15.4586 28.7133 15.7249C28.6563 15.7846 28.6041 15.8466 28.5571 15.91L28.4977 15.9256C27.5426 14.6044 28.3325 13.4599 29.2238 12.789C29.266 12.4398 29.4085 11.6943 30.3577 11.2594C30.64 11.1341 31.155 11.0376 31.444 11.12C31.4537 11.0403 31.3528 10.6978 31.5822 10.459C31.7871 10.245 31.767 10.4353 31.8054 10.1253C31.824 9.97763 31.851 9.86517 31.8967 9.71778C32.3575 8.23148 34.3391 7.19492 35.4887 8.25102C36.6964 6.99232 38.5444 8.13512 38.8862 9.06931C38.9882 9.22722 39.0269 9.36521 39.1107 9.49454C39.6141 9.19119 40.6964 9.37888 41.2212 9.88315C41.6529 10.2967 41.7508 10.6182 41.9049 11.0848C42.17 11.1311 42.9821 10.9286 43.7129 11.6301C44.3508 12.2427 44.5205 13.0558 44.2787 13.7971C44.1079 14.3199 43.9809 14.0316 44.3423 14.5306C44.8351 15.2131 44.8708 16.0141 44.5338 16.7298C44.3998 17.014 44.2403 17.1837 43.9599 17.4763C44.1368 17.7495 44.1592 18.265 44.123 18.5625C44.0703 18.9899 43.8759 19.2278 43.8462 19.4032C43.8234 19.5341 44.1841 20.0293 44.0886 20.7915C43.984 21.6356 43.2896 22.3631 42.4664 22.5478C42.3387 22.5775 42.2261 22.5795 42.113 22.605C41.7765 23.7843 40.4512 24.7061 39.2135 24.4876C39.2746 24.9526 38.8456 25.5834 38.334 26.0476C37.9712 26.3769 37.5884 26.5881 37.1979 26.6788C37.4777 26.491 37.7409 26.2717 37.9836 26.0192C38.7424 25.2291 39.1741 24.2426 39.2842 23.225C39.7533 23.4227 40.1925 23.317 40.6013 22.891C40.8111 22.6727 40.9581 22.3378 40.9763 22.1214C40.9969 21.86 40.9381 21.6134 40.7204 21.3664C40.632 21.3518 40.4751 21.346 40.3652 21.3389C40.238 21.3312 40.1407 21.3333 40.0099 21.3103C39.6812 21.2509 39.582 21.0565 39.4931 20.7839C39.3433 20.9467 39.3221 21.0648 39.1224 21.2726C39.1383 21.3427 39.1484 21.4098 39.1565 21.474C39.0206 20.95 38.7979 20.4416 38.4875 19.9752ZM31.8528 12.5553C31.1842 11.942 30.4838 12.5989 30.3855 12.6363C30.4996 12.6988 30.7532 12.6631 31.0978 12.8016C31.3847 12.9162 31.5627 13.0219 31.8424 13.2901C31.8323 13.1695 31.7908 13.154 31.7959 12.9365C31.7995 12.8188 31.8023 12.6485 31.8528 12.5553ZM39.6853 20.2737C39.8528 20.1253 40.0301 20.0949 40.214 20.1133C40.3857 20.1308 40.5971 20.1234 40.7463 20.1502C40.7978 19.9954 40.9837 19.8083 40.9174 19.4126C40.8049 18.74 39.7762 17.9547 39.343 18.4062C39.8165 19.1333 39.766 19.5181 39.6903 20.1975C39.6809 20.2809 39.6873 20.2276 39.6853 20.2737ZM42.0885 21.3895C42.8798 21.216 43.0194 20.5579 42.825 20.2604C42.6677 20.3994 42.104 20.4845 41.9423 20.455C41.8582 20.7121 41.7257 20.6571 41.8777 20.913C41.9908 21.1051 42.0292 21.2098 42.0885 21.3895ZM35.763 11.7409C34.8926 10.9059 33.6296 12.1268 34.5731 13.0324C35.0313 13.4719 35.9902 13.1592 36.0057 12.3445C36.0094 12.1668 35.9303 11.9025 35.763 11.7409ZM35.0732 10.2362C34.6902 9.86796 35.0163 9.43681 34.8771 9.30248C34.0999 8.55628 32.6477 9.84142 33.0665 10.7603C33.1107 10.858 33.1209 10.8869 33.1923 10.9156C33.5185 11.0463 33.72 10.7817 33.816 10.7086C34.3633 10.2981 34.5127 10.3581 35.0732 10.2362ZM37.1307 13.0053C37.0296 13.1745 36.996 13.325 36.8684 13.5176C36.7724 13.6623 36.5074 13.9382 36.3659 14.0403C35.8428 14.4184 35.4871 14.3691 35.3366 14.4598C35.7566 14.4631 36.2526 14.9929 36.2526 14.9929C36.4546 14.9259 36.9174 14.7382 37.1209 14.7307C37.6053 14.7111 38.0877 14.8538 38.5168 15.1431C39.0925 15.5331 39.542 16.1373 39.6551 16.804C39.6714 16.9008 39.6772 16.9703 39.6955 17.0562C39.8265 17.0796 39.946 17.0877 40.0767 17.1253C40.4086 16.7161 40.4189 16.0735 40.1014 15.8052C39.9968 15.7167 39.8253 15.7447 39.5674 15.7196C39.4583 15.7087 39.381 15.7163 39.288 15.6895C38.5919 15.4788 38.8086 14.4267 39.5417 14.5038C39.629 14.5132 40.0413 14.5509 40.1003 14.5146C40.8003 13.6518 39.4045 12.2267 38.491 12.804C38.1766 13.0033 38.6003 13.8827 37.8348 14.0325C37.6136 14.0767 37.335 13.9911 37.1848 13.7133C37.0497 13.4632 37.1803 13.2314 37.1307 13.0053ZM43.1805 16.5293C43.6193 16.0723 43.6684 15.5092 43.2532 15.1098C43.1345 14.9962 42.8037 15.2944 42.2168 15.2696C42.0618 15.2632 41.8367 15.1996 41.7096 15.2095C41.492 15.2262 41.4088 15.291 41.1751 15.1012L41.1258 15.1531C41.6062 15.6353 41.6437 16.6199 41.359 17.3265C41.313 17.4407 41.2328 17.5655 41.2021 17.6585C41.8172 18.2494 41.9888 18.6347 42.1209 19.2367C43.0171 19.0397 43.0525 18.0451 42.775 17.779C42.6634 17.672 41.6562 17.6118 41.8178 16.862C41.8962 16.4992 42.2315 16.3159 42.6719 16.4547C42.8033 16.4964 43.0857 16.6283 43.1805 16.5293ZM37.873 10.8881C38.5726 9.70924 36.8352 8.55501 36.1681 9.25095C36.0237 9.40069 36.2975 9.99772 35.7594 10.3485C35.9747 10.4103 36.6396 10.7373 36.7619 11.0631C36.9476 10.8993 37.1157 10.848 37.3151 10.8635C37.5036 10.8772 37.7001 10.9257 37.873 10.8881ZM40.481 10.8601C40.2598 10.6478 40.1066 10.5713 39.8416 10.5659C39.0906 10.5527 39.1619 11.1594 38.9481 11.4231C39.0981 11.5057 39.8997 11.4428 40.5048 12.0251C40.7703 11.6984 40.7999 11.1656 40.481 10.8601ZM42.8217 13.8527C43.0605 13.6036 43.1645 13.5056 43.1514 13.1104C43.1237 12.3382 42.1485 12.0194 41.6551 12.5336C41.3023 12.9003 41.3222 13.38 41.6054 13.7523C41.8806 14.1118 42.5287 14.1579 42.8217 13.8527Z" fill="#9EA4BD"/>
<path fill-rule="evenodd" clip-rule="evenodd" d="M11.9983 40.9305C11.9219 40.8334 11.8564 40.8251 11.7381 40.7889C11.6323 40.7574 11.5258 40.7252 11.4243 40.705C9.97349 40.4153 8.61313 42.0115 7.8866 43.2353C7.79787 43.3846 7.74393 43.4606 7.66083 43.6209C7.58176 43.7739 7.50367 43.8526 7.43449 44.0066C7.39463 44.095 7.39475 44.121 7.35168 44.2102C7.22563 44.4721 7.18324 44.5185 7.05564 44.8409C7.02556 44.9176 7.00037 44.967 6.97283 45.0445L6.74125 45.7307C6.67696 45.9378 6.51709 46.504 6.55165 46.7571C6.66287 46.7412 7.05587 46.7985 7.30556 46.7759C8.19012 46.6961 8.92861 46.4402 9.74088 46.0108C10.2178 45.7598 10.6746 45.4433 11.0447 45.1145C11.4292 44.7727 11.7782 44.4096 11.9937 43.9145C12.1891 43.466 12.2881 42.7616 12.3039 42.1678C11.6327 42.8631 10.4754 43.6833 9.78309 44.2788C9.23845 44.7467 9.10084 44.9436 8.62216 45.4197C8.44993 45.5911 8.26033 45.902 8.06728 46.0135C7.87343 46.126 7.50108 46.0569 7.42299 45.5519C7.36318 45.165 7.59384 44.9684 7.76204 44.7746C8.20961 44.259 8.67806 43.7661 9.17985 43.3358C9.29791 43.2347 9.39257 43.1468 9.50131 43.0619C10.3815 42.3761 11.2406 41.7152 11.9983 40.9305ZM11.7857 39.5616C12.1534 39.6672 12.6747 39.8505 12.9935 40.0041C13.2368 39.899 14.9541 38.5042 15.0916 38.3772C15.6894 37.8261 16.1556 39.0139 15.5741 39.5831C15.1293 40.0184 13.7439 41.262 13.3007 41.5879L13.2142 42.7641C13.1717 43.1892 13.1383 43.4863 13.0349 43.8609C13.0062 43.9663 13.0035 44.0096 12.9679 44.1078C12.936 44.1962 12.9191 44.2525 12.8854 44.3425C12.5842 45.1428 12.0104 45.8031 11.4173 46.2564C10.1962 47.1901 9.45571 47.5218 8.04014 47.8786C7.30153 48.0648 6.65724 48.0258 5.98626 47.8336C5.40107 47.6657 5.51959 46.8655 5.6227 46.2978C5.73438 45.6857 5.91121 45.0878 6.12116 44.5293C6.33244 43.9673 6.59904 43.4663 6.86995 42.9441C7.13396 42.4344 7.47066 41.9525 7.8058 41.5196C8.38265 40.8314 10.0169 39.1843 11.7857 39.5616Z" fill="#9EA4BD"/>
</svg>
