<svg width="34" height="50" viewBox="0 0 34 50" fill="none" xmlns="http://www.w3.org/2000/svg">
<path fill-rule="evenodd" clip-rule="evenodd" d="M2.71608 25.645C4.21623 25.645 5.43216 26.8609 5.43216 28.3611C5.43216 29.8613 4.21623 31.0772 2.71608 31.0772C1.21587 31.0772 0 29.8613 0 28.3611C0 26.8609 1.21587 25.645 2.71608 25.645ZM2.71608 27.0235C3.45468 27.0235 4.05365 27.6225 4.05365 28.3611C4.05365 29.0997 3.45468 29.6987 2.71608 29.6987C1.97742 29.6987 1.37847 29.0997 1.37847 28.3611C1.37847 27.6225 1.97742 27.0235 2.71608 27.0235Z" fill="#98ACCB"/>
<path fill-rule="evenodd" clip-rule="evenodd" d="M3.05147 13.7432C4.63836 13.7432 5.92429 15.029 5.92429 16.6159C5.92429 18.2028 4.63836 19.4887 3.05147 19.4887C1.46459 19.4887 0.178711 18.2028 0.178711 16.6159C0.178711 15.029 1.46459 13.7432 3.05147 13.7432ZM3.05147 15.0966C3.89053 15.0966 4.57081 15.7769 4.57081 16.6159C4.57081 17.455 3.89053 18.1353 3.05147 18.1353C2.21242 18.1353 1.53214 17.455 1.53214 16.6159C1.53214 15.7769 2.21242 15.0966 3.05147 15.0966Z" fill="#98ACCB"/>
<path fill-rule="evenodd" clip-rule="evenodd" d="M11.5002 17.9492C13.531 17.9492 15.1766 19.5949 15.1766 21.6256C15.1766 23.6565 13.531 25.3021 11.5002 25.3021C9.4694 25.3021 7.82373 23.6565 7.82373 21.6256C7.82373 19.5949 9.4694 17.9492 11.5002 17.9492ZM11.5002 19.2947C12.7874 19.2947 13.8311 20.3384 13.8311 21.6256C13.8311 22.9128 12.7874 23.9566 11.5002 23.9566C10.213 23.9566 9.1693 22.9128 9.1693 21.6256C9.1693 20.3384 10.213 19.2947 11.5002 19.2947Z" fill="#98ACCB"/>
<path fill-rule="evenodd" clip-rule="evenodd" d="M23.2656 19.6162C25.7099 19.6162 27.6907 21.597 27.6907 24.0414C27.6907 26.4856 25.7099 28.4665 23.2656 28.4665C20.8213 28.4665 18.8406 26.4856 18.8406 24.0414C18.8406 21.597 20.8213 19.6162 23.2656 19.6162ZM23.2656 21.0781C24.9021 21.0781 26.2288 22.4049 26.2288 24.0414C26.2288 25.6779 24.9021 27.0046 23.2656 27.0046C21.6291 27.0046 20.3024 25.6779 20.3024 24.0414C20.3024 22.4049 21.6291 21.0781 23.2656 21.0781Z" fill="#98ACCB"/>
<path fill-rule="evenodd" clip-rule="evenodd" d="M29.8855 13.4453C31.3857 13.4453 32.6016 14.6612 32.6016 16.1614C32.6016 17.6616 31.3857 18.8775 29.8855 18.8775C28.3853 18.8775 27.1694 17.6616 27.1694 16.1614C27.1694 14.6612 28.3853 13.4453 29.8855 13.4453ZM29.8855 14.8296C30.6212 14.8296 31.2173 15.4257 31.2173 16.1614C31.2173 16.8971 30.6212 17.4932 29.8855 17.4932C29.1498 17.4932 28.5537 16.8971 28.5537 16.1614C28.5537 15.4257 29.1498 14.8296 29.8855 14.8296Z" fill="#98ACCB"/>
<path fill-rule="evenodd" clip-rule="evenodd" d="M29.8609 28.709C31.6253 28.709 33.0555 30.1391 33.0555 31.9035C33.0555 33.668 31.6253 35.0982 29.8609 35.0982C28.0964 35.0982 26.6663 33.668 26.6663 31.9035C26.6663 30.1391 28.0964 28.709 29.8609 28.709ZM29.8609 30.1566C30.8254 30.1566 31.6078 30.939 31.6078 31.9035C31.6078 32.8681 30.8254 33.6505 29.8609 33.6505C28.8963 33.6505 28.1139 32.8681 28.1139 31.9035C28.1139 30.939 28.8963 30.1566 29.8609 30.1566Z" fill="#98ACCB"/>
<path fill-rule="evenodd" clip-rule="evenodd" d="M13.0002 13.4909C10.7826 13.0345 8.24915 12.3371 6.57726 11.8536C5.02536 11.4046 3.72781 10.7661 2.79033 9.1579C0.824553 5.78447 3.49351 0.846683 7.93027 1.40983C8.45963 1.47698 14.7125 3.07135 15.5274 3.41316C15.612 4.16931 14.5524 7.57019 14.2957 8.5206L13.0002 13.4909ZM17.4685 3.3877C18.752 3.11634 20.0071 2.7162 21.2692 2.37607C23.8357 1.68497 26.4922 0.596586 28.8006 2.40733C32.4649 5.28219 30.9597 10.2079 27.6522 11.4592C26.9132 11.7389 20.6294 13.4442 20.0709 13.465C19.1122 9.94492 18.2822 6.38602 17.4685 3.3877ZM16.5733 5.06252C17.2173 8.1392 17.8654 10.1008 18.8508 13.9973C19.1718 15.2662 19.4189 15.0524 20.7103 14.756C22.02 14.4551 23.7177 13.9944 24.4192 13.8106C25.9436 13.4113 28.109 12.9361 29.2495 12.2195C33.9517 9.26586 33.0326 2.10051 27.8948 0.333556C26.0382 -0.305009 24.2663 0.0834566 22.4464 0.580351C20.7799 1.03513 19.0855 1.50029 17.3878 1.94339C16.1831 2.25812 15.888 2.06888 14.7534 1.75667C13.8893 1.51904 13.0723 1.28062 12.2094 1.04179C8.95816 0.140192 6.34549 -0.84354 3.42642 1.28271C0.0354975 3.75245 -0.0994973 8.48059 2.58319 11.2242C3.81324 12.4822 4.76444 12.7986 6.86859 13.3617C8.55929 13.8143 10.2279 14.2766 11.9315 14.7135C14.1919 15.2929 13.8609 15.6047 14.8772 11.8932C15.2461 10.5468 16.2548 6.91244 16.5733 5.06252Z" fill="#98ACCB"/>
<path fill-rule="evenodd" clip-rule="evenodd" d="M25.1417 4.05421C24.2521 4.27639 24.4901 5.33141 25.1437 5.36513C25.318 5.37388 25.5201 5.35392 25.7498 5.35847C27.1112 5.38555 26.6777 6.84155 27.6977 6.78153C29.2178 6.69191 27.6155 3.34891 25.1417 4.05421Z" fill="#98ACCB"/>
<path fill-rule="evenodd" clip-rule="evenodd" d="M14.9242 29.0449C20.7107 29.0449 25.4017 33.736 25.4017 39.5224C25.4017 45.3089 20.7107 49.9999 14.9242 49.9999C10.0844 49.9999 6.01116 46.7182 4.80819 42.2585C4.6552 41.3136 5.95739 40.9667 6.20664 42.2298C7.35923 45.9483 10.8264 48.649 14.9242 48.649C19.9646 48.649 24.0507 44.5627 24.0507 39.5224C24.0507 34.4821 19.9646 30.3959 14.9242 30.3959C10.7826 30.3959 7.28625 33.1553 6.1708 36.9352C5.99157 38.0298 4.53059 38.0319 4.79069 36.8526C5.97072 32.3592 10.0602 29.0449 14.9242 29.0449Z" fill="#98ACCB"/>
<path d="M11.6503 38.9377H19.0837C19.0608 37.8594 18.7395 36.9875 18.0971 36.3681C17.4547 35.7486 16.5829 35.4274 15.5046 35.4274C14.4033 35.4274 13.5087 35.7486 12.8433 36.391C12.155 37.0334 11.765 37.8823 11.6503 38.9377ZM20.2997 38.9606C20.2997 39.213 20.2997 39.3965 20.2767 39.4654C20.2767 39.5801 20.2308 39.6718 20.1391 39.7636C20.0244 39.8783 19.9096 39.9242 19.7949 39.9242H11.7191C11.765 41.1631 12.178 42.1267 12.9351 42.8379C13.6921 43.5492 14.7016 43.9163 15.9405 43.9163C16.973 43.9163 17.9136 43.618 18.7395 43.0215C18.8543 42.9526 18.969 42.9068 19.0608 42.9068C19.2214 42.9068 19.3819 42.9756 19.5196 43.1362C19.5884 43.2509 19.6343 43.3656 19.6343 43.4574C19.6343 43.595 19.5884 43.7098 19.4737 43.8245C18.4413 44.6275 17.2253 45.0405 15.8717 45.0405C14.2198 45.0405 12.8892 44.5587 11.9027 43.5721C10.8932 42.5856 10.3884 41.3008 10.3884 39.6718C10.3884 38.0888 10.8473 36.804 11.788 35.8175C12.7057 34.808 13.9904 34.3032 15.6194 34.3032C16.95 34.3032 18.0742 34.7391 18.969 35.588C19.8638 36.4369 20.2997 37.5611 20.2997 38.9606Z" fill="#98ACCB"/>
</svg>
