<svg width="50" height="50" viewBox="0 0 50 50" fill="none" xmlns="http://www.w3.org/2000/svg">
<path fill-rule="evenodd" clip-rule="evenodd" d="M24.9406 12.4551C30.3004 12.4551 34.6447 16.7993 34.6447 22.1583C34.6447 27.5177 30.3004 31.8619 24.9406 31.8619C19.582 31.8619 15.2378 27.5177 15.2378 22.1583C15.2378 16.7993 19.582 12.4551 24.9406 12.4551ZM24.941 13.8851C29.5102 13.8851 33.2147 17.5896 33.2147 22.1583C33.2147 26.7274 29.5102 30.4319 24.941 30.4319C20.3723 30.4319 16.6678 26.7274 16.6678 22.1583C16.6678 17.5896 20.3723 13.8851 24.941 13.8851Z" fill="#9EA4BD"/>
<path fill-rule="evenodd" clip-rule="evenodd" d="M9.29839 12.0917C5.96548 12.3952 3.01889 9.93957 2.71578 6.60792C2.41232 3.27501 4.86795 0.328411 8.20003 0.0253642C11.5325 -0.278161 14.4792 2.17754 14.7822 5.50955C15.0857 8.84204 12.63 11.7887 9.29839 12.0917ZM9.17565 10.7471C6.58631 10.9825 4.2963 9.07452 4.06047 6.48476C3.82511 3.89589 5.73307 1.60583 8.32277 1.37005C10.9117 1.13463 13.2018 3.04259 13.4375 5.63229C13.6729 8.22121 11.765 10.5112 9.17565 10.7471Z" fill="#9EA4BD"/>
<path fill-rule="evenodd" clip-rule="evenodd" d="M41.6679 12.11C38.7944 12.3714 36.253 10.2542 35.9916 7.38031C35.7301 4.50685 37.8474 1.96543 40.7213 1.70395C43.5947 1.44254 46.1362 3.55979 46.3976 6.43367C46.6591 9.30713 44.5418 11.8485 41.6679 12.11ZM41.5405 10.7082C39.4409 10.899 37.5847 9.35254 37.3934 7.25296C37.2025 5.15332 38.749 3.29705 40.8486 3.10579C42.9483 2.915 44.8045 4.46144 44.9958 6.56101C45.1866 8.66065 43.6401 10.5169 41.5405 10.7082Z" fill="#9EA4BD"/>
<path d="M25.6547 31.312H24.2646V40.441H25.6547V31.312Z" fill="#9EA4BD"/>
<path d="M32.3746 26.341L31.605 27.4985L39.2071 32.5529L39.9768 31.3953L32.3746 26.341Z" fill="#9EA4BD"/>
<path d="M17.133 27.0179L17.9209 28.1631L10.4001 33.3377L9.61215 32.1926L17.133 27.0179Z" fill="#9EA4BD"/>
<path d="M32.1365 16.4577L31.1777 15.4512L37.7876 9.15446L38.7464 10.1609L32.1365 16.4577Z" fill="#9EA4BD"/>
<path d="M18.3498 16.4293L19.3086 15.4229L12.6987 9.12614L11.7399 10.1326L18.3498 16.4293Z" fill="#9EA4BD"/>
<path fill-rule="evenodd" clip-rule="evenodd" d="M5.30053 6.51928C5.29382 6.47136 5.28873 6.42302 5.28412 6.37426C5.10968 4.46002 6.51997 2.76813 8.43337 2.59411C8.7566 2.56464 9.07397 2.58064 9.37827 2.63652C7.56574 3.32337 5.95077 4.64661 5.30053 6.51928Z" fill="#9EA4BD"/>
<path fill-rule="evenodd" clip-rule="evenodd" d="M6.60798 41.6909C3.27506 41.9944 0.328461 39.5387 0.0253552 36.2071C-0.27811 32.8742 2.17754 29.9275 5.50961 29.6245C8.84216 29.321 11.7888 31.7766 12.0918 35.1087C12.3953 38.4412 9.93963 41.3878 6.60798 41.6909ZM6.48523 40.3462C3.89589 40.5816 1.60588 38.6736 1.37005 36.0839C1.13469 33.495 3.04265 31.205 5.63235 30.9692C8.22127 30.7337 10.5113 32.6417 10.7471 35.2315C10.9825 37.8203 9.07458 40.1104 6.48523 40.3462Z" fill="#9EA4BD"/>
<path fill-rule="evenodd" clip-rule="evenodd" d="M2.61059 36.1184C2.60388 36.0705 2.59879 36.0221 2.59418 35.9733C2.41974 34.0591 3.83003 32.3672 5.74343 32.1932C6.06666 32.1638 6.38402 32.1797 6.68839 32.2357C4.87586 32.9225 3.26089 34.2458 2.61059 36.1184Z" fill="#9EA4BD"/>
<path fill-rule="evenodd" clip-rule="evenodd" d="M44.4219 40.8569C41.089 41.1604 38.1424 38.7047 37.8393 35.3731C37.5359 32.0402 39.9915 29.0935 43.3236 28.7905C46.6561 28.487 49.6027 30.9427 49.9058 34.2747C50.2093 37.6072 47.7536 40.5538 44.4219 40.8569ZM44.2992 39.5122C41.7099 39.7476 39.4198 37.8397 39.184 35.2499C38.9487 32.661 40.8566 30.371 43.4463 30.1352C46.0352 29.8998 48.3253 31.8077 48.5611 34.3975C48.7965 36.9863 46.8885 39.2764 44.2992 39.5122Z" fill="#9EA4BD"/>
<path fill-rule="evenodd" clip-rule="evenodd" d="M40.4246 35.2844C40.4178 35.2365 40.4128 35.1881 40.4081 35.1394C40.2337 33.2251 41.644 31.5332 43.5574 31.3592C43.8806 31.3298 44.198 31.3457 44.5023 31.4017C42.6898 32.0885 41.0748 33.4118 40.4246 35.2844Z" fill="#9EA4BD"/>
<path fill-rule="evenodd" clip-rule="evenodd" d="M38.7245 7.29365C38.7161 7.24112 38.7098 7.18774 38.7048 7.13395C38.5795 5.75901 39.593 4.54294 40.9679 4.41768C41.3261 4.38492 41.6737 4.43026 41.994 4.53832C40.1171 5.2163 39.4732 5.66023 38.7245 7.29365Z" fill="#9EA4BD"/>
<path fill-rule="evenodd" clip-rule="evenodd" d="M25.434 49.9781C22.5606 50.2396 20.0191 48.1224 19.7577 45.2484C19.4962 42.375 21.6135 39.8336 24.4874 39.5721C27.3609 39.3107 29.9023 41.428 30.1638 44.3018C30.4252 47.1753 28.308 49.7167 25.434 49.9781ZM25.3067 48.5763C23.207 48.7671 21.3508 47.2207 21.1596 45.1211C20.9687 43.0215 22.5152 41.1652 24.6148 40.974C26.7144 40.7831 28.5707 42.3296 28.7619 44.4292C28.9527 46.5288 27.4063 48.385 25.3067 48.5763Z" fill="#9EA4BD"/>
<path fill-rule="evenodd" clip-rule="evenodd" d="M22.4907 45.1614C22.4823 45.1088 22.476 45.0555 22.4709 45.0016C22.3457 43.6267 23.3591 42.4106 24.7341 42.2854C25.0922 42.2526 25.4399 42.298 25.7602 42.406C23.8833 43.084 23.2393 43.5279 22.4907 45.1614Z" fill="#9EA4BD"/>
<path fill-rule="evenodd" clip-rule="evenodd" d="M24.9404 16.0547C25.2397 16.0547 25.5339 16.0765 25.8218 16.1181C23.9912 16.9542 19.9437 18.6528 18.9475 23.3149C18.8756 22.9403 18.8374 22.5536 18.8374 22.1581C18.8374 18.7873 21.5701 16.0547 24.9404 16.0547Z" fill="#9EA4BD"/>
</svg>
