<svg width="49" height="50" viewBox="0 0 49 50" fill="none" xmlns="http://www.w3.org/2000/svg">
<path fill-rule="evenodd" clip-rule="evenodd" d="M29.9328 5.24005C30.3618 6.20351 29.8779 7.96548 29.5637 8.86611C28.7299 11.256 25.8308 14.1374 24.1321 16.2275C22.6896 18.0023 21.578 19.1875 20.6053 21.2001C15.674 31.4038 19.6937 38.5192 21.6987 34.7316C23.0226 32.2305 23.5392 27.6463 24.3769 24.6119C24.8149 23.0252 26.0066 19.0659 27.1702 18.828C28.3061 19.9073 26.8737 22.9851 26.2826 24.0167C25.5011 25.3806 24.2879 26.9387 23.9981 28.8046C23.6345 31.1464 24.283 32.9604 26.7712 30.4091C27.5492 29.6114 29.0083 27.2674 29.6517 26.2227C32.3967 21.7652 34.6204 17.1282 37.1658 12.6216C37.524 11.9874 39.3832 8.45285 40.4118 8.77925C42.4656 10.1549 40.4232 11.9706 39.5981 12.997C39.206 13.4849 36.2294 16.1996 38.0587 17.2379C40.0273 18.3554 43.3672 15.1163 44.6974 13.9775C45.3274 13.4381 45.8157 12.8604 46.8519 12.6041C46.643 15.3633 41.851 17.6339 39.448 19.3767C36.537 21.488 34.1885 23.22 31.6668 25.7317C29.9632 27.4286 26.8178 30.8925 25.82 34.0205C23.987 39.7668 30.6252 35.5157 33.8196 34.2363C35.4986 33.5637 40.1111 31.52 41.9425 31.9654C42.9855 32.2191 43.54 32.8976 42.8473 33.9599C41.0528 36.712 30.6773 38.1519 26.854 39.1678C24.9334 39.6781 23.4454 40.4234 21.8233 41.2059C20.3265 41.9279 18.5964 43.0111 17.4693 43.9239C16.2228 44.9335 15.1233 46.0638 14.6987 48.2991C13.3138 47.7261 13.9554 46.4942 14.2872 44.5901C15.0873 39.9979 14.268 36.2291 12.0941 32.2822C10.6866 29.7268 9.84548 28.4956 7.08159 27.2779C5.44028 26.5547 2.97908 26.1525 1.92474 24.9177C1.58773 24.523 1.1671 23.743 1.3843 23.1141C1.92498 22.5284 2.90174 23.048 3.33094 23.421C3.80675 23.8344 4.19569 24.355 4.93416 24.6804C6.82815 25.5152 7.64977 23.5557 7.32018 21.8589C7.01007 20.2624 6.12885 19.2674 5.46298 18.0708C2.63392 12.9867 4.58649 12.5298 6.13352 16.1491C7.3708 19.0436 8.19464 23.5365 9.33176 26.5483C10.124 28.6466 11.3233 31.0259 12.5892 32.326C13.195 32.9481 14.0029 33.8918 15.2086 34.1819C16.7479 34.5523 17.593 33.5508 17.8359 32.3012C18.5351 28.7066 14.9686 21.5866 13.7322 18.5676C12.8512 16.4166 11.9642 14.2608 11.1504 12.1145C10.7411 11.0346 10.2828 9.88169 9.98774 8.70821C9.69925 7.56097 9.48037 5.66824 10.7078 5.38269C12.0504 5.85999 12.7192 10.8629 13.2293 12.6321C13.5888 13.8788 13.9474 15.0901 14.5287 16.1615C15.4182 17.8008 16.7717 18.3296 17.2409 17.3037C17.8918 15.8807 15.6127 8.79279 17.0349 4.12229C17.3746 3.00649 18.1139 1.37511 19.2317 1.36061C21.0128 4.48367 19.0616 6.76982 18.6636 9.87509C18.4662 11.4151 18.6413 13.2577 18.8571 14.7809C19.0704 16.2846 19.2416 18.0441 21.1774 17.5752C23.4379 17.0277 25.2348 14.1045 26.3422 12.1749C26.9754 11.0715 27.655 9.95991 28.1828 8.73748C28.5717 7.83698 29.3318 5.62174 29.9328 5.24005ZM15.9369 15.9081C15.4531 14.8803 15.4714 15.2372 14.9645 13.758C14.6804 12.9291 14.4439 12.0577 14.23 11.1774C13.7544 9.22096 13.2301 4.95204 11.3154 4.16253C10.2825 3.73663 9.39028 4.5086 9.0459 4.99075C7.34199 7.37635 9.73879 12.2156 10.8618 14.9973C11.5019 16.5831 12.1155 18.168 12.7583 19.7225C13.9519 22.6091 15.7177 26.1282 16.3818 29.3297C17.5968 35.1876 14.012 33.0304 11.676 28.591C9.02775 23.5582 8.22836 13.4353 4.69 12.4825C3.57912 12.1834 2.92223 12.9311 2.75947 13.8224C2.31836 16.2381 4.7765 19.2437 5.59722 20.8844C6.1125 21.9145 6.60633 24.7178 4.693 22.8663C4.36377 22.5478 4.1011 22.2647 3.6165 21.9751C2.75181 21.4584 1.38724 21.3208 0.613184 21.9659C-0.152725 22.6041 -0.139967 23.7964 0.315349 24.8302C1.56862 27.6757 5.22978 27.5622 7.74884 29.1144C9.49116 30.188 10.1383 31.4232 11.19 33.4564C12.0728 35.163 12.837 37.1199 13.1333 39.2847C13.5114 42.0479 13.0116 43.8453 12.5822 46.3789C12.3581 47.7006 12.7107 48.5021 13.4835 49.1455C13.5985 49.2412 14.5018 49.8965 14.6695 49.9491C16.078 50.3916 15.828 47.8435 16.8858 46.3802C17.3746 45.704 18.2183 44.9953 18.934 44.4929C22.0694 42.2919 25.2991 40.7724 29.8623 39.8517C33.5755 39.1024 42.0795 37.697 44.0249 34.6005C45.2979 32.5743 43.9185 30.659 41.3097 30.5253C40.2986 30.4734 38.9451 30.941 38.0598 31.2305C36.1603 31.8517 34.1968 32.5987 32.4122 33.3663C31.0788 33.9398 28.1875 35.5152 26.853 35.6601C27.1384 32.2836 31.6146 27.5515 33.646 25.6556C33.8184 25.4947 33.9586 25.4003 34.1382 25.2492C34.3355 25.0831 34.4447 24.9337 34.6408 24.7717C37.517 22.3959 40.0221 20.4785 43.248 18.4363C44.0094 17.9543 44.8499 17.4598 45.4995 16.9297C49.0394 14.0402 49.0416 10.0416 45.7664 11.5589C44.6266 12.087 43.8744 12.949 43.1315 13.5748C42.0212 14.5101 40.5107 16.0007 38.9409 16.0804C39.4452 14.1414 45.0333 11.2362 41.493 7.89612C40.7915 7.23432 39.8288 7.32621 39.058 7.80393C37.288 8.90097 33.953 15.7867 32.7955 17.911C31.6054 20.0952 27.4007 27.9159 25.7412 29.5605C25.5799 29.7203 25.4624 29.8114 25.3336 29.9611C24.8935 27.951 27.2799 25.5093 28.3294 22.7521C28.7729 21.5869 29.2694 19.7377 28.645 18.5063C27.9964 17.2274 26.5573 17.0668 25.4851 18.476C22.5209 22.372 22.3247 30.796 20.4623 34.1963C19.9009 33.6801 19.6027 31.9403 19.5539 30.9892C19.4885 29.7151 19.6532 28.3988 19.9109 27.2129C20.4229 24.8579 21.1757 23.0939 22.1474 21.1342C23.0389 19.3365 28.078 13.7426 29.4903 11.834C32.5502 7.69891 31.653 2.6058 29.1843 4.10209C28.4637 4.53884 27.9897 5.72371 27.5874 6.71102C26.7189 8.84257 23.3727 16.0848 20.5382 16.3052C18.5499 9.55889 21.7629 7.26288 21.1943 3.04494C21.0054 1.64335 20.452 -0.039777 19.0288 0.00071679C17.7917 0.0358793 16.7136 1.43093 16.2672 2.36559C13.9166 7.2869 16.1737 13.9546 15.9369 15.9081Z" fill="#9EA4BD"/>
</svg>
