<svg width="23" height="50" viewBox="0 0 23 50" fill="none" xmlns="http://www.w3.org/2000/svg">
<path fill-rule="evenodd" clip-rule="evenodd" d="M0.497265 4.99346C0.582686 5.44723 0.749285 5.9092 0.889278 6.27197C3.65416 13.4508 15.806 14.4971 19.9117 21.3822C22.1914 25.2049 19.8627 29.2694 17.1596 31.8728C16.9231 32.1008 16.2099 32.804 15.5454 33.4613C14.9675 34.0332 14.4128 34.5625 14.4047 34.824C14.387 35.4045 14.8833 35.7702 15.4856 35.5251C16.1379 35.2597 18.8044 32.4842 19.3317 31.8226C23.7971 26.216 23.4343 21.2281 17.7813 16.745C13.4666 13.3237 7.10727 11.6656 3.79284 8.00946C3.23257 7.39168 2.64352 6.76228 2.27212 5.75896C2.14633 5.41889 2.02528 5.13297 1.88271 4.68778C1.61183 3.45431 0.225545 3.55262 0.497265 4.99346Z" fill="#98ACCB"/>
<path fill-rule="evenodd" clip-rule="evenodd" d="M6.8539 14.8092C4.27064 16.5188 1.58172 19.8624 0.701627 22.0571C-0.106823 24.0741 -0.23903 26.2229 0.422119 28.2446C1.35205 31.0889 3.15651 32.6246 5.47751 34.2015C10.1036 37.345 12.9414 38.068 16.5573 40.6023C17.8547 41.5117 19.5553 43.016 20.0791 44.6225C20.3173 45.3533 20.204 45.6263 20.2791 46.3532C20.3354 46.8984 21.0081 47.2162 21.4065 46.895C21.8002 46.5889 21.8754 45.9539 21.8102 45.319C21.4976 42.2669 18.2153 39.7488 15.8244 38.2397C11.3345 35.4057 -1.48758 31.2314 2.0304 22.8703C3.06462 20.4111 5.10653 18.209 7.05146 16.5815C7.3614 16.3217 7.88693 16.0289 7.91137 15.5C7.93928 14.8904 7.44682 14.4833 6.8539 14.8092Z" fill="#98ACCB"/>
<path fill-rule="evenodd" clip-rule="evenodd" d="M19.28 0.0834887C18.6164 0.350536 18.7992 0.673891 18.6609 1.83643C18.4328 3.75398 17.5707 5.34537 16.4777 6.7955C15.013 8.73893 12.7604 9.68977 12.5269 10.0023C12.18 10.4666 12.5318 11.3944 13.4145 11.1818C14.3597 10.9541 15.6142 9.78262 16.2222 9.2487C17.9065 7.76946 19.2831 5.81458 19.9043 3.44956C20.0947 2.72479 20.8841 -0.562026 19.28 0.0834887Z" fill="#98ACCB"/>
<path fill-rule="evenodd" clip-rule="evenodd" d="M3.25717 49.0721C3.43903 48.0221 3.4506 46.105 5.0693 43.7756C6.0105 42.4211 7.41586 41.2722 8.8376 40.3875C9.29981 40.0998 10.007 39.6166 9.418 38.9522C8.94243 38.4157 8.13248 38.9889 7.77282 39.2286C6.35294 40.1748 4.99902 41.2132 4.00289 42.6146C3.04055 43.9685 1.55059 46.8567 1.79008 49.1102C1.92235 50.3548 3.05344 50.2487 3.25717 49.0721Z" fill="#98ACCB"/>
</svg>
