<svg width="43" height="50" viewBox="0 0 43 50" fill="none" xmlns="http://www.w3.org/2000/svg">
<path fill-rule="evenodd" clip-rule="evenodd" d="M16.6684 31.7451C16.7876 30.3079 16.3392 31.3596 17.5809 29.7954C19.0872 27.8984 20.0421 26.0884 18.898 23.5409C17.508 20.4467 12.0185 18.4825 16.308 12.4113C17.1772 11.1813 17.9576 10.4488 19.0297 9.51623C20.3218 8.39169 22.4813 6.74336 23.1884 5.20586C23.7622 3.95792 23.6351 3.5846 23.8617 3.12252C24.5101 3.79875 25.2101 4.61336 25.7776 5.33835C28.7272 9.10583 26.4892 11.5584 24.8405 14.0408C23.5672 15.9592 23.0355 18.2867 24.8664 19.9713C25.3138 20.3829 25.5284 20.5483 26.0418 20.9134C27.2593 21.7792 26.0492 22.0825 27.6455 25.4755C28.1564 26.5617 29.8426 28.9121 29.8605 29.5375C29.9147 31.4166 20.6701 34.5917 18.0051 36.2933C16.1671 37.4671 15.3563 38.4421 14.9217 39.2017C14.5255 39.8933 14.1426 41.2563 14.198 42.013C13.628 40.4246 13.7584 39.5788 13.9463 38.8667C14.1605 38.055 14.7055 37.1971 14.9442 36.8221C15.4997 35.95 17.2013 34.0617 17.9142 33.4446C19.8721 31.7504 22.0159 30.8575 23.1109 29.8921C25.5647 27.7296 25.4226 24.9021 23.1842 23.2134C20.1821 20.9488 20.8743 18.7187 21.0147 16.9171C21.1113 15.6762 19.7526 15.7954 19.5868 16.6504C19.5088 17.0538 19.3259 18.348 19.3689 19.0375C19.6593 23.6846 22.5317 23.8288 23.2738 25.6088C23.6934 26.6154 23.2284 27.6863 22.7138 28.2983C22.1697 28.9463 21.5046 29.2592 20.6572 29.7421C19.9301 30.1567 19.1551 30.7033 18.5601 31.1429C18.1955 31.4121 17.8984 31.6471 17.5684 31.8992C17.2884 32.1125 16.8447 32.538 16.6068 32.6688L16.6684 31.7451ZM1.77591 10.93C1.2692 9.03252 1.19756 5.66962 2.20673 4.16416C2.75885 5.04915 3.09716 5.68333 3.8342 6.38748C4.53008 7.05252 5.09468 7.61709 5.90299 8.1867C7.30716 9.17628 9.47758 10.0779 10.5122 11.2179C13.4042 14.4054 9.74714 19.5559 10.2838 23.955C10.5692 26.2946 11.4288 27.9521 13.1313 28.7629C15.3951 29.8417 15.7205 31.3346 14.9038 33.8388C14.2805 35.7504 12.7809 37.0162 12.5418 39.1117C12.3075 41.1651 12.8984 42.6304 13.4463 43.7467C13.7263 44.3179 14.3634 45.6021 14.6197 45.908C14.0242 45.3509 13.5197 44.7571 13.1892 44.3417C12.6584 43.6734 12.1521 42.8209 11.9738 42.4346C11.32 41.0188 11.3092 39.9075 11.5397 38.2096C12.013 34.7208 12.7167 32.7355 10.6472 30.2267C7.98464 26.9992 5.40256 24.8904 7.23298 20.1825C7.93132 18.3863 6.45175 17.9617 5.70129 20.0317C4.61838 23.0192 5.25466 25.4375 6.70884 27.7205C7.49883 28.9604 8.14009 29.5084 8.88635 30.4225C9.5551 31.2417 10.4746 32.0325 10.5859 33.5862C10.8114 36.7292 9.26757 39.0533 10.3422 42.3154C10.7842 43.6563 11.4955 44.4658 12.1917 45.3442C12.6042 45.865 14.6284 47.6821 15.1938 47.9775C14.4651 47.8483 12.5884 46.6904 12.0301 46.3296C9.41552 44.6417 7.84422 41.6417 8.25881 38.1538C8.4067 36.9063 8.78338 35.8846 8.9284 34.7692C9.13051 33.2155 8.47505 32.7267 7.59881 32.1667C4.07255 29.9133 0.408831 28.7888 2.91465 22.3992C3.48426 20.9475 5.24465 18.1388 4.36882 16.3525C3.43675 14.4517 2.46795 13.5254 1.77591 10.93ZM27.773 38.6012C25.8251 38.7746 24.1576 39.4659 22.4659 40.4333C22.8659 40.0071 25.1067 38.7671 26.3097 37.9671C27.6801 37.0562 29.2534 35.8513 30.308 34.2362C32.6659 30.6258 30.9247 28.2063 29.2101 25.3805C25.4996 19.265 31.4905 16.6537 32.8272 13.1883C33.5559 11.2996 33.3905 10.0421 33.0593 7.98998C33.6039 8.34831 34.2534 9.72708 34.5009 10.6037C35.4639 14.0092 32.833 16.3558 33.9788 21.1646C35.0542 25.6783 38.7922 27.078 40.2418 30.9176C42.1292 35.9175 37.8313 38.7863 34.3721 40.14C32.4359 40.8975 30.0367 41.1651 27.738 41.5229C26.5597 41.7063 25.4738 41.898 24.4134 42.24C23.1272 42.6533 21.4234 43.3446 20.2355 45.1051C20.5301 42.3554 23.6776 41.2675 24.9521 40.7567C26.6313 40.0838 28.103 40.0767 30.0272 39.9129C31.8738 39.7559 33.2592 39.4354 34.5826 38.6021C37.5371 36.7425 38.4959 33.6442 37.0309 30.4446C36.6976 29.7167 36.2493 29.1696 35.7951 28.7371C33.9772 27.0063 32.273 23.155 32.2455 20.5129C32.2397 19.9696 32.3201 18.9438 32.3693 18.3037C32.3963 17.9513 32.1705 17.1746 31.4189 17.5767C30.7663 17.9262 30.7805 20.3292 30.8251 20.9771C30.9297 22.4904 31.3388 23.965 31.8542 25.2216C33.4709 29.1613 35.1168 29.4246 35.9497 31.6225C36.5038 33.0862 36.253 34.7171 35.4876 35.8255C33.6055 38.5509 30.5155 38.3575 27.773 38.6012ZM22.0955 0.149164C21.7305 1.52835 23.1284 2.43749 21.8442 4.78295C21.0863 6.16711 18.983 7.64081 17.6101 8.92793C17.07 9.43374 16.6034 9.83916 16.1922 10.3625C14.9242 11.9746 14.8209 11.8604 13.9276 13.8129C12.418 17.1113 13.8234 19.4892 15.9205 21.9133C16.6705 22.78 17.938 23.9242 18.0147 25.4821C18.0597 26.3884 17.7034 27.1655 17.3613 27.7363L16.1259 29.3626C15.8572 29.0105 15.7401 28.9184 15.4668 28.6292C14.7672 27.8892 13.4847 27.5504 12.9409 27.0141C12.6059 26.6842 12.058 25.7542 11.9159 25.2775C11.7092 24.5833 11.6109 23.5909 11.6059 22.8163C11.5934 20.8071 12.0367 19.8554 12.4655 18.1446C13.1901 15.2554 13.5471 11.7563 10.9505 9.67125C10.0168 8.92122 7.48008 7.75751 5.90592 6.4317C4.83253 5.52753 3.9984 4.69544 3.44425 3.36669C3.14216 2.64169 3.3242 2.3771 3.45174 2.0625C3.51715 1.90082 3.568 1.72585 3.5305 1.46791C3.36589 0.970843 2.9888 0.801259 2.49838 1.08957C2.03378 1.36248 1.3663 2.70291 1.05547 3.23873C0.63172 3.96834 0.131718 6.04334 0.0371325 7.08252C-0.219907 9.90583 0.905888 13.0446 1.92171 14.9225C2.748 16.45 3.58592 17.0209 3.15714 18.32C2.28131 20.9713 0.884632 22.5958 0.754226 25.6662C0.683421 27.33 1.02301 28.2404 1.76173 29.5359C2.86051 31.4634 6.59467 32.8663 7.29384 33.6738C8.29756 34.8333 5.98548 37.5117 7.20886 42.0413C7.88965 44.5617 9.55385 46.4221 11.368 47.5513C12.1313 48.0263 13.7709 48.8904 14.6588 49.1417C16.5542 49.6775 19.1384 50.8054 18.8734 49.0734C18.7072 47.988 16.2909 46.5675 15.3688 44.5617C14.9984 43.7555 15.3984 41.4029 15.7092 40.6238C15.8655 40.2317 16.3672 39.5134 16.6164 39.2292C18.6084 36.958 21.4739 36.1675 23.7876 34.995C25.8688 33.94 27.9021 33.2617 29.8697 31.8308C29.5201 33.7863 27.428 35.5125 25.9822 36.5358L24.4243 37.5513C23.5518 38.0905 22.6372 38.6675 21.8438 39.3025C19.2396 41.3888 18.1918 44.7017 18.9876 48.2121C19.3634 49.8696 20.2496 49.5342 20.5034 48.7325C21.1088 46.8196 21.0947 45.7742 23.0176 44.3479C23.5513 43.9521 24.7288 43.5384 25.5134 43.3429C29.2426 42.4142 32.9243 42.6409 36.6172 40.6421C37.0076 40.4308 37.3738 40.3175 37.6992 40.0633C38.0547 39.7859 38.3393 39.56 38.6876 39.3021C40.7905 37.7425 42.4905 35.3992 42.0467 32.3321C41.1609 26.2133 35.0943 25.3084 35.0834 18.5813C35.0797 16.1975 36.0126 14.7971 36.0988 12.6934C36.1434 11.6117 35.9809 10.6008 35.6538 9.73295C34.8151 7.51041 33.6976 6.34459 31.8788 4.8471C31.2401 4.3208 30.6063 4.78834 30.8205 5.68789C30.9293 6.14626 31.1584 6.50417 31.3284 6.96709C31.5826 7.65956 31.7001 8.32376 31.8751 9.08709C32.1988 10.4971 31.8793 12.6508 31.1563 13.5463L30.6055 14.2846C28.798 16.41 27.9159 17.1304 26.898 19.8433C24.4984 18.2717 24.7276 16.965 26.0492 14.7859C27.1609 12.9529 28.4964 11.615 28.5672 9.2871C28.6409 6.84957 27.3238 4.93127 26.2418 3.67626C25.5568 2.88208 25.0343 2.2921 24.3659 1.59747C23.218 0.404163 23.0743 -0.332089 22.0955 0.149164Z" fill="#98ACCB"/>
</svg>
