<svg width="43" height="47" viewBox="0 0 43 47" fill="none" xmlns="http://www.w3.org/2000/svg">
<path fill-rule="evenodd" clip-rule="evenodd" d="M13.6732 39.9631C14.6798 39.5218 15.4988 38.4343 15.4746 37.2075C15.4575 36.3301 14.0464 36.1586 13.8913 37.5587C13.6486 38.4901 12.5256 39.0708 11.6399 38.4404C9.86132 37.1745 11.5035 33.4931 14.4342 33.9657C17.2298 34.4179 17.4108 38.0189 16.8552 40.1582C16.1836 42.7473 14.2443 44.3342 11.6561 44.9649C9.65872 45.4515 7.17739 45.4951 5.40151 44.335C3.55138 43.124 2.61074 41.4998 2.1364 39.3534C1.9685 37.9749 2.11404 36.7652 3.57427 35.9437C4.7505 35.2817 6.151 35.5877 6.86219 36.1577C7.68459 36.8162 8.45695 38.1099 7.70133 39.1969C7.38486 39.6523 6.73116 39.898 6.11185 39.72C5.68896 39.5983 5.45555 39.3648 5.25074 39.011C4.55933 37.8123 3.42434 38.5714 3.70391 39.3631C4.14918 40.6255 5.53686 41.4269 6.79929 41.2875C7.99492 41.1561 9.03667 40.3148 9.3589 39.3406C9.46178 39.0308 9.57034 38.636 9.58348 38.2453C9.92151 38.7538 10.071 39.4589 11.3352 39.989C12.0543 40.291 12.9555 40.2778 13.6732 39.9631ZM5.25908 27.1233C7.83411 27.1697 7.31513 30.2153 5.48939 30.7946C4.29686 31.1736 3.16805 30.647 2.56499 30.1093C1.23443 28.923 1.10874 25.8574 2.7171 24.4104C5.45606 21.9457 10.2099 23.4279 11.013 25.5387C10.8719 25.7911 8.82222 27.959 8.51762 28.2113C8.24286 26.9832 7.81301 26.435 6.98087 26.0069C6.41876 25.7177 5.75863 25.5987 5.01623 25.6182C3.76182 25.6512 3.95905 27.0999 5.25908 27.1233ZM38.0709 8.01677C39.0964 7.96887 39.79 8.31701 40.3136 8.79482C40.6665 9.11787 41.5461 10.4445 41.2644 11.1311C41.5127 11.8067 41.2481 13.1575 41.0807 13.7509C40.4116 16.1201 38.8168 17.5083 37.1768 19.2943C35.0924 21.5638 33.0454 23.7546 30.9645 26.0078C28.9099 28.2328 26.847 30.5225 24.7674 32.734L20.116 37.7587C19.8461 38.0563 19.636 38.2953 19.3608 38.5917L18.5414 39.4172C18.5261 38.9156 18.599 38.4536 18.5784 37.8866C18.5406 36.8488 18.4043 35.6567 17.8939 34.7402C17.6566 34.3138 17.2742 33.9542 17.1283 33.6382L18.9951 31.6311C19.7445 30.825 18.6148 29.846 17.9256 30.5871C17.2219 31.3441 16.1173 32.6399 15.8236 32.8039C15.5625 32.726 15.3146 32.5951 15.0135 32.523L14.1317 32.345L18.5498 27.6227C19.0645 27.0939 19.4756 26.6029 19.9907 26.0864C20.4856 25.5897 20.9657 25.0372 21.4659 24.5163C21.9881 23.9721 22.3929 23.5119 22.9072 22.9822C26.3138 19.4688 29.7455 15.5689 33.1258 12.0898L36.0485 8.98907C36.4072 8.59961 37.3136 7.92975 38.0709 8.01677ZM24.338 13.6173C24.7688 13.1654 27.149 10.5733 27.5658 10.2585C29.1741 9.04274 31.1944 9.90426 31.9855 11.0318C31.8045 11.332 29.3363 13.918 29.0483 14.2195L14.2236 29.9911C13.37 30.9049 10.3787 33.9494 9.91451 34.8426C9.37167 35.887 9.42968 36.745 9.36724 37.0686C9.07497 36.3921 8.83716 35.836 8.40062 35.3665C7.41517 34.3054 5.65164 34.0931 5.09028 34.1327L24.338 13.6173ZM6.66614 21.6007C6.8925 21.2842 14.3726 15.961 15.3238 15.2841C19.6953 12.1746 24.0382 8.89762 28.3934 5.82905C29.6774 4.92398 31.6154 3.38199 32.6994 2.68092C34.3517 1.61098 36.5751 1.07028 38.3259 1.95253C39.6054 2.59692 40.3945 4.15119 40.1096 5.49893C40.0367 5.84441 39.8358 6.45146 39.6331 6.67037C35.321 5.81984 34.5663 8.88051 33.0546 9.91215C32.2467 9.11262 31.4309 8.46603 30.0779 8.20314C28.6836 7.93109 27.2343 8.44447 26.3332 9.28843C25.3789 10.1812 22.6241 13.2476 21.6043 14.321C21.2615 14.6824 12.471 24.1264 12.0886 24.3836C11.5989 23.493 10.5146 22.7734 9.7585 22.4055C8.80768 21.9422 7.91668 21.6925 6.66614 21.6007ZM41.0301 7.43393C41.1457 6.96313 41.4908 6.56703 41.6424 5.55516C41.7642 4.74331 41.641 4.01982 41.3364 3.21409C40.2358 0.301099 37.0792 -0.453708 34.3596 0.240416C32.8273 0.63203 31.7557 1.47207 30.7056 2.24614C28.5644 3.82372 26.4255 5.39738 24.2638 6.92137C22.102 8.44535 20.0276 10.0673 17.8522 11.5566C15.8394 12.9341 13.508 14.7461 11.4064 16.2292L1.7957 23.1883C-0.469369 25.1937 -0.478151 28.8245 1.13418 30.8192C2.06914 31.9757 3.19578 32.2562 4.53689 32.447C4.1782 32.9959 2.77997 34.3094 2.22127 34.9467C1.96805 35.2355 1.66566 35.5028 1.46521 35.7789C0.51136 37.0927 0.205793 38.5296 0.914831 40.6936C1.54342 42.6145 2.3562 43.7443 3.52504 44.8375C6.50351 47.6243 12.0588 47.3214 15.4588 44.8388C16.5828 44.0181 19.0944 41.0682 20.1889 39.927C20.4294 39.6765 20.7204 39.3626 20.9547 39.1016L23.2466 36.6245C28.2655 31.0755 33.5408 25.5365 38.605 19.9844C39.1065 19.4345 39.6393 18.9101 40.1509 18.3461C41.5953 16.7535 42.8063 14.503 42.8648 12.1003C42.9106 10.2221 42.3044 8.18644 41.0301 7.43393Z" fill="#9EA4BD"/>
<path fill-rule="evenodd" clip-rule="evenodd" d="M29.0904 25.856C30.4808 24.4434 33.8886 20.8545 35.1173 19.5155C35.9282 18.6319 34.7182 17.6862 34.0015 18.4612C33.857 18.6175 33.7218 18.7773 33.6102 18.8927C33.3045 19.209 33.031 19.4967 32.7339 19.8176L29.2282 23.5178C28.9339 23.819 28.6249 24.1368 28.3399 24.4331C28.2055 24.573 28.0679 24.7331 27.9266 24.8877C27.2198 25.6612 28.0825 26.88 29.0904 25.856Z" fill="#9EA4BD"/>
</svg>
