<svg width="53" height="42" viewBox="0 0 53 42" fill="none" xmlns="http://www.w3.org/2000/svg">
<path fill-rule="evenodd" clip-rule="evenodd" d="M25.8561 29.1148C27.2656 29.0347 31.0545 28.3091 32.6358 28.059C33.5772 29.3458 35.4428 31.777 36.2309 32.7408L40.3686 36.7358C40.3917 37.4017 39.3273 40.1687 39.0341 40.7592C38.4454 40.8115 38.3647 40.7982 37.4554 40.7981H25.8506L25.8561 29.1148ZM41.331 7.34644C41.2992 7.24819 41.2488 7.13214 41.1772 6.97176C40.4938 5.44231 39.5837 3.72751 38.6665 1.67713L47.1935 4.54769C46.9515 6.01692 46.6084 8.41373 46.3586 10.1539C46.1313 11.7376 45.9545 12.2524 45.981 12.7379C44.1035 13.2893 42.1492 13.8208 40.2334 14.2145C39.7321 13.8707 34.8271 10.8783 34.7317 10.6397C34.479 10.0075 37.1237 3.53393 37.4273 2.15847C38.4975 4.24045 39.394 6.01228 40.2311 7.68153C40.6056 8.4285 41.5664 8.07494 41.331 7.34644ZM36.927 0C35.9688 2.76807 35.0209 5.53512 34.0502 8.30028C33.855 8.85497 33.4087 10.2529 33.1593 11.0742C33.3179 11.34 37.3396 13.8251 37.9352 14.1992C39.272 15.0389 40.0007 15.4509 40.157 15.4443C41.318 15.1969 41.3643 15.1609 43.4879 14.6497C45.9474 14.06 46.6764 13.9021 47.0761 13.7292C47.1439 13.1622 47.3803 11.5143 47.4566 10.947L48.4464 3.87003C44.9999 2.63035 40.75 1.12659 36.927 0ZM19.1091 23.4748C20.0675 24.3639 22.431 26.6988 23.3475 27.6191C23.6824 27.9554 24.5008 28.6157 24.6012 29.1405L24.6106 34.5382C24.6157 36.3777 24.6921 38.4055 24.6921 40.245C20.9394 38.4034 17.4504 36.5055 14.4684 34.8841C15.6481 32.0081 18.0164 26.3071 19.1091 23.4748ZM1.7998 35.3075C2.59774 32.9444 3.74261 29.5815 4.51747 27.4405C5.97526 29.2853 7.45192 30.8334 8.46135 32.2659C6.71218 33.1518 3.80448 34.398 1.7998 35.3075ZM38.5328 33.1292C44.4559 33.0127 43.9148 33.3548 45.9399 32.7138C47.582 32.1941 49.9241 31.3816 51.6562 30.6998C51.2022 32.8992 50.9802 34.5354 50.6479 35.9462C49.8721 36.4265 47.8699 37.5704 47.067 38.0342C46.3234 38.4637 45.9499 38.697 44.774 39.4351C43.2579 37.8938 41.8026 36.4187 40.2341 34.9201C39.6568 34.3285 39.2072 33.8669 38.5328 33.1292ZM38.6348 31.8615C41.0711 29.3024 43.3273 27.1412 44.8148 25.7319C46.4833 26.8708 50.016 29.0153 50.9703 29.6575C49.9348 30.0178 48.9025 30.468 48.2539 30.6853C45.5629 31.587 45.2736 31.8798 42.579 31.8764C41.6927 31.8753 39.4188 31.9918 38.6348 31.8615ZM37.0911 31.7183C35.8612 30.1368 34.5702 28.4334 33.6043 27.197C33.4379 26.4098 33.6334 22.3727 33.6525 21.3184C34.7849 22.494 34.991 22.7089 35.5002 23.2758L40.2681 28.3061C39.501 29.1584 37.9517 30.8769 37.0911 31.7183ZM5.43168 26.5681L12.1956 27.9588C12.7356 28.3664 14.2746 29.5601 14.8563 30.0551C14.6795 30.5976 14.4052 31.3646 14.2123 31.8382C12.684 35.5905 13.1709 35.0293 12.9082 35.4039C13.5535 35.712 15.1909 36.6321 16.0764 37.1604C15.2483 38.0902 13.6866 39.7647 12.8651 40.6565C9.40236 39.2504 6.03666 37.7248 2.61928 36.2115C4.89528 35.1512 9.10739 33.3201 10.3698 32.6534C9.9799 32.2066 8.86647 30.6832 8.44606 30.1737C7.59463 29.1417 6.2459 27.55 5.43168 26.5681ZM32.4059 20.5193C32.4051 21.7128 32.4025 22.9063 32.4001 24.0998C32.3942 27.0398 32.373 26.0777 32.3683 26.8997C30.86 27.1299 28.265 27.5145 25.4379 27.9365C24.2203 26.7872 21.5207 24.0974 20.0096 22.5816L32.4059 20.5193ZM9.52979 26.1004C10.157 24.9507 11.7542 22.2596 12.3525 21.3098C12.8479 20.5236 13.2754 19.8515 13.7764 19.0479C14.0296 18.6419 14.2255 18.3249 14.4801 17.907C14.6542 17.6212 15.2892 16.706 15.483 16.4856C16.2884 16.5318 19.0603 16.5137 19.8912 16.5752C20.2076 16.5383 20.2253 16.5572 21.2694 15.974C22.299 15.3247 24.6456 14.055 26.0727 13.2459L27.3575 20.1227C24.3456 20.6854 21.3316 21.1708 18.3292 21.7931C18.1454 22.3027 17.8868 22.8288 17.6452 23.3994L16.1513 27.0589C15.5693 28.4225 15.7048 28.1945 15.4274 28.8498C14.4073 28.0777 13.9228 27.6573 12.8509 26.8598C11.8121 26.6482 11.1153 26.4889 9.52979 26.1004ZM2.64638 15.4206C4.8241 13.8954 10.2671 9.91741 12.7139 8.1154C13.4251 11.1531 13.7663 13.0013 14.3869 15.6934C14.0901 16.1664 13.9012 16.4923 13.159 17.7078L8.21557 25.6741C7.24213 24.07 3.37179 16.9169 2.64638 15.4206ZM15.5688 15.2869C15.0654 13.2637 14.4175 10.2368 13.8694 7.93111C15.8587 8.74211 23.0094 11.4865 25.1388 12.3129C23.9751 13.0831 20.3556 15.0703 19.5756 15.3977C17.371 15.3262 16.6991 15.3404 15.5688 15.2869ZM1.04553 15.0753C3.47017 19.5783 4.82845 22.0192 6.62303 25.6392C5.71929 25.5323 4.7308 25.3456 3.81836 25.2134C3.35332 26.5023 1.3044 32.0937 0 36.4612C2.4599 37.6969 12.9777 42.0216 13.141 41.9811C13.9443 41.5582 16.5554 38.6068 17.2795 37.7648C18.2776 38.2515 22.9368 40.8478 23.9659 41.39C25.2458 42.0643 24.9207 41.9983 26.6489 41.9982C28.0218 41.9982 39.2963 41.9313 39.8177 41.9468C40.5389 40.1641 40.9797 39.1054 41.5108 37.6347C42.1915 38.4037 43.1145 39.2753 44.6285 40.7463C45.4557 40.2769 50.9955 37.0403 51.6616 36.6379C51.7617 36.4787 51.8181 36.2396 51.9235 35.7587C52.1405 34.7684 52.6755 31.4285 53 29.5873L44.7362 24.1255C43.4454 25.2654 42.7205 25.9419 41.1624 27.4383L34.2429 20.1124C33.8842 19.7387 33.6378 19.5192 33.2749 19.1737C31.3662 19.4117 30.3166 19.6398 28.5175 19.9056C27.9583 17.1841 27.5012 14.319 26.9017 11.7386C22.5069 10.0754 17.2626 8.09081 12.8836 6.39197C9.09023 9.38768 4.95831 12.1879 1.04553 15.0753Z" fill="#9EA4BD"/>
</svg>
