<svg width="45" height="46" viewBox="0 0 45 46" fill="none" xmlns="http://www.w3.org/2000/svg">
<path fill-rule="evenodd" clip-rule="evenodd" d="M17.7674 41.0005C16.3985 42.5768 14.5677 43.6118 12.334 43.6332C8.42366 43.6716 4.66854 39.8509 3.4645 36.3648C2.80479 34.4551 2.4786 31.4555 3.35909 29.5538C3.82333 29.967 5.85456 33.307 8.05223 35.2298C8.5076 35.6285 8.95266 36.052 9.46133 36.4335C9.7404 36.6428 9.93401 36.8164 10.2043 37.0365C11.4309 38.0362 12.942 36.2759 14.8659 35.8328C14.6425 36.3039 13.9981 37.0825 13.683 37.5194C13.2234 38.1581 12.8971 38.7906 13.752 39.2989C14.8061 39.9253 17.353 40.7268 17.7674 41.0005ZM4.34962 28.5061C5.58545 28.2417 6.86081 27.8848 7.5121 27.7288C8.54712 27.4808 9.55832 27.1806 10.5465 26.8866C16.2341 25.1942 21.7797 22.4652 26.3678 19.2092C28.0817 17.9929 29.1995 16.9939 30.7329 15.74L33.3621 13.3998C34.3849 12.4223 35.6461 10.8759 36.589 9.80525C38.2458 7.92463 38.5916 7.27721 39.9627 5.34864L41.5586 3.09008C41.6731 4.03268 41.5624 7.32246 41.2227 8.06495C40.591 8.10711 39.9355 7.90396 39.5863 8.35515C39.3701 9.00258 39.7071 9.22341 40.0494 9.54883L40.9122 10.3979C40.8019 11.1163 40.3449 13.3833 40.0436 13.8624C39.3364 13.9284 38.1269 13.7164 38.1845 14.6019C38.214 15.0569 39.1041 15.6197 39.4679 15.9566C39.428 16.5193 38.1323 19.8087 37.8536 20.1695C37.0092 20.0805 36.5303 19.7615 35.74 20.1457C35.6008 20.7993 35.9934 21.1933 36.3249 21.6127C36.9543 22.4088 36.9505 22.3544 35.6291 24.4282C35.4122 24.7687 34.9668 25.4038 34.8552 25.7649C34.248 25.6012 32.7457 24.8906 32.5012 25.7615C32.3264 26.3844 33.5158 27.3443 33.3143 27.8392L31.9304 29.5719C31.6015 30.0031 30.8207 30.9158 30.4419 31.1673C29.4706 30.8924 28.5912 29.9735 28.0986 30.6279C27.5903 31.3026 28.5965 32.3057 28.7855 32.9938L24.6479 36.3372C24.5282 36.2958 21.1933 33.8192 22.1757 36.6014C22.3134 36.9904 22.5058 37.3695 22.5878 37.7724C22.1918 38.0439 19.3636 39.7167 18.9726 39.7838C18.3068 39.8973 15.2995 38.6051 14.823 38.2762C15.413 36.9755 18.4141 34.0545 16.9935 33.6252C16.5687 33.4968 12.3007 35.4096 11.7027 35.7101C11.0878 36.0191 10.7999 35.8941 10.3587 35.533L8.42328 33.7643C7.22806 32.576 5.09558 29.9697 4.34962 28.5061ZM37.4795 6.60559C37.3346 6.88202 36.9056 7.50795 36.2126 8.33443C35.9101 8.69518 35.5172 9.20919 35.1588 9.49245C34.5397 9.42616 33.5707 8.54374 33.1095 9.19502C32.7557 9.6941 33.4511 10.7283 33.6634 11.1558C33.2793 11.8243 31.3274 13.675 30.7789 13.9476C30.2947 13.7279 29.0006 12.8838 28.6287 13.5934C28.2723 14.2734 28.9749 14.8101 29.1175 15.5583C29.1006 15.5656 26.4146 17.8269 25.5058 18.3107C24.7368 18.055 24.023 16.6964 23.2981 17.2829C22.7821 17.7 23.3161 18.7936 23.3311 19.5784C22.2393 20.46 20.8479 21.3275 19.6818 21.8342C19.339 21.6575 19.0247 21.3459 18.6545 21.0086C18.2182 20.6907 18.0354 20.5873 17.6988 20.7421C16.9777 21.0733 17.5389 22.1313 17.5681 22.8915C16.8451 23.2369 14.1821 24.4685 13.4288 24.6103C13.1211 24.2968 12.9155 23.8882 12.6212 23.5861C12.2762 23.2323 11.9822 23.2591 11.7004 23.3695C10.9621 23.6581 11.3091 24.5636 11.2968 25.3897C10.2943 25.9229 6.27085 26.8195 4.79694 27.1143C4.04718 27.2645 3.12029 27.2603 2.73232 27.7476C2.10826 28.5307 1.6563 30.8215 1.58885 32.0512C1.34195 36.5301 3.34106 40.4339 6.80101 43.0509C8.81467 44.5736 11.6582 45.5902 14.7924 45.9087C18.3125 46.2664 21.0296 45.538 23.8716 44.3393C25.1588 43.7962 30.2161 40.8755 30.4454 40.0291C30.5454 39.6596 30.4546 39.1862 29.8535 39.2011C29.4575 39.2111 29.247 39.4886 28.9926 39.6899C25.2144 42.6768 20.1598 45.119 15.0366 44.6467C15.316 44.383 15.9776 44.1166 16.3552 43.897C17.7045 43.1119 17.7467 42.9133 18.6372 42.0531L19.6572 41.0515L22.2984 39.5653C25.3014 37.8564 27.8908 35.6745 30.3974 33.3458L33.2663 30.1534C35.4632 27.7188 38.1872 22.8493 39.4686 19.9299C41.5785 15.1221 41.9687 11.9124 42.7902 6.89502C42.7833 7.71075 43.0137 8.92516 43.0321 9.89228C43.0516 10.9434 43.0531 12.0455 42.9953 13.0939C42.5568 21.0208 38.3321 30.0261 33.2606 35.6212C32.9827 35.9275 31.8042 36.9947 31.8924 37.4938C31.9584 37.8664 32.4084 38.1454 32.8443 37.9054C33.1421 37.7414 33.4676 37.406 33.6895 37.1457C41.5888 27.8836 46.3452 16.4097 43.5738 3.41975C43.1785 1.56591 42.7994 -1.41603 41.3623 0.767419L38.9603 4.75335C38.0261 4.66903 37.0437 3.95409 36.5806 4.78361C36.1895 5.483 37.4928 6.11748 37.4795 6.60559Z" fill="#98ACCB"/>
<path fill-rule="evenodd" clip-rule="evenodd" d="M3.51725 8.96285C3.26694 7.9393 3.10057 6.53825 2.92615 4.77374C4.61972 6.95262 6.467 8.91452 8.39937 10.8784C9.1595 11.6351 10.032 12.3546 10.8358 13.0748C13.5625 15.3039 15.8908 16.9235 19.1128 18.6926C19.4534 18.8798 19.9827 19.1828 20.4065 19.3729C20.7626 19.5326 21.2378 19.7776 21.5285 19.3556C21.6856 19.1275 21.6551 18.7784 21.2966 18.5136L20.2255 17.8937C20.2436 17.2179 20.6499 16.1139 20.0971 15.7513C19.3841 15.5485 18.6938 16.5942 18.2296 16.8438C17.0768 16.1986 15.9556 15.4902 14.7715 14.6231C14.8642 14.0577 15.5301 13.2079 14.9939 12.7885C14.502 12.4059 13.6472 13.1281 13.1286 13.2178C12.9415 13.1967 11.1889 11.7868 10.4866 11.2682C10.7703 10.4022 11.1632 9.72336 10.7871 9.3339C10.4954 9.03146 9.40254 9.56967 9.14611 9.79733C8.52243 9.35882 7.12667 7.76185 6.76482 7.49237C7.13053 6.94882 7.74269 6.34426 7.47937 5.74511C6.96685 5.06968 5.91078 5.72367 5.34304 5.83752C4.76957 5.14639 4.23252 4.49009 3.71923 3.76865C3.07065 2.85598 2.91772 2.29243 2.368 2.07436C1.62396 1.77919 1.62512 2.33039 1.45836 2.98477C1.33568 3.46582 1.24255 3.99256 1.1697 4.53919C0.419543 10.1719 1.17889 16.2561 3.48198 21.4415L5.37104 25.2783C5.89811 26.3002 7.10832 25.8578 6.43328 24.638L4.98389 21.8719C3.08713 17.9232 1.72977 12.3174 2.09703 7.88607C2.48687 9.65862 2.77625 11.2257 3.33518 12.9111C3.84345 14.4445 4.4242 16.0104 5.07664 17.4034C5.81263 18.9747 6.45433 20.1416 7.29078 21.5062C7.58479 21.9858 8.85249 23.9001 9.21897 24.2958C9.98406 25.2119 10.8412 24.5065 10.3306 23.7966C9.89588 23.1929 8.94904 21.9992 8.60907 21.4323C8.37496 20.9103 9.71887 19.9667 9.30224 19.3742C8.89327 18.7928 8.00435 19.2393 7.44868 19.3431C7.04389 18.8912 5.78271 16.4559 5.7352 15.6708C6.34472 15.3204 7.19071 14.4406 6.47042 14.0784C6.1477 13.9158 5.39137 14.0029 4.9689 13.9726C4.66684 13.188 3.74072 11.2471 4.37283 10.6042C6.52641 8.41545 3.69322 8.98236 3.51725 8.96285Z" fill="#98ACCB"/>
</svg>
