<svg width="48" height="50" viewBox="0 0 48 50" fill="none" xmlns="http://www.w3.org/2000/svg">
<path fill-rule="evenodd" clip-rule="evenodd" d="M4.38507 11.187C6.80654 11.187 8.76979 13.1503 8.76979 15.5717C8.76979 17.9935 6.80654 19.9568 4.38507 19.9568C1.96325 19.9568 0 17.9935 0 15.5717C0 13.1503 1.96325 11.187 4.38507 11.187ZM4.38507 12.6109C6.0202 12.6109 7.34584 13.9366 7.34584 15.5717C7.34584 17.2072 6.0202 18.5329 4.38507 18.5329C2.74959 18.5329 1.42395 17.2072 1.42395 15.5717C1.42395 13.9366 2.74959 12.6109 4.38507 12.6109Z" fill="#98ACCB"/>
<path fill-rule="evenodd" clip-rule="evenodd" d="M13.1419 19.9258C15.5633 19.9258 17.5266 21.8891 17.5266 24.3105C17.5266 26.7323 15.5633 28.6956 13.1419 28.6956C10.7201 28.6956 8.75684 26.7323 8.75684 24.3105C8.75684 21.8891 10.7201 19.9258 13.1419 19.9258ZM13.1419 21.3497C14.777 21.3497 16.1027 22.6754 16.1027 24.3105C16.1027 25.946 14.777 27.2716 13.1419 27.2716C11.5064 27.2716 10.1807 25.946 10.1807 24.3105C10.1807 22.6754 11.5064 21.3497 13.1419 21.3497Z" fill="#98ACCB"/>
<path fill-rule="evenodd" clip-rule="evenodd" d="M16.9071 8.63086C19.3285 8.63086 21.2917 10.5941 21.2917 13.0155C21.2917 15.4373 19.3285 17.4006 16.9071 17.4006C14.4853 17.4006 12.522 15.4373 12.522 13.0155C12.522 10.5941 14.4853 8.63086 16.9071 8.63086ZM16.9071 10.0548C18.5422 10.0548 19.8679 11.3804 19.8679 13.0155C19.8679 14.6511 18.5422 15.9767 16.9071 15.9767C15.2715 15.9767 13.9459 14.6511 13.9459 13.0155C13.9459 11.3804 15.2715 10.0548 16.9071 10.0548Z" fill="#98ACCB"/>
<path fill-rule="evenodd" clip-rule="evenodd" d="M29.3501 8.63086C31.7715 8.63086 33.7349 10.5941 33.7349 13.0155C33.7349 15.4373 31.7715 17.4006 29.3501 17.4006C26.9283 17.4006 24.9651 15.4373 24.9651 13.0155C24.9651 10.5941 26.9283 8.63086 29.3501 8.63086ZM29.3501 10.0548C30.9853 10.0548 32.3109 11.3804 32.3109 13.0155C32.3109 14.6511 30.9853 15.9767 29.3501 15.9767C27.7147 15.9767 26.389 14.6511 26.389 13.0155C26.389 11.3804 27.7147 10.0548 29.3501 10.0548Z" fill="#98ACCB"/>
<path fill-rule="evenodd" clip-rule="evenodd" d="M33.1151 19.9258C35.5365 19.9258 37.4998 21.8891 37.4998 24.3105C37.4998 26.7323 35.5365 28.6956 33.1151 28.6956C30.6933 28.6956 28.73 26.7323 28.73 24.3105C28.73 21.8891 30.6933 19.9258 33.1151 19.9258ZM33.1151 21.3497C34.7502 21.3497 36.0759 22.6754 36.0759 24.3105C36.0759 25.946 34.7502 27.2716 33.1151 27.2716C31.4796 27.2716 30.1539 25.946 30.1539 24.3105C30.1539 22.6754 31.4796 21.3497 33.1151 21.3497Z" fill="#98ACCB"/>
<path fill-rule="evenodd" clip-rule="evenodd" d="M43.0784 13.6357C45.4999 13.6357 47.4631 15.599 47.4631 18.0204C47.4631 20.4423 45.4999 22.4056 43.0784 22.4056C40.6566 22.4056 38.6934 20.4423 38.6934 18.0204C38.6934 15.599 40.6566 13.6357 43.0784 13.6357ZM43.0784 15.0597C44.7135 15.0597 46.0392 16.3854 46.0392 18.0204C46.0392 19.656 44.7135 20.9816 43.0784 20.9816C41.4429 20.9816 40.1173 19.656 40.1173 18.0204C40.1173 16.3854 41.4429 15.0597 43.0784 15.0597Z" fill="#98ACCB"/>
<path fill-rule="evenodd" clip-rule="evenodd" d="M16.7686 31.2207C19.19 31.2207 21.1533 33.184 21.1533 35.6054C21.1533 38.0272 19.19 39.9905 16.7686 39.9905C14.3468 39.9905 12.3835 38.0272 12.3835 35.6054C12.3835 33.184 14.3468 31.2207 16.7686 31.2207ZM16.7686 32.6447C18.4037 32.6447 19.7294 33.9703 19.7294 35.6054C19.7294 37.2409 18.4037 38.5666 16.7686 38.5666C15.1331 38.5666 13.8075 37.2409 13.8075 35.6054C13.8075 33.9703 15.1331 32.6447 16.7686 32.6447Z" fill="#98ACCB"/>
<path fill-rule="evenodd" clip-rule="evenodd" d="M29.2572 31.2207C31.6786 31.2207 33.6419 33.184 33.6419 35.6054C33.6419 38.0272 31.6786 39.9905 29.2572 39.9905C26.8354 39.9905 24.8721 38.0272 24.8721 35.6054C24.8721 33.184 26.8354 31.2207 29.2572 31.2207ZM29.2572 32.6447C30.8923 32.6447 32.218 33.9703 32.218 35.6054C32.218 37.2409 30.8923 38.5666 29.2572 38.5666C27.6217 38.5666 26.296 37.2409 26.296 35.6054C26.296 33.9703 27.6217 32.6447 29.2572 32.6447Z" fill="#98ACCB"/>
<path fill-rule="evenodd" clip-rule="evenodd" d="M10.5245 41.23C12.9459 41.23 14.9092 43.1933 14.9092 45.6147C14.9092 48.0365 12.9459 49.9998 10.5245 49.9998C8.1027 49.9998 6.1394 48.0365 6.1394 45.6147C6.1394 43.1933 8.1027 41.23 10.5245 41.23ZM10.5245 42.6539C12.1596 42.6539 13.4853 43.9796 13.4853 45.6147C13.4853 47.2502 12.1596 48.5759 10.5245 48.5759C8.88904 48.5759 7.56335 47.2502 7.56335 45.6147C7.56335 43.9796 8.88904 42.6539 10.5245 42.6539Z" fill="#98ACCB"/>
<path fill-rule="evenodd" clip-rule="evenodd" d="M35.5016 41.23C37.923 41.23 39.8862 43.1933 39.8862 45.6147C39.8862 48.0365 37.923 49.9998 35.5016 49.9998C33.0798 49.9998 31.1165 48.0365 31.1165 45.6147C31.1165 43.1933 33.0798 41.23 35.5016 41.23ZM35.5016 42.6539C37.1367 42.6539 38.4623 43.9796 38.4623 45.6147C38.4623 47.2502 37.1367 48.5759 35.5016 48.5759C33.8661 48.5759 32.5404 47.2502 32.5404 45.6147C32.5404 43.9796 33.8661 42.6539 35.5016 42.6539Z" fill="#98ACCB"/>
<path fill-rule="evenodd" clip-rule="evenodd" d="M4.38507 11.187C6.80654 11.187 8.76979 13.1503 8.76979 15.5717C8.76979 17.9935 6.80654 19.9568 4.38507 19.9568C1.96325 19.9568 0 17.9935 0 15.5717C0 13.1503 1.96325 11.187 4.38507 11.187ZM4.38507 12.6109C6.0202 12.6109 7.34584 13.9366 7.34584 15.5717C7.34584 17.2072 6.0202 18.5329 4.38507 18.5329C2.74959 18.5329 1.42395 17.2072 1.42395 15.5717C1.42395 13.9366 2.74959 12.6109 4.38507 12.6109Z" fill="#98ACCB"/>
<path d="M25.538 12.2881H20.7185V13.7499H25.538V12.2881Z" fill="#98ACCB"/>
<path d="M25.4682 34.875H20.6487V36.3368H25.4682V34.875Z" fill="#98ACCB"/>
<path d="M32.6079 20.3721L31.1501 15.7783L29.7568 16.2205L31.2146 20.8142L32.6079 20.3721Z" fill="#98ACCB"/>
<path d="M13.6213 20.625L15.0791 16.0312L16.4725 16.4734L15.0147 21.0672L13.6213 20.625Z" fill="#98ACCB"/>
<path d="M32.8186 27.624L31.3608 32.2178L29.9675 31.7756L31.4253 27.1818L32.8186 27.624Z" fill="#98ACCB"/>
<path d="M13.5212 27.6211L14.979 32.2148L16.3724 31.7727L14.9146 27.1789L13.5212 27.6211Z" fill="#98ACCB"/>
<path d="M10.8333 21.1189L7.50488 17.6333L6.44765 18.6429L9.77608 22.1284L10.8333 21.1189Z" fill="#98ACCB"/>
<path d="M35.6166 21.8168L39.7097 19.2725L40.4815 20.514L36.3883 23.0583L35.6166 21.8168Z" fill="#98ACCB"/>
<path d="M31.5779 9.72036L34.9971 6.32373L36.0273 7.36081L32.6082 10.7574L31.5779 9.72036Z" fill="#98ACCB"/>
<path fill-rule="evenodd" clip-rule="evenodd" d="M38.1412 0C40.5626 0 42.5259 1.9633 42.5259 4.3847C42.5259 6.80653 40.5626 8.76983 38.1412 8.76983C35.7194 8.76983 33.7561 6.80653 33.7561 4.3847C33.7561 1.9633 35.7194 0 38.1412 0ZM38.1412 1.42394C39.7763 1.42394 41.1019 2.74964 41.1019 4.3847C41.1019 6.02025 39.7763 7.34588 38.1412 7.34588C36.5057 7.34588 35.1801 6.02025 35.1801 4.3847C35.1801 2.74964 36.5057 1.42394 38.1412 1.42394Z" fill="#98ACCB"/>
<path d="M34.3707 42.0572L31.8584 37.9443L30.6109 38.7064L33.1232 42.8192L34.3707 42.0572Z" fill="#98ACCB"/>
<path d="M11.8874 42.1602L14.437 38.0703L15.6775 38.8437L13.1279 42.9335L11.8874 42.1602Z" fill="#98ACCB"/>
</svg>
