<svg width="47" height="47" viewBox="0 0 47 47" fill="none" xmlns="http://www.w3.org/2000/svg">
<path fill-rule="evenodd" clip-rule="evenodd" d="M32.7475 44.3559C27.9034 41.6839 30.8276 37.161 31.811 32.258C32.5674 32.3199 33.9065 33.5302 34.4732 34.008C35.4751 34.8716 35.5354 35.3749 35.3478 35.9868C34.8531 37.6004 33.3617 42.2358 32.7475 44.3559ZM35.8166 33.4025L37.7629 33.4287C37.276 34.2912 37.0951 34.3617 36.788 35.6001C36.6333 34.3566 36.1551 33.8146 35.8166 33.4025ZM24.4497 38.0966C25.3842 34.8442 25.1085 35.4325 26.5796 34.547C27.4079 34.0488 29.4149 32.7343 30.3936 32.5738C30.266 33.2134 29.1493 37.439 28.9487 37.703C28.7138 38.0124 27.4099 38.7151 26.9078 38.8952C26.4068 39.0754 26.0579 39.0256 25.7645 38.8866C25.325 38.6783 24.7916 38.3199 24.4497 38.0966ZM38.7773 39.726C38.6484 39.5521 38.281 38.3881 38.1878 38.0724C37.4836 35.6824 38.5192 34.5712 39.7321 33.1946C40.4285 32.405 43.3864 29.7902 44.3127 28.7969C44.8411 29.9386 45.1983 30.8265 45.4297 31.4336C45.9831 32.8855 45.5112 33.287 42.4393 36.2499C41.2209 37.4249 39.9722 38.8722 38.7773 39.726ZM23.2661 37.1343C22.471 36.5558 20.9387 35.5621 20.5338 35.1536C19.9306 34.5454 19.9705 33.9716 20.5263 31.9878C20.8483 30.839 21.1366 29.722 21.4491 28.5415C21.7163 27.5334 22.2532 25.9973 22.2752 24.9856C23.0189 25.0886 23.2943 25.456 23.7396 25.7795C25.9134 27.3595 25.9588 27.363 25.2314 30.0538C25.0008 30.9083 23.4411 36.8206 23.2661 37.1343ZM34.7356 30.0193C35.2358 29.5744 35.6298 29.2426 36.0736 28.8368C36.7265 28.2399 36.7903 28.0825 38.0644 28.1111C39.4419 28.142 41.8483 27.9521 43.0899 28.1291C42.146 29.104 40.0427 30.9985 39.2555 31.756C38.8047 32.1899 38.6641 32.1492 37.9047 32.1445C37.3951 32.1413 36.7551 32.1676 36.2659 32.0469C35.5154 31.8621 34.942 30.7008 34.7356 30.0193ZM20.949 25.174C20.8742 25.8245 20.4837 27.0422 20.2933 27.7386C19.7822 29.6065 19.9098 30.3902 18.83 30.9918C17.5548 31.7019 16.8314 32.3603 15.5385 31.3588C15.334 31.2006 15.1378 31.0498 15.0563 30.9632C14.9455 30.8449 14.9988 30.7756 15.0936 30.3295C15.5404 28.2314 15.7139 28.0218 16.9171 27.4194C18.0408 26.8574 20.014 25.5233 20.949 25.174ZM34.1215 28.6383C33.9746 28.2348 33.4659 27.2576 33.1161 26.3396C32.9312 25.8531 32.8455 25.4861 32.8674 25.0694C32.9058 24.3378 33.4545 23.8991 33.7894 23.5799C35.0024 22.4241 38.6449 18.9445 39.8266 17.7601C40.0138 18.1107 40.3428 19.078 40.517 19.4881C40.7235 19.975 41.1046 20.8046 41.0736 21.4026C41.018 22.4722 38.5579 24.4545 37.7131 25.3189C37.088 25.9581 34.8445 27.974 34.1215 28.6383ZM13.8331 30.0401C13.2805 29.6641 12.8563 29.3981 12.4216 29.0569C10.2897 27.3826 10.2647 27.589 11.0629 24.7099C11.4271 23.3962 12.7768 18.7522 12.8007 17.7276C13.6808 17.8995 14.9838 19.0322 15.4789 19.5316C15.9423 19.9989 16.2615 20.154 16.1287 21.1276C15.8408 23.2387 14.3588 27.4891 13.8331 30.0401ZM3.87537 22.2764C4.043 22.1335 11.0097 18.1024 11.4835 17.9313C11.274 18.9272 10.9536 20.0114 10.6885 21.0125C10.5479 21.5444 10.4225 22.0332 10.3022 22.5533C10.1577 23.1773 9.96312 23.4302 9.48642 23.6606C8.61066 24.084 7.15678 24.2108 6.15725 23.874C5.26973 23.5752 4.15894 22.9223 3.87537 22.2764ZM38.6586 16.9337C37.9607 17.8424 35.6858 19.9158 34.6659 20.8186C34.2943 21.148 34.0302 21.1856 33.0973 21.1911C31.4178 21.2009 30.7418 20.9075 30.331 19.5277C30.2546 19.2716 30.253 18.9629 30.3599 18.8403C30.8119 18.3222 31.8929 17.3054 32.2239 17.2106C32.8341 17.0359 37.6834 16.9317 38.6586 16.9337ZM29.427 17.5748C29.1564 16.9709 29.002 16.4167 28.7169 15.8206C27.8349 13.975 28.196 13.6801 29.1536 12.5658C29.2597 12.442 34.1759 7.51097 35.1308 6.63555C35.3118 6.93951 35.7983 8.20266 35.9972 8.62722C36.712 10.1528 36.6043 10.7904 35.9698 11.5099C34.926 12.6935 31.3516 16.1135 29.427 17.5748ZM28.4639 11.3235C27.9171 11.9552 27.6359 12.2353 27.2485 12.8407C27.0026 13.2254 26.8216 13.7052 26.8862 14.4113C26.9775 15.407 28.9554 19.8015 29.501 20.8872C30.0274 21.9337 31.014 22.4421 32.5987 22.4437C32.2866 23.9711 30.7634 23.829 32.0042 27.0403C32.5262 28.3919 33.59 30.0816 33.8105 31.4935C32.5682 31.244 31.9607 30.0487 29.5359 31.3008C28.3758 31.8997 27.1796 33.0046 25.8087 33.2533C26.0626 31.6851 26.7997 29.9034 26.9748 28.3927C27.2039 26.4167 25.6635 25.5954 24.6299 24.8007C23.4866 23.9218 22.2286 22.8843 20.3893 23.8995C19.2891 24.507 17.7694 25.5155 16.2732 26.3208C16.8885 23.5768 17.1048 23.1745 17.3766 21.9607C17.7635 20.2347 17.4345 18.6422 13.8167 16.6509C11.8137 15.5484 9.64427 17.3896 7.34201 18.7193C6.33387 19.3017 5.35119 19.8598 4.35403 20.4509C3.01334 21.246 2.40392 21.9392 1.64562 20.4348C1.35856 19.8657 1.21088 18.9382 1.26651 18.2219C1.40244 16.4641 0.442439 16.6078 0.11422 17.8228C-0.137646 18.7561 0.0535305 20.0525 0.429105 20.8645C1.13177 22.3846 4.03442 24.4815 5.51763 25.0396C7.30913 25.7137 8.2895 25.3197 9.63053 25.2304C8.94357 27.1554 9.17661 27.9498 10.2478 28.9422C11.0786 29.7115 12.4866 30.704 13.8958 31.7775C14.8394 32.4966 15.455 32.8953 15.9211 33.0923C16.9994 33.5478 18.0843 33.0821 18.9526 32.6713C18.635 34.4334 18.5754 34.9132 19.7324 36.1653C20.231 36.7054 24.3737 39.7667 25.0603 40.102C25.6204 40.3753 26.3223 40.4674 26.9888 40.2974C27.6434 40.1306 28.109 39.6888 28.6217 39.5705C28.6221 42.8449 30.1852 44.3727 32.6621 45.9582C34.3694 47.0513 36.3939 47.3674 38.272 46.5046C38.6687 46.322 39.1313 46.1493 39.4321 45.9131C39.859 45.5787 39.7881 44.9579 39.4219 44.7856C38.4424 44.3242 37.5145 46.5253 33.9127 45.234C34.7752 42.0901 35.6647 39.3742 36.6627 36.2966C36.6458 36.7654 36.6536 37.4927 36.8275 38.2118C36.956 38.7433 37.1937 39.2587 37.3974 39.7373C37.849 40.7983 38.2701 41.6796 38.9065 42.4207C39.9359 43.6199 41.4837 44.3496 43.2328 44.4056C44.0805 44.4326 44.5719 44.3504 44.4407 43.4123C44.1697 42.8664 42.8882 43.2538 41.5138 42.6991C40.6389 42.3458 39.8039 41.6957 39.4741 40.9781L45.1497 35.3777C46.9443 33.558 47.5796 32.8941 46.4046 30.2061C45.9918 29.2622 45.691 28.3383 45.0838 27.6814C44.3228 26.8581 42.9015 26.6799 41.4226 26.6744C40.3733 26.6705 39.0573 26.7207 38.1651 26.7207C39.3977 25.5222 39.8755 24.957 40.5237 24.3738C42.3402 22.7393 42.9027 21.8425 41.9298 19.3855C41.2949 17.7825 40.8695 16.4919 39.3655 16.0074C37.5098 15.4093 34.7004 15.8139 33.7483 15.7701C34.8101 14.6213 35.6134 13.8286 36.6024 12.7847C37.5619 11.7719 38.2086 10.584 37.527 8.84496C36.1923 5.43861 35.7857 4.87266 33.0997 4.82959C32.7374 4.82373 32.3935 4.79709 32.1103 4.81821C31.235 4.88403 31.0007 5.87771 32.0429 6.09314C32.5568 6.19922 33.0268 6.09235 33.7134 6.10254C33.4619 6.52316 32.782 7.12324 32.4044 7.51407C32.1651 7.76121 31.9662 7.99583 31.7155 8.22377C31.027 8.85048 30.0008 10.0541 29.508 10.1308C28.8684 10.2303 27.7181 9.84882 27.2501 9.59346C26.0845 8.95741 25.4105 7.91279 24.832 6.50751C24.2746 5.15313 23.5735 3.74352 24.2863 2.10282C24.5511 1.49379 25.3842 0.983018 25.081 0.322694C24.4979 -0.948684 21.8286 1.7072 22.9782 5.30353C23.6741 7.4804 24.4477 9.26677 26.1487 10.4363C26.7542 10.8526 27.5575 11.3051 28.4639 11.3235Z" fill="#98ACCB"/>
<path fill-rule="evenodd" clip-rule="evenodd" d="M27.2809 5.71509C27.3835 6.01819 27.7272 6.22281 28.1435 6.05372C28.5283 5.89735 28.5898 5.31434 28.3372 5.01337C28.0282 4.64512 26.9759 4.8132 27.2809 5.71509Z" fill="#98ACCB"/>
</svg>
