<svg width="69" height="104" viewBox="0 0 69 104" fill="none" xmlns="http://www.w3.org/2000/svg">
<path d="M66.8912 79.1481C66.4197 76.0127 65.3413 73.263 64.2077 70.328C64.2969 70.2052 64.3773 70.0763 64.4484 69.9423C64.8999 69.0257 64.7594 68.0991 64.8497 67.1275C65.0385 66.118 65.3891 65.1455 65.888 64.2475C67.4429 60.9418 69.068 57.9116 68.9978 54.2804C68.9877 53.8128 68.9508 53.3463 68.8875 52.883C68.6969 51.5006 68.2254 49.8477 67.0567 48.9813H67.0115C66.6002 48.7559 67.8442 44.158 67.9194 43.5669C68.2555 40.8823 68.5263 38.1877 68.6467 35.4881C68.8925 30.1288 68.5664 24.6995 67.0767 19.5256C66.53 17.6374 65.8128 15.7441 64.5086 14.2666C63.747 13.3545 62.7345 12.6853 61.5961 12.3417C60.4577 11.9981 59.2434 11.9951 58.1034 12.3332L57.968 12.3783C57.968 12.193 57.8877 11.9426 57.8125 11.627C56.3077 5.61669 48.8392 2.49132 43.4622 1.16403C30.9226 -1.93129 16.5874 1.09392 7.70934 10.8707C3.2302 15.8042 1.12355 22.3104 0.616947 28.9017C0.385282 32.4505 0.452396 36.0125 0.817581 39.55C0.983104 41.3682 1.19879 43.1763 1.41948 44.9894C1.46964 45.3901 2.17186 48.8711 1.92107 49.0664C0.371173 50.2134 0.0150475 52.8078 0 54.6109C0.0401309 57.0857 0.665741 59.5159 1.82576 61.7031C2.40258 62.8601 3.09978 63.962 3.5813 65.1691C4.06282 66.3762 3.90734 67.6734 4.18822 68.9105C4.35374 69.6167 4.61457 69.9373 4.45406 70.6034C4.19531 71.335 3.89385 72.0508 3.55121 72.7471C2.217 76.3082 2.0916 79.8994 1.46462 83.5958C1.31917 84.5023 1.17371 85.4039 1.03326 86.2904C0.757392 88.0384 0.105333 89.9717 0.932945 91.6496C1.67027 93.1222 2.97439 94.229 4.10295 95.4011C6.70115 98.1007 9.20907 100.82 11.6016 103.695C11.6786 103.805 11.7799 103.896 11.8976 103.961C11.9571 103.992 12.0255 104.003 12.0919 103.991C12.1583 103.98 12.2188 103.946 12.2637 103.896C12.3791 103.74 12.2637 103.53 12.1333 103.395C10.1541 100.835 8.03411 98.3873 5.78326 96.0622C4.35876 94.5596 1.91605 92.7916 1.43453 90.6729C1.15866 89.4609 1.56494 88.2989 1.76056 87.1118C1.94113 85.9999 2.03643 84.863 2.217 83.746C2.51795 81.9379 2.8189 80.0998 3.11985 78.2366C4.01267 73.0627 6.35506 68.1542 8.54698 63.4211L9.04856 62.3542C9.19788 62.0371 9.37762 61.7352 9.58526 61.4527L9.73573 61.2774L9.89624 61.1321C9.97608 61.0628 10.0731 61.0161 10.1771 60.9969C10.2145 60.9874 10.2535 60.987 10.2911 60.9957C10.3286 61.0044 10.3635 61.022 10.3928 61.047C10.4893 61.1169 10.5725 61.2034 10.6386 61.3024C10.7981 61.5532 10.9182 61.8268 10.9947 62.1138C12.0982 65.695 10.3928 68.7102 8.98837 71.8556C8.40152 73.1829 7.85981 74.5252 7.38832 75.8975C6.29487 79.068 5.8284 82.4087 5.17132 85.6844C5.1312 85.8797 5.11615 86.1401 5.30174 86.2253C5.48732 86.3104 5.74313 86.0249 5.80332 85.7695C6.26979 84.2018 6.68611 82.6291 7.08236 81.0464C7.47861 79.4637 7.74445 77.5103 8.49181 76.0378C9.40207 73.5002 10.4795 71.0256 11.717 68.63C12.8405 66.4012 13.9189 63.982 15.3234 61.9185C15.4596 61.7129 15.6123 61.5186 15.7798 61.3375C15.9069 61.1932 16.0669 61.0815 16.2463 61.0119C16.2959 60.9908 16.3508 60.9852 16.4036 60.996C16.4565 61.0067 16.5048 61.0332 16.5422 61.072C16.6751 61.2076 16.7777 61.3698 16.8432 61.5479C17.8463 63.952 16.9284 67.2376 15.6093 69.3463C12.3941 74.5001 9.55516 79.6089 8.66736 85.7044C8.63726 85.9098 8.66736 86.1802 8.84793 86.2453C9.0285 86.3104 9.23415 86.035 9.29936 85.8046C10.2523 82.4606 11.5115 79.2113 13.0612 76.0979C13.8587 74.5302 14.7165 72.9925 15.6143 71.4799C16.4168 70.1276 17.2194 68.2143 18.3329 67.1024C18.6288 66.6416 18.9298 66.1858 19.2307 65.73C19.4851 65.3154 19.7957 64.9379 20.1536 64.6081C20.2816 64.4798 20.4405 64.3866 20.6151 64.3377C20.6658 64.322 20.7198 64.3207 20.7712 64.334C20.8226 64.3473 20.8693 64.3745 20.906 64.4128C21.0315 64.537 21.1245 64.6901 21.1768 64.8586C21.252 65.0577 21.3058 65.2642 21.3374 65.4746C21.438 66.3288 21.4093 67.1933 21.2521 68.039C20.6953 71.4248 18.5235 73.6687 16.7378 76.4635C14.8771 79.305 13.5181 82.4442 12.7202 85.7445C12.694 85.8036 12.6806 85.8676 12.6806 85.9323C12.6806 85.997 12.694 86.0609 12.7202 86.1201C12.7507 86.1569 12.7891 86.1865 12.8324 86.2068C12.8758 86.2271 12.9231 86.2377 12.9709 86.2377C13.0188 86.2377 13.0661 86.2271 13.1095 86.2068C13.1528 86.1865 13.1911 86.1569 13.2217 86.1201C14.0193 85.3638 14.4055 83.3754 14.882 82.3737C15.6043 80.8577 16.3884 79.3735 17.2344 77.921C18.9465 75.0231 20.8571 72.2467 22.9525 69.6117C23.2085 69.2592 23.4884 68.9245 23.7901 68.61C23.9189 68.484 24.0681 68.3807 24.2315 68.3045C24.2834 68.2777 24.3411 68.2637 24.3995 68.2637C24.458 68.2637 24.5156 68.2777 24.5676 68.3045C24.7682 68.3796 24.9638 68.7753 25.034 69.171C25.1018 69.589 25.1018 70.0151 25.034 70.4331C24.7832 72.091 23.8152 73.5986 23.0277 75.0561C21.1367 78.6623 17.736 82.7393 19.1304 87.1168C19.7096 88.679 20.4994 90.1551 21.4778 91.5044C23.9305 95.2408 26.4936 98.872 28.6755 102.779C28.8009 103.009 29.1771 103.174 29.3175 102.959C29.458 102.744 29.3527 102.618 29.2824 102.458C27.9304 99.6248 26.366 96.8973 24.6027 94.2992L23.3186 92.2957C26.0723 94.5596 29.2072 96.4278 32.7534 96.9588C37.4432 97.66 41.7067 95.3961 45.293 92.5662L44.1795 94.2942C42.4153 96.928 40.8365 99.681 39.4545 102.533C39.4185 102.588 39.3957 102.651 39.3879 102.716C39.3801 102.781 39.3874 102.847 39.4094 102.909C39.5549 103.159 39.911 102.909 40.0765 102.654C42.0828 99.3378 44.2497 96.1423 46.3914 92.9268C48.2423 90.1571 50.2837 87.5476 49.8624 84.0115C49.4862 80.9062 47.505 78.2816 45.935 75.572C45.0622 74.1241 44.3747 72.5727 43.8885 70.954C43.6779 70.2027 43.6127 67.3378 44.997 68.62C45.2973 68.9358 45.5771 69.2704 45.8347 69.6217C46.9382 71.0242 47.9464 72.4216 48.8743 73.7689C49.8022 75.1162 50.6399 76.4335 51.5076 77.5955C52.2156 78.6396 52.8236 79.7481 53.3233 80.9061C53.8249 81.9529 54.1911 82.8795 54.502 83.6459C54.813 84.4122 55.1391 85.1935 55.4651 85.9648C55.5203 86.0851 55.5855 86.2203 55.7109 86.2503C55.7842 86.2614 55.8591 86.2451 55.9212 86.2044C55.9832 86.1637 56.028 86.1016 56.0469 86.03C56.0867 85.8874 56.0867 85.7367 56.0469 85.5942C55.552 83.1239 54.6969 80.7395 53.5089 78.517C52.265 76.2682 50.4342 74.3899 49.105 72.1861C47.7758 69.9824 46.9281 67.3578 47.6504 64.9187C47.7307 64.6432 47.9062 64.3226 48.1921 64.3427C48.3189 64.3671 48.4357 64.4281 48.5282 64.518C49.3508 65.2041 49.8975 66.2209 50.4693 67.1124C54.1459 72.8573 57.9931 78.8426 59.3925 85.6443C59.4095 85.8289 59.483 86.0038 59.6031 86.1451C59.7436 86.2704 60.0044 86.2704 60.1047 86.1001C60.1224 86.0311 60.1224 85.9587 60.1047 85.8897C59.6031 79.669 56.4181 74.5352 53.1929 69.3613C53.0123 69.0658 52.8268 68.7753 52.6412 68.4848C52.6256 68.4472 52.6122 68.4087 52.601 68.3696C51.8838 66.286 51.332 63.967 51.8838 61.7783C51.9229 61.5312 52.0428 61.304 52.2249 61.1321C52.7264 60.7465 53.2531 61.5979 53.4788 61.9335C55.8162 65.3594 57.2156 69.2561 59.0865 72.9274C60.2803 75.2715 60.8471 77.7207 61.4339 80.26C61.8803 82.0782 62.4371 83.8712 62.9387 85.6643C63.049 86.05 63.8215 86.5909 63.671 85.8997L63.5807 85.479C62.8735 82.2384 62.5775 78.9027 61.5443 75.7272C60.3355 71.9608 57.7021 68.8354 57.5567 64.7684C57.4428 63.6055 57.6474 62.4335 58.1486 61.3776C58.2489 61.2023 58.3943 61.0169 58.6 61.0119C58.7439 61.0282 58.8764 61.0979 58.9712 61.2073C59.6032 61.7933 59.9141 62.6748 60.2602 63.4411C60.9123 64.8886 61.5844 66.4463 62.2264 68.044C63.5105 71.2746 64.7996 74.435 65.567 77.8359C66.3695 81.382 66.8159 84.9932 67.2623 88.5944C67.3741 89.2362 67.391 89.891 67.3125 90.5377C67.0717 91.9902 65.9432 93.1021 64.8949 94.1339C61.9613 97.0263 59.2233 100.11 56.699 103.365C56.5686 103.535 56.4432 103.796 56.5987 103.946C56.7542 104.096 57.0451 103.906 57.2006 103.72C59.7593 100.574 62.4939 97.5737 65.3914 94.7349C66.8962 93.2774 68.115 91.6346 68.2254 89.5861C68.241 89.2516 68.2276 88.9165 68.1852 88.5844C67.7589 85.4339 67.3376 82.2685 66.8912 79.1481ZM1.78564 40.1661C1.51555 36.8637 1.48203 33.5462 1.68532 30.239C2.06151 24.8798 3.39572 19.4855 6.32998 14.9828C11.4712 7.05416 20.7455 2.60151 29.9646 1.59979C35.2036 1.02 40.5059 1.49343 45.5588 2.99218C49.4962 4.16419 54.0005 6.18767 56.2776 9.79888C56.8168 10.636 57.1818 11.5728 57.351 12.5536L57.4012 12.8141C57.4159 12.8894 57.4589 12.9563 57.5213 13.001C57.5838 13.0457 57.6611 13.0648 57.7373 13.0545H57.7674L58.2138 12.9543C63.5707 11.7422 65.6071 18.018 66.4999 22.0149C67.0822 24.7958 67.408 27.6241 67.473 30.4644C67.5984 33.6918 67.5532 36.9235 67.3376 40.1461C67.3025 40.6469 66.7357 45.1547 66.4849 47.4136C66.4234 47.8503 66.3849 48.29 66.3695 48.7308C65.86 48.6025 65.3224 48.6441 64.8388 48.8494C64.3551 49.0547 63.9521 49.4123 63.6911 49.8678C63.987 49.3669 63.7211 48.4854 63.6911 47.9344C63.6359 46.9778 63.6208 46.0162 63.5606 45.0545C63.2898 40.5768 62.8333 35.9939 61.0527 31.8318C60.6099 30.6659 59.9263 29.6061 59.0464 28.7214C57.9981 27.7648 56.373 27.1637 54.9886 27.7197L54.8331 27.7698C54.8331 27.7698 54.8331 27.7447 54.8331 27.7297C54.7769 27.5371 54.7047 27.3495 54.6174 27.1687C54.2939 26.4867 53.8447 25.8716 53.2932 25.3556C52.908 24.9848 52.49 24.6495 52.0443 24.3539C51.5243 24.0014 50.9757 23.6931 50.4041 23.4323C49.0318 22.8255 47.5947 22.3768 46.1206 22.095C39.7204 20.8329 32.3521 21.4289 26.0573 23.0417C20.9862 24.3389 16.1109 26.758 12.5145 30.5546C8.25606 35.0373 5.90865 41.3181 5.49234 47.4386C5.45221 48.0096 5.40707 48.5305 5.39704 49.0063C5.39704 49.407 5.39704 49.7676 5.36694 50.0932C5.36694 49.7476 4.76003 49.2417 4.50422 49.0914C4.21845 48.9071 3.89811 48.7827 3.56267 48.7258C3.22724 48.669 2.88373 48.6809 2.55306 48.7609H2.47782C2.76373 48.6807 1.8358 40.8372 1.78564 40.1661ZM5.64281 67.6734C5.52243 67.9589 5.40707 68.2544 5.2917 68.5449C5.1312 67.8437 5.07101 67.1124 4.89044 66.4112C4.46409 64.8085 3.2954 63.4612 2.61325 61.9636C1.90544 60.3629 1.39997 58.6804 1.1085 56.955C0.809147 55.5991 0.691085 54.2097 0.757392 52.8229C0.852693 51.721 1.2038 50.1633 2.32735 49.6474C2.63635 49.5228 2.97302 49.4826 3.30273 49.531C3.63243 49.5795 3.94327 49.7147 4.20327 49.9229C4.77455 50.4315 5.16086 51.115 5.30174 51.8662C5.35691 52.0816 5.38199 52.1968 5.38199 52.1968C5.38199 52.1968 5.38199 52.4222 5.38199 52.8379C5.38199 53.2536 5.38199 53.8797 5.41208 54.661C5.46664 55.6093 5.57213 56.5539 5.72808 57.4909C5.90865 58.5727 6.18954 59.7748 6.45538 61.072C6.65099 62.0738 6.88674 63.1506 7.11245 64.2776C6.61421 65.3594 6.12433 66.4847 5.64281 67.6534V67.6734ZM61.0778 63.0454L60.5762 61.9736C60.3917 61.6 60.1699 61.2459 59.9141 60.9168L59.6985 60.6764C59.6182 60.5962 59.5279 60.5211 59.4426 60.451C59.234 60.289 58.9869 60.1837 58.7254 60.1454C58.581 60.1281 58.4346 60.1383 58.294 60.1755C58.1622 60.2128 58.037 60.2703 57.9228 60.3458C57.7245 60.4784 57.5541 60.6486 57.4213 60.8466C57.2167 61.1745 57.066 61.533 56.9748 61.9085C56.8859 62.2373 56.8205 62.5721 56.7792 62.9102C56.7131 63.5324 56.7013 64.1592 56.7441 64.7834C56.7441 65.1641 56.8093 65.5297 56.8595 65.8753C56.5936 65.3744 56.3278 64.8736 56.0569 64.3727C55.7861 63.8719 55.4701 63.3359 55.1792 62.8301C54.8883 62.3242 54.6174 61.8283 54.2713 61.3275C54.0953 61.069 53.8955 60.8275 53.6744 60.6062C53.4283 60.3454 53.1191 60.1523 52.7766 60.0453C52.5645 59.9899 52.3417 59.9899 52.1296 60.0453C52.0237 60.0748 51.9212 60.1151 51.8236 60.1655C51.7333 60.2206 51.6581 60.2857 51.5778 60.3458C51.3408 60.5829 51.1607 60.8706 51.0512 61.1872C50.8671 61.706 50.7639 62.2499 50.7452 62.8C50.7243 63.2896 50.7393 63.7801 50.7903 64.2675C50.8614 64.933 50.9804 65.5925 51.1465 66.2409C50.8906 65.8653 50.6449 65.4947 50.379 65.134C50.0616 64.645 49.6766 64.2033 49.2354 63.8218C48.977 63.5946 48.6643 63.4376 48.3276 63.366C48.2308 63.3422 48.131 63.3337 48.0316 63.3409C47.9259 63.3404 47.8208 63.3573 47.7206 63.391C47.6205 63.4162 47.5254 63.4586 47.4398 63.5162C47.3524 63.5619 47.2728 63.621 47.204 63.6915C46.9732 63.9231 46.8012 64.2065 46.7024 64.518C46.6117 64.7796 46.5478 65.0498 46.5118 65.3244C46.4121 66.2756 46.4698 67.2367 46.6824 68.1693C46.7997 68.7266 46.9487 69.2767 47.1288 69.8171C46.9181 69.5616 46.7074 69.3162 46.4867 69.0407C46.1966 68.6678 45.8797 68.3163 45.5387 67.9889C45.335 67.8009 45.101 67.6485 44.8466 67.5382C44.6891 67.4664 44.5181 67.4293 44.345 67.4293C44.1719 67.4293 44.0009 67.4664 43.8434 67.5382C43.5585 67.6895 43.3299 67.9283 43.1913 68.2193C43.0737 68.4624 42.9893 68.7201 42.9406 68.9856C42.8495 69.4935 42.8411 70.0127 42.9155 70.5233C43.0864 71.4997 43.4026 72.4451 43.8534 73.3281C44.2798 74.2046 44.7212 75.036 45.1726 75.8975C45.624 76.759 46.0855 77.5854 46.5469 78.4018C47.0084 79.2182 47.4648 80.0697 47.846 80.9061C48.6235 82.559 49.0699 84.307 48.7489 85.9498C48.6171 86.7629 48.3546 87.5494 47.9714 88.2788C47.9163 88.394 47.8511 88.5042 47.7858 88.6144C45.9968 90.2807 44.08 91.8047 42.0527 93.1722C39.8959 94.6247 37.5084 95.927 34.9102 96.0572C31.3991 96.2275 28.1689 94.2341 25.3801 92.0954C23.7393 90.8311 22.1687 89.4784 20.6753 88.0434C20.3529 87.3813 20.1282 86.6762 20.0082 85.9498C19.6871 84.307 20.1386 82.559 20.911 80.9061C21.2922 80.0847 21.7637 79.2483 22.2151 78.4018C22.6666 77.5554 23.138 76.729 23.5895 75.8975C24.0409 75.0661 24.4773 74.2046 24.9086 73.3281C25.3579 72.4448 25.6723 71.4994 25.8416 70.5233C25.9298 70.0145 25.9298 69.4944 25.8416 68.9856C25.7978 68.7189 25.7132 68.4604 25.5908 68.2193C25.4563 67.9256 25.2265 67.6856 24.9387 67.5382C24.7815 67.4655 24.6104 67.4278 24.4371 67.4278C24.2639 67.4278 24.0928 67.4655 23.9356 67.5382C23.6811 67.6485 23.4471 67.8009 23.2434 67.9889C22.9008 68.3163 22.5824 68.6678 22.2904 69.0407C22.0747 69.3012 21.864 69.5416 21.6483 69.8171C21.8331 69.2781 21.9822 68.7277 22.0947 68.1693C22.3123 67.2374 22.37 66.2755 22.2653 65.3244C22.2311 65.0499 22.1689 64.7798 22.0797 64.518C21.9825 64.2057 21.8103 63.922 21.5781 63.6915C21.5112 63.6211 21.4333 63.5619 21.3474 63.5162C21.2599 63.4585 21.1632 63.4162 21.0615 63.391C20.963 63.3574 20.8596 63.3405 20.7555 63.3409C20.6545 63.3341 20.553 63.3425 20.4546 63.366C20.1196 63.4384 19.8087 63.5953 19.5517 63.8218C19.1092 64.2019 18.724 64.6439 18.4081 65.134C18.1523 65.4947 17.9065 65.8653 17.6407 66.2409C17.8073 65.5929 17.9247 64.9332 17.9918 64.2675C18.0478 63.7805 18.0629 63.2896 18.0369 62.8C18.0163 62.2555 17.9149 61.7171 17.736 61.2023C17.6225 60.8863 17.441 60.5991 17.2043 60.3608C17.1263 60.2956 17.0442 60.2353 16.9585 60.1805C16.863 60.1293 16.7621 60.089 16.6576 60.0603C16.4455 60.0049 16.2227 60.0049 16.0105 60.0603C15.668 60.1673 15.3588 60.3605 15.1127 60.6213C14.8902 60.8412 14.6903 61.0829 14.5158 61.3425C14.1697 61.8434 13.9089 62.3442 13.608 62.8451C13.307 63.346 13.0161 63.8468 12.7302 64.3877C12.4443 64.9287 12.1935 65.3895 11.9277 65.8903C11.9728 65.5447 12.0129 65.1791 12.038 64.7984C12.0833 64.1743 12.0716 63.5473 12.0029 62.9252C11.9634 62.5872 11.8997 62.2524 11.8123 61.9235C11.7212 61.548 11.5705 61.1896 11.3659 60.8617C11.2341 60.6627 11.0635 60.4924 10.8643 60.3608C10.7501 60.2853 10.6249 60.2279 10.4931 60.1905C10.3526 60.153 10.2061 60.1428 10.0618 60.1605C9.8017 60.1985 9.55613 60.3038 9.34951 60.466C9.26424 60.5361 9.17396 60.6112 9.09371 60.6914L8.87301 60.9318C8.61911 61.2508 8.39577 61.5929 8.2059 61.9536C8.11562 62.1439 8.02032 62.3392 7.92502 62.5295C7.87987 62.3342 7.83473 62.1389 7.77956 61.9486C7.07734 59.279 6.19957 56.6344 5.87856 53.8797C4.51425 42.0994 11.717 29.6029 22.9976 25.5259C28.7859 23.4323 35.0055 22.7211 41.1348 22.7211C45.3582 22.7211 51.944 23.0767 54.2864 27.324C54.3743 27.4857 54.4514 27.653 54.5171 27.8249C54.5572 27.9401 54.5723 27.9952 54.5723 27.9952C54.5793 28.0283 54.5976 28.0579 54.6242 28.079C54.6508 28.1 54.6838 28.1111 54.7177 28.1104H54.7579L55.0638 28.0803C55.3407 28.0533 55.6196 28.0533 55.8965 28.0803C58.4646 28.2256 59.8238 31.371 60.5411 33.4345C61.5994 36.4697 62.0459 39.6803 62.4923 42.8607C62.9769 45.8294 63.2118 48.8334 63.1945 51.8412C63.1588 53.7003 62.908 55.549 62.4471 57.3506C61.9455 59.2589 61.5192 61.1772 61.0979 63.1005L61.0778 63.0454ZM63.5857 68.7903C63.4352 68.4147 63.2848 68.039 63.1343 67.6734C62.713 66.6717 62.2866 65.6699 61.8603 64.7133C62.0709 63.7116 62.2716 62.6982 62.4622 61.6731C62.9638 58.9885 63.6309 56.2538 63.5807 53.509C63.5087 52.6082 63.6531 51.7033 64.002 50.8695C64.1854 50.4575 64.4899 50.1109 64.8751 49.8756C65.2603 49.6404 65.708 49.5276 66.1588 49.5522C66.4806 49.6146 66.7836 49.75 67.0445 49.9481C67.3055 50.1461 67.5173 50.4014 67.6636 50.6942C67.9591 51.2807 68.1299 51.9219 68.1652 52.5774C68.3662 55.6255 67.8277 58.677 66.5952 61.4727C66.204 62.3342 65.7475 63.1556 65.3011 63.952C64.7956 64.7278 64.4022 65.5708 64.1324 66.4563C63.9067 67.2126 63.7864 67.9939 63.5757 68.7703L63.5857 68.7903ZM54.8331 54.9565C53.7547 57.7864 49.8925 58.3724 47.2441 58.4626C45.662 58.5111 44.0835 58.284 42.5794 57.7914C41.7969 57.536 40.1568 57.1403 40.2069 56.1185C40.2082 56.1064 40.2126 56.0947 40.2198 56.0848C40.2269 56.0748 40.2366 56.067 40.2477 56.0619C40.2589 56.0568 40.2712 56.0548 40.2834 56.0559C40.2956 56.0571 40.3073 56.0614 40.3173 56.0684C42.3236 57.2204 45.3331 57.4508 47.5902 57.3256C49.6317 57.2104 53.0073 56.7446 53.9654 54.626C54.0219 54.5355 54.1079 54.4672 54.2088 54.4324C54.3098 54.3976 54.4196 54.3985 54.52 54.4348C54.6204 54.4712 54.7052 54.5408 54.7604 54.6321C54.8156 54.7234 54.8377 54.8309 54.8231 54.9365L54.8331 54.9565ZM64.7093 59.6145C64.8858 60.7148 64.6654 61.8419 64.0873 62.795C63.8813 63.1053 63.6444 63.3939 63.3801 63.6565C63.1895 63.8568 62.8785 64.1573 63.0791 64.4629C63.2798 64.7684 63.345 64.4128 63.5807 64.518C63.5905 64.7396 63.5264 64.9582 63.3984 65.1394C63.2704 65.3207 63.0858 65.4545 62.8735 65.5197C62.8366 65.529 62.7979 65.5288 62.761 65.5192C62.7242 65.5096 62.6904 65.4908 62.6628 65.4646C62.1612 64.9136 62.5274 64.1223 62.8584 63.5864C63.7813 62.0838 64.3632 60.4359 63.7964 58.6579C63.7211 58.4275 63.9268 58.3974 64.1023 58.4626C64.4785 58.5928 64.6591 59.2239 64.6992 59.5945L64.7093 59.6145ZM32.1966 14.9027C32.1934 14.8658 32.204 14.8291 32.2262 14.7996C32.2484 14.77 32.2807 14.7496 32.317 14.7424L33.4556 14.497C37.5485 13.6054 42.2032 13.3951 46.2811 14.497C49.8373 15.4386 54.5171 18.3135 55.4149 22.2703C55.5057 22.6649 55.5561 23.0676 55.5654 23.4724C55.5655 23.5132 55.55 23.5525 55.522 23.5823C55.494 23.6121 55.4557 23.6301 55.4149 23.6327C55.3834 23.6327 55.3525 23.6231 55.3266 23.6052C55.3006 23.5873 55.2807 23.562 55.2695 23.5325L55.1541 23.262C53.534 19.4355 49.6868 16.8059 45.7996 15.674C41.9123 14.542 37.5937 14.6021 33.5208 14.9578L32.3622 15.0629C32.3376 15.0677 32.3123 15.0663 32.2884 15.0588C32.2646 15.0514 32.243 15.0381 32.2256 15.0202C32.2081 15.0023 32.1954 14.9803 32.1886 14.9563C32.1818 14.9323 32.1811 14.907 32.1866 14.8826L32.1966 14.9027ZM6.07919 63.5864C6.41023 64.1223 6.76636 64.9136 6.27481 65.4646C6.24672 65.49 6.2129 65.5083 6.17623 65.5179C6.13956 65.5275 6.10111 65.5281 6.06414 65.5197C5.85183 65.4545 5.66719 65.3207 5.5392 65.1394C5.41121 64.9582 5.34709 64.7396 5.35691 64.518C5.56256 64.4128 5.67291 64.7183 5.8284 64.4629C5.98389 64.2074 5.71805 63.8568 5.52745 63.6565C5.27196 63.3842 5.04195 63.0891 4.84028 62.775C4.25351 61.8251 4.02417 60.6977 4.19324 59.5945C4.23838 59.2239 4.41895 58.5928 4.81018 58.4425C4.98574 58.3774 5.19139 58.4075 5.11615 58.6379C4.55438 60.4159 5.14123 62.0688 6.06916 63.5663L6.07919 63.5864ZM3.96251 52.9731C2.82893 52.8496 2.30394 53.2603 2.38754 54.2052L2.36246 54.681C2.35715 55.2885 2.41769 55.8947 2.54303 56.4892C2.66842 57.1753 2.90918 57.7413 2.79382 58.4325C2.79035 58.4388 2.78526 58.444 2.77909 58.4476C2.77291 58.4513 2.76588 58.4532 2.75871 58.4532C2.75154 58.4532 2.7445 58.4513 2.73833 58.4476C2.73215 58.444 2.72707 58.4388 2.7236 58.4325C1.66024 57.2054 1.26399 53.7745 2.30227 52.4222C3.06467 51.4204 4.60955 51.6158 4.69482 52.9731C4.69482 53.4189 3.95248 53.4239 3.95248 52.9531L3.96251 52.9731ZM57.5968 20.5323C57.7115 20.338 57.8423 20.1537 57.988 19.9814C58.9511 18.8094 60.6866 17.7526 62.2515 18.1432C63.1394 18.4185 63.8936 19.0128 64.3682 19.8111C65.6522 21.7544 65.9081 24.3739 65.9582 26.6479C65.9582 27.0636 65.9582 27.299 65.9582 27.299C65.9583 27.3385 65.9433 27.3765 65.9163 27.4054C65.8892 27.4342 65.8522 27.4517 65.8128 27.4542C65.7748 27.4546 65.738 27.441 65.7093 27.4161C65.6807 27.3911 65.6622 27.3566 65.6573 27.319C65.3011 25.0601 65.0052 22.676 63.8465 20.6576C63.5322 20.0174 63.0158 19.4983 62.3769 19.18C61.9865 19.053 61.5738 19.0087 61.1652 19.0501C60.7567 19.0915 60.3613 19.2176 60.0044 19.4204C59.6483 19.5707 57.5868 21.0132 57.5868 20.5123L57.5968 20.5323ZM39.3893 7.50995C39.394 7.474 39.411 7.44079 39.4376 7.41609C39.4642 7.3914 39.4986 7.37676 39.5348 7.37471C42.405 7.22745 45.2795 7.56613 48.0366 8.37644C50.5622 9.1246 52.8234 10.5731 54.5572 12.5536C56.2375 14.5571 57.5416 17.7676 56.7893 20.4071C56.7841 20.4268 56.775 20.4452 56.7625 20.4612C56.75 20.4773 56.7343 20.4906 56.7165 20.5005C56.6987 20.5103 56.6791 20.5164 56.6588 20.5184C56.6385 20.5205 56.6181 20.5184 56.5987 20.5123C56.5689 20.505 56.5421 20.4885 56.5223 20.4651C56.5025 20.4417 56.4906 20.4126 56.4883 20.3821C56.404 19.665 56.2666 18.9552 56.077 18.2584C55.4495 15.8767 54.1384 13.7302 52.3051 12.0828C48.794 8.9925 43.9989 8.21616 39.4997 7.70027C39.4769 7.69735 39.455 7.68924 39.4358 7.67656C39.4166 7.66388 39.4006 7.64698 39.389 7.62714C39.3773 7.60731 39.3704 7.58507 39.3687 7.56215C39.3671 7.53923 39.3707 7.51623 39.3793 7.49492L39.3893 7.50995ZM56.3579 23.2069C58.3642 22.0349 60.6715 23.1268 61.9255 24.9049C62.7849 26.1976 63.3673 27.6539 63.6359 29.1822C63.6911 29.4677 64.0321 31.3109 64.1074 32.3977C64.1375 32.8635 64.1074 33.1891 64.0171 33.1941C63.98 33.1985 63.9426 33.1884 63.9128 33.1661C63.8829 33.1437 63.8628 33.1107 63.8566 33.0739L63.7211 32.4528C63.676 32.2525 63.6409 32.0121 63.5757 31.7366C63.5105 31.4611 63.4403 31.1556 63.365 30.82C63.0753 29.5096 62.6604 28.2299 62.1261 26.9985C61.6576 25.8827 60.8841 24.9211 59.8941 24.2237C59.3134 23.8604 58.655 23.6393 57.9725 23.5784C57.2899 23.5174 56.6027 23.6184 55.9667 23.8731C55.934 23.8822 55.8993 23.8804 55.8678 23.8679C55.8362 23.8555 55.8096 23.8331 55.792 23.8042C55.7744 23.7752 55.7668 23.7414 55.7702 23.7077C55.7737 23.674 55.7881 23.6424 55.8112 23.6176L55.8413 23.5826L55.9466 23.4974C56.0757 23.3898 56.2132 23.2926 56.3579 23.2069ZM4.27349 38.6986C3.55623 34.4713 5.1312 29.4677 7.23283 25.8515C9.60532 21.7594 13.4876 18.0982 17.9617 16.4052C18.694 16.1097 19.1153 15.9545 19.1153 15.9545C19.1338 15.9472 19.1535 15.9436 19.1733 15.9439C19.1931 15.9443 19.2127 15.9485 19.2309 15.9564C19.2491 15.9643 19.2655 15.9758 19.2792 15.99C19.293 16.0043 19.3038 16.0212 19.311 16.0396C19.3238 16.0738 19.3237 16.1114 19.3108 16.1455C19.2979 16.1796 19.273 16.2078 19.2407 16.2249C19.2407 16.2249 18.8645 16.4653 18.2025 16.866C10.5985 21.474 6.02402 29.2423 4.65971 37.9022C4.61457 38.1677 4.57946 38.4331 4.55438 38.7036C4.5525 38.7234 4.54671 38.7425 4.53735 38.7601C4.528 38.7776 4.51525 38.7931 4.49986 38.8057C4.48447 38.8182 4.46674 38.8276 4.44768 38.8333C4.42863 38.839 4.40863 38.8409 4.38885 38.8388C4.35694 38.8312 4.3284 38.8134 4.30757 38.788C4.28675 38.7627 4.27478 38.7313 4.27349 38.6986ZM58.7404 50.7894C58.7404 51.1249 58.4445 51.0548 58.3642 50.7894C58.1468 50.1851 57.8589 49.6085 57.5065 49.0714C57.1705 48.5305 56.1422 47.1581 53.6845 46.1514C51.2267 45.1447 50.4693 45.7206 48.4981 46.2415C46.5929 46.7537 44.6485 47.1072 42.6847 47.2984C41.1048 47.4186 40.3474 46.2666 39.7254 45.2398C39.1034 44.2131 40.0264 43.5219 41.1198 43.2815C43.1763 42.8357 47.9815 42.2797 51.4223 43.5018C57.2256 45.5504 58.8257 48.9712 58.7404 50.7894ZM41.7518 79.3385C40.3524 79.0379 39.294 77.9711 37.9197 77.7157C37.2465 77.6045 36.5561 77.7531 35.9886 78.1314C35.8582 78.2165 34.514 79.3885 34.6494 79.5137L34.3986 79.2633C33.8117 78.6673 33.25 77.941 32.3923 77.7257C31.7036 77.6092 30.9957 77.7311 30.3859 78.0713C29.764 78.3768 29.1871 78.7875 28.5451 79.073C27.2165 79.6013 25.7357 79.6013 24.407 79.073L23.9406 78.9027H23.8352L23.7901 78.9327C23.7731 78.9441 23.7593 78.9596 23.75 78.9778C23.7487 78.9912 23.7487 79.0046 23.75 79.0179C23.7475 79.0312 23.7475 79.0447 23.75 79.058C23.748 79.0696 23.748 79.0814 23.75 79.093C26.915 80.9562 30.2706 82.1733 33.9672 82.2985C37.7121 82.3988 41.4112 81.4572 44.651 79.5789L45.4936 79.078C45.4936 79.078 45.4936 79.078 45.4936 79.053C45.496 79.0448 45.496 79.0361 45.4936 79.0279C45.496 79.018 45.496 79.0077 45.4936 78.9979C45.4966 78.9864 45.4966 78.9743 45.4936 78.9628V78.9327H45.3732C44.232 79.4187 42.9748 79.5665 41.7518 79.3585V79.3385ZM43.2565 79.9194C42.9355 80.0647 42.5844 80.215 42.2082 80.3652C37.3622 82.2084 32.0067 82.2084 27.1607 80.3652C26.7795 80.215 26.4334 80.0647 26.1124 79.9194C26.2377 79.9272 26.3633 79.9272 26.4886 79.9194C26.8253 79.92 27.1612 79.8882 27.4918 79.8243C28.8862 79.5739 30.1301 78.6623 31.5496 78.5671C32.7434 78.487 33.4807 79.1581 34.4287 79.7391L34.539 79.8093C34.5666 79.8192 34.5967 79.8192 34.6243 79.8093C34.6477 79.8137 34.6718 79.8124 34.6945 79.8054C34.7172 79.7985 34.7379 79.786 34.7547 79.7692L34.845 79.679C34.9297 79.5881 35.0201 79.5028 35.1159 79.4236C35.4566 79.1102 35.858 78.8698 36.2954 78.7174C36.7328 78.5649 37.1968 78.5035 37.6589 78.5371C38.4658 78.6524 39.2526 78.88 39.9963 79.2132C40.8892 79.6154 41.8514 79.8415 42.8302 79.8794C42.9658 79.9088 43.1032 79.9288 43.2415 79.9395L43.2565 79.9194ZM64.9751 52.933C64.9751 53.4039 64.2127 53.3988 64.2428 52.933C64.3281 51.5757 65.8729 51.3754 66.6354 52.3821C67.6686 53.7495 67.2774 57.1803 66.214 58.3924C66.2105 58.3987 66.2055 58.4039 66.1993 58.4076C66.1931 58.4112 66.1861 58.4131 66.1789 58.4131C66.1717 58.4131 66.1647 58.4112 66.1585 58.4076C66.1524 58.4039 66.1473 58.3987 66.1438 58.3924C66.1054 57.7347 66.1905 57.0756 66.3946 56.4491C66.5158 55.8541 66.5746 55.2481 66.5701 54.641V54.1652C66.6337 53.2302 66.097 52.8262 64.9601 52.9531L64.9751 52.933ZM40.859 83.711C40.8708 83.7396 40.8738 83.7711 40.8675 83.8015C40.8613 83.8318 40.8461 83.8596 40.8239 83.8813C40.8239 83.8813 40.6684 84.0315 40.3825 84.292C39.9775 84.6409 39.5521 84.9653 39.1085 85.2636C38.2496 85.8714 37.2782 86.3022 36.2508 86.531C35.2234 86.7597 34.1606 86.7818 33.1246 86.5959C31.1134 86.1706 29.3286 85.0228 28.1087 83.3704C28.0962 83.3549 28.087 83.3369 28.0817 83.3177C28.0764 83.2985 28.0751 83.2784 28.078 83.2587C28.0808 83.2389 28.0876 83.22 28.0981 83.203C28.1086 83.186 28.1224 83.1714 28.1388 83.16C28.1654 83.1419 28.1969 83.1323 28.2291 83.1323C28.2613 83.1323 28.2928 83.1419 28.3194 83.16L28.4448 83.2502C28.525 83.3103 28.6404 83.4004 28.7959 83.5056C30.3827 84.6829 32.2756 85.3785 34.2481 85.5091C36.425 85.5892 38.1705 84.7928 40.0865 83.9013L40.6383 83.6559C40.6562 83.6443 40.6763 83.6365 40.6973 83.633C40.7184 83.6295 40.7399 83.6303 40.7606 83.6355C40.7813 83.6407 40.8007 83.65 40.8177 83.663C40.8346 83.676 40.8486 83.6923 40.859 83.711ZM29.6937 67.6834C29.7177 67.6518 29.7529 67.6306 29.7921 67.6241C29.8313 67.6175 29.8714 67.6262 29.9044 67.6483C29.931 67.6702 29.9502 67.6998 29.9592 67.733C29.9682 67.7662 29.9666 67.8014 29.9546 67.8337L29.8442 68.0741C29.5735 68.6254 29.4247 69.2284 29.4078 69.8421C29.3962 70.1737 29.4744 70.5023 29.6341 70.7932C29.7939 71.0841 30.0294 71.3266 30.3157 71.495C30.4313 71.548 30.5571 71.5755 30.6844 71.5755C30.8116 71.5755 30.9374 71.548 31.053 71.495C30.9623 71.4367 30.8853 71.3595 30.8273 71.2688C30.7693 71.178 30.7317 71.0757 30.717 70.9691C30.7192 70.8442 30.7619 70.7235 30.8388 70.625C30.9157 70.5265 31.0226 70.4557 31.1433 70.4231C31.3177 70.4027 31.4945 70.4228 31.6598 70.4818C31.8251 70.5409 31.9745 70.6374 32.0963 70.7637C32.3569 70.9871 32.5985 71.2317 32.8186 71.495C33.0643 71.8028 33.3763 72.0514 33.7315 72.2223C34.0867 72.3931 34.4758 72.4819 34.8701 72.4819C35.2643 72.4819 35.6535 72.3931 36.0086 72.2223C36.3638 72.0514 36.6758 71.8028 36.9216 71.495C37.1404 71.2305 37.3821 70.9858 37.6438 70.7637C37.7646 70.6375 37.9131 70.541 38.0777 70.4819C38.2422 70.4228 38.4182 70.4027 38.5918 70.4231C38.7127 70.4562 38.8197 70.5271 38.8974 70.6253C38.975 70.7235 39.0191 70.844 39.0232 70.9691C39.0063 71.0757 38.9673 71.1776 38.9085 71.2682C38.8498 71.3587 38.7726 71.436 38.6821 71.495C38.7987 71.5478 38.9252 71.5752 39.0533 71.5752C39.1813 71.5752 39.3079 71.5478 39.4244 71.495C39.71 71.3258 39.9449 71.0831 40.1046 70.7924C40.2643 70.5017 40.3429 70.1735 40.3323 69.8421C40.3138 69.228 40.1632 68.625 39.8909 68.0741L39.7856 67.8337C39.771 67.8018 39.768 67.7658 39.7772 67.732C39.7863 67.6981 39.807 67.6685 39.8357 67.6483C39.8687 67.6262 39.9089 67.6175 39.9481 67.6241C39.9872 67.6306 40.0224 67.6518 40.0464 67.6834C40.7536 68.6501 41.2452 69.9373 40.7035 71.1043C40.6082 71.3333 40.4669 71.5403 40.2883 71.7126C40.1098 71.8849 39.8977 72.0188 39.6652 72.106C39.4173 72.181 39.1539 72.189 38.9019 72.1291C38.6499 72.0693 38.4183 71.9438 38.2307 71.7654C38.1748 71.7177 38.1243 71.6639 38.0802 71.6052C37.9452 71.5617 37.8054 71.5347 37.6639 71.525C37.5696 71.5219 37.4757 71.5396 37.389 71.5768C37.3023 71.614 37.2249 71.6699 37.1623 71.7404C35.6576 73.1328 34.1077 73.1127 32.6481 71.7404C32.5852 71.6702 32.5078 71.6145 32.4211 71.5773C32.3345 71.5401 32.2407 71.5222 32.1465 71.525C32.005 71.5347 31.8652 71.5617 31.7302 71.6052C31.6832 71.6615 31.6329 71.715 31.5797 71.7654C30.722 72.5618 29.5734 72.0459 29.1069 71.0993C28.4949 69.9173 28.9815 68.63 29.6937 67.6634V67.6834ZM15.6043 46.1764C13.1465 47.1782 12.0932 48.5555 11.7822 49.0965C11.4338 49.6358 11.1462 50.212 10.9245 50.8144C10.8492 51.0799 10.5633 51.15 10.5483 50.8144C10.463 48.9963 12.053 45.5754 17.8664 43.5269C21.3073 42.3148 26.1124 42.8607 28.1739 43.3065C29.2674 43.5469 30.1803 44.2431 29.5683 45.2649C28.9564 46.2866 28.184 47.4436 26.604 47.3234C24.6404 47.1313 22.696 46.7779 20.7906 46.2666C18.8244 45.7206 18.067 45.1447 15.6043 46.1764ZM27.1708 57.7814C25.6666 58.2737 24.0882 58.5008 22.506 58.4525C19.8527 58.3774 15.9855 57.7914 14.9171 54.9465C14.883 54.8349 14.8921 54.7146 14.9425 54.6094C14.993 54.5042 15.0811 54.4217 15.1896 54.3782C15.298 54.3348 15.4188 54.3336 15.5281 54.3748C15.6374 54.416 15.7272 54.4967 15.7798 54.6009C16.7328 56.6945 20.1185 57.1954 22.16 57.2905C24.4121 57.4158 27.4416 57.1854 29.4279 56.0334C29.4383 56.0265 29.4503 56.0224 29.4627 56.0214C29.4752 56.0203 29.4877 56.0224 29.4991 56.0273C29.5106 56.0323 29.5206 56.04 29.5283 56.0498C29.536 56.0596 29.5411 56.0712 29.5433 56.0835C29.5934 57.1052 27.9532 57.5009 27.1708 57.7563V57.7814Z" fill="#787F8B"/>
</svg>
