<svg width="136" height="28" viewBox="0 0 136 28" fill="none" xmlns="http://www.w3.org/2000/svg">
<g clip-path="url(#clip0_364_2172)">
<path d="M11.808 9.41312H5.78929C3.97141 13.1593 2.60352 15.9658 1.68561 17.8328H1.00391C4.78916 10.1178 7.62959 4.32166 9.52521 0.444336L18.0465 17.8328H15.9027C14.0789 14.0989 12.714 11.2923 11.808 9.41312ZM11.53 8.86858C10.316 6.37319 9.40113 4.50011 8.7852 3.24936C7.57129 5.75696 6.65637 7.63004 6.04045 8.86858H11.53Z" fill="#323640"/>
<path d="M35.6961 17.2927V17.8327H20.8242V0.47168H22.9456V17.2927H35.6961Z" fill="#323640"/>
<path d="M40.4221 1.03451V8.89135H48.9434V9.43589H40.4221V17.2927H53.1727V17.8327H38.3008V0.47168H53.1727V1.03451H40.4221Z" fill="#323640"/>
<path d="M65.233 8.68045C68.5398 12.7439 71.014 15.7945 72.6555 17.8323H70.3054C67.4919 14.382 65.3854 11.789 63.9862 10.0532C60.8318 13.5035 58.4727 16.0965 56.909 17.8323H56.1914C59.4953 14.1929 61.9784 11.4641 63.6408 9.64596C60.322 5.5673 57.8389 2.51669 56.1914 0.494141H58.5684L64.8876 8.27319C68.0241 4.82295 70.3831 2.22994 71.9648 0.494141H72.6555C69.3516 4.13352 66.8774 6.86228 65.233 8.68045Z" fill="#323640"/>
<path d="M85.9382 2.49402C85.715 2.1428 85.4343 1.83325 85.1085 1.57884C84.742 1.28674 84.3375 1.04803 83.9066 0.869572C83.0523 0.516062 82.1374 0.340259 81.2156 0.352491C80.3167 0.331386 79.4323 0.586474 78.6772 1.08464C78.1996 1.41723 77.8049 1.85913 77.5245 2.37504C77.2097 3.00948 77.0555 3.71424 77.0761 4.42506C77.0492 4.93069 77.1733 5.43275 77.4319 5.86493C77.6905 6.29711 78.0716 6.63909 78.5247 6.84571C79.5889 7.38576 80.7019 7.81944 81.848 8.14069C82.5252 8.34661 83.1935 8.5571 83.8527 8.77675C84.5008 8.96752 85.1276 9.2267 85.7229 9.55008C86.3815 9.91464 86.9612 10.4111 87.4272 11.0098C87.8915 11.6762 88.1265 12.4807 88.0954 13.2977C88.0913 13.6726 88.037 14.0452 87.934 14.4051C87.8055 14.8218 87.6198 15.2177 87.3824 15.5811C86.7973 16.3919 86.0277 17.0452 85.1399 17.4847C83.8526 18.0767 82.4468 18.351 81.0362 18.2855C79.7204 18.3276 78.4119 18.0697 77.2061 17.5305C76.3725 17.1354 75.5843 16.6474 74.856 16.0753C74.6231 15.8828 74.407 15.67 74.2102 15.4393L74.0039 15.1784L74.4165 14.6842C74.795 15.2212 75.2736 15.6768 75.8248 16.025C76.5181 16.4987 77.2729 16.8715 78.0672 17.1324C78.5421 17.2928 79.0278 17.4182 79.5203 17.5076C80.0141 17.6033 80.5157 17.6508 81.0183 17.6494C81.7186 17.636 82.4117 17.5014 83.0679 17.2513C83.7735 17.0041 84.4136 16.5938 84.9381 16.0524C85.2154 15.7699 85.4349 15.4339 85.5839 15.064C85.7537 14.6868 85.8395 14.2757 85.8351 13.8606C85.8483 13.3084 85.6914 12.7658 85.3866 12.3093C85.0633 11.8894 84.6626 11.5381 84.207 11.2752C83.1635 10.6919 82.047 10.2562 80.8882 9.98021C79.6575 9.68269 78.477 9.19998 77.3855 8.54795C76.7264 8.13978 76.1594 7.59398 75.7216 6.94638C75.2497 6.18943 75.0165 5.30308 75.0534 4.40675C75.0534 3.27497 75.608 2.25454 76.7173 1.34546C77.9462 0.392485 79.4626 -0.0930214 81.0048 -0.0273101C81.5696 -0.0336693 82.1334 0.0215553 82.6867 0.137423C83.1472 0.235992 83.5977 0.378475 84.0321 0.562986C84.6277 0.785405 85.1813 1.11044 85.6691 1.52393L86.1983 2.01812L85.9382 2.49402Z" fill="#323640"/>
<path d="M98.4109 6.49296L98.8011 6.56618C99.0478 6.62566 99.3886 6.72176 99.8192 6.84531C100.818 7.18452 101.796 7.58488 102.748 8.0442C103.979 8.64824 105.101 9.46049 106.067 10.4466C106.945 11.3394 107.664 12.3815 108.193 13.5261C108.803 14.8825 109.102 16.3629 109.067 17.8549H106.878C106.79 16.4163 106.405 15.0128 105.748 13.7366C105.175 12.6797 104.436 11.7259 103.56 10.9133C102.622 10.036 101.535 9.34117 100.353 8.86329C99.4552 8.4792 98.5302 8.1656 97.5857 7.92522C97.2739 7.84519 96.9579 7.78256 96.6394 7.73761L96.2941 7.68727L94.1503 8.88617V17.8504H92.0469V0.461914H94.1682V8.15402L108.027 0.461914L108.372 0.882897C103.944 3.36914 100.623 5.23916 98.4109 6.49296Z" fill="#323640"/>
<path d="M113.195 0.47168H115.317V17.8327H113.195V0.47168Z" fill="#323640"/>
<path d="M120.25 17.8553H119.766V0.466797L135.216 14.3227V0.471377H135.723V17.8598L120.25 3.53266V17.8553Z" fill="#323640"/>
<path d="M27.4655 24.3252V25.039H0V24.3252H27.4655Z" fill="#323640"/>
<path d="M136.001 24.3252V25.039H108.535V24.3252H136.001Z" fill="#323640"/>
<path d="M33.5859 21.8359H34.1555V26.5354H33.5859V21.8359Z" fill="#323640"/>
<path d="M38.1525 26.5353L38.1076 26.1326C37.993 26.2803 37.8461 26.3986 37.6787 26.4781C37.5112 26.5575 37.3279 26.5959 37.1434 26.5902C37.0204 26.599 36.897 26.5819 36.7808 26.5398C36.6646 26.4978 36.5582 26.4318 36.4681 26.3459C36.3781 26.26 36.3063 26.1561 36.2574 26.0407C36.2084 25.9253 36.1833 25.8008 36.1836 25.675C36.1836 24.9017 36.8608 24.4761 38.0717 24.4853V24.4167C38.0846 24.3174 38.0752 24.2164 38.0441 24.1215C38.013 24.0265 37.9612 23.94 37.8924 23.8685C37.8237 23.7971 37.7399 23.7425 37.6474 23.7091C37.5549 23.6756 37.4561 23.6641 37.3586 23.6754C37.0702 23.6757 36.7875 23.7581 36.5424 23.9133L36.4123 23.5289C36.7241 23.3396 37.081 23.2415 37.4439 23.2452C38.4036 23.2452 38.6368 23.9133 38.6368 24.5585V25.7528C38.6325 26.0102 38.6505 26.2674 38.6907 26.5216L38.1525 26.5353ZM38.0673 24.9017C37.4439 24.9017 36.7218 25.0024 36.7218 25.6247C36.7157 25.6986 36.7255 25.7729 36.7503 25.8426C36.7752 25.9122 36.8145 25.9756 36.8657 26.0282C36.9169 26.0808 36.9786 26.1215 37.0467 26.1475C37.1147 26.1734 37.1875 26.1839 37.26 26.1784C37.4257 26.1828 37.5884 26.1333 37.7247 26.0371C37.861 25.9408 37.9637 25.8028 38.0179 25.643C38.037 25.5823 38.0476 25.5191 38.0493 25.4554L38.0673 24.9017Z" fill="#323640"/>
<path d="M40.8125 26.5354C40.8125 26.3157 40.8394 25.9909 40.8394 25.7072V21.8359H41.4045V23.8493C41.5125 23.6608 41.6691 23.506 41.8573 23.402C42.0455 23.2979 42.2581 23.2485 42.4719 23.259C43.2523 23.259 43.8174 23.9225 43.8174 24.8926C43.8174 26.0412 43.1088 26.6086 42.4091 26.6086C42.1952 26.6218 41.982 26.5718 41.7951 26.4647C41.6082 26.3576 41.4555 26.1979 41.3552 26.0046L41.3283 26.5354H40.8125ZM41.4045 25.2496C41.4066 25.322 41.4156 25.394 41.4314 25.4646C41.4814 25.6582 41.5923 25.8298 41.747 25.9529C41.9018 26.0761 42.0918 26.1441 42.288 26.1464C42.8845 26.1464 43.2388 25.6477 43.2388 24.9155C43.2388 24.2703 42.9159 23.7212 42.306 23.7212C42.1026 23.7226 41.9057 23.7944 41.7476 23.925C41.5895 24.0555 41.4796 24.237 41.4359 24.4396C41.4167 24.5175 41.4062 24.5973 41.4045 24.6776V25.2496Z" fill="#323640"/>
<path d="M48.6693 24.9065C48.6883 25.1256 48.6618 25.3463 48.5915 25.5542C48.5212 25.7621 48.4088 25.9526 48.2615 26.1132C48.1143 26.2738 47.9355 26.401 47.7368 26.4864C47.5381 26.5717 47.3241 26.6134 47.1086 26.6087C46.9007 26.6113 46.6946 26.5696 46.5034 26.4863C46.3122 26.403 46.1402 26.2798 45.9984 26.1248C45.8565 25.9697 45.748 25.7861 45.6797 25.5858C45.6113 25.3855 45.5848 25.1728 45.6016 24.9614C45.5827 24.7427 45.6091 24.5224 45.6791 24.3148C45.7491 24.1072 45.8611 23.9169 46.0079 23.7564C46.1547 23.5958 46.3329 23.4686 46.5311 23.3829C46.7292 23.2973 46.9428 23.2551 47.1579 23.2592C47.3665 23.2545 47.5738 23.2947 47.7662 23.3773C47.9585 23.4599 48.1317 23.5829 48.2743 23.7383C48.4169 23.8938 48.5258 24.0781 48.5939 24.2794C48.6619 24.4807 48.6876 24.6944 48.6693 24.9065ZM46.1802 24.9431C46.1802 25.6432 46.5749 26.174 47.131 26.174C47.6871 26.174 48.0863 25.6478 48.0863 24.9294C48.0863 24.3848 47.8217 23.6984 47.1444 23.6984C46.4672 23.6984 46.1802 24.3299 46.1802 24.9431Z" fill="#323640"/>
<path d="M50.6871 24.3303C50.6871 23.9551 50.6871 23.6302 50.6602 23.3328H51.1625V23.9597H51.1894C51.2426 23.7638 51.3557 23.5903 51.5122 23.4644C51.6686 23.3385 51.8603 23.2668 52.0594 23.2596C52.1132 23.2546 52.1672 23.2546 52.2209 23.2596V23.8133C52.1554 23.8052 52.0891 23.8052 52.0236 23.8133C51.8285 23.8216 51.6433 23.9026 51.5028 24.0408C51.3623 24.1791 51.2763 24.3651 51.2611 24.5637C51.2444 24.6527 51.2354 24.7431 51.2342 24.8337V26.5405H50.6691L50.6871 24.3303Z" fill="#323640"/>
<path d="M55.8146 26.5353L55.7697 26.1326C55.6556 26.2809 55.5088 26.3996 55.3412 26.4791C55.1737 26.5586 54.9901 26.5967 54.8055 26.5902C54.6825 26.599 54.5591 26.5819 54.4429 26.5398C54.3267 26.4978 54.2203 26.4318 54.1302 26.3459C54.0402 26.26 53.9684 26.1561 53.9195 26.0407C53.8705 25.9253 53.8454 25.8008 53.8457 25.675C53.8457 24.9017 54.5229 24.4761 55.7338 24.4853V24.4167C55.7467 24.3174 55.7373 24.2164 55.7062 24.1215C55.6752 24.0265 55.6233 23.94 55.5545 23.8685C55.4858 23.7971 55.402 23.7425 55.3095 23.7091C55.217 23.6756 55.1183 23.6641 55.0207 23.6754C54.7323 23.6757 54.4496 23.7581 54.2045 23.9133L54.0744 23.5289C54.3863 23.3396 54.7431 23.2415 55.106 23.2452C56.0657 23.2452 56.2989 23.9133 56.2989 24.5585V25.7528C56.2946 26.0102 56.3126 26.2674 56.3528 26.5216L55.8146 26.5353ZM55.7294 24.9017C55.106 24.9017 54.3839 25.0024 54.3839 25.6247C54.3778 25.6986 54.3876 25.7729 54.4124 25.8426C54.4373 25.9122 54.4766 25.9756 54.5278 26.0282C54.579 26.0808 54.6407 26.1215 54.7088 26.1475C54.7769 26.1734 54.8496 26.1839 54.9221 26.1784C55.0878 26.1828 55.2505 26.1333 55.3868 26.0371C55.5231 25.9408 55.6258 25.8028 55.68 25.643C55.6992 25.5823 55.7097 25.5191 55.7114 25.4554L55.7294 24.9017Z" fill="#323640"/>
<path d="M59.1661 22.4131V23.3283H59.9823V23.7859H59.1661V25.511C59.1661 25.9091 59.2737 26.1333 59.5921 26.1333C59.7038 26.1347 59.8152 26.1224 59.924 26.0967L59.9509 26.5314C59.7883 26.5901 59.6166 26.618 59.4441 26.6138C59.3296 26.6204 59.2151 26.6017 59.1083 26.5591C59.0015 26.5164 58.9049 26.4508 58.8252 26.3667C58.6529 26.1267 58.5745 25.8297 58.6055 25.5339V23.7767H58.1211V23.3191H58.6055V22.5504L59.1661 22.4131Z" fill="#323640"/>
<path d="M64.7216 24.9065C64.7406 25.1256 64.7141 25.3463 64.6438 25.5542C64.5736 25.7621 64.4611 25.9526 64.3139 26.1132C64.1666 26.2738 63.9878 26.401 63.7891 26.4864C63.5905 26.5717 63.3764 26.6134 63.1609 26.6087C62.953 26.6113 62.7469 26.5696 62.5557 26.4863C62.3646 26.403 62.1925 26.2798 62.0507 26.1248C61.9089 25.9697 61.8003 25.7861 61.732 25.5858C61.6637 25.3855 61.6371 25.1728 61.654 24.9614C61.6358 24.7428 61.6627 24.5228 61.7329 24.3155C61.8032 24.1083 61.9152 23.9183 62.0619 23.7579C62.2085 23.5975 62.3864 23.4703 62.5842 23.3844C62.782 23.2985 62.9953 23.2558 63.2102 23.2592C63.4189 23.2545 63.6261 23.2947 63.8185 23.3773C64.0109 23.4599 64.184 23.5829 64.3266 23.7383C64.4692 23.8938 64.5781 24.0781 64.6462 24.2794C64.7143 24.4807 64.74 24.6944 64.7216 24.9065ZM62.2325 24.9431C62.2325 25.6432 62.6272 26.174 63.1878 26.174C63.7484 26.174 64.1386 25.6478 64.1386 24.9294C64.1386 24.3848 63.874 23.6984 63.1968 23.6984C62.5195 23.6984 62.2325 24.3299 62.2325 24.9431Z" fill="#323640"/>
<path d="M66.7402 24.3306C66.7402 23.9553 66.7402 23.6305 66.7402 23.333H67.2381V23.9599H67.265C67.3189 23.7644 67.4321 23.5913 67.5884 23.4655C67.7447 23.3397 67.9361 23.2677 68.135 23.2598C68.1887 23.2545 68.2428 23.2545 68.2965 23.2598V23.8135C68.2324 23.8057 68.1677 23.8057 68.1036 23.8135C67.9078 23.8207 67.7214 23.9012 67.58 24.0396C67.4386 24.178 67.352 24.3646 67.3367 24.5639C67.3199 24.6529 67.3109 24.7433 67.3098 24.8339V26.5407H66.7447L66.7402 24.3306Z" fill="#323640"/>
<path d="M70.5197 23.333L71.2103 25.2274C71.2821 25.4379 71.3583 25.685 71.4077 25.8818C71.466 25.6896 71.5333 25.4242 71.6095 25.2137L72.2329 23.333H72.8384L71.9817 25.621C71.5736 26.7192 71.2911 27.282 70.9054 27.6252C70.7061 27.8108 70.4638 27.9415 70.2012 28.005L70.0622 27.5154C70.2433 27.4516 70.4118 27.3556 70.56 27.2317C70.7669 27.0557 70.9311 26.8333 71.0399 26.5819C71.0638 26.5381 71.079 26.4899 71.0848 26.4401C71.0792 26.3879 71.0656 26.3369 71.0444 26.289L69.8828 23.3376L70.5197 23.333Z" fill="#323640"/>
<path d="M80.1908 24.9065C80.2097 25.1256 80.1832 25.3463 80.113 25.5542C80.0427 25.7621 79.9303 25.9526 79.783 26.1132C79.6358 26.2738 79.457 26.401 79.2583 26.4864C79.0596 26.5717 78.8456 26.6134 78.63 26.6087C78.4222 26.6113 78.2161 26.5696 78.0249 26.4863C77.8337 26.403 77.6617 26.2798 77.5199 26.1248C77.378 25.9697 77.2695 25.7861 77.2011 25.5858C77.1328 25.3855 77.1063 25.1728 77.1231 24.9614C77.1042 24.7427 77.1306 24.5224 77.2006 24.3148C77.2706 24.1072 77.3826 23.9169 77.5294 23.7564C77.6762 23.5958 77.8544 23.4686 78.0525 23.3829C78.2507 23.2973 78.4642 23.2551 78.6794 23.2592C78.888 23.2545 79.0953 23.2947 79.2877 23.3773C79.48 23.4599 79.6532 23.5829 79.7958 23.7383C79.9384 23.8938 80.0473 24.0781 80.1154 24.2794C80.1834 24.4807 80.2091 24.6944 80.1908 24.9065ZM77.7017 24.9431C77.7017 25.6432 78.0963 26.174 78.657 26.174C79.2176 26.174 79.6078 25.6478 79.6078 24.9294C79.6078 24.3848 79.3431 23.6984 78.6704 23.6984C77.9977 23.6984 77.6972 24.3299 77.6972 24.9431H77.7017Z" fill="#323640"/>
<path d="M82.2668 26.5361V23.7906H81.8184V23.333H82.2668V23.182C82.2414 22.7814 82.372 22.3867 82.6301 22.0837C82.8388 21.8877 83.1134 21.7812 83.397 21.7863C83.5641 21.7856 83.7299 21.8166 83.8859 21.8778L83.8052 22.3354C83.691 22.2836 83.5668 22.2585 83.4419 22.2622C82.9575 22.2622 82.832 22.6969 82.832 23.1774V23.3513H83.5944V23.8089H82.832V26.5544L82.2668 26.5361Z" fill="#323640"/>
<path d="M90.3136 26.4168C90.0317 26.5455 89.7255 26.6095 89.4167 26.6044C89.2051 26.6148 88.9939 26.5791 88.7969 26.4998C88.5999 26.4205 88.4217 26.2994 88.2741 26.1445C88.1265 25.9896 88.0129 25.8044 87.9408 25.6013C87.8687 25.3981 87.8398 25.1817 87.8559 24.9662C87.8454 24.7385 87.8821 24.5111 87.9634 24.2987C88.0447 24.0864 88.169 23.8939 88.328 23.7338C88.4871 23.5736 88.6774 23.4494 88.8866 23.3693C89.0958 23.2892 89.3192 23.2548 89.5422 23.2686C89.814 23.2636 90.0835 23.3198 90.3316 23.4333L90.2015 23.8909C89.9979 23.7842 89.771 23.7322 89.5422 23.7399C89.3883 23.7353 89.2353 23.7641 89.0931 23.8245C88.951 23.8849 88.8231 23.9754 88.7179 24.0901C88.6127 24.2048 88.5326 24.341 88.483 24.4897C88.4334 24.6384 88.4153 24.7962 88.43 24.9525C88.416 25.1059 88.434 25.2606 88.4828 25.4064C88.5315 25.5522 88.6099 25.6859 88.7128 25.7987C88.8157 25.9114 88.9408 26.0007 89.0798 26.0607C89.2189 26.1207 89.3688 26.1501 89.5198 26.1468C89.7629 26.1488 90.0034 26.0957 90.2239 25.9912L90.3136 26.4168Z" fill="#323640"/>
<path d="M94.0171 26.5353L93.9723 26.1326C93.8591 26.2808 93.7131 26.3995 93.5463 26.479C93.3794 26.5586 93.1965 26.5967 93.0125 26.5902C92.8895 26.599 92.7661 26.5819 92.6499 26.5398C92.5338 26.4978 92.4273 26.4318 92.3372 26.3459C92.2472 26.26 92.1754 26.1561 92.1265 26.0407C92.0775 25.9253 92.0524 25.8008 92.0527 25.675C92.0527 24.9017 92.7255 24.4761 93.9409 24.4853V24.4167C93.9538 24.3174 93.9443 24.2164 93.9133 24.1215C93.8822 24.0265 93.8303 23.94 93.7616 23.8685C93.6928 23.7971 93.609 23.7425 93.5165 23.7091C93.424 23.6756 93.3253 23.6641 93.2278 23.6754C92.9378 23.6751 92.6535 23.7575 92.407 23.9133L92.277 23.5289C92.5888 23.3396 92.9457 23.2415 93.3085 23.2452C94.2728 23.2452 94.506 23.9133 94.506 24.5585V25.7528C94.5003 26.0101 94.5168 26.2673 94.5553 26.5216L94.0171 26.5353ZM93.9364 24.9017C93.313 24.9017 92.5909 25.0024 92.5909 25.6247C92.5849 25.6986 92.5946 25.7729 92.6195 25.8426C92.6443 25.9122 92.6837 25.9756 92.7348 26.0282C92.786 26.0808 92.8477 26.1215 92.9158 26.1475C92.9839 26.1734 93.0567 26.1839 93.1291 26.1784C93.2948 26.1828 93.4576 26.1333 93.5938 26.0371C93.7301 25.9408 93.8328 25.8028 93.8871 25.643C93.9098 25.5831 93.9219 25.5196 93.9229 25.4554L93.9364 24.9017Z" fill="#323640"/>
<path d="M96.7021 24.3306C96.7021 23.9553 96.7021 23.6305 96.6797 23.333H97.1775V23.9599H97.2044C97.2583 23.7644 97.3716 23.5913 97.5279 23.4655C97.6842 23.3397 97.8756 23.2677 98.0745 23.2598C98.1282 23.2545 98.1823 23.2545 98.2359 23.2598V23.8135C98.1719 23.8057 98.1072 23.8057 98.0431 23.8135C97.8473 23.8207 97.6609 23.9012 97.5195 24.0396C97.3781 24.178 97.2915 24.3646 97.2762 24.5639C97.2594 24.6529 97.2504 24.7433 97.2493 24.8339V26.5407H96.6842L96.7021 24.3306Z" fill="#323640"/>
<path d="M100.376 25.0398C100.364 25.1879 100.383 25.3371 100.432 25.477C100.481 25.6169 100.56 25.7441 100.662 25.8499C100.765 25.9557 100.889 26.0375 101.025 26.0896C101.162 26.1417 101.308 26.1629 101.453 26.1517C101.751 26.1617 102.048 26.1055 102.323 25.987L102.422 26.4034C102.091 26.5443 101.735 26.6129 101.377 26.6048C101.167 26.6181 100.957 26.5851 100.761 26.5081C100.566 26.4311 100.388 26.3118 100.242 26.1584C100.095 26.005 99.983 25.8212 99.9126 25.6194C99.8422 25.4177 99.8153 25.2028 99.8338 24.9895C99.8338 24.0194 100.39 23.2598 101.305 23.2598C102.332 23.2598 102.601 24.1749 102.601 24.7698C102.607 24.8597 102.607 24.9499 102.601 25.0398H100.376ZM102.049 24.6234C102.066 24.507 102.058 24.3883 102.026 24.2753C101.994 24.1622 101.939 24.0574 101.864 23.9678C101.79 23.8782 101.697 23.8058 101.593 23.7555C101.489 23.7053 101.375 23.6782 101.26 23.6762C101.021 23.6889 100.795 23.7937 100.629 23.9695C100.462 24.1453 100.367 24.379 100.363 24.6234H102.049Z" fill="#323640"/>
</g>
<defs>
<clipPath id="clip0_364_2172">
<rect width="136" height="28" fill="white"/>
</clipPath>
</defs>
</svg>
