<svg width="22" height="22" viewBox="0 0 22 22" fill="none" xmlns="http://www.w3.org/2000/svg">
<g clip-path="url(#clip0_364_2275)">
<circle cx="11" cy="11" r="10.5" stroke="#CDCFD7"/>
<path d="M15.1513 6.35363L5.2919 10.4617C4.85827 10.6424 4.89058 11.2672 5.34053 11.4022L8.89256 12.4678C8.96331 12.489 9.02847 12.5256 9.08337 12.575L13.3339 16.4005C13.6249 16.6624 14.0903 16.5034 14.1603 16.1183L15.8355 6.90461C15.9064 6.51468 15.5171 6.2012 15.1513 6.35363Z" stroke="#CDCFD7"/>
<path fill-rule="evenodd" clip-rule="evenodd" d="M10.8536 10.6469C11.0488 10.8421 10.6953 11.3047 10.5 11.5L9.35355 12.854C9.15829 13.0492 8.84171 13.0492 8.64645 12.854C8.45118 12.6587 8.45118 12.3421 8.64645 12.1469L10 11C10.1953 10.8047 10.6583 10.4516 10.8536 10.6469Z" fill="#CDCFD7"/>
</g>
<defs>
<clipPath id="clip0_364_2275">
<rect width="22" height="22" fill="white"/>
</clipPath>
</defs>
</svg>
