<svg width="50" height="50" viewBox="0 0 50 50" fill="none" xmlns="http://www.w3.org/2000/svg">
<path fill-rule="evenodd" clip-rule="evenodd" d="M2.45006 15.4748C2.24968 14.7733 2.50167 14.1325 2.81741 13.5061C3.06617 13.0648 3.28226 12.6076 3.46409 12.1378C3.76769 11.2977 4.34756 10.6338 4.88797 9.94384C4.98209 9.83126 5.32516 9.83126 5.42838 9.61765C5.53161 9.40403 5.60144 9.15288 5.7077 8.92772C5.73249 8.84499 5.78876 8.77399 5.86557 8.72853C6.70958 8.47739 7.03747 7.71241 7.6052 7.17259C8.17294 6.63277 8.81961 6.14492 9.42681 5.63108C9.70308 5.39148 9.96721 5.12879 10.2313 4.87765C10.2951 4.81414 10.3497 4.73908 10.4287 4.72754C11.8799 4.50237 12.9729 3.52377 14.333 3.07056C15.177 2.79632 15.9815 2.38352 16.8104 2.04289C17.0337 1.97261 17.2634 1.92235 17.4965 1.89277C17.7212 1.8437 18.0126 1.89278 18.1978 1.76865C18.9356 1.2779 19.7917 1.1913 20.6266 1.04119C21.2854 0.914177 21.9078 0.689012 22.5545 0.57643C23.8843 0.351266 25.2292 0.126102 26.5772 0.01352C27.3028 -0.0499879 28.0527 0.126103 28.7905 0.212705C28.9365 0.222093 29.0789 0.260312 29.2085 0.324925C29.3381 0.389538 29.4522 0.479127 29.5434 0.587979C29.7013 0.79005 30.1111 0.79005 30.4147 0.876652L30.3874 0.853557L32.7342 2.10639C32.549 2.1699 32.458 2.20743 32.2485 2.29403C32.7737 2.50765 33.2504 2.65776 33.6845 2.87137C34.1186 3.08499 34.6226 3.37078 35.0841 3.62192C34.9384 4.22525 36.2044 3.68543 35.8097 4.33783C36.4807 4.7131 37.1152 5.01621 37.6677 5.39148C39.1584 6.41916 40.3334 7.77303 41.6388 8.99123C42.0756 9.42486 42.4813 9.88585 42.8532 10.3711C42.9216 10.4832 42.967 10.6066 42.9868 10.7348C42.8411 10.6713 42.6164 10.6453 42.5527 10.5443C42.4563 10.3528 42.2977 10.1959 42.1004 10.0966C41.9031 9.99732 41.6774 9.96097 41.4567 9.99292C42.5102 11.4363 42.5102 11.4363 43.1842 11.6124C43.1052 11.2977 43.0263 10.9975 42.9474 10.7088C43.2904 11.061 43.6578 11.3988 43.9614 11.7625C44.6475 12.591 45.3215 13.431 45.9682 14.2826C46.0449 14.428 46.0933 14.5855 46.1109 14.7473L45.9135 14.8224L43.4847 11.7249C43.4353 11.7268 43.3864 11.7345 43.339 11.748C43.3663 11.901 43.339 12.1002 43.4301 12.2128C43.8673 12.7902 44.3561 13.33 44.7902 13.9073C45.4096 14.7098 46.0168 15.5248 46.6118 16.3524C46.7681 16.6549 47.041 16.8886 47.3738 17.0048C47.5782 17.053 47.7601 17.1641 47.8913 17.3207C48.0225 17.4772 48.0956 17.6706 48.0995 17.8708C48.1527 18.1429 48.2414 18.4076 48.3636 18.6589C48.6945 19.5768 49.0254 20.4775 49.3533 21.381C50.0975 23.3775 50.0975 25.5564 49.3533 27.5528C49.0922 28.2803 49.0133 28.9962 49.4353 29.7092C49.6326 30.047 49.7753 30.4107 50 30.8639C49.5537 31.6404 49.3139 32.6306 48.7097 33.4966C48.2895 34.1589 48.0234 34.8991 47.9294 35.6674C47.7048 37.1108 46.9154 38.2655 46.0168 39.3653C44.6081 41.0973 42.7591 42.2867 40.637 43.1411C40.2524 43.3409 39.9154 43.6141 39.6472 43.9437C39.0006 44.6596 38.0655 44.9338 37.2852 45.4621C36.7053 45.8489 36.0708 46.126 35.4636 46.4753C35.3027 46.5648 35.0811 46.6774 35.0659 46.8015C34.9991 47.1537 34.6833 47.1421 34.4587 47.2287C33.5796 47.5826 32.6817 47.8929 31.7688 48.1583C31.042 48.3289 30.3063 48.4628 29.5646 48.5595C29.4341 48.5595 29.1943 48.522 29.1548 48.5826C28.8117 49.16 28.2986 48.9608 27.825 48.8857C28.1134 48.6721 28.417 48.47 28.8785 48.1438C28.074 48.395 27.4819 48.5711 26.8747 48.7472C26.8885 48.7875 26.8976 48.8291 26.9021 48.8713H27.8493C27.2846 49.0474 26.729 49.261 26.1613 49.4111C25.6998 49.5237 25.211 49.5497 24.7647 49.6623C24.5366 49.7439 24.3227 49.8578 24.1302 50C23.9055 49.9134 23.7082 49.7633 23.523 49.7748C21.6498 49.9769 19.8433 49.6103 18.0582 49.1484C15.684 48.5335 13.4556 47.656 11.5277 46.1635C10.8021 45.5862 10.1312 44.9829 9.45716 44.3824C9.30846 44.1853 9.18895 43.9697 9.10195 43.7416C9.01087 43.6059 8.91676 43.3923 8.77103 43.3548C8.10007 43.1527 7.86022 42.5754 7.50501 42.099C6.39396 40.6624 5.38965 39.1538 4.49936 37.5842C4.32631 37.2955 4.10468 37.0444 3.91949 36.7817C3.51048 36.1396 3.15323 35.4689 2.85082 34.7754C2.81135 34.6628 2.75973 34.5127 2.67776 34.4868C1.87322 34.2356 1.78213 33.5082 1.57265 32.9337C0.965448 31.3143 0.42201 29.6717 0.251994 27.9541C0.145734 26.8369 0 25.7342 0 24.6171C0 23.9156 0.251986 23.2257 0.358247 22.5242C0.488795 21.6206 0.567733 20.7055 0.701317 19.802C0.79566 19.0795 0.936598 18.3632 1.12333 17.6572C1.21441 17.3079 1.2144 16.8547 1.26905 16.4678C1.30238 16.2833 1.35528 16.1024 1.42693 15.928C1.83375 15.7404 2.13735 15.5874 2.44095 15.4517C2.48042 15.6509 2.53507 15.853 2.58668 16.0781C2.79617 15.7895 2.99654 15.5008 3.19389 15.2381C2.73241 14.8368 2.6808 15.4517 2.40452 15.4633L2.45006 15.4748ZM10.1919 43.9927C9.76987 43.5539 9.34786 43.1267 8.92586 42.7024C8.87486 42.7369 8.82981 42.7788 8.79228 42.8265C9.11491 43.3434 9.58703 43.7613 10.1524 44.0303C10.6928 45.159 11.297 45.5862 12.4325 45.6093C11.6826 45.0724 10.9418 44.5325 10.1919 43.9927ZM21.2429 48.9723C21.7712 49.4717 21.7712 49.4717 22.6547 49.4717C23.0767 49.4717 23.4987 49.4977 23.9207 49.4862C24.449 49.4602 24.9621 49.3967 25.4903 49.3591C25.4903 49.3216 25.4903 49.2841 25.4903 49.261C25.0288 49.1715 24.5522 49.0849 24.0118 48.9723C23.4198 49.4111 22.6 48.9723 21.8866 49.16C21.8866 49.16 21.8471 49.1224 21.8471 49.1109C21.7955 48.5335 21.4524 49.0214 21.2672 48.9608C21.2399 48.8713 21.2278 48.7327 21.1883 48.7212C20.3321 48.5711 19.4881 48.4325 18.6289 48.3084C18.4711 48.2824 18.3253 48.395 18.1432 48.4325C18.0764 47.9302 17.5603 48.0428 17.2324 47.9071C16.9852 47.7822 16.7134 47.7077 16.4342 47.6883C16.1551 47.6689 15.8748 47.7051 15.6112 47.7945C16.4559 48.1768 17.3237 48.5113 18.21 48.7962C18.3405 48.8338 18.5136 48.7472 18.6836 48.7096C18.8536 48.6721 18.9356 48.597 19.054 48.6086C19.7917 48.7096 20.5295 48.8338 21.2551 48.9608L21.2429 48.9723ZM21.8805 15.3738C21.6953 15.5758 21.4828 15.8126 21.2733 16.0262C21.1185 16.1852 20.9465 16.3284 20.7602 16.4534C20.5161 16.5923 20.2828 16.7477 20.0619 16.9182C19.5337 17.4435 19.0327 17.9949 18.5196 18.5463C18.4415 18.6658 18.3869 18.7978 18.3587 18.936C18.3193 19.0486 18.3344 19.2247 18.2555 19.2737C17.4115 19.8655 17.4631 20.7921 17.1717 21.6957C17.4115 21.6062 17.5147 21.5196 17.621 21.5196C18.2282 21.5196 18.2282 21.5196 18.2009 20.9798C18.1766 20.6536 18.1766 20.668 18.6502 20.7171C18.7043 20.7232 18.7592 20.7187 18.8115 20.7038C18.8637 20.6889 18.9121 20.6639 18.9538 20.6305C19.4031 20.1513 19.8373 19.6634 20.2745 19.1871L19.9041 18.9244C20.3139 18.7743 20.6297 18.6358 21.1185 18.4597L19.7553 18.1335C19.9048 18.0275 20.0818 17.9621 20.2673 17.9443C20.4529 17.9265 20.64 17.9569 20.8088 18.0324C21.1792 18.2201 21.5496 17.9199 21.5223 17.7697C21.4433 17.1058 21.9321 17.2559 22.2873 17.1924C22.8551 17.1173 23.3439 16.9182 23.5928 16.4159C23.1587 15.8876 22.682 15.4633 21.8927 15.3738H21.8805ZM29.5282 28.3178C29.4645 28.7046 29.4098 29.0193 29.3461 29.3946C30.2569 28.9933 30.9794 28.5055 31.7991 28.1417C32.5217 27.8011 33.3414 27.2757 33.1289 26.2221C33.1289 26.1845 33.05 26.147 32.971 26.0835L32.3912 26.2971C32.206 26.173 32.0481 26.0604 31.8781 25.9478C31.2709 27.0881 31.1373 27.1747 30.691 26.8745C30.5847 26.9986 30.3479 27.1631 30.3601 27.2497C30.5058 27.9166 29.9775 28.0782 29.5282 28.3178ZM17.5785 28.5545C17.3035 28.4168 17.0867 28.1933 16.9645 27.9215C16.8423 27.6498 16.8222 27.3463 16.9075 27.0621C16.9397 26.7464 16.913 26.4279 16.8286 26.121C16.7496 25.6707 16.4309 25.1569 16.5766 24.7787C16.826 24.06 16.8936 23.2955 16.7739 22.5473C16.5523 22.7349 16.3277 22.9254 16.1151 23.1246C16.4977 23.7886 16.4977 23.7886 15.9056 24.3024C16.3914 24.6055 16.3914 24.6055 16.0908 25.2954C16.3276 25.4686 16.5918 25.6216 16.3944 25.9854C16.2862 26.1538 16.2442 26.3532 16.276 26.5483C16.4461 27.2642 16.6464 27.9541 16.8832 28.6556C17.0168 29.0309 17.1352 29.0193 17.6088 28.5545H17.5785ZM39.5652 7.70086C39.0005 6.74536 38.023 6.45668 37.1789 5.80717C37.27 6.77133 38.2749 6.80886 38.6696 7.38621C38.7521 7.53415 38.8891 7.64801 39.0543 7.70605C39.2195 7.76409 39.4014 7.76225 39.5652 7.70086ZM46.9519 36.2159C46.293 37.157 46.0805 38.1731 45.5796 39.0882C45.9082 38.87 46.1794 38.5825 46.372 38.2482C46.6088 37.6852 46.6482 37.0559 47.0702 36.5565C47.0976 36.519 47.0186 36.4064 46.9519 36.2159ZM20.49 32.137C21.0304 32.9019 21.756 33.1502 22.5211 33.4908C22.2964 32.8875 22.2964 32.8875 20.49 32.137ZM30.5938 2.35754C29.7377 1.58101 28.9301 1.34141 28.4686 1.54348C29.1275 1.79174 29.8682 2.06886 30.5938 2.35754ZM33.4963 47.0151C33.5206 47.0642 33.5357 47.1277 33.56 47.1912C33.8636 47.0527 34.1672 46.9025 34.4708 46.7755C34.7744 46.6485 35.1721 46.6629 35.1448 46.1C34.5376 46.4378 34.0093 46.7265 33.4841 47.0151H33.4963ZM15.2529 47.4164C14.9098 47.3269 14.5819 47.2403 14.2389 47.1652C14.4757 47.5925 14.7671 47.8552 15.2529 47.4164ZM29.8257 27.5153C29.8628 27.5365 29.9026 27.553 29.9441 27.5644C30.0058 27.482 30.0587 27.394 30.102 27.3017C30.1029 27.2152 30.0843 27.1296 30.0474 27.0506H29.9168C29.8895 27.2122 29.85 27.3623 29.8257 27.5153ZM43.7914 27.651C43.8374 27.6692 43.882 27.6905 43.9249 27.7145C43.9766 27.651 44.0828 27.5904 44.095 27.5153C44.1071 27.4403 44.0707 27.3248 44.016 27.0506C43.8976 27.3768 43.846 27.5153 43.7914 27.651ZM17.3265 22.0334C17.2324 22.198 17.114 22.299 17.1292 22.3741C17.1499 22.4252 17.1817 22.4717 17.2225 22.5105C17.2633 22.5493 17.3121 22.5795 17.366 22.5992C17.4176 22.5992 17.5906 22.4722 17.5906 22.4491C17.522 22.3002 17.4332 22.1605 17.3265 22.0334Z" fill="#CCAE9C"/>
</svg>
