<svg width="22" height="22" viewBox="0 0 22 22" fill="none" xmlns="http://www.w3.org/2000/svg">
<g clip-path="url(#clip0_364_2279)">
<rect x="0.5" y="0.5" width="21" height="21" rx="3.5" stroke="#CDCFD7"/>
<path d="M17.4368 14.9994H15.9045C15.3248 14.9994 15.1502 14.5477 14.111 13.5475C13.2028 12.7056 12.8192 12.6009 12.5895 12.6009C12.2718 12.6009 12.1851 12.6849 12.1851 13.1055V14.4314C12.1851 14.79 12.0642 15 11.0902 15C10.1453 14.9389 9.22891 14.6628 8.41665 14.1944C7.60439 13.7259 6.91945 13.0786 6.41825 12.3056C5.2282 10.8809 4.40016 9.20876 4 7.42216C4 7.20118 4.08733 7.00088 4.5253 7.00088H6.05686C6.4505 7.00088 6.59224 7.16952 6.74673 7.55914C7.49035 9.66424 8.75926 11.4954 9.27448 11.4954C9.47197 11.4954 9.55796 11.4114 9.55796 10.9378V8.76934C9.4928 7.78011 8.94668 7.69676 8.94668 7.3388C8.95358 7.24437 8.99849 7.15624 9.07187 7.09314C9.14524 7.03004 9.2413 6.99694 9.33964 7.00088H11.7471C12.0763 7.00088 12.1851 7.15853 12.1851 7.53717V10.4641C12.1851 10.7801 12.3262 10.8848 12.4256 10.8848C12.6231 10.8848 12.7749 10.7801 13.137 10.4325C13.9131 9.52208 14.5471 8.50777 15.0192 7.42151C15.0675 7.29109 15.1588 7.17945 15.2793 7.10362C15.3997 7.02779 15.5426 6.99194 15.6862 7.00152H17.2185C17.6779 7.00152 17.7753 7.2225 17.6779 7.53781C17.1206 8.7386 16.4311 9.87843 15.6211 10.9378C15.4558 11.1801 15.39 11.3061 15.6211 11.5904C15.7729 11.8113 16.3103 12.243 16.671 12.6532C17.1963 13.1572 17.6322 13.74 17.9621 14.3784C18.0937 14.7894 17.8741 14.9994 17.4368 14.9994Z" stroke="#CDCFD7"/>
</g>
<defs>
<clipPath id="clip0_364_2279">
<rect width="22" height="22" fill="white"/>
</clipPath>
</defs>
</svg>
