<svg width="22" height="22" viewBox="0 0 22 22" fill="none" xmlns="http://www.w3.org/2000/svg">
<g clip-path="url(#clip0_364_2287)">
<path d="M11.9284 0.924025C11.8052 0.914345 11.6812 0.954385 11.5896 1.03931C11.4981 1.12379 11.4471 1.24303 11.4484 1.36755M11.9284 0.924025L11.8886 1.36149L11.8885 1.36233L11.8878 1.36234L11.4484 1.36755M11.9284 0.924025L11.894 1.36226L11.9484 1.36162C11.9484 1.36183 11.9484 1.36204 11.9484 1.36225M11.9284 0.924025L11.9484 1.36225M11.4484 1.36755L11.8883 1.36288L11.8885 1.36288M11.4484 1.36755C11.525 7.82498 12.3768 10.4637 20.6334 10.5539M11.8885 1.36288L21.0765 10.0738C21.0875 10.1979 21.0457 10.3207 20.9612 10.4122C20.878 10.5024 20.761 10.5539 20.6382 10.5539H20.6334M11.8885 1.36288L11.8885 1.36302L11.8831 1.42196C11.9051 1.42397 11.9272 1.42606 11.9492 1.42821M11.8885 1.36288L11.9484 1.36225M20.6334 10.5539L20.6382 10.1144L20.6382 10.114L20.6382 10.1137L20.6382 10.1127L20.6382 10.111L20.6389 10.0539C20.6387 10.0539 20.6385 10.0539 20.6382 10.0539C20.6379 10.0539 20.6375 10.0539 20.6371 10.0539C20.6375 10.0539 20.6379 10.0539 20.6382 10.0539H20.6382H20.6382H20.6382H20.6382H20.6381H20.6381H20.6381H20.6381H20.6381H20.638H20.638H20.638H20.638H20.638H20.6379H20.6379H20.6379H20.6379H20.6379H20.6378H20.6378H20.6378H20.6378H20.6378H20.6377H20.6377H20.6377H20.6377H20.6377H20.6376H20.6376H20.6376H20.6376H20.6376H20.6375H20.6375H20.6375H20.6375H20.6375H20.6374H20.6374H20.6374H20.6374H20.6374H20.6374H20.6373H20.6373H20.6373H20.6373H20.6373H20.6372H20.6372H20.6372H20.6372H20.6372H20.6371H20.6371H20.6371H20.6371H20.6371H20.6371H20.637H20.637H20.637H20.637H20.637H20.6369H20.6369H20.6369H20.6369H20.6369H20.6368H20.6368H20.6368H20.6368H20.6368H20.6368H20.6367H20.6367H20.6367H20.6367H20.6367H20.6366H20.6366H20.6366H20.6366H20.6366H20.6366H20.6365H20.6365H20.6365H20.6365H20.6365H20.6364H20.6364H20.6364H20.6364H20.6364H20.6364H20.6363H20.6363H20.6363H20.6363H20.6363H20.6362H20.6362H20.6362H20.6362H20.6362C20.6148 10.0536 20.5935 10.0534 20.5723 10.0531M20.6334 10.5539V10.1141L20.5785 10.1191C20.5765 10.0971 20.5745 10.0751 20.5723 10.0531M20.5723 10.0531C20.1259 5.4877 16.515 1.87551 11.9492 1.42821M20.5723 10.0531C16.4996 10.0015 14.4484 9.31353 13.3546 8.02487C12.8023 7.37413 12.456 6.5275 12.246 5.42119C12.038 4.32575 11.9694 3.00902 11.9492 1.42821M11.9492 1.42821C11.9489 1.40627 11.9486 1.38429 11.9484 1.36225M11.9484 1.36225C11.9485 1.3776 11.9423 1.39372 11.9297 1.40582C11.9296 1.40598 11.9294 1.40615 11.9292 1.40631C11.9291 1.40644 11.9289 1.40657 11.9288 1.4067C11.9124 1.42142 11.8971 1.4231 11.8893 1.42249L11.8935 1.3685L11.8936 1.36693L11.894 1.36282L11.9484 1.36225ZM20.6334 10.11V10.1131L20.5784 10.118C20.577 10.1018 20.5825 10.0854 20.5936 10.0733C20.5936 10.0733 20.5936 10.0733 20.5936 10.0732C20.5937 10.0732 20.5937 10.0731 20.5938 10.0731C20.5938 10.0731 20.5938 10.0731 20.5938 10.073C20.6039 10.0622 20.618 10.0553 20.6334 10.0541V10.1096V10.11ZM11.9496 20.5718C11.9698 18.991 12.0384 17.6743 12.2464 16.5788C12.4564 15.4725 12.8025 14.6259 13.3548 13.9752C14.4485 12.6865 16.4996 11.9986 20.5723 11.9469C20.1263 16.5127 16.5154 20.1245 11.9496 20.5718ZM10.0227 20.5696C5.47193 20.1103 1.87228 16.4991 1.42781 11.9465C5.48681 12.0004 7.5307 12.6888 8.62079 13.9768C9.17142 14.6274 9.51668 15.4737 9.72622 16.5794C9.93369 17.6742 10.0023 18.99 10.0227 20.5696ZM1.42825 10.0535C1.87273 5.50081 5.47219 1.88956 10.0232 1.43044C10.0028 3.00992 9.93409 4.32566 9.7266 5.42043C9.51702 6.52624 9.17173 7.37259 8.62107 8.0232C7.53091 9.31124 5.48702 9.9997 1.42825 10.0535Z" stroke="#CDCFD7"/>
</g>
<defs>
<clipPath id="clip0_364_2287">
<rect width="22" height="22" fill="white"/>
</clipPath>
</defs>
</svg>
