<svg width="39" height="46" viewBox="0 0 39 46" fill="none" xmlns="http://www.w3.org/2000/svg">
<path fill-rule="evenodd" clip-rule="evenodd" d="M31.6864 8.89551C33.2914 8.89551 34.5926 10.1966 34.5926 11.8017C34.5926 13.4067 33.2914 14.7078 31.6864 14.7078C30.0814 14.7078 28.7803 13.4067 28.7803 11.8017C28.7803 10.1966 30.0814 8.89551 31.6864 8.89551ZM31.6864 9.86746C32.7546 9.86746 33.6206 10.7334 33.6206 11.8017C33.6206 12.8699 32.7546 13.7358 31.6864 13.7358C30.6182 13.7358 29.7522 12.8699 29.7522 11.8017C29.7522 10.7334 30.6182 9.86746 31.6864 9.86746Z" fill="#A4B49F"/>
<path fill-rule="evenodd" clip-rule="evenodd" d="M36.2683 27.2168C37.5383 27.2168 38.5679 28.2464 38.5679 29.5164C38.5679 30.7864 37.5383 31.816 36.2683 31.816C34.9983 31.816 33.9688 30.7864 33.9688 29.5164C33.9688 28.2464 34.9983 27.2168 36.2683 27.2168ZM36.2683 28.1924C36.9995 28.1924 37.5923 28.7852 37.5923 29.5164C37.5923 30.2476 36.9995 30.8404 36.2683 30.8404C35.5371 30.8404 34.9443 30.2476 34.9443 29.5164C34.9443 28.7852 35.5371 28.1924 36.2683 28.1924Z" fill="#A4B49F"/>
<path fill-rule="evenodd" clip-rule="evenodd" d="M20.3234 34.6768C21.2091 34.6768 21.9271 35.3948 21.9271 36.2805C21.9271 37.1661 21.2091 37.8841 20.3234 37.8841C19.4378 37.8841 18.7197 37.1661 18.7197 36.2805C18.7197 35.3948 19.4378 34.6768 20.3234 34.6768ZM20.3234 35.6122C20.6924 35.6122 20.9916 35.9114 20.9916 36.2805C20.9916 36.6495 20.6924 36.9487 20.3234 36.9487C19.9544 36.9487 19.6552 36.6495 19.6552 36.2805C19.6552 35.9114 19.9544 35.6122 20.3234 35.6122Z" fill="#A4B49F"/>
<path fill-rule="evenodd" clip-rule="evenodd" d="M23.7076 13.2451C28.9425 13.2451 33.1862 17.4888 33.1862 22.7237C33.1862 27.9587 28.9425 32.2024 23.7076 32.2024C18.4727 32.2024 14.229 27.9587 14.229 22.7237C14.229 17.4888 18.4727 13.2451 23.7076 13.2451ZM23.7076 14.2413C28.3924 14.2413 32.19 18.039 32.19 22.7237C32.19 27.4085 28.3924 31.2062 23.7076 31.2062C19.0228 31.2062 15.2252 27.4085 15.2252 22.7237C15.2252 18.039 19.0228 14.2413 23.7076 14.2413Z" fill="#A4B49F"/>
<path d="M18.1729 26.6701V17.7168H21.5324C22.216 17.7168 22.7641 17.8064 23.1788 17.9877C23.5915 18.1691 23.9146 18.4483 24.148 18.8256C24.3835 19.2007 24.5002 19.5946 24.5002 20.0072C24.5002 20.3886 24.396 20.7492 24.1896 21.0868C23.9833 21.4244 23.6707 21.6974 23.2518 21.9058C23.7937 22.0642 24.2104 22.3352 24.5002 22.7186C24.7919 23.1 24.9378 23.5523 24.9378 24.0733C24.9378 24.4943 24.8482 24.884 24.6711 25.2446C24.4939 25.6051 24.2751 25.8823 24.0146 26.0782C23.754 26.272 23.4268 26.42 23.0351 26.52C22.6411 26.62 22.1597 26.6701 21.5887 26.6701H18.1729ZM19.3608 21.4807H21.2969C21.8221 21.4807 22.1993 21.4452 22.4265 21.3765C22.7287 21.2869 22.9558 21.1368 23.108 20.9284C23.2601 20.72 23.3372 20.4594 23.3372 20.1448C23.3372 19.8468 23.2664 19.5841 23.1226 19.3591C22.9809 19.1319 22.7766 18.9756 22.5119 18.8922C22.2473 18.8089 21.793 18.7672 21.151 18.7672H19.3608V21.4807ZM19.3608 25.6197H21.5908C21.9742 25.6197 22.2431 25.6051 22.3994 25.5759C22.6703 25.528 22.8996 25.4467 23.083 25.3321C23.2664 25.2175 23.4164 25.0507 23.5352 24.8319C23.654 24.6131 23.7124 24.3609 23.7124 24.0754C23.7124 23.7398 23.6269 23.4501 23.454 23.2022C23.2831 22.9541 23.0455 22.7812 22.7412 22.6811C22.439 22.5811 22.0013 22.5311 21.4324 22.5311H19.3608V25.6197Z" fill="#A4B49F"/>
<path d="M28.4994 21.6299H26.1181C25.8296 21.6299 25.5957 21.8638 25.5957 22.1523C25.5957 22.4408 25.8296 22.6747 26.1181 22.6747H28.4994C28.7879 22.6747 29.0218 22.4408 29.0218 22.1523C29.0218 21.8638 28.7879 21.6299 28.4994 21.6299Z" fill="#A4B49F"/>
<path d="M25.5957 22.1637L25.5957 24.545C25.5957 24.8335 25.8296 25.0674 26.1181 25.0674C26.4067 25.0674 26.6406 24.8335 26.6406 24.545L26.6406 22.1637C26.6406 21.8751 26.4067 21.6412 26.1181 21.6412C25.8296 21.6412 25.5957 21.8751 25.5957 22.1637Z" fill="#A4B49F"/>
<path d="M27.9766 24.5934L27.9766 26.9746C27.9766 27.2632 28.2105 27.4971 28.499 27.4971C28.7875 27.4971 29.0214 27.2632 29.0214 26.9746L29.0214 24.5934C29.0214 24.3048 28.7875 24.0709 28.499 24.0709C28.2105 24.0709 27.9766 24.3048 27.9766 24.5934Z" fill="#A4B49F"/>
<path d="M28.4994 26.46H26.1181C25.8296 26.46 25.5957 26.6939 25.5957 26.9824C25.5957 27.2709 25.8296 27.5048 26.1181 27.5048H28.4994C28.7879 27.5048 29.0218 27.2709 29.0218 26.9824C29.0218 26.6939 28.7879 26.46 28.4994 26.46Z" fill="#A4B49F"/>
<path fill-rule="evenodd" clip-rule="evenodd" d="M3.57633 8.73352C3.67623 10.0593 4.3427 10.2254 5.54453 10.5503C7.48661 11.0752 10.7366 10.952 12.2719 10.5784C13.496 10.2827 14.1887 10.0549 14.3102 8.76542C15.3029 8.89292 16.3942 9.37925 16.7196 9.70722C17.4451 10.4385 15.759 10.9889 15.1785 11.1784C9.68508 12.9725 0.0216923 11.5415 1.12566 9.76206C1.37158 9.36565 2.87824 8.64376 3.57633 8.73352ZM4.55687 3.07552C5 3.31383 5.81606 3.44944 6.54055 3.57612C8.67746 3.94977 11.2658 3.81741 13.3286 3.06301C13.3555 4.78572 13.4765 6.97576 13.3382 8.65682C13.2938 9.19748 12.7598 9.46015 12.0598 9.63626C10.3566 10.0648 6.90951 10.0063 5.26967 9.46318C4.82814 9.31699 4.61673 9.20932 4.56074 8.73219C4.38998 7.27667 4.52205 4.6235 4.55687 3.07552ZM4.6285 1.80287C6.78625 0.510507 12.1157 0.845645 13.2408 1.82509C12.4563 3.06163 5.37315 3.09403 4.6285 1.80287ZM3.56365 7.74394C3.33851 7.80995 2.14599 7.97201 1.14633 8.56083C0.195595 9.12072 -0.0803035 9.48809 0.0191007 10.617L0.936444 20.6928C1.42173 26.0707 1.92155 31.4433 2.40199 36.8171C2.52421 38.1844 2.83157 44.0131 3.35151 44.6602C4.69165 46.3282 12.1449 46.4239 14.1325 45.0302C15.0571 44.3817 14.9209 43.0412 15.0565 41.5195C15.2952 38.8417 15.5288 36.1506 15.7869 33.4782C15.9148 32.1535 16.1001 30.6686 16.1879 29.4707C16.1327 28.6604 15.1763 28.7361 15.1499 29.4881C15.0942 29.9867 15.0322 30.6156 15.0234 30.7425C14.8405 33.3492 14.5843 36.0656 14.3289 38.7597C14.1795 40.3363 14.0937 42.0274 13.8959 43.5823C13.8497 43.9451 13.7314 44.1786 13.2906 44.3621C10.7022 45.4395 4.41267 45.0767 4.04834 43.8771L1.10997 11.6005C3.80656 12.7587 6.50412 13.0556 9.42426 13.0059C11.3539 12.973 13.2871 12.728 15.0344 12.2286C15.6443 12.0544 16.2136 11.8695 16.7802 11.6139C16.6492 12.9791 16.5125 13.784 16.4415 14.8852C16.3788 15.8576 17.3867 15.8113 17.4742 14.8361C17.6123 13.2965 17.7257 12.0506 17.8982 10.0972C17.8435 9.30377 17.2786 8.78795 16.5954 8.43392C15.8392 8.04198 15.0564 7.86169 14.3222 7.69732C14.313 6.59941 14.4949 2.00758 14.1652 1.33286C13.3226 -0.39184 4.82683 -0.484469 3.76176 1.29946C3.36878 1.9576 3.57242 6.64294 3.56365 7.74394Z" fill="#A4B49F"/>
<path fill-rule="evenodd" clip-rule="evenodd" d="M5.72335 20.8914C8.21093 21.0502 10.0341 21.0451 12.5118 20.8958L11.3518 35.2917C10.3252 35.4173 8.25942 35.4895 6.9854 35.306C6.81376 34.8777 5.81735 22.3584 5.72335 20.8914ZM6.09843 36.1269C6.94463 36.4661 11.2574 36.4063 12.151 36.1437C12.3609 36.1008 13.3478 23.6019 13.4319 22.4776C13.5161 21.3519 13.7011 20.292 13.5085 19.9162C13.1435 19.8127 11.1493 20.0736 9.26648 20.085C7.02614 20.0985 5.02736 19.7911 4.70413 19.8943C4.43066 20.3909 4.78282 21.9 4.95424 23.7799C5.1201 25.5984 5.71018 35.1947 6.09843 36.1269Z" fill="#A4B49F"/>
<path d="M28.4994 24.0303H26.1181C25.8296 24.0303 25.5957 24.2642 25.5957 24.5527C25.5957 24.8412 25.8296 25.0751 26.1181 25.0751H28.4994C28.7879 25.0751 29.0218 24.8412 29.0218 24.5527C29.0218 24.2642 28.7879 24.0303 28.4994 24.0303Z" fill="#A4B49F"/>
</svg>
