<svg width="43" height="45" viewBox="0 0 43 45" fill="none" xmlns="http://www.w3.org/2000/svg">
<path fill-rule="evenodd" clip-rule="evenodd" d="M27.2661 5.10486C27.2531 6.37956 27.1321 8.25696 27.388 9.40945C27.7208 10.908 30.857 17.0454 31.6253 18.6756L34.5757 24.7484C35.9894 27.4315 39.1529 34.2483 40.2897 37.0831C40.6372 37.9498 41.3294 39.627 41.2911 40.6421C41.1803 43.5744 36.7316 43.0604 34.6993 43.0716L12.2592 43.1068C10.4364 43.1181 4.89174 43.2272 3.44961 42.8669C0.282804 42.0757 1.36235 39.3165 2.37493 36.9353C5.76582 28.9617 10.1688 20.4357 14.0059 12.5496C15.4723 9.53588 15.4945 8.84362 15.4012 5.10486H27.2661ZM14.1765 5.10486C14.1527 6.40685 14.2819 8.4839 13.9658 9.58391C13.6199 10.7876 10.1687 17.6401 9.48466 19.0818C7.67181 22.9026 2.0044 34.0347 0.610163 38.1783C0.127819 39.6118 -0.28702 40.4533 0.258472 41.9342C0.649976 42.9972 1.57108 43.6522 2.81732 43.9654C5.23367 44.5726 9.29435 44.3371 11.934 44.3402L35.1872 44.3283C37.6118 44.316 41.4389 44.6836 42.5189 42.0056C43.0774 40.7138 42.3922 39.3793 41.9774 38.1594C41.1914 35.8479 40.1723 33.7977 39.219 31.6513C38.2614 29.4955 37.2058 27.4407 36.1898 25.3283L31.6291 15.9069C31.1292 14.8637 30.6556 13.7861 30.1333 12.7635C28.4313 9.43102 28.3452 9.09599 28.5304 5.10486H29.6734C30.0509 5.10486 30.3597 4.79607 30.3597 4.41859V0.686267C30.3597 0.308791 30.0509 0 29.6734 0H12.9889C12.6114 0 12.3026 0.308791 12.3026 0.686267V4.41859C12.3026 4.79607 12.6114 5.10486 12.9889 5.10486H14.1765ZM13.4972 1.25128H29.1651C29.1705 1.25128 29.175 1.25568 29.175 1.26109V3.84377C29.175 3.84917 29.1705 3.85358 29.1651 3.85358H13.4972C13.4918 3.85358 13.4874 3.84917 13.4874 3.84377V1.26109C13.4874 1.25568 13.4918 1.25128 13.4972 1.25128Z" fill="#A4B49F"/>
<path fill-rule="evenodd" clip-rule="evenodd" d="M20.8515 30.0708C20.7205 30.6509 20.2883 31.3427 20.0654 31.9415C19.0766 34.6159 19.1786 37.067 19.0968 37.7224C16.036 37.093 13.6213 35.383 12.4067 32.4425C11.8451 31.0829 11.5892 29.4384 11.815 27.8298C11.8836 27.3411 12.0475 26.0081 12.3374 25.57C13.2374 25.6188 14.8206 26.0731 16.075 26.6124C18.0563 27.4642 19.3742 28.5187 20.8515 30.0708ZM20.3282 37.9376C20.2666 36.531 20.5689 34.1756 20.9708 32.929C22.1146 29.3798 24.8975 27.1033 28.3778 25.9442C28.9189 25.7639 30.0108 25.4194 30.4273 25.3915C31.0803 26.3114 30.8549 30.1108 30.6589 30.9924C30.3086 32.5691 29.5632 33.8473 28.7813 34.8842C26.7827 37.5348 23.7256 38.1966 20.3282 37.9376ZM21.6094 28.9414C20.1788 27.5523 19.1115 26.7576 17.2613 25.8143C17.3518 25.5164 17.4099 25.144 17.7043 24.4573C18.1773 23.3534 18.7473 22.4288 19.3549 21.5558C19.9107 20.7572 20.8844 19.8437 21.7002 19.3582C22.6287 19.9242 24.2926 23.1503 24.8419 24.4801C25.1257 25.1672 25.3306 25.5812 25.4462 25.8894C24.9644 26.2124 24.4829 26.4305 23.7933 26.9696C23.2486 27.3954 21.921 28.5608 21.6094 28.9414ZM32.0707 29.6644C32.243 28.1105 32.0977 26.0331 31.441 24.7941C31.1748 24.292 30.7299 24.226 30.2094 24.2924C29.0207 24.444 27.6162 24.9119 26.5156 25.3568C25.5667 22.8804 24.3923 20.7785 22.7656 18.6702C22.2988 18.0652 21.9112 17.8484 21.0078 18.3843C20.307 18.8001 18.914 20.0469 18.2536 21.0228C16.5476 23.7573 16.3909 24.9827 16.2107 25.4462C15.5435 25.2326 15.2889 25.1138 14.4398 24.8852C11.7022 24.1481 11.5328 24.1572 10.9779 26.1067C9.9483 29.7241 10.7235 32.4057 12.4294 34.9403C13.8283 37.0186 16.0526 38.4075 19.5212 38.9161C22.9704 39.4218 26.2577 38.815 28.3139 37.0174C28.5962 36.7705 28.75 36.5966 29.0384 36.3608C29.3542 36.1027 29.3858 35.9521 29.6989 35.6408C30.9298 34.4168 31.8544 31.6141 32.0707 29.6644Z" fill="#A4B49F"/>
</svg>
