<svg width="51" height="46" viewBox="0 0 51 46" fill="none" xmlns="http://www.w3.org/2000/svg">
<path fill-rule="evenodd" clip-rule="evenodd" d="M36.1267 30.0621C36.3006 29.2935 37.2452 28.4381 37.8056 27.886C38.5307 27.1718 38.4708 26.3436 39.3526 25.7642C39.1823 26.4044 38.6272 26.769 38.0356 28.2845C37.2765 30.2295 37.4112 30.2266 36.1267 30.0621ZM27.7777 26.8897C27.8557 25.7941 28.2422 24.3487 28.463 23.1692C28.68 22.0101 28.6514 20.3886 29.2442 19.4977C29.405 21.0813 29.5944 22.3791 28.908 23.5407C28.5387 24.1655 27.8394 26.1608 27.7777 26.8897ZM29.5123 27.335C30.1946 27.1352 31.3505 26.5354 31.7805 26.1577C33.8565 24.3334 32.0253 23.4677 33.6345 22.7884L36.453 21.3904C36.6104 21.2724 36.6815 21.1534 36.8985 21.0354C36.7158 22.7822 36.5245 24.0805 35.3291 24.8187C34.6814 25.2186 34.0806 25.3508 33.6792 25.8641C32.4405 27.4484 33.2574 29.5141 32.386 29.9673C31.8931 30.2237 31.2993 30.1614 30.6422 30.9213C29.6295 32.0922 30.495 33.8748 28.9206 34.5284C28.9543 33.3461 29.2095 32.1921 29.4959 31.1226C29.84 29.8373 29.3338 28.6226 29.5123 27.335ZM29.0433 26.3348C29.3883 24.5694 30.0232 23.9898 30.2574 23.2866C30.61 22.2275 30.4043 20.5098 30.3272 19.3412C30.1389 16.4912 30.5724 16.7028 30.5756 15.5519C30.5788 14.4153 30.5526 12.6362 30.8991 11.6246C31.1205 11.9586 31.6198 12.6798 31.9346 12.8743C32.6728 13.3306 33.0806 12.6223 33.4525 12.3869C33.4248 13.1141 32.2693 14.1191 31.9465 14.5282C30.3844 16.5075 32.2633 18.3454 34.3103 15.3743C34.87 14.5619 35.0127 13.4614 36.3147 13.7181C36.5054 15.1888 34.7869 16.5524 34.8084 17.8241C34.8399 19.6796 36.7759 19.2881 37.6534 17.5984C37.4834 18.3788 36.4566 19.929 36.0552 20.32C35.7504 20.617 33.8189 21.5394 33.2311 21.7925C31.184 22.6741 32.1963 23.452 31.6751 24.6199C31.3375 25.3765 30.101 26.0781 29.0433 26.3348ZM7.76384 12.9409C9.17748 15.0171 9.6449 15.9142 12.7422 15.9207C13.8262 15.923 13.768 15.1155 13.1595 14.6244C12.1096 13.7772 10.4331 12.8431 10.3493 11.336C10.3016 10.478 10.7774 10.0954 11.0259 9.61767C12.0438 9.59414 13.3363 11.149 13.8395 11.6696C14.4367 12.2874 16.6393 13.4723 16.7514 11.8232C16.8157 10.876 15.7507 9.27681 15.3835 8.43964C15.0195 7.60985 14.1999 5.68045 14.5152 4.67632C14.8234 4.47861 17.1813 4.06898 17.6302 4.0875C19.0966 5.7458 17.5037 9.62687 18.9876 13.5162C19.6749 15.3174 20.3166 15.6565 21.0659 16.917C21.4777 17.6096 21.5 18.206 21.7568 19.0052C22.016 19.8121 23.2364 22.1776 24.2391 21.9066C25.5086 21.5635 23.8899 18.3423 24.2535 17.4594C25.1354 15.3183 25.0287 15.433 24.296 13.1773C23.7095 11.3722 24.064 9.94024 23.7461 8.26265C23.5536 7.24689 23.1289 7.19923 22.7946 6.50703C22.5346 5.96874 21.5617 2.83673 21.6051 2.25204C23.3944 2.65495 23.2214 2.14768 24.3723 1.21353C24.7347 1.56106 24.8694 1.85426 24.8716 2.48115C24.8754 3.57559 24.8718 6.23715 25.4296 6.99062C25.6981 7.35346 26.2133 7.35511 26.5391 7.0126C27.3282 6.18281 26.9483 3.52617 27.0196 2.42534C27.3149 2.57461 27.7513 3.40842 28.1216 3.7068C28.7139 4.18409 29.1697 3.94577 29.0085 5.18034C28.7437 7.20662 27.3183 9.43638 27.067 12.6791C26.9272 14.4828 27.6031 14.9364 28.1899 16.2816C29.0159 18.1752 28.3702 18.3303 27.8841 19.9865L26.4742 28.0111C26.2688 29.6251 26.1582 30.9606 27.2455 31.789C28.2656 31.4117 28.0915 30.0939 28.4664 29.0426C28.6453 30.9685 27.9225 32.3548 27.8447 34.256C27.73 37.053 30.1655 35.3031 30.6849 34.3315C31.1283 33.5021 30.9697 32.7659 31.2727 31.9721C31.5974 31.1218 32.3276 31.2837 33.0689 30.8189C34.3503 30.0155 33.5594 27.5412 34.57 26.5041C34.9428 26.1215 35.8398 25.8479 36.3833 25.3699C38.1781 23.7913 37.7992 20.8563 38.4505 18.6703C38.952 16.987 40.0005 16.3503 40.2467 14.5564C40.3255 13.9823 40.2542 13.7592 40.7828 13.5854C41.9799 13.1918 43.551 13.2414 44.8041 13.2075C44.4215 14.6656 42.8649 15.96 42.3645 17.5278C41.8327 19.1936 41.1892 20.6296 40.4527 22.1928C38.7785 25.7464 38.3845 24.5324 37.6733 26.0716C36.897 27.7519 35.0203 28.645 35.0461 30.0442C35.0644 31.0364 36.1992 31.3706 37.2262 31.174C38.06 31.0145 38.4492 30.2046 38.7571 29.4265C39.8205 26.7398 39.9025 27.5537 40.8324 24.9292C41.5646 22.8629 43.8337 16.1359 46.3056 17.3176C46.381 18.8842 44.8216 21.4755 43.7543 22.3746C43.4267 22.6504 43.1753 22.6874 42.8072 22.943C41.0513 24.1622 42.0379 27.5193 46.0839 24.0297L46.8611 23.29C47.5164 22.6499 48.452 21.46 49.4663 21.3646C49.2968 21.7216 49.1083 21.9109 48.8842 22.1938C48.2038 23.0531 47.1663 23.6543 49.3705 24.2547C48.9677 24.6609 48.2828 24.9 47.7038 25.226C46.1864 26.0801 45.57 27.7902 45.0945 28.015C44.6427 28.2287 43.8714 27.6904 42.9869 28.1799C41.9163 28.7724 41.393 29.958 40.7076 31.2114C40.0131 32.4811 38.4045 31.3532 37.5056 33.3159C37.2444 33.8861 37.1494 35.0587 36.8222 35.3288C36.5589 35.5462 35.332 35.8413 34.8662 36.0675C31.9845 37.4675 33.4927 40.3154 31.2851 40.4888C30.4324 40.5557 29.7922 40.5386 29.1282 40.9506C28.6514 41.2464 28.209 41.8326 27.9655 42.4848C27.7438 43.079 27.6639 44.0507 27.4062 44.5462C27.2147 44.2799 27.1085 43.8731 26.9661 43.5435C26.8189 43.2024 26.6551 42.9193 26.4907 42.5898C25.5717 40.7481 24.3009 39.2217 23.2654 37.4716C22.5117 36.1978 21.8821 34.2925 21.3412 33.7491C20.2982 32.7012 18.2875 33.1609 16.8019 32.7251C15.0685 32.2165 15.4133 29.889 13.4333 31.4932C12.8243 31.9865 12.4828 32.4244 11.47 31.8231C9.19412 30.4719 9.80982 33.094 7.6108 32.6559C6.80708 32.4958 6.26897 31.9307 5.4097 32.0421C4.74644 32.1281 4.02432 32.6207 3.41235 32.8479C2.93963 33.0235 1.4646 33.2026 1.16969 32.5704C0.51717 31.1718 4.2811 32.4391 3.7341 30.7108C3.46333 29.8552 1.36116 29.1041 1.76247 28.1748C2.2023 27.6968 3.17859 28.0294 3.67837 28.3173C4.26648 28.6562 4.47087 28.9725 5.32754 29.2019C6.04316 29.3935 6.81134 29.3615 7.5572 29.5065C8.38401 29.6672 8.75974 29.9724 9.42422 30.1587C10.8091 30.5469 13.0916 29.7017 11.9505 28.4761C11.6203 28.1214 10.7845 27.8985 10.1503 27.7514C8.43888 27.3545 8.47652 26.5009 7.65555 25.1857C6.26389 22.956 5.14867 24.4699 3.59561 21.6581C2.10377 18.9572 4.53996 19.2684 5.31359 19.6036C6.59395 20.1582 7.10117 21.8695 9.92759 22.5729C11.1641 22.8807 10.7499 22.7796 10.9855 24.0447C11.1297 24.819 11.4632 25.3207 11.9249 25.6363C12.831 26.2559 13.3373 27.4719 14.5371 28.0829C15.3656 28.5047 15.7345 27.7601 15.5139 26.9412C15.189 25.7347 14.4712 24.4122 13.9611 23.4303C12.6921 20.9877 12.1191 21.1486 10.4667 19.3386L9.29131 17.9868C8.53409 17.0601 7.87382 16.0471 7.12349 15.0997L6.02932 13.6649C5.38699 12.6465 6.05319 10.4285 7.76384 12.9409ZM23.4116 19.8965C23.077 19.3735 22.8728 19.0422 22.693 18.3242C22.5264 17.6593 22.4146 17.0811 22.1117 16.5419C21.5175 15.4845 20.7582 14.8047 20.2404 13.6963C18.5909 10.1652 20.2098 5.23131 18.6045 3.53328C17.7388 2.61742 16.8166 3.08315 14.884 3.43884C14.082 3.58634 13.7002 3.70443 13.4642 4.38896C12.7185 6.55134 15.3164 10.2194 15.6245 11.5191C14.0866 11.0277 11.9589 7.13261 10.2136 8.97259C9.56154 9.66004 8.97906 10.9891 9.45068 12.2663C9.77087 13.1335 10.8925 14.4065 11.5129 14.6878C11.4271 14.7336 11.4787 14.732 11.3099 14.7484C11.1996 14.7591 11.215 14.7589 11.1031 14.7442C9.14094 14.4884 8.80685 11.1777 6.715 10.7074C5.34786 10.4001 4.60299 11.7949 4.73171 13.1046C4.84891 14.2971 5.77586 15.0807 6.42672 15.9635C8.29012 18.4906 9.39249 19.9878 11.6009 21.9132C12.4808 22.6803 13.7936 25.132 14.0839 26.247C13.691 26.0516 13.5163 25.351 12.9142 24.9831C12.2719 24.5905 12.1072 24.4321 11.9941 23.4603C11.7322 21.2114 10.8967 21.9621 9.26933 21.2122C7.41399 20.3572 6.62414 18.5528 4.70719 18.3739C3.9459 18.3028 3.16388 18.3816 2.66223 18.7829C1.12355 20.0135 2.7346 22.6465 3.78044 23.7512C4.27653 24.2752 4.52982 24.3788 5.39784 24.6594C7.23115 25.2519 6.95184 27.5717 8.96814 28.5096C9.55553 28.7828 10.2221 28.8217 10.8481 29.0765C9.90096 29.4661 8.75793 28.5679 7.33877 28.3733C6.7024 28.2859 5.99825 28.2853 5.41659 28.0977C4.83642 27.9105 4.54239 27.5114 4.00068 27.2422C2.87901 26.685 1.27863 26.6659 0.77472 27.6844C0.480088 28.28 0.617124 28.9941 0.936496 29.46C1.15437 29.7778 1.80397 30.348 2.17718 30.5113C1.78606 30.8727 1.04323 30.6212 0.447076 31.2322C-0.886177 32.5986 0.927948 34.888 3.70157 33.8976C4.30131 33.6835 4.80016 33.3469 5.34407 33.1736C5.87939 33.0029 6.4691 33.4464 7.055 33.624C8.72581 34.13 9.75164 33.3365 10.44 32.5022C11.1339 32.7666 11.5292 33.3406 12.653 33.1643C13.3973 33.0477 13.9956 32.4726 14.4066 32.0863C14.9273 32.4017 14.9561 33.1837 16.073 33.6212C17.9325 34.3496 20.3604 33.4762 20.9822 35.2031C22.1572 38.4662 24.785 41.0942 26.0728 44.1505C26.4338 45.0071 26.9527 45.969 27.3746 45.9984C27.7272 46.023 28.3116 45.7777 28.5364 44.6489C29.4099 40.2645 30.4436 42.1972 32.393 41.3494C33.0444 41.0662 33.3973 40.4785 33.6281 39.7214C34.2074 37.821 34.4129 37.2647 36.3258 36.6848C39.1098 35.8409 37.6078 34.4541 38.7779 33.3253C39.2437 32.876 40.3418 32.9995 40.9154 32.5953C41.4936 32.1878 41.7215 31.5844 42.0864 30.9027C43.8 27.7007 44.1902 29.8413 45.6839 28.937C46.7655 28.2822 46.6587 27.0386 48.4936 26.018C49.5217 25.4463 50.7171 25.1283 50.4482 23.767C50.3283 23.1601 50.1571 23.1854 49.5244 23.1582C49.845 22.6655 51.1483 21.4421 50.4424 20.5778C49.7756 19.7611 48.1333 20.6095 47.5896 21.0664C46.7328 21.7862 44.7178 24.376 43.0621 24.5C43.1828 23.7168 44.0442 23.5853 44.662 23.0285C45.7456 22.0517 48.4083 17.3313 47.1467 16.4609C46.75 16.1871 46.1565 16.1089 45.6928 16.1189C44.9451 16.1349 44.5952 16.3978 44.0802 16.6256C44.4313 15.7555 47.8534 11.9929 44.43 12.1337C43.2706 12.1814 41.8597 12.211 40.7644 12.4747C39.341 12.8174 39.3655 13.3394 39.1129 14.7844C38.5126 14.5294 38.2944 14.7194 37.9792 15.0827C37.3235 15.8383 36.7296 17.5436 35.8998 17.9043C35.8956 17.0991 37.238 15.5639 37.4025 14.2594C37.5114 13.3954 37.184 12.7982 36.4764 12.6343C35.6394 12.4404 34.9985 12.8558 34.4057 13.1397C34.5887 12.5128 34.7686 11.7691 34.1441 11.4258C33.3629 10.9964 32.7471 11.5519 32.3814 11.8142C31.9967 11.3646 31.716 10.6392 31.1729 10.4279C29.0439 9.59971 29.7411 15.6174 29.3477 16.2164C28.4813 14.3192 27.8862 14.0457 28.2761 11.775C28.978 7.68925 31.5014 4.465 29.0629 3.01923C28.3025 2.56849 27.726 0.955928 26.7528 1.07423C26.2753 1.13237 26.163 1.54453 25.9735 1.8499L25.8317 1.53064C25.7702 1.38919 25.7421 1.32379 25.6692 1.18669C24.3988 -1.20271 23.5878 0.678046 22.9444 1.13953C22.3579 1.56023 21.9531 1.05247 21.2927 1.17992C20.121 1.40611 20.5442 3.07257 20.8328 4.00181C21.0788 4.79352 21.4855 6.2761 21.8239 6.9689C22.071 7.47452 22.4269 7.74937 22.5897 8.1433C22.7686 8.57585 22.7795 9.4765 22.7871 9.98586C22.807 11.3212 22.8788 12.241 23.2558 13.4622C23.6325 14.6822 24.0616 15.285 23.4838 16.5997C23.181 17.2884 22.9821 17.2776 23.1199 18.2336C23.192 18.7343 23.4149 19.4437 23.4116 19.8965Z" fill="#A4B49F"/>
</svg>
