<svg width="38" height="46" viewBox="0 0 38 46" fill="none" xmlns="http://www.w3.org/2000/svg">
<path fill-rule="evenodd" clip-rule="evenodd" d="M20.9268 1.34372C22.3096 1.17445 23.5955 1.77617 24.3144 2.41678C25.1994 3.20557 32.0439 18.154 33.1963 20.6811C33.6644 21.7075 34.0506 22.7721 34.5436 23.8153C36.78 28.5477 36.729 33.9266 34.2303 38.4633C31.7396 42.9854 27.3384 44.4312 22.2374 44.4748C19.2265 44.5006 16.9002 44.3996 14.333 43.3386C8.48432 40.9214 6.36624 34.311 7.13954 28.5557C7.59954 25.1324 9.52834 21.6033 10.9309 18.4395C11.9178 16.417 12.9403 14.3632 13.843 12.3001C14.7567 10.2121 15.8276 8.26213 16.7825 6.19266C17.2553 5.16798 17.7434 4.17675 18.2363 3.16094C18.7362 2.13053 19.5366 1.51388 20.9268 1.34372ZM11.9246 44.1067C8.00559 43.1427 4.12634 40.8323 2.4622 36.9401C0.329355 31.9516 1.14078 27.0993 3.34641 22.6603C4.78794 19.7592 11.4977 9.2381 13.5363 6.21861C14.1332 5.3345 14.7578 4.44912 15.2658 3.55294C15.6393 2.89386 16.0234 2.25346 16.6016 1.81832C16.9664 1.54386 17.8978 1.24537 18.4634 1.18068C17.3491 1.62733 16.8087 3.29087 16.3779 4.1498C14.2169 8.45808 12.2631 12.9016 10.1557 17.1445C8.65723 20.1617 6.35769 25.0842 5.90773 28.3363C5.09111 34.239 7.26049 41.0047 12.6067 43.943C12.8595 44.082 13.1155 44.245 13.3702 44.3896C12.8589 44.2668 12.4199 44.2287 11.9246 44.1067ZM37.3456 31.9014C37.5806 28.545 36.9087 25.9167 35.6743 23.294C35.1181 22.1121 34.6315 20.8352 34.0807 19.6255C33.5444 18.4476 33.0013 17.2921 32.4241 16.1151C31.6591 14.5549 26.4053 3.05382 25.6404 2.03713C24.0718 -0.047549 20.7633 -0.320528 17.5064 0.278102C15.8065 0.590532 15.1226 1.31132 14.435 2.46599C12.7514 5.29339 10.1526 9.18234 8.31901 11.9486C6.94708 14.0184 5.6876 16.2154 4.34305 18.4034C1.52623 22.9875 -0.995746 27.6896 0.393215 34.534C2.29193 43.8907 11.7096 46.4252 20.0812 45.9443C23.1427 45.7684 26.4781 45.6127 29.1171 44.5551C33.8569 42.6554 36.8956 38.3302 37.3456 31.9014Z" fill="#A4B49F"/>
<path fill-rule="evenodd" clip-rule="evenodd" d="M20.737 19.4763C22.3498 19.2493 23.8708 20.1214 24.9563 21.2526C25.9856 22.3252 26.8483 23.5316 27.4407 24.9745C28.7376 28.1334 29.0736 32.1045 27.2531 34.9347C25.5349 37.606 21.5618 38.4119 18.262 37.2578C10.3517 34.4913 14.5622 20.3456 20.737 19.4763ZM29.707 31.2984C30.2683 26.7562 27.4861 20.4582 23.4853 18.6712C21.8905 17.9588 20.3673 18.1104 18.9745 18.7422C16.0116 20.0861 14.0456 23.3612 13.2521 26.3624C11.8927 31.5038 12.8577 37.1736 18.8535 38.7319C21.6252 39.4522 24.4766 38.8054 26.4565 37.5012C28.2824 36.2986 29.3425 34.2478 29.707 31.2984Z" fill="#A4B49F"/>
</svg>
