<svg width="50" height="50" viewBox="0 0 50 50" fill="none" xmlns="http://www.w3.org/2000/svg">
<path fill-rule="evenodd" clip-rule="evenodd" d="M7.24382 42.5192C6.21654 41.5014 5.11526 40.5587 4.19042 39.4541C3.27536 38.2984 2.42049 37.0948 1.62932 35.8483C1.51276 35.6738 1.4324 35.477 1.39313 35.2699C1.10856 34.041 0.823994 32.8092 0.539427 31.5773C0.518589 31.4085 0.454839 31.248 0.354456 31.1118C0.00728473 30.7879 -0.1663 30.5335 0.217865 30.0332C0.417062 29.7816 0.0955029 29.3421 0.0812745 28.9286C0.0442809 27.7459 0.428447 26.6153 0.229251 25.3604C0.0812758 24.4293 0.539428 23.3623 0.798384 22.382C1.04596 21.5145 1.2793 20.6615 1.93665 19.9328C2.34358 19.4672 2.45456 18.7414 2.69075 18.1111C3.0237 17.206 3.25989 16.2518 3.69243 15.4103C3.91439 14.9823 4.45791 14.7337 4.70549 14.2305C4.99005 13.6782 5.37422 13.1635 5.68155 12.6864C5.60756 12.3336 5.11242 12.1688 5.49658 11.7929C5.88075 11.417 6.1397 10.8762 6.56086 10.7259C7.35196 10.4107 7.48855 9.8584 7.73328 9.14128C7.95809 8.46464 8.67519 7.94994 9.21872 7.40631C10.7401 5.85986 12.4977 4.57381 14.4234 3.59805C15.2629 3.17298 16.0654 2.6814 16.8821 2.23031C17.3146 1.99031 17.7614 1.59994 18.194 1.6144C19.3664 1.6144 20.2827 0.822099 21.3242 0.683301C23.4499 0.408598 25.5529 -0.207324 27.7269 0.070271C27.9636 0.101703 28.1935 0.173048 28.4071 0.281362C29.4457 0.822095 30.584 0.972459 31.708 1.21246C32.5617 1.40042 33.3642 1.90356 34.1695 2.29104C36.1217 3.25973 37.6925 4.7547 39.3487 6.12243C39.5889 6.36791 39.8043 6.63721 39.9918 6.9263C40.2393 7.24149 40.3873 7.86897 40.9451 7.21546C40.9935 7.16341 41.426 7.32824 41.5142 7.50463C42.3679 8.99959 43.1704 10.5206 44.0127 12.0156C44.855 13.5105 45.7799 15.0315 46.5738 16.5756C47.3535 18.0706 48.0479 19.6031 48.7251 21.1357C48.9613 21.662 49.1349 22.1536 50 21.7632C49.741 22.3039 49.5902 22.5671 49.8008 23.0066C50 23.397 49.778 23.9984 49.7268 24.5131C49.6756 25.0278 49.5532 25.557 49.5162 26.0833C49.4053 27.4655 49.3683 28.8477 49.2317 30.2298C49.1691 30.8082 48.8987 31.3605 48.7251 31.9272C48.5032 32.6559 48.2812 33.3962 48.0592 34.1249C47.8714 34.7292 47.6865 35.3191 47.5129 35.9205L47.5271 35.8945C47.3404 36.1012 47.1665 36.3195 47.0064 36.548C46.3775 37.5167 45.7457 38.497 45.1908 39.564C45.5124 39.2748 45.8197 39.0233 46.1413 38.7601L46.2522 38.8729C45.8703 39.3447 45.4617 39.7937 45.0286 40.2175C44.3997 40.7698 43.7196 41.2469 43.0509 41.7616L42.4191 42.2532C42.3708 42.3023 42.3451 42.4267 42.3082 42.4267C41.4317 42.4527 41.1101 43.2306 40.5524 43.7106C39.9457 44.1691 39.3055 44.58 38.6372 44.9395C38.4893 45.0407 38.3271 45.1911 38.1791 45.1911C37.24 45.165 36.5599 45.7434 35.8314 46.1713C33.3203 47.62 30.5935 48.6426 27.7582 49.1989C27.3883 49.2856 27.0155 49.3492 26.583 49.4389C26.6179 49.3066 26.6597 49.1763 26.7082 49.0485C26.546 49.0485 26.287 49.0225 26.2614 49.0861C25.9769 49.8639 25.2854 49.7772 24.6935 49.8379C23.7772 49.9275 22.8495 50.2167 21.751 49.702L24.4203 49.274C24.1983 49.1092 24.1357 49.034 24.0617 49.0225C22.7385 48.8461 21.4181 48.6841 20.0949 48.5078C19.2042 48.395 18.3135 48.2707 17.4228 48.155C16.0144 48.0096 14.6535 47.5569 13.4332 46.8277C12.8448 46.4762 12.2232 46.1856 11.5778 45.9602C11.2932 45.8619 10.9233 45.9602 10.6757 45.7839C10.006 45.2942 9.34203 44.8007 8.68373 44.3033C9.09351 44.3785 9.48906 44.4537 9.89599 44.5173C9.9216 44.4768 9.93298 44.4277 9.95859 44.3785L7.26374 42.5308L7.24382 42.5192ZM35.9851 26.9941C36.2099 26.4389 36.3579 26.1006 36.4802 25.7507C36.5428 25.5599 36.4575 25.3083 36.5542 25.1724C37.3339 24.1922 37.0494 23.2611 36.5058 22.3068C36.4136 22.1878 36.3572 22.0442 36.3436 21.8933C36.3806 20.8118 35.9111 20.0716 34.898 19.5193C34.861 20.1583 34.824 20.7106 34.7984 21.2543C34.7968 21.3824 34.818 21.5097 34.861 21.6302C35.6038 21.581 35.1712 22.1189 35.194 22.3849C35.2566 22.888 35.046 23.501 35.2566 23.9174C35.7147 24.8081 35.5412 25.8143 35.9851 26.9826V26.9941ZM21.9047 9.09212C20.7664 8.77693 19.9127 9.3437 19.0989 9.71961C18.5667 9.98274 17.8269 10.2343 17.5651 11.015C17.7643 11.0902 17.9236 11.1394 18.0972 11.203L17.6163 11.9577C17.6722 11.9996 17.7254 12.045 17.7756 12.0936C18.2452 11.7177 18.7033 11.3418 19.1729 10.963C19.557 10.6738 19.927 10.1967 20.3737 10.11C21.0026 9.99719 21.3982 9.65888 21.9047 9.09212ZM23.2906 21.8152C23.0453 22.0587 22.7807 22.2811 22.4994 22.4803C21.6714 22.9314 21.4238 23.7382 21.2388 24.5652C21.2015 24.7468 21.2177 24.9357 21.2856 25.108C21.3534 25.2803 21.4698 25.4285 21.6201 25.5339C21.8748 25.0464 22.16 24.576 22.4738 24.1256C22.969 23.4982 23.4129 22.8562 23.3019 21.8123L23.2906 21.8152ZM14.469 14.806C14.2135 15.0854 13.9271 15.3338 13.6153 15.5462C12.8128 15.9597 12.8014 15.9221 12.5766 16.7029C13.4047 16.3009 14.247 15.899 14.469 14.806ZM26.6826 20.621C27.0924 20.407 27.3997 20.2451 27.8465 20.0195C27.3143 19.7304 26.9415 19.7304 26.6086 20.0195C26.5346 20.0803 26.6456 20.3579 26.6826 20.621ZM23.7914 21.6764C24.3207 21.4769 24.3207 21.4769 24.4089 20.9853C24.1727 21.2745 23.9764 21.4769 23.7914 21.6764ZM0.784155 30.3686C0.821149 30.3455 0.85814 30.3195 0.906517 30.2935C0.85814 30.1315 0.809765 29.9667 0.74716 29.7903C0.696208 29.8025 0.646621 29.8199 0.599184 29.8424C0.658943 30.0188 0.72155 30.1923 0.784155 30.3686Z" fill="#A4B49F"/>
</svg>
