<svg width="50" height="50" viewBox="0 0 50 50" fill="none" xmlns="http://www.w3.org/2000/svg">
<path fill-rule="evenodd" clip-rule="evenodd" d="M22.1726 0.24506L21.4338 0.136761C22.721 -0.0215223 24.0417 -0.093719 25.3161 0.208963C25.81 0.329753 26.2822 0.537065 26.714 0.822655C27.1825 1.15033 27.6974 1.16144 28.202 1.29473C29.7776 1.70293 31.3995 1.94452 32.8876 2.7165C33.5028 3.03029 34.1748 3.35796 34.8441 3.36907C35.9743 3.39406 36.7467 4.14105 37.6297 4.66033C38.4077 5.08209 39.1555 5.56567 39.8669 6.10709C40.3586 6.50419 40.683 7.14566 41.1413 7.61495C41.6147 8.10343 42.1322 8.53972 42.686 8.91732C42.9434 9.08671 43.345 9.0395 43.6926 9.0395C44.0021 8.99501 44.3167 9.0148 44.6194 9.09781C44.2847 9.23111 43.95 9.35329 43.4892 9.53379C43.654 9.79339 43.8458 10.0319 44.0607 10.2447C44.5524 10.5946 44.8202 11.2221 45.4149 11.4526C45.5359 11.4998 45.5822 11.7664 45.6723 11.9219C45.7933 12.1385 45.9169 12.5384 46.0508 12.5384C46.5991 12.5384 46.5657 13.4909 47.2041 13.3104C47.2711 13.2854 47.495 13.5381 47.4822 13.6603C47.4152 14.5516 48.0305 15.0487 48.4347 15.6735C48.512 15.7818 48.5557 15.904 48.6561 16.0845C48.3446 16.2289 48.0743 16.3483 47.6727 16.5316C47.9636 17.3147 48.288 18.0755 48.5223 18.8586C48.7797 19.6917 48.8801 20.572 49.171 21.38C49.5958 22.5991 49.6859 23.8543 49.7425 25.1316C49.7002 25.4114 49.6131 25.681 49.4851 25.9286C49.5855 26.0008 49.7425 26.1341 50 26.3368C49.7889 27.3282 49.7992 28.4139 49.7425 29.5358C49.4413 29.558 49.2071 29.5719 49.0166 29.5719C48.669 30.2828 48.3343 30.9603 47.8864 31.8739C48.2571 31.6573 48.4347 31.5629 48.6021 31.4657C48.7256 31.8017 48.5248 31.9239 48.2674 32.0211C47.6753 32.2988 47.6856 32.2738 48.0537 32.8542C48.1232 32.9514 47.9765 33.193 47.9327 33.3735C47.3509 33.0708 47.217 33.615 47.0368 33.9649C46.4215 35.1701 45.8062 36.3892 45.2475 37.6304C44.9901 38.1858 44.9901 38.8384 44.6451 39.3577C44.4417 39.6576 44.3207 40.0075 44.1302 40.3102C43.3183 41.6124 42.3168 42.7649 41.1644 43.723C40.9817 43.8453 40.7875 43.9468 40.5852 44.0256C39.6223 44.581 38.6724 45.1586 37.6091 45.7862C38.5488 46.2222 38.8165 45.0864 39.612 45.1475C38.3248 46.4138 36.9166 47.1136 35.462 47.7883C34.3791 48.283 33.2595 48.6787 32.1152 48.9713C31.7344 49.0875 31.3451 49.1683 30.9515 49.2129C30.7974 49.1984 30.6421 49.2144 30.4933 49.2601C28.8381 49.8644 27.0868 50.1024 25.3444 49.9599C25.2191 49.9661 25.094 49.9453 24.9762 49.8988C24.0263 49.3434 22.9733 49.4406 21.9461 49.3434C21.856 49.3434 21.7221 49.3434 21.6886 49.2601C21.13 48.3798 20.1774 48.6686 19.4283 48.4048C18.8464 48.1993 18.2311 48.091 17.6261 47.9078C17.5592 47.9078 17.536 47.7161 17.4691 47.5356C17.0237 48.041 16.6195 47.9216 16.1046 47.6551C15.223 47.2344 14.3176 46.8746 13.3937 46.5776C13.0299 46.4913 12.6592 46.443 12.2867 46.4332C12.2434 46.5106 12.2055 46.5913 12.1734 46.6748C10.7086 45.2503 9.15359 43.9118 7.81229 42.3678C6.6718 41.0766 5.77589 39.5437 4.78215 38.1081C4.43889 37.5879 4.10335 37.0575 3.77553 36.5169C2.07668 33.7381 0.905872 30.6234 0.330906 27.3531C-0.124588 24.9194 -0.109689 22.4105 0.374671 19.9833C0.768405 18.2131 1.37421 16.5057 2.17679 14.9043C3.66483 11.8053 5.95611 9.42827 8.0028 6.82076C8.32328 6.44718 8.69277 6.12628 9.09952 5.86828C9.75479 5.40415 10.3334 4.82504 10.8115 4.15493C11.3033 3.51625 11.9958 3.05806 12.5673 2.48879C13.6452 1.41222 14.9844 0.688042 16.429 0.40057C16.7766 0.32837 17.2014 0.522753 17.4923 0.378354C18.5658 -0.177026 19.5827 0.0645631 20.6563 0.342253C21.1274 0.46166 21.6397 0.364469 22.1443 0.364469C22.1443 0.328369 22.1443 0.292267 22.1443 0.24506H22.1726ZM16.4805 17.3147C16.7379 17.0981 16.9954 16.8926 17.2528 16.6621C16.9285 16.6399 16.6581 16.6038 16.3466 16.5788C16.2128 16.9037 16.0428 17.2897 15.8884 17.6757C15.3503 18.0505 14.8586 18.8697 15.0028 19.1474C15.1933 19.2085 15.3838 19.2807 15.6747 19.389C15.7545 19.0391 15.842 18.7031 15.9321 18.3643C16.1098 18.0144 16.3003 17.6645 16.4908 17.3147H16.4805ZM13.9756 28.6305C14.1532 29.0526 14.3334 29.4636 14.5342 29.9218C14.2536 30.0051 14.0657 30.0523 13.8082 30.1384C13.9086 30.3439 13.9961 30.5133 14.0863 30.6938C14.1205 30.6266 14.1583 30.5617 14.1995 30.4994C14.4904 30.6327 14.7479 30.7548 15.116 30.9215C14.9481 30.3117 14.7505 29.712 14.5239 29.1248C14.4338 28.9082 14.3669 28.4611 13.9421 28.6666C14.0423 28.4398 14.0988 28.1934 14.1081 27.9423C14.1174 27.6912 14.0793 27.4407 13.9961 27.206C13.8559 26.8786 13.7513 26.5347 13.6846 26.1813C13.4941 24.6623 13.9756 23.2628 14.3205 21.8271C14.8689 21.3911 14.6913 20.6192 15.0259 20.0638C15.116 19.9083 15.0388 19.6195 15.0388 19.3779C14.9697 19.3631 14.9017 19.3426 14.8354 19.3168C14.6209 19.6317 14.4265 19.962 14.2536 20.3054C13.9961 20.9691 13.7953 21.6938 13.5379 22.3575C13.2804 23.0212 13.3036 23.746 13.0359 24.443C12.8891 24.8067 13.1697 25.4343 13.2135 25.9508C13.2933 26.87 13.6949 27.7502 13.9858 28.6305H13.9756ZM15.3503 33.1069C15.4111 33.0469 15.4746 32.9904 15.5408 32.9375C15.3735 32.321 15.183 31.7184 14.4235 31.574C14.735 32.0794 15.0388 32.5987 15.3503 33.1069ZM36.2549 46.797C36.2884 46.8581 36.3219 46.9303 36.3554 46.9914C36.7003 46.7859 37.0479 46.5693 37.3851 46.3638C37.3517 46.3027 37.3182 46.2305 37.2847 46.1694C36.9372 46.3749 36.5896 46.5943 36.2549 46.797ZM48.826 23.0934C48.798 23.0952 48.7708 23.1037 48.7462 23.1184V24.3624H48.826V23.0962V23.0934ZM25.3984 0.53386C25.4032 0.477511 25.4032 0.420818 25.3984 0.364469C25.1848 0.400568 24.9839 0.42556 24.7728 0.450552C24.7728 0.497759 24.7728 0.533859 24.7728 0.581066C24.9865 0.581066 25.1976 0.558852 25.3984 0.53386Z" fill="#A4B49F"/>
</svg>
