<svg width="778" height="168" viewBox="0 0 778 168" fill="none" xmlns="http://www.w3.org/2000/svg">
<path d="M1.9583 57.1603C-0.0296173 54.1171 -2.80147 49.0009 6.82994 45.5828C7.64482 45.2131 8.34752 44.7078 8.88914 44.1023C9.43071 43.4967 9.79814 42.8054 9.96574 42.0765C9.29374 37.8424 17.8331 35.9901 23.3487 33.4099C24.3036 33.1326 25.3256 33.0282 26.3386 33.1046C27.3517 33.181 28.3298 33.4361 29.2005 33.851C29.8444 35.1962 27.3526 34.1376 26.4006 34.292C23.8248 34.689 24.1608 36.2106 24.4687 36.4973C25.7567 37.5117 27.2685 36.4972 28.4725 36.2106C36.424 34.0053 46.5034 34.3582 51.8511 36.8722C55.4629 35.7254 56.2748 39.0774 60.6424 37.5999C62.5397 36.8997 64.6179 36.5571 66.7124 36.5992C68.8069 36.6413 70.8602 37.067 72.7097 37.8425C76.6014 39.9375 81.8371 41.5252 86.1488 43.3997C88.7562 44.767 91.687 45.7062 94.7658 46.1608C97.8447 46.6155 101.008 46.5765 104.068 46.046C107.706 45.6721 111.375 45.5172 115.043 45.5828C106.867 45.3623 106.895 45.3623 107.287 42.4514C107.287 42.2309 106.699 41.9001 106.195 41.8339C99.7279 40.9519 103.956 40.7534 106.727 40.4006C107.595 40.2682 108.799 40.0256 109.023 39.7389C110.619 37.9527 110.675 38.063 115.603 37.2912C118.851 36.7619 125.178 36.6075 120.559 34.1156C119.831 33.7187 121.175 33.5202 121.595 33.2335C123.946 31.6678 126.662 31.2047 131.814 31.3811C137.693 31.6016 145.813 29.1759 148.165 29.4625C156.564 30.7636 165.664 29.5949 171.795 29.0656C184.45 28.0071 197.918 28.5143 209.929 26.8604C209.895 26.8951 209.876 26.9377 209.876 26.9816C209.876 27.0255 209.895 27.0682 209.929 27.1029C212.001 27.9188 214.128 26.9265 216.228 26.9706C221.128 27.0809 225.748 26.5075 230.48 26.3091C239.999 25.9121 249.686 25.868 259.262 26.0885C265.169 26.2208 270.153 24.4787 274.437 24.633C288.968 25.2064 303.359 24.192 318.002 24.7874C327.661 25.1844 337.992 25.4711 348.016 25.2947C351.348 25.2947 354.931 25.2946 358.347 25.1182C357.059 24.7874 353.084 24.8536 354.427 24.0377C356.741 23.4381 359.159 23.1256 361.595 23.1114C362.939 22.9791 363.079 23.4202 363.275 23.8613C362.183 24.1479 361.231 24.7433 360.223 25.052C362.903 24.9433 365.565 24.6407 368.175 24.1479C374.222 22.8688 373.354 22.2514 378.31 23.6186C378.31 20.7077 383.686 22.4939 386.709 22.1411C394.761 21.2517 402.882 20.8096 411.012 20.818C419.411 20.818 427.251 19.9359 435.51 20.1785C444.19 20.4652 452.981 20.1785 461.744 19.98C463.358 20.0347 464.966 19.801 466.448 19.2964C467.036 18.7892 465.86 17.9512 463.872 17.6865C460.821 17.2676 460.905 17.1353 463.06 15.9885C465.664 14.5772 471.88 12.9673 469.332 11.3355C464.656 8.38044 469.332 9.13023 473.336 9.35075C473.924 9.35075 474.568 9.35075 475.184 9.35075C474.821 9.22489 474.447 9.1217 474.064 9.04206C467.932 8.07175 472.188 7.05729 473.924 6.02083C478.767 3.13196 485.123 2.69096 492.542 4.41104C494.558 4.87414 494.054 3.94792 494.334 3.90382C500.27 2.97762 505.198 0.529821 512.029 1.2355L513.905 1.3678C513.429 1.19139 512.925 0.992914 512.925 0.816495C512.925 0.640076 513.765 -0.0214839 515.865 0.000568277C516.145 0.132882 517.181 0.353403 517.265 0.618032C517.517 1.32371 515.921 1.27961 514.801 1.45603C521.6 1.73346 528.416 1.57854 535.184 0.992883C537.392 0.575693 539.702 0.628988 541.875 1.14726C543.107 0.000541688 545.543 0.0667147 548.763 0.199029C565.814 0.904703 582.921 1.61039 600.028 2.00733C606.047 2.1617 615.119 3.19817 617.414 2.36018C624.498 -0.219949 631.414 1.03703 638.301 1.32371C645.189 1.61039 652.3 1.94114 659.16 2.38218C673.915 3.28633 689.062 3.0217 703.957 3.96995C720.392 5.00641 736.995 5.66796 750.434 10.0123C751.862 10.4754 755.166 10.8282 753.374 11.5339C752.587 12.0965 751.651 12.515 750.635 12.759C749.618 13.003 748.546 13.0666 747.494 12.9453C745.299 12.6207 743.084 12.3851 740.858 12.2396C737.723 12.1293 736.099 14.0038 732.459 13.3422C734.055 13.6068 735.595 13.8935 737.191 14.1361C738.787 14.3787 742.79 13.7833 742.426 15.1064C742.062 16.4296 738.003 14.9962 735.623 15.9224L741.222 16.2311C740.411 17.1352 736.939 16.2311 737.051 16.8485C737.163 17.466 728.035 18.304 736.295 19.4728C737.275 19.6271 738.171 20.4872 738.031 20.9723C737.779 21.8765 735.231 21.6119 733.691 21.7662C729.995 22.1411 726.495 20.9282 722.744 21.1928C733.926 23.2599 745.388 24.2375 756.873 24.1038C769.837 23.8171 778.992 27.8968 792.235 26.8824C799.347 26.309 807.634 28.0953 815.418 28.7348C820.597 29.1538 820.793 31.2267 824.069 32.2632C819.645 33.3878 824.685 33.6083 825.189 34.2699C826.001 35.3284 833.589 36.7838 824.545 37.5777C823.817 37.5777 823.313 38.129 823.957 38.0629C827.737 37.7762 825.889 42.1205 832.189 39.5183C834.092 40.3784 841.232 38.9671 838.656 41.8339C837.844 42.738 836.92 44.0391 841.456 44.5243C845.46 44.9653 846.72 47.0823 846.048 48.0306C844.76 49.8389 841.456 48.229 839.608 47.788C836.22 46.95 836.808 49.045 834.344 48.6481C833.309 50.0153 836.528 49.067 837.34 49.4419C838.152 49.8168 840.728 50.5887 840.476 50.9415C839.804 51.8016 837.676 51.162 836.164 51.1179C834.652 51.0738 831.825 50.8092 831.881 51.6913C831.937 52.5734 830.901 53.4775 834.428 53.8965C838.964 54.3155 841.008 55.5063 840.028 57.3146C840.566 56.9612 841.245 56.7677 841.946 56.7677C842.647 56.7677 843.325 56.9612 843.864 57.3146C846.142 58.6262 848.603 59.7286 851.199 60.6004C855.063 61.6148 856.799 62.8057 855.651 64.3714C854.867 65.6945 854.839 67.7234 849.128 65.7607C849.128 65.7607 847.812 66.1356 847.896 66.2238C849.799 68.0541 845.096 67.6792 843.976 67.5249L843.388 67.4147C843.189 69.0496 842.61 70.6418 841.68 72.1117C841.12 72.9277 839.272 73.9642 843.024 74.5817C847.672 75.3094 847.924 76.6104 845.572 78.1321C843.22 79.6537 846.272 79.8081 848.652 79.3891C856.799 77.9557 846.888 82.8954 854.251 81.5943C853.635 81.9912 853.187 82.7189 852.375 82.7851C847.812 83.1159 846.104 84.7919 843.248 85.5637C833.589 88.1879 840.924 88.3423 845.628 89.1142C847.14 89.3567 849.855 89.489 848.68 90.3711C847.995 90.9244 847.101 91.288 846.132 91.4073C845.162 91.5266 844.17 91.3951 843.304 91.0327C842.632 90.7901 842.156 90.2388 841.148 90.8563C840.98 90.9665 841.848 91.2532 842.016 91.4737C842.52 92.1794 842.912 92.9071 843.36 93.679C845.572 94.0539 848.96 93.8113 848.036 95.5976C847.889 95.8973 847.636 96.1575 847.308 96.3473C847.464 96.3165 847.627 96.3165 847.784 96.3473C848.286 96.3732 848.762 96.5371 849.128 96.8104C849.324 97.2294 848.624 97.5382 847.532 97.4279C847 97.4279 846.664 97.053 846.048 96.7663C844.536 96.9428 842.604 96.5679 841.204 96.7663C838.684 97.1192 835.94 97.3397 834.848 98.5526C836.976 98.3982 838.964 98.2218 840.98 98.1336C842.996 98.0454 843.78 98.4202 842.072 98.8613C837.004 100.052 834.428 102.103 830.285 103.581C827.849 104.463 821.241 103.845 822.221 105.675C823.201 107.506 829.081 107.219 833.057 107.726C834.242 107.85 835.412 108.049 836.556 108.322C837.46 108.608 838.339 108.94 839.188 109.314C838.205 109.822 837.115 110.188 835.968 110.395C826.757 110.968 831.041 112.027 835.464 112.82C839.888 113.614 838.6 115.026 838.768 116.018C838.936 117.01 834.708 116.393 832.469 116.503C829.165 116.658 825.805 116.503 822.473 116.635C821.129 116.635 819.057 116.15 818.637 116.966C818.386 117.429 819.225 118.179 820.205 118.532C824.545 120.01 825.497 120.98 818.805 121.994C815.306 122.524 818.553 123.406 820.093 123.979C824.769 124.508 824.181 126.802 823.509 127.199C821.381 128.456 820.205 126.669 818.889 126.339C816.09 125.611 811.694 127.662 811.162 125.898C810.462 123.582 818.469 126.625 819.057 124.398C817.518 124.398 815.978 124.222 814.466 124.288C812.954 124.354 811.666 124.288 811.19 124.685C810.35 125.456 808.11 125.104 807.662 125.302C805.618 126.272 795.035 125.787 803.294 128.698C806.57 129.845 811.022 132.006 806.094 132.623C800.159 133.373 801.391 135.887 800.159 135.843C793.103 135.534 789.127 137.696 783.36 138.379C790.219 138.666 798.675 135.027 803.63 139.724C804.274 140.32 806.654 140.805 806.262 141.577C805.87 142.349 802.791 142.812 800.663 142.9C783.5 143.672 766.225 144.025 748.054 143.848C758.202 144.934 768.455 145.281 778.684 144.885C779.3 145.59 777.76 145.59 776.668 145.59C767.429 145.59 757.993 146.12 748.978 145.59C706.981 143.12 664.843 143.385 622.706 142.856C595.52 142.459 568.334 143.253 541.175 143.958C539.188 143.958 536.108 143.583 535.716 144.399C535.1 145.612 539.748 144.554 540.559 145.546L529.976 145.855C503.07 146.715 476.164 147.244 449.173 147.31C429.911 147.31 410.62 147.31 391.357 147.31C387.857 147.31 382.622 147.862 382.958 148.832C384.33 153.242 374.81 153.617 368.455 155.183C365.907 155.801 362.099 156.242 362.855 157.675C363.611 159.108 367.951 158.381 370.638 158.645C371.786 158.645 373.886 157.763 373.998 158.822C374.11 159.88 371.562 159.197 370.246 159.241C363.135 159.417 355.799 158.822 348.492 160.123C352.255 160.235 356.001 160.589 359.691 161.181C362.161 161.676 364.326 162.849 365.795 164.489C366.439 165.57 362.155 165.702 359.999 165.856C351.936 166.474 343.704 166.761 335.697 167.422C330.097 167.885 325.029 166.54 319.766 166.739C311.646 167.025 303.639 166.849 295.575 166.54C281.296 165.989 266.821 163.916 252.766 167.047C251.839 167.171 250.893 167.171 249.966 167.047C247.53 163.85 240.307 165.526 235.659 165.217C227.26 164.666 217.6 164.004 210.461 165.217C201.232 166.584 191.852 167.219 182.463 167.113C158.272 167.334 134.082 166.518 109.835 167.466C99.1119 167.885 88.6406 168.591 76.9654 167.069C65.2901 165.548 51.347 166.231 39.3358 163.607C34.9401 162.637 31.6644 162.35 31.7204 160.035C31.7764 157.719 34.5201 154.786 24.1608 154.522C22.3409 154.522 22.8448 153.662 22.5088 153.11C19.1771 147.531 25.0287 141.886 21.2769 136.328C20.6075 134.827 20.1933 133.262 20.045 131.675C17.8611 124.464 14.8374 117.275 13.6055 110.042C12.6255 104.33 15.3693 98.5968 11.2815 92.9073C9.16533 90.6043 8.17156 87.7786 8.48174 84.9463C8.92375 83.1582 8.75963 81.3099 8.00578 79.5876C6.46178 76.3173 4.32073 73.2417 1.65019 70.4579C-2.49354 65.9151 4.9821 61.8354 1.9583 57.1603ZM843.528 64.5478L843.528 64.9227C843.644 64.8091 843.776 64.7056 843.92 64.614L843.528 64.5478ZM847.056 82.7631C847.774 82.5258 848.459 82.2302 849.099 81.881C849.099 81.7707 848.568 81.5061 848.26 81.3297C847.55 81.4939 846.857 81.7003 846.188 81.9471C845.992 82.0354 846.58 82.3441 847.056 82.7631ZM832.245 50.4343C832.525 50.4343 832.721 50.2579 832.973 50.1476C832.592 50.0535 832.196 50.0015 831.797 49.9932C831.545 49.9932 831.321 50.1697 831.041 50.302C831.436 50.3741 831.839 50.4183 832.245 50.4343ZM833.449 95.8622C834.036 96.5017 836.528 95.8622 838.04 95.6196C837.536 94.3405 844.844 96.2591 842.212 94.12C840.924 94.0098 839.412 94.3626 838.152 94.3406C838.152 94.5832 837.704 94.8919 836.64 95.1786C835.576 95.4653 832.385 94.6714 833.449 95.8622ZM831.489 90.4373C832.161 90.279 832.816 90.08 833.449 89.8419C833.005 89.6065 832.512 89.4348 831.993 89.3346C830.845 89.2244 830.285 89.5111 830.425 90.1506C830.593 90.1947 831.181 90.4814 831.489 90.4373ZM824.909 113.063L824.909 113.35L831.993 113.35C832.007 113.203 832.007 113.055 831.993 112.909L824.909 113.063ZM831.181 115.886C832.385 115.886 834.624 116.283 834.708 115.379C834.792 114.474 832.861 114.915 831.685 114.893C824.809 114.417 817.881 114.759 811.134 115.908C818.861 115.908 825.049 115.952 831.181 115.886ZM792.627 28.3158L792.319 28.1393L792.095 28.3379L792.627 28.3158ZM725.236 16.4516C725.359 16.4173 725.473 16.3649 725.571 16.2972L724.116 16.2972C723.945 16.321 723.782 16.3737 723.64 16.4516L725.236 16.4516ZM740.047 143.716C741.027 143.716 741.978 143.561 742.846 143.473L740.047 143.341L738.479 143.561C739.002 143.656 739.537 143.708 740.075 143.716L740.047 143.716ZM730.387 142.944L725.32 142.79L725.32 142.944L730.387 142.944ZM671.731 141.819L672.795 141.819L672.095 141.819C671.741 141.774 671.377 141.82 671.059 141.952C671.181 141.969 671.306 141.966 671.427 141.943C671.547 141.921 671.66 141.878 671.759 141.819L671.731 141.819ZM606.047 141.334C610.079 141.466 614.111 141.334 618.142 141.158C614.086 141.171 610.034 140.95 606.019 140.496C605.095 140.364 604.003 140.011 604.003 140.695C604.059 140.915 605.319 141.312 606.075 141.334L606.047 141.334ZM558.002 138.07C558.002 137.916 558.002 137.651 557.694 137.607C554.937 137.063 552.052 137.063 549.295 137.607L558.002 138.07ZM533.252 144.995C533.447 144.886 533.617 144.752 533.756 144.598C533.756 144.598 533.448 144.466 533.252 144.399C533.056 144.333 532.86 144.642 532.776 144.796C532.692 144.951 533.112 144.841 533.28 144.995L533.252 144.995ZM523.061 144.995C523.836 144.922 524.603 144.804 525.356 144.642C524.922 144.569 524.483 144.517 524.04 144.488C523.145 144.488 522.221 144.488 519.897 144.642C520.99 144.795 522.093 144.898 523.201 144.951L523.061 144.995ZM515.837 145.105C514.549 145.105 513.345 144.863 512.169 144.863C512.533 144.927 512.889 145.016 513.233 145.127C513.645 145.287 514.101 145.365 514.56 145.353C515.019 145.341 515.467 145.241 515.865 145.061L515.837 145.105ZM497.246 145.392C497.946 145.392 498.674 145.392 499.402 145.392L498.142 145.26L495.342 145.26C496.07 145.237 496.658 145.326 497.274 145.348L497.246 145.392ZM234.931 163.034L231.095 163.034C232.495 163.607 233.755 163.122 234.819 163.012L234.931 163.034ZM198.086 165.702C198.516 165.673 198.94 165.599 199.345 165.482L197.302 165.349C196.781 165.397 196.266 165.479 195.762 165.592C196.77 165.614 197.442 165.702 198.114 165.68L198.086 165.702ZM57.4507 161.071C56.7633 161.127 56.0806 161.215 55.4067 161.336C55.4067 161.887 56.6106 161.755 57.5066 161.711C58.4025 161.666 58.9626 161.578 59.6905 161.512L57.4507 161.071ZM59.9985 39.4743L59.6065 39.6728L59.7465 39.8493L60.3344 39.739L59.9985 39.4743ZM55.6308 162.328C57.3667 163.1 59.3825 162.593 63.6382 162.527C61.0089 162.063 58.2919 161.995 55.6308 162.328ZM67.25 44.2377C67.474 44.9874 68.454 45.5387 70.8618 45.252C73.6616 44.9433 71.6457 44.392 71.6737 43.8407C71.8418 42.1206 67.194 41.1283 67.9499 39.4303C65.9621 40.996 66.8301 42.6278 67.362 44.2377L67.25 44.2377ZM64.1423 165.526L65.4861 165.085C65.0285 164.896 64.5378 164.762 64.0302 164.688C63.4924 164.721 62.9639 164.818 62.4623 164.974L64.1423 165.526ZM60.4745 164.952C60.6425 164.952 60.9504 164.489 60.8384 164.467C57.2266 163.497 53.3069 164.247 48.7992 163.96C52.6024 164.917 56.609 165.269 60.5864 164.996L60.4745 164.952ZM49.8071 162.086C50.1986 162.029 50.5766 161.925 50.9271 161.777C50.5536 161.652 50.1561 161.577 49.7512 161.556C49.3801 161.608 49.0213 161.705 48.6872 161.843C49.1154 161.989 49.568 162.086 50.0311 162.13L49.8071 162.086ZM43.3675 158.293C44.7115 158.425 45.2714 157.741 44.9354 157.256C44.3843 156.714 43.7441 156.232 43.0316 155.823L41.6036 156.771C42.3316 157.388 42.6395 158.248 43.4795 158.337L43.3675 158.293ZM39.8678 36.5634L40.7637 36.1665L40.1199 35.8798C39.9457 36.01 39.7948 36.1584 39.6717 36.3209C39.6717 36.3209 39.8957 36.5193 39.9797 36.6076L39.8678 36.5634ZM37.5439 161.622C38.7478 161.622 39.5878 161.314 38.4959 160.939C37.404 160.564 37.6279 159.505 35.2761 159.594C34.8841 159.594 34.5761 160.145 34.8001 159.946C34.4361 161.402 35.4161 161.777 37.656 161.667L37.5439 161.622ZM31.1604 151.721C31.1604 151.721 31.3284 151.589 31.3844 151.522C31.1799 151.502 30.9729 151.502 30.7684 151.522C30.6188 151.562 30.4841 151.63 30.3763 151.721C30.6691 151.778 30.9727 151.793 31.2723 151.765L31.1604 151.721ZM4.114 52.0221C6.66185 50.7652 4.81401 49.5082 4.64598 48.3174C2.7141 49.5523 3.41417 50.7431 4.22612 52.0662L4.114 52.0221Z" fill="#989EA8"/>
</svg>
