<svg width="226" height="226" viewBox="0 0 226 226" fill="none" xmlns="http://www.w3.org/2000/svg">
<circle cx="113" cy="113" r="62.8044" stroke="#D0D3DB"/>
<path d="M111.783 1C116.246 2.62319 125.417 8.06087 126.391 16.8261C127.609 27.7826 111.783 41.1739 119.087 50.9131" stroke="#D0D3DB" stroke-linecap="round"/>
<path d="M111.783 1C115.029 2.21739 121.035 6.35652 119.087 13.1739C116.652 21.6957 110.565 33.8696 108.131 37.5218C105.696 41.1739 103.261 46.0435 105.696 50.9131" stroke="#D0D3DB" stroke-linecap="round"/>
<path d="M113.789 225C109.325 223.377 100.154 217.939 99.1798 209.174C97.9625 198.217 113.789 184.826 106.484 175.087" stroke="#D0D3DB" stroke-linecap="round"/>
<path d="M113.788 225C110.542 223.783 104.536 219.643 106.484 212.826C108.919 204.304 115.006 192.13 117.441 188.478C119.875 184.826 122.31 179.957 119.875 175.087" stroke="#D0D3DB" stroke-linecap="round"/>
<path d="M225 110.356C223.377 114.82 217.939 123.991 209.174 124.965C198.218 126.183 184.826 110.356 175.087 117.661" stroke="#D0D3DB" stroke-linecap="round"/>
<path d="M225 110.356C223.783 113.603 219.644 119.608 212.826 117.661C204.304 115.226 192.13 109.139 188.478 106.704C184.826 104.269 179.957 101.834 175.087 104.269" stroke="#D0D3DB" stroke-linecap="round"/>
<path d="M192.681 193.206C188.315 195.077 177.907 197.388 171.198 191.664C162.813 184.508 165.188 163.913 153.197 161.81" stroke="#D0D3DB" stroke-linecap="round"/>
<path d="M192.681 193.207C189.481 194.541 182.269 195.633 179.024 189.329C174.967 181.449 171.075 168.406 170.351 164.077C169.627 159.748 168.07 154.531 162.962 152.646" stroke="#D0D3DB" stroke-linecap="round"/>
<path d="M1 113.789C2.62319 109.325 8.06087 100.154 16.8261 99.1804C27.7826 97.963 41.1739 113.789 50.9131 106.485" stroke="#D0D3DB" stroke-linecap="round"/>
<path d="M1 113.789C2.21739 110.543 6.35652 104.537 13.1739 106.485C21.6957 108.92 33.8696 115.007 37.5218 117.441C41.1739 119.876 46.0435 122.311 50.9131 119.876" stroke="#D0D3DB" stroke-linecap="round"/>
<path d="M30.7533 35.3018C35.0114 33.1973 45.2796 30.3269 52.2878 35.6806C61.0481 42.3728 59.7894 63.066 71.8764 64.5174" stroke="#D0D3DB" stroke-linecap="round"/>
<path d="M30.7534 35.3023C33.8768 33.7973 41.019 32.3171 44.6002 38.4365C49.0767 46.0856 53.6688 58.8984 54.6258 63.1822C55.5827 67.466 57.4196 72.5911 62.6218 74.1967" stroke="#D0D3DB" stroke-linecap="round"/>
<path d="M189.145 30.252C191.25 34.51 194.12 44.7783 188.766 51.7865C182.074 60.5467 161.381 59.288 159.93 71.3751" stroke="#D0D3DB" stroke-linecap="round"/>
<path d="M189.145 30.2509C190.65 33.3743 192.13 40.5165 186.011 44.0977C178.362 48.5742 165.549 53.1663 161.265 54.1232C156.982 55.0802 151.856 56.9171 150.251 62.1193" stroke="#D0D3DB" stroke-linecap="round"/>
<path d="M35.7506 194.017C33.7316 189.717 31.0665 179.394 36.559 172.494C43.4246 163.869 64.0885 165.54 65.7808 153.484" stroke="#D0D3DB" stroke-linecap="round"/>
<path d="M35.7506 194.017C34.3082 190.865 32.9708 183.694 39.1603 180.236C46.8972 175.913 59.7991 171.577 64.1011 170.706C68.4031 169.835 73.5639 168.1 75.2729 162.931" stroke="#D0D3DB" stroke-linecap="round"/>
<path d="M127.609 52.1302C128.826 50.1012 131.017 45.3128 130.044 42.391C128.826 38.7389 130.044 32.6519 132.478 30.2171C134.426 28.2693 136.536 26.9707 137.348 26.5649" stroke="#D0D3DB" stroke-linecap="round"/>
<path d="M137.348 26.5649C135.725 28.1881 133.209 33.1389 136.13 39.9563C139.783 48.478 143.435 49.6954 141 56.9997" stroke="#D0D3DB" stroke-linecap="round"/>
<path d="M97.9623 173.87C96.7449 175.899 94.5536 180.687 95.5275 183.609C96.7449 187.261 95.5275 193.348 93.0927 195.783C91.1449 197.731 89.0348 199.029 88.2232 199.435" stroke="#D0D3DB" stroke-linecap="round"/>
<path d="M88.2231 199.435C89.8463 197.812 92.3622 192.861 89.4405 186.044C85.7883 177.522 82.1361 176.305 84.5709 169" stroke="#D0D3DB" stroke-linecap="round"/>
<path d="M173.87 126.183C175.899 127.4 180.687 129.592 183.609 128.618C187.261 127.4 193.348 128.618 195.783 131.053C197.731 133 199.029 135.111 199.435 135.922" stroke="#D0D3DB" stroke-linecap="round"/>
<path d="M199.435 135.923C197.812 134.3 192.861 131.784 186.044 134.705C177.522 138.358 176.304 142.01 169 139.575" stroke="#D0D3DB" stroke-linecap="round"/>
<path d="M146.15 166.755C146.651 169.068 148.33 174.059 151.039 175.523C154.426 177.353 157.704 182.624 157.595 186.066C157.508 188.819 156.858 191.21 156.544 192.061" stroke="#D0D3DB" stroke-linecap="round"/>
<path d="M156.544 192.062C156.617 189.768 155.063 184.436 148.267 181.465C139.773 177.75 136.276 179.362 133.053 172.37" stroke="#D0D3DB" stroke-linecap="round"/>
<path d="M52.1305 97.9619C50.1015 96.7445 45.3131 94.5532 42.3913 95.5271C38.7392 96.7445 32.6522 95.5271 30.2174 93.0923C28.2696 91.1445 26.971 89.0344 26.5652 88.2228" stroke="#D0D3DB" stroke-linecap="round"/>
<path d="M26.5653 88.2227C28.1885 89.8458 33.1392 92.3618 39.9566 89.4401C48.4783 85.7879 49.6957 82.1357 57.0001 84.5705" stroke="#D0D3DB" stroke-linecap="round"/>
<path d="M81.3388 58.8069C80.8681 56.488 79.2542 51.4755 76.5638 49.9764C73.201 48.1025 69.992 42.7888 70.1459 39.3489C70.2691 36.597 70.9502 34.2148 71.2753 33.3676" stroke="#D0D3DB" stroke-linecap="round"/>
<path d="M71.2753 33.368C71.1727 35.6613 72.6566 41.0127 79.4131 44.0725C87.8589 47.8972 91.3757 46.3312 94.5077 53.3649" stroke="#D0D3DB" stroke-linecap="round"/>
<path d="M167.724 81.5553C170.043 81.0846 175.056 79.4706 176.555 76.7803C178.429 73.4174 183.742 70.2085 187.182 70.3624C189.934 70.4856 192.316 71.1667 193.164 71.4918" stroke="#D0D3DB" stroke-linecap="round"/>
<path d="M193.164 71.4916C190.87 71.389 185.519 72.8729 182.459 79.6295C178.634 88.0752 180.2 91.592 173.167 94.724" stroke="#D0D3DB" stroke-linecap="round"/>
<path d="M58.7828 146.345C56.455 146.769 51.4112 148.283 49.8588 150.943C47.9182 154.268 42.5415 157.37 39.1054 157.147C36.3565 156.969 33.9883 156.241 33.1478 155.899" stroke="#D0D3DB" stroke-linecap="round"/>
<path d="M33.1478 155.899C35.4385 156.047 40.8185 154.671 44.0124 147.976C48.0049 139.609 46.5093 136.061 53.6041 133.07" stroke="#D0D3DB" stroke-linecap="round"/>
<path d="M52.1305 125.174C49.2899 115.435 48.2348 94.4956 66.7392 88.6521C89.8696 81.3477 116.652 108.13 134.913 98.3912C149.522 90.5999 153.986 74.8547 154.391 67.9561" stroke="#ECECEC" stroke-linecap="round"/>
<path d="M59.4347 82.5649C58.2173 73.2316 59.4347 53.591 74.0434 49.6953C92.3043 44.8258 99.6087 63.0866 116.652 67.9562C130.287 71.8519 143.435 65.5215 148.304 61.8693" stroke="#ECECEC" stroke-linecap="round"/>
<path d="M110.565 175.087C121.116 171.841 141.73 160.722 139.783 142.217C137.348 119.087 105.696 133.696 84.9999 116.652C64.3043 99.6086 86.2173 52.1304 122.739 52.1304" stroke="#ECECEC" stroke-linecap="round"/>
<path d="M169 86.2168C164.536 87.4342 155.852 94.0081 156.826 110.565C158.043 131.26 164.13 127.608 172.652 149.521C181.174 171.434 156.826 177.521 145.87 173.869C134.913 170.217 111.783 145.869 89.8696 144.652C72.3392 143.678 61.4638 144.246 58.2174 144.652" stroke="#ECECEC" stroke-linecap="round"/>
<path d="M54.5652 134.912C59.029 138.159 72.3392 142.704 89.8696 134.912C111.783 125.173 106.913 109.347 132.478 110.564C152.93 111.538 157.232 140.999 156.826 155.608" stroke="#ECECEC" stroke-linecap="round"/>
</svg>
