<svg width="70" height="105" viewBox="0 0 70 105" fill="none" xmlns="http://www.w3.org/2000/svg">
<path d="M41.5219 83.9447C41.5345 83.9733 41.5378 84.005 41.5315 84.0356C41.5252 84.0662 41.5096 84.094 41.4868 84.1153C41.4868 84.1153 41.3312 84.271 41.045 84.527C40.6397 84.8767 40.2139 85.2019 39.7699 85.5009C38.9103 86.1098 37.938 86.5414 36.9097 86.7707C35.8815 87 34.818 87.0222 33.781 86.8362C31.7697 86.4094 29.984 85.2612 28.761 83.6083C28.7368 83.5756 28.7264 83.5346 28.732 83.4942C28.7376 83.4539 28.7589 83.4173 28.7911 83.3925C28.8172 83.3729 28.8489 83.3623 28.8815 83.3623C28.9141 83.3623 28.9458 83.3729 28.9719 83.3925L29.0974 83.4828C29.1827 83.5431 29.2982 83.6334 29.4538 83.7388C31.0458 84.907 32.9398 85.5935 34.9105 85.7167C37.0892 85.8021 38.8362 85.0039 40.7539 84.1103L41.306 83.8643C41.3251 83.8535 41.3464 83.8471 41.3682 83.8453C41.3901 83.8436 41.4121 83.8467 41.4327 83.8543C41.4532 83.862 41.4719 83.874 41.4873 83.8896C41.5027 83.9052 41.5145 83.924 41.5219 83.9447ZM67.0638 56.6458C67.1848 56.0477 67.2437 55.4388 67.2395 54.8286V54.3567C67.3231 53.4096 66.7994 52.9962 65.6682 53.1167C65.6682 53.6187 64.9001 53.5886 64.9303 53.1167C65.0156 51.7563 66.5618 51.5555 67.3298 52.5696C68.364 53.94 67.9724 57.3787 66.9081 58.5936C66.9039 58.5988 66.8986 58.603 66.8925 58.6059C66.8864 58.6088 66.8797 58.6103 66.873 58.6103C66.8663 58.6103 66.8596 58.6088 66.8535 58.6059C66.8475 58.603 66.8421 58.5988 66.8379 58.5936C66.6923 57.8958 66.9333 57.3285 67.0638 56.6458ZM40.046 7.55505C40.0507 7.51902 40.0677 7.48573 40.0943 7.46097C40.1209 7.43622 40.1553 7.42155 40.1916 7.4195C43.0625 7.27439 45.9373 7.61381 48.6955 8.4235C51.2308 9.17237 53.5022 10.6239 55.2466 12.6102C56.9233 14.6182 58.2336 17.836 57.4755 20.4866C57.4703 20.5058 57.4613 20.5237 57.4492 20.5394C57.437 20.555 57.4218 20.5681 57.4046 20.5779C57.3873 20.5877 57.3683 20.594 57.3486 20.5965C57.3289 20.5989 57.3089 20.5974 57.2898 20.592C57.2607 20.5834 57.2347 20.5665 57.215 20.5433C57.1954 20.5201 57.183 20.4917 57.1794 20.4615C57.0938 19.741 56.9546 19.0278 56.7627 18.328C56.1365 15.9427 54.826 13.7928 52.9927 12.1433C49.4786 9.04097 44.6795 8.26286 40.1765 7.7458C40.1546 7.74369 40.1334 7.73678 40.1144 7.72558C40.0954 7.71437 40.0791 7.69913 40.0667 7.68093C40.0542 7.66274 40.0459 7.64204 40.0424 7.62028C40.0388 7.59853 40.04 7.57627 40.046 7.55505ZM30.1968 56.2492C30.252 57.2532 28.6104 57.6699 27.8273 57.9309C26.3211 58.4203 24.7417 58.6462 23.1587 58.5986C20.5031 58.5283 16.6327 57.9359 15.5634 55.0846C15.5293 54.9727 15.5383 54.8521 15.5888 54.7467C15.6393 54.6412 15.7276 54.5585 15.8361 54.515C15.9446 54.4715 16.0655 54.4702 16.1749 54.5116C16.2843 54.5529 16.3742 54.6338 16.4268 54.7382C17.3857 56.8616 20.7692 57.3285 22.8123 57.444C25.0663 57.5745 28.0984 57.3386 30.0863 56.189C30.1215 56.184 30.1917 56.199 30.1917 56.2542L30.1968 56.2492ZM46.2608 79.2108H46.2307H46.07C44.919 79.704 43.6503 79.8556 42.4155 79.6475C41.0149 79.3514 39.9557 78.2771 38.5802 78.0261C37.9071 77.9152 37.217 78.0622 36.6475 78.4377C36.5119 78.523 35.1716 79.7028 35.3071 79.8232L35.0561 79.5722C34.4688 78.9748 33.9065 78.2469 33.0481 78.0361C32.3595 77.9133 31.6495 78.034 31.0401 78.3775C30.4126 78.6887 29.8403 79.1003 29.1978 79.3815C27.868 79.911 26.386 79.911 25.0563 79.3815L24.5894 79.2158H24.484C24.4659 79.2211 24.4488 79.2296 24.4338 79.2409L24.3936 79.2861C24.3936 79.2861 24.3936 79.3162 24.3936 79.3313C24.3912 79.3462 24.3912 79.3615 24.3936 79.3764C24.391 79.388 24.391 79.4 24.3936 79.4116C27.5612 81.284 30.9196 82.5039 34.6194 82.6244C38.3652 82.725 42.0653 81.783 45.307 79.9035L46.1554 79.4015C46.1578 79.3933 46.1578 79.3846 46.1554 79.3764C46.1582 79.3649 46.1582 79.3528 46.1554 79.3413C46.1725 79.351 46.1923 79.3546 46.2117 79.3514C46.2311 79.3481 46.2488 79.3383 46.2618 79.3236C46.2747 79.3088 46.2822 79.29 46.283 79.2704C46.2837 79.2508 46.2777 79.2315 46.2658 79.2158L46.2608 79.2108ZM42.8472 80.6114C37.9969 82.4574 32.6375 82.4574 27.7871 80.6114C27.4056 80.4608 27.0542 80.3102 26.7329 80.1646C26.8584 80.1646 26.9839 80.1646 27.1145 80.1646C27.4513 80.1667 27.7875 80.1365 28.1185 80.0742C29.514 79.8182 30.759 78.9046 32.1797 78.8092C33.3744 78.7289 34.1124 79.4016 35.0561 79.9839L35.1716 80.0592C35.1962 80.0773 35.2264 80.0862 35.2569 80.0843C35.2795 80.0879 35.3027 80.0862 35.3245 80.0792C35.3463 80.0722 35.3661 80.0602 35.3824 80.0441L35.4778 79.9487C35.5622 79.8606 35.651 79.7768 35.7439 79.6977C36.0848 79.382 36.4873 79.14 36.9262 78.9871C37.365 78.8342 37.8307 78.7736 38.294 78.8092C39.1016 78.9219 39.8892 79.1484 40.6334 79.4819C41.5239 79.8889 42.4861 80.1159 43.4647 80.1495C43.5952 80.1495 43.7207 80.1495 43.8462 80.1495C43.5851 80.3152 43.2337 80.4658 42.8522 80.6365L42.8472 80.6114ZM5.31754 53.1167C5.34766 53.5886 4.58462 53.6187 4.5796 53.1167C3.44507 52.9962 2.92132 53.4096 3.00833 54.3567V54.8286C3.0041 55.4388 3.06298 56.0477 3.18403 56.6458C3.31455 57.3285 3.55551 57.8958 3.43503 58.5886C3.4308 58.5938 3.42545 58.598 3.41937 58.6009C3.41329 58.6038 3.40663 58.6053 3.39989 58.6053C3.39316 58.6053 3.3865 58.6038 3.38042 58.6009C3.37434 58.598 3.36899 58.5938 3.36475 58.5886C2.30553 57.3587 1.90895 53.9199 2.94307 52.5645C3.68604 51.5555 5.2322 51.7563 5.31754 53.1167ZM31.0602 69.6426C33.7643 69.9714 36.496 70.0067 39.2077 69.748C40.0661 69.6728 41.1856 69.6477 41.1755 68.4981C41.1755 67.6748 40.6233 66.731 40.3974 65.9328C40.3912 65.9137 40.3889 65.8936 40.3907 65.8736C40.3924 65.8535 40.3981 65.8341 40.4074 65.8163C40.4168 65.7985 40.4296 65.7828 40.4451 65.7701C40.4607 65.7573 40.4786 65.7478 40.4978 65.7421C40.5291 65.7345 40.5618 65.7361 40.5921 65.7468C40.6224 65.7575 40.649 65.7768 40.6685 65.8023C40.6685 65.8023 40.8492 66.0684 41.1705 66.5403C41.798 67.5443 42.5811 68.5181 42.0289 69.748C41.1253 71.7561 37.4105 71.48 35.6334 71.48C34.9959 71.48 34.3433 71.48 33.7057 71.4448C33.0718 71.4078 32.4411 71.3273 31.8182 71.2039C30.7138 70.9629 29.5743 70.7019 29.1727 69.492C28.7209 68.1316 29.8805 66.8716 30.5682 65.8023C30.5907 65.769 30.6253 65.7457 30.6646 65.7373C30.7039 65.7289 30.7449 65.736 30.7791 65.7571C30.807 65.7759 30.8283 65.803 30.84 65.8345C30.8517 65.866 30.8532 65.9004 30.8443 65.9328C30.5085 66.7784 30.2481 67.6519 30.0662 68.5432C30.0206 68.7379 30.0311 68.9416 30.0964 69.1306C30.1425 69.2231 30.2066 69.3054 30.2851 69.3726C30.3636 69.4399 30.4547 69.4907 30.5532 69.5221C30.7175 69.5801 30.8874 69.6205 31.0602 69.6426ZM63.5196 63.7592C64.4483 62.2532 65.0256 60.5965 64.4634 58.8195C64.3881 58.5835 64.5939 58.5534 64.7646 58.6187C65.1612 58.7693 65.3369 59.4018 65.3821 59.7783C65.5583 60.8811 65.3377 62.0106 64.7596 62.966C64.5564 63.2784 64.3263 63.5723 64.0718 63.8445C63.8811 64.0453 63.5698 64.3465 63.7706 64.6527C63.9714 64.9589 64.0367 64.6025 64.2425 64.708C64.2527 64.9294 64.1892 65.148 64.0621 65.3296C63.9349 65.5112 63.7513 65.6457 63.5397 65.712C63.5028 65.7223 63.4639 65.7226 63.4268 65.7129C63.3898 65.7032 63.356 65.6838 63.3289 65.6567C62.8319 65.0744 63.1933 64.2913 63.5196 63.7592ZM56.08 22.329C56.1684 22.7249 56.2188 23.1283 56.2306 23.5338C56.2292 23.5685 56.2161 23.6019 56.1936 23.6284C56.171 23.6549 56.1402 23.673 56.1061 23.68C56.072 23.6869 56.0365 23.6822 56.0054 23.6666C55.9743 23.651 55.9493 23.6255 55.9344 23.594L55.8189 23.3229C54.1975 19.4826 50.3421 16.8471 46.4566 15.7176C42.4958 14.563 38.2388 14.6383 34.1676 14.9997L33.0029 15.1001C32.9638 15.1029 32.9251 15.0903 32.8951 15.065C32.8651 15.0397 32.8461 15.0037 32.8423 14.9646C32.8378 14.9282 32.8471 14.8914 32.8686 14.8617C32.89 14.8319 32.9218 14.8113 32.9578 14.8039L34.1023 14.5529C38.1936 13.6644 42.8572 13.4536 46.9385 14.5529C50.4977 15.4766 55.1814 18.3581 56.08 22.329ZM64.7746 32.5146C64.8098 32.9814 64.7746 33.3077 64.6843 33.3178C64.6472 33.3207 64.6105 33.3093 64.5815 33.286C64.5526 33.2626 64.5337 33.2291 64.5287 33.1923L64.3931 32.5698C64.3479 32.374 64.3128 32.128 64.2475 31.8569C64.1823 31.5859 64.112 31.2746 64.0317 30.9383C63.7457 29.6244 63.3321 28.3415 62.7968 27.108C62.3303 25.9868 61.5536 25.022 60.5578 24.3269C59.9771 23.962 59.3183 23.7395 58.6352 23.6776C57.9521 23.6156 57.2641 23.716 56.6271 23.9705C56.5939 23.9832 56.5572 23.9837 56.5236 23.972C56.49 23.9602 56.4616 23.9369 56.4436 23.9062C56.4255 23.8755 56.4189 23.8394 56.425 23.8043C56.431 23.7692 56.4493 23.7374 56.4765 23.7145L56.5067 23.6844L56.6121 23.594C56.7394 23.4837 56.8773 23.3862 57.0237 23.3028C59.0317 22.1332 61.3409 23.2225 62.5959 25.0046C63.4561 26.3003 64.0389 27.7599 64.3078 29.2917C64.373 29.5779 64.7094 31.4403 64.7847 32.5146H64.7746ZM19.966 16.1242C19.9768 16.1586 19.9757 16.1956 19.963 16.2292C19.9502 16.2629 19.9265 16.2913 19.8957 16.3099C19.8957 16.3099 19.5192 16.5459 18.8515 16.9475C11.2462 21.5659 6.66291 29.352 5.29746 38.0316C5.2573 38.2976 5.21714 38.5637 5.19706 38.8298C5.19206 38.8697 5.17227 38.9063 5.1416 38.9323C5.11092 38.9583 5.0716 38.9719 5.0314 38.9703C4.99766 38.9663 4.96614 38.9514 4.94167 38.9279C4.9172 38.9043 4.90111 38.8734 4.89586 38.8398C4.178 34.6029 5.75428 29.5929 7.85265 25.9634C10.2321 21.8671 14.1176 18.1925 18.5955 16.4957L19.7501 16.0439C19.7692 16.0331 19.7904 16.0266 19.8123 16.0249C19.8342 16.0231 19.8561 16.0262 19.8767 16.0339C19.8973 16.0415 19.9159 16.0536 19.9313 16.0692C19.9467 16.0848 19.9586 16.1036 19.966 16.1242ZM66.6521 26.7365C66.6521 27.1482 66.6521 27.3841 66.6521 27.3841C66.6528 27.4043 66.6494 27.4244 66.6421 27.4433C66.6349 27.4621 66.6239 27.4794 66.6098 27.4939C66.5958 27.5084 66.5789 27.5199 66.5603 27.5278C66.5417 27.5357 66.5217 27.5398 66.5015 27.5397C66.4645 27.5412 66.4284 27.5285 66.4004 27.5043C66.3724 27.48 66.3547 27.446 66.3509 27.4092C65.9945 25.1402 65.6983 22.7557 64.5387 20.7326C64.2269 20.089 63.7093 19.5679 63.0678 19.2517C62.6761 19.1265 62.2629 19.0828 61.8537 19.1234C61.4444 19.164 61.0478 19.2879 60.6883 19.4876C60.3319 19.6633 58.2687 21.1041 58.2687 20.6071C58.382 20.4114 58.5131 20.2266 58.6603 20.0549C59.6241 18.8752 61.361 17.816 62.9273 18.2075C63.8153 18.4847 64.5697 19.08 65.0457 19.8792C66.3258 21.827 66.5768 24.4574 66.6521 26.7365ZM69.5637 53.0716C69.373 51.686 68.9011 50.0294 67.7314 49.166H67.6862C67.2746 48.9351 68.5196 44.3267 68.5949 43.7343C68.9312 41.0486 69.2023 38.3478 69.3228 35.637C69.5688 30.2706 69.2374 24.8289 67.7515 19.6382C67.2043 17.7457 66.4814 15.8481 65.1813 14.3722C64.4263 13.4428 63.4141 12.7567 62.2712 12.3995C61.1283 12.0423 59.9055 12.0301 58.7556 12.3642L58.6201 12.4094C58.5795 12.1542 58.5259 11.9011 58.4594 11.6514C56.9534 5.65245 49.4837 2.49989 44.1022 1.16959C31.5522 -1.9378 17.2049 1.09428 8.31951 10.8934C3.83664 15.8782 1.72823 22.4043 1.22121 28.9604C0.98682 32.5172 1.05399 36.0875 1.42201 39.633C1.58767 41.4552 1.79851 43.2725 2.02441 45.0847C2.07461 45.4863 2.77741 48.9752 2.52641 49.176C0.975225 50.3206 0.618804 52.921 0.603744 54.7332C0.645807 57.2374 1.28609 59.6953 2.47119 61.9018C3.04849 63.0664 4.01736 65.3104 4.4792 66.5202C4.4792 66.5202 2.90793 71.3193 2.27039 74.0151C1.39189 77.7098 0.904945 81.4497 0.262383 85.1796C-0.00367806 86.7107 -0.239619 87.785 0.468204 89.1956C1.09705 90.3062 1.89281 91.3136 2.82761 92.1825C5.12176 94.5269 7.34563 96.8712 9.47412 99.3762C9.97612 99.9987 10.4028 100.496 10.6789 100.832L11.1056 101.334C11.1549 101.401 11.2286 101.445 11.3105 101.457C11.3924 101.469 11.4758 101.449 11.5424 101.399C11.6089 101.35 11.6532 101.276 11.6654 101.194C11.6777 101.112 11.6569 101.029 11.6076 100.963L11.206 100.42C10.945 100.064 10.5584 99.5519 10.0514 98.9143C8.0957 96.3589 5.96546 93.9418 3.67599 91.6805C1.46217 89.5269 0.935065 87.7749 1.22121 84.773C2.09842 75.6797 4.94181 66.8857 9.55444 59.0002C9.73516 58.689 10.0564 58.3325 10.3827 58.4982C10.5042 58.5702 10.5992 58.6793 10.6538 58.8094C11.019 59.6816 11.1738 60.6274 11.1056 61.5704C11.1056 63.7391 10.1418 67.223 10.1418 67.223C8.72613 68.5081 6.57757 69.3866 5.77436 71.3344C5.25754 72.7803 4.94168 74.2904 4.83562 75.8223L4.06756 82.5943C4.06756 82.8001 4.06756 83.0963 4.28342 83.0963C4.49928 83.0963 4.58964 82.8653 4.61976 82.6646C4.91092 80.9025 5.20208 79.1506 5.47316 77.3785C5.60368 76.5552 5.72918 75.6616 5.84966 74.7129C5.94031 73.7475 6.12869 72.7938 6.41191 71.8665C6.66964 70.9269 7.26716 70.1164 8.08859 69.5924C9.051 69.0197 9.97346 68.3824 10.8496 67.6848L12.1648 66.6808C12.5724 66.3371 12.9981 66.0154 13.4399 65.717C14.3504 65.2384 15.3166 64.8742 16.3164 64.6327C17.3204 64.3616 18.2792 64.1307 19.2029 63.9248C19.908 63.71 20.6459 63.6233 21.3816 63.6688C21.4574 63.6698 21.532 63.6879 21.5998 63.7218C21.6677 63.7557 21.7269 63.8045 21.7732 63.8646C21.8207 63.9839 21.8207 64.1168 21.7732 64.2361C21.4266 65.0009 20.842 65.6331 20.1065 66.0382C19.9609 66.1336 19.8304 66.2089 19.7049 66.2842L19.5192 66.3143C18.9418 66.42 18.3835 66.6112 17.8626 66.8816C16.9439 67.3836 15.96 67.8404 14.971 68.3425C12.8727 69.4117 10.3275 70.4258 9.50926 72.8605C8.45003 76.0231 8.45003 79.8634 8.00325 83.1565C7.97815 83.3423 7.97815 83.5732 8.13879 83.6585C8.39481 83.7941 8.61067 83.4176 8.64079 83.1565C8.91522 81.4631 9.19299 79.773 9.47412 78.0863C9.75524 76.3795 9.80544 74.1556 10.5986 72.6145C11.1859 71.4749 12.3205 71.1085 13.3345 70.4659C13.5654 70.3203 13.7863 70.1748 14.0072 70.0442C14.459 69.7732 14.9309 69.5422 15.4128 69.2812C16.3716 68.8043 17.3806 68.3525 18.3445 67.8304C19.2318 67.426 20.1957 67.2172 21.1708 67.218C22.6056 67.1263 24.0462 67.2038 25.4629 67.4489C25.6637 67.489 25.9046 67.5643 25.9649 67.7651C25.9714 67.839 25.9622 67.9134 25.938 67.9834C25.9137 68.0535 25.875 68.1177 25.8243 68.1718C25.2004 68.8837 24.3585 69.3691 23.4298 69.5523C23.1788 69.6225 22.9579 69.6627 22.7671 69.6979L21.974 69.497C21.4289 69.407 20.8701 69.4535 20.3475 69.6326C19.8824 69.7946 19.4363 70.0066 19.0172 70.2651C17.2451 71.3394 14.966 72.8354 14.1026 74.7831C13.445 76.264 13.465 77.9006 13.3646 79.4869C13.2743 80.8975 12.8626 82.2228 12.7472 83.6184C12.7398 83.6963 12.7631 83.774 12.812 83.835C12.8609 83.8961 12.9317 83.9357 13.0094 83.9455C13.087 83.9553 13.1654 83.9345 13.228 83.8875C13.2905 83.8405 13.3323 83.771 13.3445 83.6937C13.3445 83.6937 13.3797 83.4477 13.4801 82.9758C13.5805 82.5039 13.7211 81.8061 13.9018 80.9226C14.1739 79.6154 14.3783 78.2951 14.5142 76.9668C14.7401 74.7681 15.8997 73.9548 17.5262 72.6496C18.1768 72.1237 18.861 71.6407 19.5744 71.2039C19.9255 70.998 20.2974 70.8297 20.6838 70.7019C21.038 70.5858 21.4143 70.5532 21.7832 70.6065C22.6617 70.7621 23.5954 70.9629 24.5141 71.1888C25.1998 71.3166 25.8721 71.5082 26.5221 71.7611C27.2349 72.1075 27.3755 72.8303 26.7731 73.2972C26.0904 73.8293 25.0462 73.3424 24.2631 73.2972C23.3545 73.2358 22.4453 73.4087 21.6226 73.7992C20.8289 74.1787 20.1361 74.7402 19.6005 75.4381C19.0649 76.136 18.7016 76.9504 18.5403 77.8152C18.1485 79.5563 17.9598 81.3369 17.978 83.1214C18.0034 83.4063 18.0606 83.6875 18.1487 83.9597C19.4087 87.5189 22.0493 90.7468 24.1024 93.8793C26.2611 97.1674 28.3444 100.586 29.3935 104.421C29.4839 104.758 29.8403 105.174 30.0713 104.923C30.1091 104.851 30.1288 104.771 30.1288 104.69C30.1288 104.609 30.1091 104.528 30.0713 104.456C29.5626 102.534 28.8908 100.658 28.0632 98.8491C27.4416 97.5669 26.7494 96.32 25.99 95.1142L24.8203 93.2518C27.3604 95.2046 30.2118 96.7658 33.3895 97.2327C38.2991 97.9656 42.7468 95.4455 46.4114 92.4285C53.3089 86.7559 58.9615 78.8745 61.2707 70.1948C62.0036 67.4389 62.5859 64.6427 63.113 61.8415C63.615 59.1508 64.2827 56.4048 64.2325 53.6539C64.1604 52.7527 64.305 51.8473 64.6542 51.0133C64.8361 50.5998 65.1395 50.2516 65.5243 50.0148C65.909 49.7781 66.3567 49.6641 66.8077 49.688C67.1288 49.753 67.431 49.8897 67.6918 50.0879C67.9526 50.2861 68.1652 50.5407 68.3138 50.8326C68.6003 51.4225 68.7626 52.065 68.7906 52.7202C68.996 55.7749 68.4586 58.8339 67.2244 61.6357C66.8328 62.4992 66.376 63.3224 65.9292 64.1457C65.4247 64.924 65.031 65.7688 64.7596 66.6557C64.5186 67.5945 64.4132 68.5633 64.0969 69.482C63.9504 70.0168 63.6265 70.4859 63.1783 70.8123C63.0337 70.9022 62.8719 70.9607 62.7032 70.9841C62.5346 71.0074 62.3629 70.9951 62.1994 70.9478C62.119 70.9227 61.2757 70.2752 61.4263 70.727L61.4564 70.8123C61.4807 70.9041 61.5179 70.992 61.5668 71.0733C61.6497 71.2263 61.7604 71.3625 61.8932 71.4749C63.0076 72.4187 64.5638 71.239 65.0758 70.1898C65.5327 69.2711 65.3921 68.3425 65.4825 67.3736C65.666 66.3603 66.0172 65.3848 66.5216 64.4871C68.0778 61.1688 69.7043 58.1317 69.634 54.4972C69.6348 54.0057 69.6063 53.5145 69.5487 53.0264L69.5637 53.0716ZM6.3115 63.1116C5.93465 62.4797 5.69162 61.7771 5.5975 61.0474C5.50337 60.3177 5.56015 59.5765 5.76432 58.8697C5.83962 58.6337 5.6338 58.6036 5.46312 58.6689C5.06654 58.8195 4.89084 59.452 4.84566 59.8285C4.66942 60.9312 4.88999 62.0608 5.46814 63.0162C5.63522 63.2757 5.82148 63.5224 6.02536 63.7541C5.85468 64.1557 5.67898 64.5674 5.52336 64.9841L5.22216 65.7371C4.68502 64.5072 3.81154 63.3927 3.26435 62.1778C2.5564 60.5733 2.05052 58.8871 1.75835 57.1578C1.46016 55.797 1.34369 54.4027 1.41197 53.0113C1.50735 51.9119 1.85875 50.3457 2.97821 49.8286C3.28824 49.7033 3.62606 49.6628 3.95692 49.7113C4.28778 49.7599 4.59974 49.8956 4.86072 50.1047C5.40884 50.6135 5.77701 51.2864 5.9099 52.0224C5.97014 52.2382 5.99524 52.3487 5.99524 52.3537C5.99524 52.3587 5.99524 52.5746 5.99524 52.9962C5.99524 53.4179 5.99524 54.0354 6.02536 54.8235C6.07584 55.7724 6.17975 56.7176 6.3366 57.6548C6.52235 58.7442 6.80347 59.944 7.06953 61.2441C7.07198 61.2692 7.07198 61.2944 7.06953 61.3194C6.82187 61.8884 6.56753 62.4707 6.30649 63.0664L6.3115 63.1116ZM60.2566 69.979C57.852 79.5622 50.824 88.051 42.7217 93.5128C40.5631 94.9686 38.1736 96.2738 35.5732 96.3993C32.0592 96.57 28.8263 94.5771 26.0352 92.4285C24.7601 91.4446 23.5218 90.4054 22.3203 89.3111C21.6828 88.3071 21.0302 87.3031 20.3776 86.2187C19.3184 84.4818 18.8415 83.3121 18.972 81.2891C19.1326 78.7791 19.233 76.1184 21.5673 74.7329C22.1683 74.3322 22.8572 74.0825 23.5753 74.005C24.6747 73.9498 25.7992 74.5874 26.8283 74.2109C27.2306 74.0517 27.5635 73.755 27.7675 73.3735C27.9716 72.992 28.0337 72.5505 27.9428 72.1275C27.6265 70.8625 25.8846 70.5713 24.8103 70.245C24.6496 70.1898 24.484 70.1446 24.3083 70.0995C24.6547 69.9992 24.9909 69.8664 25.3123 69.7029C26.0703 69.3163 27.0743 68.5181 26.8584 67.5493C26.7576 67.2578 26.5781 66.9999 26.3398 66.8041C26.1014 66.6083 25.8136 66.4822 25.5081 66.4398C24.7751 66.2792 21.7983 65.727 21.2109 66.1788C21.4646 65.9869 21.6999 65.7718 21.9137 65.5362C22.7069 64.6628 23.0081 63.3626 21.6025 62.8907C20.9208 62.7175 20.2032 62.7489 19.5393 62.9811C18.3846 63.2873 17.225 63.4831 16.0654 63.7843C14.9861 64.0484 13.9451 64.4499 12.968 64.979C12.4893 65.2873 12.0284 65.6225 11.5875 65.983L11.1709 66.3093C11.2863 65.9881 11.4169 65.6166 11.5373 65.1848C12.1096 63.1768 12.4209 60.8676 11.6729 58.8496C11.5329 58.3522 11.2263 57.918 10.8044 57.6197C9.5946 56.9119 8.54541 58.3627 8.08859 59.2813C7.97815 59.4922 7.87775 59.698 7.77735 59.9038C7.68699 59.5624 7.59161 59.2261 7.50125 58.8998C7.54487 58.8301 7.57073 58.7508 7.57655 58.6689V58.4028C7.57655 58.2271 7.60667 57.9661 7.63177 57.6297C8.09361 50.9933 10.0765 43.9652 13.7311 38.3528C18.0834 31.6712 25.488 29.6582 32.9778 29.2465C33.6806 29.2114 34.4537 29.2214 35.1565 29.2064C40.4828 29.0909 46.7026 29.9644 51.2607 32.9714C53.3899 34.3602 55.2112 36.1714 56.6121 38.2926C57.8569 40.2504 58.8853 42.3375 59.6793 44.5174C61.3265 48.6956 62.3499 53.0934 62.7164 57.5695C62.7666 58.2522 62.7817 58.6086 62.7817 58.6086C62.7881 58.6599 62.7998 58.7104 62.8168 58.7592C61.8982 62.469 61.1803 66.224 60.2516 69.9288L60.2566 69.979ZM63.8811 52.0324C63.8531 53.225 63.7424 54.4143 63.5498 55.5916C63.5247 55.2703 63.4945 54.9239 63.4594 54.5575C62.6562 46.3397 59.2727 36.5557 52.1895 31.6813C47.2899 28.3078 41.0049 27.364 35.1766 27.4494C29.1526 27.5347 22.9629 28.5437 17.9328 32.0377C14.1578 34.6682 11.5373 38.6139 9.78034 42.8106C8.89668 44.947 8.1931 47.1534 7.67695 49.4069C7.21009 51.3848 6.41191 53.8798 6.80849 55.9329C6.69303 55.3305 6.59263 54.7281 6.52235 54.1207C5.15188 42.3136 12.3556 29.7837 23.6456 25.6974C29.4438 23.599 35.6636 22.8862 41.803 22.8912C46.0299 22.8912 52.6212 23.2426 54.9655 27.4996C55.0526 27.6621 55.1297 27.8297 55.1964 28.0016C55.2366 28.1221 55.2517 28.1723 55.2517 28.1773C55.2603 28.2096 55.2791 28.2383 55.3053 28.2591C55.3316 28.2799 55.3638 28.2917 55.3972 28.2927H55.4374L55.7386 28.2576C56.0159 28.2336 56.2947 28.2336 56.5719 28.2576C59.1422 28.4032 60.5026 31.5558 61.2255 33.624C62.2847 36.6661 62.7315 39.8789 63.1783 43.0717C63.6543 46.0177 63.8877 48.9979 63.8761 51.9822L63.8811 52.0324ZM67.0838 48.92C66.5739 48.7905 66.0355 48.8318 65.5513 49.0377C65.0671 49.2435 64.6638 49.6025 64.4032 50.0596C64.6943 49.5575 64.4333 48.674 64.4032 48.1268C64.3479 47.163 64.3379 46.1991 64.2777 45.2403C64.0066 40.7474 63.5498 36.1541 61.7677 31.9824C61.3225 30.8164 60.6385 29.7563 59.7596 28.87C58.7105 27.9062 57.084 27.3038 55.6984 27.866L55.5428 27.9213C55.5405 27.9063 55.5405 27.891 55.5428 27.8761C55.4843 27.6838 55.4121 27.4959 55.327 27.3138C54.9979 26.6334 54.549 26.0179 54.0017 25.4966C53.6161 25.1249 53.1978 24.7889 52.7517 24.4926C52.2289 24.1418 51.6782 23.8346 51.1051 23.5739C49.7348 22.9609 48.2978 22.5094 46.8231 22.2286C40.4125 20.9635 33.0431 21.5659 26.743 23.1773C21.6677 24.4825 16.7833 26.9022 13.1889 30.7074C8.92191 35.2003 6.57757 41.5004 6.1609 47.6349C6.12576 48.2072 6.08058 48.7292 6.07054 49.2011C6.0605 49.673 6.07054 49.9692 6.04042 50.2955C6.04042 49.9441 5.433 49.4371 5.17196 49.2614C4.88554 49.0796 4.56581 48.9567 4.2314 48.8998C3.89699 48.8429 3.55459 48.8532 3.22419 48.93H3.14889C3.39989 48.8196 2.46617 40.9783 2.39589 40.2805C2.11566 36.978 2.07372 33.6595 2.27039 30.3509C2.64689 24.9795 3.98222 19.573 6.91893 15.06C12.0845 7.11328 21.3816 2.65048 30.5984 1.63142C35.8398 1.05086 41.1444 1.52364 46.2006 3.02197C50.1413 4.19666 54.6543 6.22474 56.9334 9.84418C57.4688 10.6853 57.8338 11.6234 58.0077 12.6052L58.0579 12.8662V12.8913C58.0725 12.9665 58.1157 13.0331 58.1785 13.0771C58.2412 13.1211 58.3185 13.1391 58.3942 13.1273H58.4243L58.8761 13.0218C64.2325 11.807 66.2706 18.1021 67.1692 22.1031C67.7517 24.892 68.0777 27.7285 68.1431 30.5768C68.2669 33.8116 68.22 37.0507 68.0025 40.2805C67.9674 40.7825 67.4051 45.3006 67.1541 47.5646C67.1067 47.9981 67.0815 48.4337 67.0788 48.8698L67.0838 48.92ZM55.4976 55.1549C54.4234 57.9912 50.5579 58.5835 47.9024 58.6689C46.321 58.7165 44.7433 58.4906 43.2388 58.0012C42.4556 57.7402 40.8091 57.3436 40.8643 56.3195C40.8643 56.2643 40.9346 56.2492 40.9747 56.2743C42.9827 57.4239 45.9947 57.6598 48.2487 57.5293C50.2919 57.4138 53.6754 56.947 54.6342 54.8235C54.6901 54.7368 54.7732 54.671 54.8705 54.6365C54.9678 54.6019 55.0738 54.6007 55.1719 54.6328C55.27 54.6649 55.3547 54.7286 55.4127 54.814C55.4708 54.8994 55.4989 55.0016 55.4926 55.1047L55.4976 55.1549Z" fill="#787F8B"/>
<path d="M8.78508 58.4834C8.53408 57.4794 8.38349 54.6682 9.7891 54.4674C11.5461 54.2164 14.0561 56.4754 14.5581 58.4834C15.0601 60.4914 16.0641 61.9974 17.5701 61.7464C19.0761 61.4954 23.0921 59.2364 26.3551 60.9934C29.6182 62.7504 28.8652 65.2604 28.6142 66.7664C28.3631 68.2724 27.1081 71.0334 28.6142 72.2884C30.1202 73.5434 29.3672 76.5554 27.8611 76.8064C26.3551 77.0574 22.3391 76.3044 21.8371 74.2964" stroke="#787F8B" stroke-width="0.5" stroke-linecap="round"/>
<path d="M49.4472 62.7502C53.4632 60.1398 56.1405 60.8259 56.9772 61.4952C59.4872 62.4994 56.9772 65.7621 54.4671 67.7701C51.9571 69.7781 55.2201 72.2882 53.2121 75.0492C51.2041 77.8102 49.4472 79.0652 46.1841 75.8022C42.9211 72.5392 45.9331 73.2922 46.1841 69.7781C46.4351 66.2641 44.4271 66.0133 49.4472 62.7502Z" stroke="#787F8B" stroke-width="0.5" stroke-linecap="round"/>
<path d="M18.0722 46.4351C13.5542 42.6701 16.3152 41.9171 18.3232 39.9091C22.0882 34.136 21.8372 42.6701 25.8532 40.6621C29.8692 38.6541 26.1042 33.6341 36.3953 33.8851C46.6863 34.1361 48.9453 35.1401 52.7103 39.6581C56.4753 44.1761 51.7063 49.1961 48.9453 50.7021C46.1843 52.2081 42.4193 47.6901 40.6623 47.6901C38.9053 47.6901 33.8853 44.9291 28.1122 47.6901C22.3392 50.4511 22.5902 50.2001 18.0722 46.4351Z" stroke="#787F8B" stroke-width="0.5" stroke-linecap="round"/>
</svg>
