<svg width="40" height="50" viewBox="0 0 40 50" fill="none" xmlns="http://www.w3.org/2000/svg">
<path fill-rule="evenodd" clip-rule="evenodd" d="M28.5156 38.2148C30.8183 38.2148 32.6853 40.0818 32.6853 42.3846C32.6853 44.6869 30.8183 46.5539 28.5156 46.5539C26.2132 46.5539 24.3461 44.6869 24.3461 42.3846C24.3461 42.1136 24.3724 41.8481 24.4219 41.5917L19.9753 40.0372C19.2674 41.3316 17.8936 42.2094 16.3145 42.2094C15.056 42.2094 13.9273 41.6516 13.1628 40.7693L7.95585 44.083C8.20183 44.6145 8.33914 45.2063 8.33914 45.8306C8.33914 48.133 6.47211 50 4.16937 50C1.86699 50 0 48.133 0 45.8306C0 43.5278 1.86699 41.6608 4.16937 41.6608C5.37961 41.6608 6.46922 42.1769 7.23084 43.0005L12.4736 39.6644C12.2622 39.1653 12.1452 38.6164 12.1452 38.04C12.1452 36.5721 12.9043 35.281 14.0505 34.5381L11.898 29.8669C11.6587 29.923 11.4089 29.953 11.1526 29.953C9.36007 29.953 7.90672 28.4997 7.90672 26.7072C7.90672 24.9142 9.36007 23.4609 11.1526 23.4609C12.9455 23.4609 14.3989 24.9142 14.3989 26.7072C14.3989 27.7784 13.8799 28.7286 13.0795 29.3196L15.2404 34.01C15.5829 33.9189 15.9429 33.8702 16.3145 33.8702C18.6173 33.8702 20.4843 35.7372 20.4843 38.04C20.4843 38.3034 20.4598 38.561 20.4132 38.8108L24.866 40.3673C25.5769 39.0838 26.9448 38.2148 28.5156 38.2148ZM16.315 35.1782C17.8952 35.1782 19.1763 36.4593 19.1763 38.04C19.1763 39.6203 17.8952 40.9013 16.315 40.9013C14.7343 40.9013 13.4533 39.6203 13.4533 38.04C13.4533 36.4593 14.7343 35.1782 16.315 35.1782ZM4.16937 42.9689C5.75004 42.9689 7.03108 44.2499 7.03108 45.8306C7.03108 47.4108 5.75004 48.6919 4.16937 48.6919C2.58911 48.6919 1.30808 47.4108 1.30808 45.8306C1.30808 44.2499 2.58911 42.9689 4.16937 42.9689ZM11.153 24.7344C12.2422 24.7344 13.1257 25.618 13.1257 26.7072C13.1257 27.7963 12.2422 28.6799 11.153 28.6799C10.0638 28.6799 9.18028 27.7963 9.18028 26.7072C9.18028 25.618 10.0638 24.7344 11.153 24.7344ZM28.516 39.5229C30.0962 39.5229 31.3773 40.8039 31.3773 42.3846C31.3773 43.9648 30.0962 45.2458 28.516 45.2458C26.9352 45.2458 25.6542 43.9648 25.6542 42.3846C25.6542 40.8039 26.9352 39.5229 28.516 39.5229Z" fill="#A4B49F"/>
<path fill-rule="evenodd" clip-rule="evenodd" d="M26.7673 18.246C27.0573 18.246 27.3383 18.2843 27.6059 18.3555L29.4267 14.5914C28.9485 14.1486 28.6488 13.5156 28.6488 12.8127C28.6488 11.4746 29.7339 10.3896 31.0715 10.3896C32.41 10.3896 33.4945 11.4746 33.4945 12.8127C33.4945 14.1507 32.41 15.2353 31.0715 15.2353C30.905 15.2353 30.7427 15.2187 30.5854 15.1866L28.7716 18.9369C29.5312 19.532 30.0194 20.458 30.0194 21.4981C30.0194 23.2939 28.5635 24.7498 26.7673 24.7498C24.9714 24.7498 23.5156 23.2939 23.5156 21.4981C23.5156 19.7019 24.9714 18.246 26.7673 18.246ZM31.0719 11.6856C31.6941 11.6856 32.1989 12.19 32.1989 12.8127C32.1989 13.4349 31.6941 13.9397 31.0719 13.9397C30.4493 13.9397 29.9449 13.4349 29.9449 12.8127C29.9449 12.19 30.4493 11.6856 31.0719 11.6856ZM26.7677 19.5541C27.8414 19.5541 28.7113 20.4243 28.7113 21.4981C28.7113 22.5719 27.8414 23.4417 26.7677 23.4417C25.6939 23.4417 24.8237 22.5719 24.8237 21.4981C24.8237 20.4243 25.6939 19.5541 26.7677 19.5541Z" fill="#A4B49F"/>
<path fill-rule="evenodd" clip-rule="evenodd" d="M28.6095 1.46815C29.3008 2.03866 32.9782 7.48528 33.4446 8.2341C34.9562 10.6587 36.3443 12.8465 37.5133 15.781C40.7061 23.7981 32.4269 30.8914 25.1662 28.0312C22.4582 26.9645 20.1954 24.5672 19.3327 21.7829C18.7779 19.9925 18.8111 18.0479 19.6519 15.8395C20.6309 13.269 22.3749 10.2803 23.719 8.28615C24.4109 7.25929 27.7307 2.27758 28.6095 1.46815ZM28.1543 0.0993524C27.2337 0.484259 22.1833 8.20938 21.3872 9.54055C20.1903 11.5438 18.9294 13.8036 18.1779 16.1037C15.9037 23.0639 21.5837 30.3264 29.157 29.9641C33.0367 29.7783 36.011 27.5486 37.4946 25.4289C39.5316 22.5175 40.2187 19.1896 38.7463 15.3162C37.6062 12.3173 35.7764 9.35321 34.1859 6.95229L30.1323 1.23409C29.7281 0.673155 29.15 -0.316668 28.1543 0.0993524Z" fill="#A4B49F"/>
<path fill-rule="evenodd" clip-rule="evenodd" d="M15.9048 8.92336C16.2976 9.38946 16.7409 10.017 17.1134 10.4075C17.8924 11.2248 18.8201 10.4559 18.1797 9.6042C17.8388 9.15055 17.5166 8.68564 17.1783 8.31982C16.795 7.90536 16.4109 7.51117 15.931 7.4937C15.4178 7.47497 14.9996 7.94945 14.6138 8.37474C12.661 10.5281 8.12917 17.2321 7.10028 18.7121C6.19973 20.0073 5.45761 21.2363 4.62772 22.645C2.15804 26.8365 -0.643268 31.8241 0.26859 37.0685C0.393881 37.7885 0.656487 38.9809 0.920351 39.566C1.27373 40.3497 2.53805 40.2639 2.0099 38.6987C0.167456 33.2379 2.67251 28.7722 5.30697 24.0763C7.25143 20.6094 10.6192 15.7792 13.0193 12.5737C13.483 11.9548 15.4599 9.25167 15.9048 8.92336Z" fill="#A4B49F"/>
<path fill-rule="evenodd" clip-rule="evenodd" d="M24.1509 47.6013C24.554 46.9352 23.7811 46.4521 23.1101 46.7661C22.6024 47.0038 22.1439 47.2953 21.5873 47.5261C20.4966 47.9776 19.2631 48.3275 18.0194 48.4945C16.436 48.7075 15.0882 48.6952 13.5202 48.458C11.6807 48.1794 10.3699 47.3125 10.0479 48.0726C9.30659 49.8214 15.9996 50.0103 17.239 49.9035C18.6061 49.7854 19.8825 49.5219 21.0973 49.1058C21.7838 48.8708 23.8788 48.05 24.1509 47.6013Z" fill="#A4B49F"/>
<path fill-rule="evenodd" clip-rule="evenodd" d="M31.6742 35.7027C31.8 34.8438 31.8063 33.4987 31.5586 32.6642C31.2571 31.6479 30.2959 31.5537 30.3649 32.8344C30.3957 33.4133 30.4568 34.2969 30.4452 34.6827C30.4406 35.0257 30.4031 35.3661 30.4031 35.6574C30.4036 36.6296 31.4777 37.045 31.6742 35.7027Z" fill="#A4B49F"/>
</svg>
