<svg width="40" height="50" viewBox="0 0 40 50" fill="none" xmlns="http://www.w3.org/2000/svg">
<path fill-rule="evenodd" clip-rule="evenodd" d="M28.5156 38.2148C30.8183 38.2148 32.6853 40.0818 32.6853 42.3846C32.6853 44.6869 30.8183 46.5539 28.5156 46.5539C26.2132 46.5539 24.3461 44.6869 24.3461 42.3846C24.3461 42.1136 24.3724 41.8481 24.4219 41.5917L19.9753 40.0372C19.2674 41.3316 17.8936 42.2094 16.3145 42.2094C15.056 42.2094 13.9273 41.6516 13.1628 40.7693L7.95585 44.083C8.20183 44.6145 8.33914 45.2063 8.33914 45.8306C8.33914 48.133 6.47211 50 4.16937 50C1.86699 50 0 48.133 0 45.8306C0 43.5278 1.86699 41.6608 4.16937 41.6608C5.37961 41.6608 6.46922 42.1769 7.23084 43.0005L12.4736 39.6644C12.2622 39.1653 12.1452 38.6164 12.1452 38.04C12.1452 36.5721 12.9043 35.281 14.0505 34.5381L11.898 29.8669C11.6587 29.923 11.4089 29.953 11.1526 29.953C9.36007 29.953 7.90672 28.4997 7.90672 26.7072C7.90672 24.9142 9.36007 23.4609 11.1526 23.4609C12.9455 23.4609 14.3989 24.9142 14.3989 26.7072C14.3989 27.7784 13.8799 28.7286 13.0795 29.3196L15.2404 34.01C15.5829 33.9189 15.9429 33.8702 16.3145 33.8702C18.6173 33.8702 20.4843 35.7372 20.4843 38.04C20.4843 38.3034 20.4598 38.561 20.4132 38.8108L24.866 40.3673C25.5769 39.0838 26.9448 38.2148 28.5156 38.2148ZM16.315 35.1782C17.8952 35.1782 19.1763 36.4593 19.1763 38.04C19.1763 39.6203 17.8952 40.9013 16.315 40.9013C14.7343 40.9013 13.4533 39.6203 13.4533 38.04C13.4533 36.4593 14.7343 35.1782 16.315 35.1782ZM4.16937 42.9689C5.75004 42.9689 7.03108 44.2499 7.03108 45.8306C7.03108 47.4108 5.75004 48.6919 4.16937 48.6919C2.58911 48.6919 1.30808 47.4108 1.30808 45.8306C1.30808 44.2499 2.58911 42.9689 4.16937 42.9689ZM11.153 24.7344C12.2422 24.7344 13.1257 25.618 13.1257 26.7072C13.1257 27.7963 12.2422 28.6799 11.153 28.6799C10.0638 28.6799 9.18028 27.7963 9.18028 26.7072C9.18028 25.618 10.0638 24.7344 11.153 24.7344ZM28.516 39.5229C30.0962 39.5229 31.3773 40.8039 31.3773 42.3846C31.3773 43.9648 30.0962 45.2458 28.516 45.2458C26.9352 45.2458 25.6542 43.9648 25.6542 42.3846C25.6542 40.8039 26.9352 39.5229 28.516 39.5229Z" fill="#98ACCB"/>
<path fill-rule="evenodd" clip-rule="evenodd" d="M26.7673 18.2457C27.0573 18.2457 27.3383 18.284 27.6059 18.3552L29.4267 14.5912C28.9485 14.1484 28.6488 13.5154 28.6488 12.8124C28.6488 11.4744 29.7339 10.3894 31.0715 10.3894C32.41 10.3894 33.4945 11.4744 33.4945 12.8124C33.4945 14.1505 32.41 15.2351 31.0715 15.2351C30.905 15.2351 30.7427 15.2184 30.5854 15.1864L28.7716 18.9366C29.5312 19.5318 30.0194 20.4578 30.0194 21.4979C30.0194 23.2937 28.5635 24.7495 26.7673 24.7495C24.9714 24.7495 23.5156 23.2937 23.5156 21.4979C23.5156 19.7016 24.9714 18.2457 26.7673 18.2457ZM31.0719 11.6854C31.6941 11.6854 32.1989 12.1898 32.1989 12.8124C32.1989 13.4346 31.6941 13.9395 31.0719 13.9395C30.4493 13.9395 29.9449 13.4346 29.9449 12.8124C29.9449 12.1898 30.4493 11.6854 31.0719 11.6854ZM26.7677 19.5538C27.8414 19.5538 28.7113 20.4241 28.7113 21.4979C28.7113 22.5716 27.8414 23.4415 26.7677 23.4415C25.6939 23.4415 24.8237 22.5716 24.8237 21.4979C24.8237 20.4241 25.6939 19.5538 26.7677 19.5538Z" fill="#98ACCB"/>
<path fill-rule="evenodd" clip-rule="evenodd" d="M28.6092 1.46815C29.3006 2.03866 32.978 7.48528 33.4444 8.2341C34.956 10.6587 36.344 12.8465 37.5131 15.781C40.7059 23.7981 32.4267 30.8914 25.1659 28.0312C22.4579 26.9645 20.1952 24.5672 19.3325 21.7829C18.7777 19.9925 18.8109 18.0479 19.6516 15.8395C20.6307 13.269 22.3747 10.2803 23.7188 8.28615C24.4106 7.25929 27.7305 2.27758 28.6092 1.46815ZM28.1541 0.0993524C27.2335 0.484259 22.183 8.20938 21.387 9.54055C20.19 11.5438 18.9292 13.8036 18.1777 16.1037C15.9034 23.0639 21.5835 30.3264 29.1568 29.9641C33.0365 29.7783 36.0107 27.5486 37.4944 25.4289C39.5314 22.5175 40.2185 19.1896 38.7461 15.3162C37.606 12.3173 35.7762 9.35321 34.1857 6.95229L30.132 1.23409C29.7279 0.673155 29.1497 -0.316668 28.1541 0.0993524Z" fill="#98ACCB"/>
<path fill-rule="evenodd" clip-rule="evenodd" d="M15.9048 8.92312C16.2976 9.38922 16.7409 10.0168 17.1134 10.4072C17.8924 11.2246 18.8201 10.4557 18.1797 9.60396C17.8388 9.1503 17.5166 8.6854 17.1783 8.31958C16.795 7.90511 16.4109 7.51093 15.931 7.49346C15.4178 7.47473 14.9996 7.94921 14.6138 8.3745C12.661 10.5279 8.12917 17.2319 7.10028 18.7118C6.19973 20.007 5.45761 21.236 4.62772 22.6448C2.15804 26.8362 -0.643268 31.8239 0.26859 37.0682C0.393881 37.7882 0.656487 38.9806 0.920351 39.5657C1.27373 40.3494 2.53805 40.2637 2.0099 38.6985C0.167456 33.2377 2.67251 28.7719 5.30697 24.076C7.25143 20.6092 10.6192 15.7789 13.0193 12.5735C13.483 11.9546 15.4599 9.25142 15.9048 8.92312Z" fill="#98ACCB"/>
<path fill-rule="evenodd" clip-rule="evenodd" d="M24.1509 47.6018C24.554 46.9356 23.7811 46.4526 23.1101 46.7666C22.6024 47.0043 22.1439 47.2958 21.5873 47.5266C20.4966 47.978 19.2631 48.328 18.0194 48.4949C16.436 48.708 15.0882 48.6957 13.5202 48.4585C11.6807 48.1799 10.3699 47.313 10.0479 48.0731C9.30659 49.8219 15.9996 50.0108 17.239 49.904C18.6061 49.7859 19.8825 49.5224 21.0973 49.1063C21.7838 48.8713 23.8788 48.0505 24.1509 47.6018Z" fill="#98ACCB"/>
<path fill-rule="evenodd" clip-rule="evenodd" d="M31.6747 35.7025C31.8005 34.8436 31.8068 33.4985 31.5591 32.6639C31.2576 31.6477 30.2964 31.5535 30.3653 32.8341C30.3962 33.413 30.4573 34.2967 30.4457 34.6825C30.4411 35.0254 30.4036 35.3658 30.4036 35.6572C30.4041 36.6294 31.4782 37.0447 31.6747 35.7025Z" fill="#98ACCB"/>
</svg>
