<svg width="40" height="50" viewBox="0 0 40 50" fill="none" xmlns="http://www.w3.org/2000/svg">
<path fill-rule="evenodd" clip-rule="evenodd" d="M1.52447 37.5658C1.9705 32.305 14.5171 30.6815 18.9129 30.6116C38.6854 30.2984 40.1072 39.595 37.0478 39.313C34.9809 39.1223 37.7567 37.1469 31.9985 34.785C28.9208 33.5228 24.5399 32.9072 20.7858 32.8297C16.8357 32.7485 12.675 33.1841 9.08053 34.3157C3.52598 36.0216 3.76877 38.1298 3.27823 38.8236C2.56533 39.8297 1.3858 39.2168 1.52447 37.5658ZM17.1975 29.2339C13.1435 29.4405 8.61402 30.2838 5.32312 31.7906C-4.91256 36.4755 2.41527 44.9245 5.06151 38.7203C7.63743 32.679 30.0423 33.3953 33.9597 37.5051C34.93 38.5233 34.8442 41.4441 37.85 40.674C42.437 39.4979 39.6757 28.089 17.1975 29.2339Z" fill="#A4B49F"/>
<path fill-rule="evenodd" clip-rule="evenodd" d="M2.61707 22.5008H3.4013C4.02644 21.9302 4.85855 21.582 5.77188 21.582C6.68515 21.582 7.51648 21.9298 8.14198 22.5008H10.4817C11.1072 21.9298 11.9386 21.582 12.8519 21.582C13.7652 21.582 14.5965 21.9298 15.222 22.5008H17.5618C18.1873 21.9298 19.0186 21.582 19.9319 21.582C20.8452 21.582 21.6765 21.9298 22.302 22.5008H24.6418C25.2673 21.9298 26.0986 21.582 27.0119 21.582C27.9252 21.582 28.7565 21.9298 29.382 22.5008H31.7218C32.3473 21.9298 33.1786 21.582 34.0919 21.582C35.0053 21.582 35.8369 21.9298 36.4625 22.5008H37.1442C38.584 22.5008 39.7614 23.6781 39.7614 25.1179C39.7614 26.5576 38.584 27.735 37.1442 27.735H36.4225C35.8019 28.2843 34.9857 28.6179 34.0919 28.6179C33.1982 28.6179 32.3823 28.2843 31.7618 27.735H29.3421C28.7215 28.2843 27.9057 28.6179 27.0119 28.6179C26.1181 28.6179 25.3023 28.2843 24.6818 27.735H22.2621C21.6415 28.2843 20.8257 28.6179 19.9319 28.6179C19.0381 28.6179 18.2223 28.2843 17.6017 27.735H15.182C14.5615 28.2843 13.7456 28.6179 12.8519 28.6179C11.9581 28.6179 11.1422 28.2843 10.5217 27.735H8.10201C7.48148 28.2843 6.66563 28.6179 5.77188 28.6179C4.87808 28.6179 4.06185 28.2843 3.44127 27.735H2.61707C1.17732 27.735 0 26.5576 0 25.1179C0 23.6781 1.17732 22.5008 2.61707 22.5008ZM6.59105 23.2154L6.57146 23.2071L6.56194 23.2029L6.53276 23.1912L6.50316 23.1796L6.47321 23.1684L6.44363 23.158L6.41319 23.1475L6.38282 23.138L6.3524 23.1288L6.3216 23.1201L6.29034 23.1118L6.25955 23.1038L6.22791 23.0963L6.19665 23.0896L6.16502 23.083L6.13291 23.0771L6.10085 23.0717L6.08464 23.0692L6.06882 23.0668L6.0363 23.0626L6.00382 23.0585L5.97094 23.0551L5.93804 23.0522L5.9051 23.0497L5.87222 23.048L5.8389 23.0468L5.8056 23.0459L5.77188 23.0455L5.7381 23.0459L5.7048 23.0468L5.67148 23.048L5.6386 23.0497L5.6057 23.0522L5.57276 23.0551L5.53988 23.0585L5.5074 23.0626L5.47488 23.0668L5.45906 23.0692L5.44284 23.0717L5.41079 23.0771L5.37868 23.083L5.34705 23.0896L5.31586 23.0963L5.28415 23.1038L5.25336 23.1118L5.22209 23.1201L5.1913 23.1288L5.16088 23.138L5.13051 23.1475L5.10007 23.158L5.07054 23.1684L5.04054 23.1796L5.01094 23.1912L4.98183 23.2029L4.97224 23.2071L4.95265 23.2154L4.92389 23.2283L4.89521 23.2417L4.86687 23.2554L4.83895 23.2692L4.81104 23.2837L4.78312 23.2987L4.75605 23.3141L4.72863 23.33L4.70197 23.3462L4.6753 23.3625L4.64907 23.3795L4.62326 23.3966L4.59738 23.4145L4.57197 23.4324L4.54658 23.4512L4.52159 23.4699L4.49704 23.4891L4.47289 23.5086L4.4487 23.5286L4.42539 23.5486L4.40167 23.5694L4.37874 23.5903L4.35627 23.6115L4.33381 23.6331L4.3117 23.6553L4.29003 23.6777L4.26838 23.7002L4.24754 23.7231L4.22676 23.7464L4.20633 23.7702L4.18632 23.7939L4.16681 23.8181L4.1472 23.8426L4.12846 23.8676L4.10971 23.8926L4.09179 23.9181L4.07389 23.9439L4.05641 23.9697H2.70452H2.69998H2.69579H2.69122H2.68661L2.68247 23.9701H2.67786H2.67499H2.67332H2.66911L2.66457 23.9705H2.66038H2.65582L2.65121 23.9709H2.64707L2.64583 23.9714H2.64246L2.63834 23.9718H2.63373L2.62959 23.9722L2.62498 23.9726H2.62084L2.61665 23.973H2.61623L2.61209 23.9734L2.60748 23.9738L2.60336 23.9742L2.59873 23.9747L2.59461 23.9751L2.59 23.9755H2.58754L2.58586 23.9759L2.58125 23.9763L2.57711 23.9767L2.57292 23.9772L2.56838 23.9776L2.56417 23.9784L2.56005 23.9788H2.55878L2.55544 23.9793L2.5513 23.9801L2.54669 23.9805L2.54255 23.981L2.53836 23.9817L2.53422 23.9826L2.53003 23.983H2.52961L2.52549 23.9838L2.52128 23.9842L2.51674 23.9851L2.51255 23.9859L2.50841 23.9863L2.50422 23.9872L2.50169 23.9876L2.50008 23.988L2.49547 23.9889L2.49132 23.9897L2.48714 23.9905L2.48295 23.9913L2.47881 23.9921L2.47462 23.993H2.47385L2.47008 23.9938L2.46587 23.9947L2.46175 23.9955L2.45756 23.9967L2.45342 23.9976L2.44923 23.9984L2.44593 23.9992H2.44509L2.4409 24.0005L2.43676 24.0013L2.43257 24.0026L2.42843 24.0034C1.92992 24.1292 1.55631 24.5835 1.55631 25.1179C1.55631 25.6593 1.93533 26.1153 2.44132 26.2353L2.44551 26.2362L2.44593 26.2366L2.44923 26.237L2.45342 26.2382L2.45714 26.239L2.46133 26.2399L2.46509 26.2407L2.46924 26.2415L2.47342 26.2424L2.47385 26.2428L2.47714 26.2432L2.48133 26.244L2.48505 26.2449L2.48924 26.2457L2.49715 26.2469L2.50127 26.2478L2.50169 26.2482L2.50548 26.2486L2.5096 26.2494L2.51337 26.2499L2.51758 26.2507L2.5217 26.2511L2.52591 26.2519L2.52961 26.2528H2.53003L2.53379 26.2532L2.53794 26.2541L2.54212 26.2545L2.54627 26.2549L2.55003 26.2557L2.55417 26.2561L2.55836 26.2565L2.55878 26.2569L2.56251 26.2574L2.56669 26.2578L2.57084 26.2582L2.57502 26.2586L2.57921 26.259L2.58293 26.2594L2.58712 26.2599L2.58754 26.2603H2.59124L2.59545 26.2607L2.59957 26.2611L2.60378 26.2615L2.6079 26.262L2.61209 26.2624L2.61623 26.2628H2.61665L2.62042 26.2632H2.62456L2.62875 26.2636L2.63289 26.264H2.63708L2.64122 26.2644H2.64541H2.64583L2.64953 26.2648H2.65374L2.65835 26.2653H2.66247H2.66668L2.6708 26.2657H2.67499H2.67913L2.68332 26.2661H2.68746H2.69207H2.69621H2.7004H2.70452H4.08054L4.09804 26.2911L4.11594 26.3161L4.13428 26.3403L4.15303 26.3644L4.17177 26.3885L4.19135 26.4119L4.21094 26.4352L4.2309 26.4585L4.25133 26.481L4.27175 26.5035L4.29295 26.5256L4.31422 26.5472L4.33584 26.5689L4.35796 26.5901L4.38 26.6109L4.40251 26.6314L4.42539 26.6517L4.4275 26.6534L4.4487 26.6713L4.47205 26.6909L4.49578 26.7101L4.51993 26.7288L4.54412 26.7471L4.56869 26.7654L4.59366 26.7829L4.61865 26.8004L4.62326 26.8034L4.64404 26.8175L4.66985 26.8342L4.69568 26.8504L4.72191 26.8663L4.74856 26.8816L4.7494 26.8821L4.77524 26.897L4.80231 26.9117L4.82938 26.9258L4.85688 26.9399L4.88142 26.9516L4.88437 26.9533L4.91229 26.9666L4.94055 26.9791L4.96889 26.9916L4.97224 26.9928L4.99765 27.0033L5.02641 27.0149L5.05509 27.0262L5.08427 27.0366L5.11385 27.0466L5.14338 27.0566L5.1734 27.0657L5.20335 27.0749L5.20965 27.0766L5.23335 27.0832L5.26379 27.0911L5.29458 27.0986L5.325 27.1057L5.35622 27.1124L5.38701 27.1186L5.41827 27.1241L5.44991 27.1295L5.45906 27.1307L5.48117 27.134L5.51028 27.1378L5.51323 27.1382L5.54484 27.1419L5.57697 27.1453L5.609 27.1482L5.64148 27.1503L5.674 27.1519L5.70646 27.1536H5.71898L5.73894 27.154L5.77188 27.1544L5.80476 27.154L5.82477 27.1536H5.83724L5.86969 27.1519L5.90222 27.1503L5.9347 27.1482L5.96673 27.1453L5.99886 27.1419L6.03047 27.1382L6.03342 27.1378L6.06253 27.134L6.08464 27.1307L6.09379 27.1295L6.12542 27.1241L6.15669 27.1186L6.18748 27.1124L6.21874 27.1057L6.24911 27.0986L6.27998 27.0911L6.31035 27.0832L6.33405 27.0766L6.34035 27.0749L6.3703 27.0657L6.40032 27.0566L6.4299 27.0466L6.45943 27.0366L6.48861 27.0262L6.51736 27.0149L6.54605 27.0033L6.57146 26.9928L6.57481 26.9916L6.60314 26.9791L6.63148 26.9666L6.65933 26.9533L6.66227 26.9516L6.68682 26.9399L6.71431 26.9258L6.74139 26.9117L6.76848 26.897L6.79429 26.8821L6.79514 26.8816L6.82179 26.8663L6.84802 26.8504L6.87385 26.8342L6.89966 26.8175L6.92051 26.8034L6.92505 26.8004L6.95004 26.7829L6.97501 26.7654L6.99965 26.7471L7.02377 26.7288L7.04792 26.7101L7.07165 26.6909L7.095 26.6713L7.1162 26.6534L7.1183 26.6517L7.14119 26.6314L7.1637 26.6109L7.18574 26.5901L7.20785 26.5689L7.22947 26.5472L7.25074 26.5256L7.27201 26.5035L7.29237 26.481L7.3128 26.4585L7.33281 26.4352L7.35234 26.4119L7.37193 26.3885L7.39067 26.3644L7.40944 26.3403L7.42776 26.3161L7.44566 26.2911L7.46316 26.2661H9.09154H9.53218H11.1606L11.1781 26.2911L11.196 26.3161L11.2143 26.3403L11.233 26.3644L11.2518 26.3885L11.2714 26.4119L11.2909 26.4352L11.3109 26.4585L11.3313 26.481L11.3518 26.5035L11.373 26.5256L11.3942 26.5472L11.4159 26.5689L11.438 26.5901L11.46 26.6109L11.4825 26.6314L11.5054 26.6517L11.5075 26.6534L11.5287 26.6713L11.5521 26.6909L11.5758 26.7101L11.5999 26.7288L11.6241 26.7471L11.6487 26.7654L11.6737 26.7829L11.6987 26.8004L11.7032 26.8034L11.7241 26.8175L11.7499 26.8342L11.7757 26.8504L11.8019 26.8663L11.8286 26.8816L11.8294 26.8821L11.8553 26.897L11.8823 26.9117L11.9094 26.9258L11.9369 26.9399L11.9614 26.9516L11.9644 26.9533L11.9923 26.9666L12.0206 26.9791L12.0489 26.9916L12.0523 26.9928L12.0777 27.0033L12.1064 27.0149L12.1351 27.0262L12.1643 27.0366L12.1939 27.0466L12.2234 27.0566L12.2534 27.0657L12.2834 27.0749L12.2897 27.0766L12.3134 27.0832L12.3437 27.0911L12.3746 27.0986L12.405 27.1057L12.4362 27.1124L12.467 27.1186L12.4983 27.1241L12.5299 27.1295L12.5391 27.1307L12.5612 27.134L12.5903 27.1378L12.5933 27.1382L12.6249 27.1419L12.657 27.1453L12.689 27.1482L12.7215 27.1503L12.754 27.1519L12.7865 27.1536H12.799L12.819 27.154L12.8519 27.1544L12.8848 27.154L12.9047 27.1536H12.9173L12.9497 27.1519L12.9822 27.1503L13.0147 27.1482L13.0468 27.1453L13.0789 27.1419L13.1105 27.1382L13.1134 27.1378L13.1425 27.134L13.1647 27.1307L13.1738 27.1295L13.2054 27.1241L13.2367 27.1186L13.2675 27.1124L13.2988 27.1057L13.3291 27.0986L13.36 27.0911L13.3904 27.0832L13.4141 27.0766L13.4204 27.0749L13.4503 27.0657L13.4803 27.0566L13.5099 27.0466L13.5395 27.0366L13.5686 27.0262L13.5974 27.0149L13.6261 27.0033L13.6515 26.9928L13.6548 26.9916L13.6832 26.9791L13.7115 26.9666L13.7393 26.9533L13.7423 26.9516L13.7668 26.9399L13.7943 26.9258L13.8214 26.9117L13.8485 26.897L13.8743 26.8821L13.8752 26.8816L13.9018 26.8663L13.928 26.8504L13.9539 26.8342L13.9797 26.8175L14.0005 26.8034L14.0051 26.8004L14.0301 26.7829L14.055 26.7654L14.0797 26.7471L14.1038 26.7288L14.1279 26.7101L14.1517 26.6909L14.175 26.6713L14.1962 26.6534L14.1983 26.6517L14.2212 26.6314L14.2437 26.6109L14.2658 26.5901L14.2879 26.5689L14.3095 26.5472L14.3308 26.5256L14.352 26.5035L14.3724 26.481L14.3928 26.4585L14.4128 26.4352L14.4324 26.4119L14.452 26.3885L14.4707 26.3644L14.4895 26.3403L14.5078 26.3161L14.5257 26.2911L14.5432 26.2661H16.1716H16.6122H18.2406L18.2581 26.2911L18.276 26.3161L18.2943 26.3403L18.3131 26.3644L18.3318 26.3885L18.3514 26.4119L18.3709 26.4352L18.3909 26.4585L18.4114 26.481L18.4317 26.5035L18.453 26.5256L18.4743 26.5472L18.4959 26.5689L18.518 26.5901L18.54 26.6109L18.5626 26.6314L18.5854 26.6517L18.5875 26.6534L18.6087 26.6713L18.6321 26.6909L18.6558 26.7101L18.68 26.7288L18.7041 26.7471L18.7287 26.7654L18.7537 26.7829L18.7787 26.8004L18.7832 26.8034L18.8041 26.8175L18.8299 26.8342L18.8557 26.8504L18.882 26.8663L18.9086 26.8816L18.9094 26.8821L18.9353 26.897L18.9624 26.9117L18.9894 26.9258L19.0169 26.9399L19.0415 26.9516L19.0444 26.9533L19.0723 26.9666L19.1006 26.9791L19.1289 26.9916L19.1323 26.9928L19.1577 27.0033L19.1864 27.0149L19.2151 27.0262L19.2443 27.0366L19.2738 27.0466L19.3034 27.0566L19.3334 27.0657L19.3634 27.0749L19.3697 27.0766L19.3934 27.0832L19.4238 27.0911L19.4546 27.0986L19.485 27.1057L19.5163 27.1124L19.5471 27.1186L19.5783 27.1241L19.61 27.1295L19.6191 27.1307L19.6412 27.134L19.6703 27.1378L19.6733 27.1382L19.7049 27.1419L19.737 27.1453L19.769 27.1482L19.8015 27.1503L19.834 27.1519L19.8665 27.1536H19.879L19.899 27.154L19.9319 27.1544L19.9648 27.154L19.9848 27.1536H19.9973L20.0297 27.1519L20.0623 27.1503L20.0947 27.1482L20.1268 27.1453L20.1589 27.1419L20.1905 27.1382L20.1935 27.1378L20.2226 27.134L20.2447 27.1307L20.2538 27.1295L20.2855 27.1241L20.3167 27.1186L20.3475 27.1124L20.3788 27.1057L20.4092 27.0986L20.44 27.0911L20.4704 27.0832L20.4941 27.0766L20.5004 27.0749L20.5303 27.0657L20.5604 27.0566L20.5899 27.0466L20.6195 27.0366L20.6486 27.0262L20.6774 27.0149L20.7061 27.0033L20.7315 26.9928L20.7349 26.9916L20.7632 26.9791L20.7915 26.9666L20.8194 26.9533L20.8223 26.9516L20.8469 26.9399L20.8744 26.9258L20.9015 26.9117L20.9285 26.897L20.9543 26.8821L20.9552 26.8816L20.9818 26.8663L21.0081 26.8504L21.0339 26.8342L21.0597 26.8175L21.0806 26.8034L21.0851 26.8004L21.1101 26.7829L21.1351 26.7654L21.1597 26.7471L21.1838 26.7288L21.208 26.7101L21.2317 26.6909L21.255 26.6713L21.2762 26.6534L21.2783 26.6517L21.3012 26.6314L21.3238 26.6109L21.3458 26.5901L21.3679 26.5689L21.3895 26.5472L21.4108 26.5256L21.432 26.5035L21.4524 26.481L21.4728 26.4585L21.4928 26.4352L21.5124 26.4119L21.532 26.3885L21.5507 26.3644L21.5695 26.3403L21.5878 26.3161L21.6057 26.2911L21.6232 26.2661H23.2516H23.6922H25.3206L25.3381 26.2911L25.356 26.3161L25.3744 26.3403L25.3931 26.3644L25.4118 26.3885L25.4314 26.4119L25.451 26.4352L25.471 26.4585L25.4914 26.481L25.5118 26.5035L25.533 26.5256L25.5543 26.5472L25.5759 26.5689L25.598 26.5901L25.6201 26.6109L25.6425 26.6314L25.6655 26.6517L25.6676 26.6534L25.6888 26.6713L25.7121 26.6909L25.7358 26.7101L25.76 26.7288L25.7841 26.7471L25.8088 26.7654L25.8337 26.7829L25.8587 26.8004L25.8633 26.8034L25.8841 26.8175L25.9099 26.8342L25.9357 26.8504L25.962 26.8663L25.9887 26.8816L25.9895 26.8821L26.0153 26.897L26.0424 26.9117L26.0695 26.9258L26.0969 26.9399L26.1215 26.9516L26.1244 26.9533L26.1523 26.9666L26.1806 26.9791L26.209 26.9916L26.2123 26.9928L26.2377 27.0033L26.2664 27.0149L26.2952 27.0262L26.3243 27.0366L26.3539 27.0466L26.3835 27.0566L26.4135 27.0657L26.4434 27.0749L26.4496 27.0766L26.4734 27.0832L26.5038 27.0911L26.5347 27.0986L26.565 27.1057L26.5963 27.1124L26.6271 27.1186L26.6583 27.1241L26.69 27.1295L26.6992 27.1307L26.7212 27.134L26.7504 27.1378L26.7533 27.1382L26.7849 27.1419L26.817 27.1453L26.8491 27.1482L26.8815 27.1503L26.9141 27.1519L26.9466 27.1536H26.959L26.979 27.154L27.0119 27.1544L27.0448 27.154L27.0648 27.1536H27.0773L27.1098 27.1519L27.1423 27.1503L27.1748 27.1482L27.2068 27.1453L27.2389 27.1419L27.2706 27.1382L27.2735 27.1378L27.3026 27.134L27.3247 27.1307L27.3339 27.1295L27.3655 27.1241L27.3968 27.1186L27.4275 27.1124L27.4588 27.1057L27.4892 27.0986L27.52 27.0911L27.5504 27.0832L27.5741 27.0766L27.5804 27.0749L27.6104 27.0657L27.6404 27.0566L27.6699 27.0466L27.6995 27.0366L27.7287 27.0262L27.7574 27.0149L27.7861 27.0033L27.8115 26.9928L27.8149 26.9916L27.8432 26.9791L27.8715 26.9666L27.8994 26.9533L27.9023 26.9516L27.9269 26.9399L27.9544 26.9258L27.9815 26.9117L28.0086 26.897L28.0344 26.8821L28.0352 26.8816L28.0619 26.8663L28.0881 26.8504L28.1139 26.8342L28.1397 26.8175L28.1605 26.8034L28.1651 26.8004L28.1901 26.7829L28.2151 26.7654L28.2396 26.7471L28.2638 26.7288L28.288 26.7101L28.3117 26.6909L28.3351 26.6713L28.3563 26.6534L28.3584 26.6517L28.3813 26.6314L28.4038 26.6109L28.4258 26.5901L28.4479 26.5689L28.4696 26.5472L28.4908 26.5256L28.512 26.5035L28.5325 26.481L28.5529 26.4585L28.5728 26.4352L28.5924 26.4119L28.612 26.3885L28.6307 26.3644L28.6495 26.3403L28.6678 26.3161L28.6858 26.2911L28.7032 26.2661H30.3316H30.7722H32.4007L32.4181 26.2911L32.436 26.3161L32.4544 26.3403L32.4731 26.3644L32.4919 26.3885L32.5115 26.4119L32.531 26.4352L32.551 26.4585L32.5714 26.481L32.5918 26.5035L32.613 26.5256L32.6343 26.5472L32.6559 26.5689L32.678 26.5901L32.7001 26.6109L32.7226 26.6314L32.7455 26.6517L32.7476 26.6534L32.7688 26.6713L32.7922 26.6909L32.8159 26.7101L32.84 26.7288L32.8642 26.7471L32.8887 26.7654L32.9137 26.7829L32.9387 26.8004L32.9433 26.8034L32.9641 26.8175L32.99 26.8342L33.0158 26.8504L33.042 26.8663L33.0687 26.8816L33.0695 26.8821L33.0953 26.897L33.1224 26.9117L33.1495 26.9258L33.177 26.9399L33.2015 26.9516L33.2045 26.9533L33.2323 26.9666L33.2606 26.9791L33.289 26.9916L33.2923 26.9928L33.3177 27.0033L33.3464 27.0149L33.3752 27.0262L33.4044 27.0366L33.4339 27.0466L33.4635 27.0566L33.4935 27.0657L33.5234 27.0749L33.5297 27.0766L33.5535 27.0832L33.5838 27.0911L33.6147 27.0986L33.645 27.1057L33.6763 27.1124L33.7071 27.1186L33.7384 27.1241L33.77 27.1295L33.7792 27.1307L33.8012 27.134L33.8304 27.1378L33.8333 27.1382L33.865 27.1419L33.8971 27.1453L33.9291 27.1482L33.9616 27.1503L33.9941 27.1519L34.0266 27.1536H34.039L34.059 27.154L34.0919 27.1544L34.1249 27.154L34.1448 27.1536H34.1573L34.1898 27.1519L34.2223 27.1503L34.2548 27.1482L34.2868 27.1453L34.3189 27.1419L34.3506 27.1382L34.3535 27.1378L34.3826 27.134L34.4047 27.1307L34.4139 27.1295L34.4455 27.1241L34.4767 27.1186L34.5076 27.1124L34.5388 27.1057L34.5692 27.0986L34.6 27.0911L34.6304 27.0832L34.6542 27.0766L34.6605 27.0749L34.6904 27.0657L34.7204 27.0566L34.7499 27.0466L34.7795 27.0366L34.8087 27.0262L34.8374 27.0149L34.8662 27.0033L34.8916 26.9928L34.8949 26.9916L34.9232 26.9791L34.9515 26.9666L34.9794 26.9533L34.9824 26.9516L35.0069 26.9399L35.0344 26.9258L35.0615 26.9117L35.0886 26.897L35.1144 26.8821L35.1152 26.8816L35.1419 26.8663L35.1681 26.8504L35.1939 26.8342L35.2197 26.8175L35.2406 26.8034L35.2452 26.8004L35.2701 26.7829L35.2951 26.7654L35.3197 26.7471L35.3439 26.7288L35.368 26.7101L35.3917 26.6909L35.4151 26.6713L35.4363 26.6534L35.4384 26.6517L35.4613 26.6314L35.4838 26.6109L35.5059 26.5901L35.5279 26.5689L35.5496 26.5472L35.5708 26.5256L35.5921 26.5035L35.6125 26.481L35.6329 26.4585L35.6528 26.4352L35.6724 26.4119L35.692 26.3885L35.7108 26.3644L35.7295 26.3403L35.7478 26.3161L35.7658 26.2911L35.7833 26.2661H37.0568H37.0631H37.0693H37.0751L37.0814 26.2657H37.0864H37.0876H37.0938L37.0997 26.2653L37.106 26.2648H37.1122L37.1155 26.2644H37.118L37.1243 26.264L37.1305 26.2636L37.1363 26.2632L37.1426 26.2628H37.1446L37.1484 26.2624L37.1547 26.262L37.1605 26.2615L37.1668 26.2607L37.1726 26.2603H37.1738L37.1788 26.2594L37.1847 26.259L37.1909 26.2582L37.1967 26.2574L37.2026 26.2569L37.2088 26.2561L37.2146 26.2552L37.2205 26.2545L37.2267 26.2536L37.2313 26.2528H37.2325L37.2384 26.2515L37.2442 26.2507L37.25 26.2499L37.2563 26.2486L37.2596 26.2482L37.2621 26.2478L37.2679 26.2465L37.2738 26.2453L37.2796 26.2445L37.2854 26.2432L37.2875 26.2428L37.2913 26.242L37.2971 26.2407L37.3029 26.2394L37.3088 26.2382L37.3146 26.237L37.3154 26.2366L37.3204 26.2353L37.3259 26.234L37.3317 26.2328L37.3375 26.2311L37.3429 26.2299H37.3434L37.3492 26.2282L37.3546 26.2266L37.3604 26.2253L37.3662 26.2236L37.3704 26.2224L37.3716 26.222L37.3775 26.2203L37.3829 26.2187L37.3887 26.217L37.3942 26.2153L37.3975 26.2145L37.4 26.2136L37.4054 26.2115L37.4112 26.2099L37.4166 26.2082L37.4221 26.2061L37.4242 26.2057L37.4279 26.2044L37.4333 26.2024C37.8814 26.0458 38.205 25.6181 38.205 25.1179C38.205 24.6227 37.8877 24.1983 37.4466 24.038L37.4408 24.0359L37.4349 24.0338L37.4296 24.0318L37.4242 24.0301H37.4237L37.4179 24.028L37.4121 24.0259L37.4062 24.0243L37.4004 24.0226L37.3975 24.0213L37.3946 24.0205L37.3887 24.0188L37.3829 24.0171L37.3771 24.0155L37.3713 24.0134H37.3704L37.3654 24.0117L37.3592 24.0105L37.3533 24.0088L37.3475 24.0072L37.3429 24.0059L37.3417 24.0055L37.3354 24.0042L37.3296 24.0026L37.3238 24.0013L37.3175 23.9996L37.3154 23.9992L37.3117 23.9984L37.3058 23.9972L37.2996 23.9955L37.2937 23.9942L37.2875 23.993L37.2817 23.9917L37.2754 23.9905L37.2692 23.9897L37.2634 23.9884L37.2596 23.9876L37.2572 23.9872L37.2509 23.9863L37.2451 23.9851L37.2388 23.9842L37.2325 23.983H37.2313L37.2267 23.9821L37.2205 23.9813L37.2142 23.9805L37.208 23.9797L37.2026 23.9788H37.2017L37.1955 23.978L37.1892 23.9772L37.183 23.9767L37.1768 23.9759L37.1738 23.9755H37.1705L37.1642 23.9747L37.158 23.9742L37.1518 23.9734L37.1455 23.973H37.1446L37.1393 23.9726L37.133 23.9722L37.1267 23.9718L37.1205 23.9714H37.1155L37.1143 23.9709H37.1076L37.1013 23.9705H37.0951L37.0889 23.9701H37.0864H37.0822L37.0759 23.9697H37.0697H37.0631H37.0568H35.8074L35.7899 23.9439L35.772 23.9181L35.7541 23.8926L35.7353 23.8676L35.7166 23.8426L35.697 23.8181L35.6775 23.7939L35.6575 23.7702L35.637 23.7464L35.6163 23.7231L35.5954 23.7002L35.5737 23.6777L35.5521 23.6553L35.53 23.6331L35.5075 23.6115L35.4851 23.5903L35.4621 23.5694L35.4384 23.5486L35.4151 23.5286L35.3909 23.5086L35.3667 23.4891L35.3422 23.4699L35.3172 23.4512L35.2918 23.4324L35.2664 23.4145L35.2406 23.3966L35.2147 23.3795L35.1885 23.3625L35.1618 23.3462L35.1352 23.33L35.1077 23.3141L35.0807 23.2987L35.0527 23.2837L35.0248 23.2692L34.9969 23.2554L34.9686 23.2417L34.9399 23.2283L34.9111 23.2154L34.8916 23.2071L34.882 23.2029L34.8528 23.1912L34.8233 23.1796L34.7933 23.1684L34.7637 23.158L34.7333 23.1475L34.7029 23.138L34.6725 23.1288L34.6417 23.1201L34.6104 23.1118L34.5796 23.1038L34.548 23.0963L34.5167 23.0896L34.4851 23.083L34.453 23.0771L34.421 23.0717L34.4047 23.0692L34.3888 23.0668L34.3564 23.0626L34.3239 23.0585L34.291 23.0551L34.2581 23.0522L34.2252 23.0497L34.1923 23.048L34.159 23.0468L34.1256 23.0459L34.0919 23.0455L34.0582 23.0459L34.0249 23.0468L33.9916 23.048L33.9587 23.0497L33.9257 23.0522L33.8929 23.0551L33.86 23.0585L33.8274 23.0626L33.795 23.0668L33.7792 23.0692L33.7629 23.0717L33.7309 23.0771L33.6988 23.083L33.6672 23.0896L33.6359 23.0963L33.6043 23.1038L33.5734 23.1118L33.5422 23.1201L33.5114 23.1288L33.481 23.138L33.4506 23.1475L33.4202 23.158L33.3906 23.1684L33.3606 23.1796L33.331 23.1912L33.3019 23.2029L33.2923 23.2071L33.2728 23.2154L33.244 23.2283L33.2152 23.2417L33.187 23.2554L33.1591 23.2692L33.1312 23.2837L33.1032 23.2987L33.0762 23.3141L33.0487 23.33L33.022 23.3462L32.9953 23.3625L32.9691 23.3795L32.9433 23.3966L32.9175 23.4145L32.8921 23.4324L32.8667 23.4512L32.8417 23.4699L32.8171 23.4891L32.7929 23.5086L32.7688 23.5286L32.7455 23.5486L32.7218 23.5694L32.6988 23.5903L32.6764 23.6115L32.6539 23.6331L32.6318 23.6553L32.6101 23.6777L32.5885 23.7002L32.5676 23.7231L32.5468 23.7464L32.5264 23.7702L32.5064 23.7939L32.4868 23.8181L32.4673 23.8426L32.4486 23.8676L32.4298 23.8926L32.4119 23.9181L32.394 23.9439L32.3765 23.9697H30.7597H30.3441H28.7274L28.7099 23.9439L28.692 23.9181L28.6741 23.8926L28.6553 23.8676L28.6366 23.8426L28.617 23.8181L28.5974 23.7939L28.5774 23.7702L28.557 23.7464L28.5362 23.7231L28.5154 23.7002L28.4937 23.6777L28.4721 23.6553L28.45 23.6331L28.4275 23.6115L28.405 23.5903L28.3821 23.5694L28.3584 23.5486L28.3351 23.5286L28.3109 23.5086L28.2867 23.4891L28.2622 23.4699L28.2372 23.4512L28.2118 23.4324L28.1864 23.4145L28.1605 23.3966L28.1347 23.3795L28.1085 23.3625L28.0818 23.3462L28.0551 23.33L28.0277 23.3141L28.0006 23.2987L27.9727 23.2837L27.9448 23.2692L27.9169 23.2554L27.8886 23.2417L27.8599 23.2283L27.8311 23.2154L27.8115 23.2071L27.8019 23.2029L27.7728 23.1912L27.7432 23.1796L27.7132 23.1684L27.6837 23.158L27.6533 23.1475L27.6229 23.138L27.5925 23.1288L27.5617 23.1201L27.5304 23.1118L27.4996 23.1038L27.4679 23.0963L27.4367 23.0896L27.4051 23.083L27.373 23.0771L27.3409 23.0717L27.3247 23.0692L27.3089 23.0668L27.2764 23.0626L27.2439 23.0585L27.211 23.0551L27.1781 23.0522L27.1452 23.0497L27.1123 23.048L27.079 23.0468L27.0457 23.0459L27.0119 23.0455L26.9782 23.0459L26.9449 23.0468L26.9115 23.048L26.8787 23.0497L26.8457 23.0522L26.8128 23.0551L26.7799 23.0585L26.7475 23.0626L26.715 23.0668L26.6992 23.0692L26.6829 23.0717L26.6509 23.0771L26.6187 23.083L26.5871 23.0896L26.5559 23.0963L26.5242 23.1038L26.4934 23.1118L26.4622 23.1201L26.4314 23.1288L26.4009 23.138L26.3706 23.1475L26.3402 23.158L26.3106 23.1684L26.2806 23.1796L26.251 23.1912L26.2218 23.2029L26.2123 23.2071L26.1927 23.2154L26.164 23.2283L26.1352 23.2417L26.107 23.2554L26.079 23.2692L26.0511 23.2837L26.0232 23.2987L25.9961 23.3141L25.9686 23.33L25.942 23.3462L25.9153 23.3625L25.8891 23.3795L25.8633 23.3966L25.8374 23.4145L25.8121 23.4324L25.7866 23.4512L25.7617 23.4699L25.7371 23.4891L25.7129 23.5086L25.6888 23.5286L25.6655 23.5486L25.6418 23.5694L25.6188 23.5903L25.5963 23.6115L25.5738 23.6331L25.5518 23.6553L25.5301 23.6777L25.5085 23.7002L25.4876 23.7231L25.4668 23.7464L25.4464 23.7702L25.4264 23.7939L25.4068 23.8181L25.3873 23.8426L25.3685 23.8676L25.3498 23.8926L25.3319 23.9181L25.314 23.9439L25.2965 23.9697H23.6797H23.2641H21.6474L21.6299 23.9439L21.612 23.9181L21.594 23.8926L21.5753 23.8676L21.5565 23.8426L21.537 23.8181L21.5174 23.7939L21.4974 23.7702L21.477 23.7464L21.4562 23.7231L21.4354 23.7002L21.4137 23.6777L21.392 23.6553L21.37 23.6331L21.3475 23.6115L21.325 23.5903L21.3021 23.5694L21.2783 23.5486L21.255 23.5286L21.2308 23.5086L21.2067 23.4891L21.1822 23.4699L21.1572 23.4512L21.1318 23.4324L21.1064 23.4145L21.0806 23.3966L21.0547 23.3795L21.0284 23.3625L21.0018 23.3462L20.9752 23.33L20.9477 23.3141L20.9206 23.2987L20.8927 23.2837L20.8648 23.2692L20.8369 23.2554L20.8086 23.2417L20.7799 23.2283L20.7511 23.2154L20.7315 23.2071L20.7219 23.2029L20.6928 23.1912L20.6632 23.1796L20.6333 23.1684L20.6037 23.158L20.5732 23.1475L20.5429 23.138L20.5124 23.1288L20.4816 23.1201L20.4504 23.1118L20.4196 23.1038L20.3879 23.0963L20.3567 23.0896L20.3251 23.083L20.293 23.0771L20.2609 23.0717L20.2447 23.0692L20.2289 23.0668L20.1963 23.0626L20.1639 23.0585L20.131 23.0551L20.0981 23.0522L20.0651 23.0497L20.0323 23.048L19.999 23.0468L19.9656 23.0459L19.9319 23.0455L19.8981 23.0459L19.8648 23.0468L19.8315 23.048L19.7986 23.0497L19.7657 23.0522L19.7328 23.0551L19.6999 23.0585L19.6675 23.0626L19.6349 23.0668L19.6191 23.0692L19.6029 23.0717L19.5708 23.0771L19.5387 23.083L19.5071 23.0896L19.4758 23.0963L19.4442 23.1038L19.4134 23.1118L19.3821 23.1201L19.3513 23.1288L19.3209 23.138L19.2906 23.1475L19.2601 23.158L19.2305 23.1684L19.2006 23.1796L19.171 23.1912L19.1419 23.2029L19.1323 23.2071L19.1127 23.2154L19.084 23.2283L19.0552 23.2417L19.0269 23.2554L18.999 23.2692L18.9711 23.2837L18.9432 23.2987L18.9161 23.3141L18.8886 23.33L18.8619 23.3462L18.8353 23.3625L18.8091 23.3795L18.7832 23.3966L18.7574 23.4145L18.732 23.4324L18.7066 23.4512L18.6817 23.4699L18.6571 23.4891L18.6329 23.5086L18.6087 23.5286L18.5854 23.5486L18.5617 23.5694L18.5388 23.5903L18.5163 23.6115L18.4938 23.6331L18.4717 23.6553L18.4501 23.6777L18.4285 23.7002L18.4076 23.7231L18.3868 23.7464L18.3664 23.7702L18.3464 23.7939L18.3268 23.8181L18.3073 23.8426L18.2885 23.8676L18.2698 23.8926L18.2519 23.9181L18.2339 23.9439L18.2165 23.9697H16.5997H16.1841H14.5673L14.5498 23.9439L14.5319 23.9181L14.514 23.8926L14.4953 23.8676L14.4765 23.8426L14.457 23.8181L14.4374 23.7939L14.4174 23.7702L14.397 23.7464L14.3762 23.7231L14.3553 23.7002L14.3337 23.6777L14.312 23.6553L14.29 23.6331L14.2674 23.6115L14.245 23.5903L14.2221 23.5694L14.1983 23.5486L14.175 23.5286L14.1508 23.5086L14.1267 23.4891L14.1021 23.4699L14.0771 23.4512L14.0518 23.4324L14.0263 23.4145L14.0005 23.3966L13.9747 23.3795L13.9485 23.3625L13.9218 23.3462L13.8952 23.33L13.8677 23.3141L13.8406 23.2987L13.8127 23.2837L13.7848 23.2692L13.7569 23.2554L13.7286 23.2417L13.6998 23.2283L13.6711 23.2154L13.6515 23.2071L13.6419 23.2029L13.6128 23.1912L13.5832 23.1796L13.5532 23.1684L13.5237 23.158L13.4932 23.1475L13.4628 23.138L13.4324 23.1288L13.4016 23.1201L13.3704 23.1118L13.3396 23.1038L13.3079 23.0963L13.2767 23.0896L13.245 23.083L13.2129 23.0771L13.1809 23.0717L13.1647 23.0692L13.1488 23.0668L13.1163 23.0626L13.0838 23.0585L13.051 23.0551L13.0181 23.0522L12.9851 23.0497L12.9522 23.048L12.9189 23.0468L12.8856 23.0459L12.8519 23.0455L12.8181 23.0459L12.7848 23.0468L12.7515 23.048L12.7186 23.0497L12.6857 23.0522L12.6528 23.0551L12.6199 23.0585L12.5874 23.0626L12.5549 23.0668L12.5391 23.0692L12.5229 23.0717L12.4908 23.0771L12.4587 23.083L12.4271 23.0896L12.3959 23.0963L12.3642 23.1038L12.3334 23.1118L12.3021 23.1201L12.2713 23.1288L12.2409 23.138L12.2105 23.1475L12.1801 23.158L12.1505 23.1684L12.1206 23.1796L12.091 23.1912L12.0619 23.2029L12.0523 23.2071L12.0327 23.2154L12.0039 23.2283L11.9752 23.2417L11.9469 23.2554L11.919 23.2692L11.8911 23.2837L11.8632 23.2987L11.8361 23.3141L11.8086 23.33L11.7819 23.3462L11.7553 23.3625L11.7291 23.3795L11.7032 23.3966L11.6774 23.4145L11.652 23.4324L11.6266 23.4512L11.6016 23.4699L11.5771 23.4891L11.5529 23.5086L11.5287 23.5286L11.5054 23.5486L11.4817 23.5694L11.4588 23.5903L11.4363 23.6115L11.4138 23.6331L11.3917 23.6553L11.3701 23.6777L11.3484 23.7002L11.3276 23.7231L11.3068 23.7464L11.2864 23.7702L11.2663 23.7939L11.2468 23.8181L11.2272 23.8426L11.2085 23.8676L11.1897 23.8926L11.1718 23.9181L11.1539 23.9439L11.1364 23.9697H9.51966H9.10406H7.48731L7.46981 23.9439L7.45191 23.9181L7.43398 23.8926L7.41524 23.8676L7.3965 23.8426L7.37696 23.8181L7.35737 23.7939L7.33737 23.7702L7.31694 23.7464L7.29616 23.7231L7.27531 23.7002L7.25369 23.6777L7.232 23.6553L7.20996 23.6331L7.18743 23.6115L7.16496 23.5903L7.14203 23.5694L7.1183 23.5486L7.095 23.5286L7.07085 23.5086L7.04666 23.4891L7.02211 23.4699L6.99712 23.4512L6.97173 23.4324L6.94632 23.4145L6.92051 23.3966L6.89468 23.3795L6.86845 23.3625L6.84179 23.3462L6.81514 23.33L6.78765 23.3141L6.76058 23.2987L6.73266 23.2837L6.70474 23.2692L6.67683 23.2554L6.64854 23.2417L6.6198 23.2283L6.59105 23.2154Z" fill="#A4B49F"/>
<path fill-rule="evenodd" clip-rule="evenodd" d="M17.6352 39.6823C18.2212 38.7754 18.9275 37.7186 19.436 36.905C19.6396 36.5792 19.7614 36.4245 19.8808 36.4056C20.0002 36.4245 20.122 36.5792 20.3256 36.905C20.8341 37.7186 21.5404 38.7754 22.1264 39.6823C22.5493 40.3374 22.5982 40.4196 22.2477 40.6695C22.1718 40.7237 22.0316 40.815 21.8769 40.9185C21.1585 41.4004 21.3166 41.356 21.3122 42.1986C21.3026 43.9109 21.2905 46.2479 21.3156 47.715C21.3292 48.5108 21.1735 48.664 20.4938 48.6945C20.094 48.7119 19.5144 48.7186 19.1261 48.6858C18.5664 48.6384 18.4334 48.4518 18.446 47.715C18.4706 46.2479 18.459 43.9109 18.4494 42.1986C18.445 41.356 18.6031 41.4004 17.8847 40.9185C17.73 40.815 17.5898 40.7237 17.5139 40.6695C17.1634 40.4196 17.2123 40.3374 17.6352 39.6823ZM19.2016 35.0704C19.0396 35.1715 18.8879 35.3068 18.7563 35.4731C18.2555 36.1083 17.3582 37.4808 16.855 38.3152C16.5417 38.8339 16.0158 39.6137 15.9481 40.2243C15.7842 41.6891 16.9295 41.5996 17.1963 42.157C17.2447 43.105 17.1465 45.8253 17.1794 47.5826C17.207 49.0339 17.0552 49.9925 18.3271 49.9968C19.379 50.0012 20.3826 50.0012 21.4345 49.9968C22.7064 49.9925 22.5546 49.0339 22.5822 47.5826C22.6151 45.8253 22.5169 43.105 22.5653 42.157C22.8321 41.5996 23.9774 41.6891 23.8135 40.2243C23.7458 39.6137 23.2199 38.8339 22.9066 38.3152C22.4033 37.4808 21.5065 36.1083 21.0053 35.4731C20.8675 35.2981 20.7074 35.1584 20.5363 35.0559C20.0636 34.775 19.6715 34.7794 19.2016 35.0704Z" fill="#A4B49F"/>
<path fill-rule="evenodd" clip-rule="evenodd" d="M1.52447 12.4339C1.9705 17.6948 14.5171 19.3183 18.9129 19.3882C38.6854 19.7014 40.1072 10.4048 37.0478 10.6868C34.9809 10.8775 37.7567 12.8529 31.9985 15.2147C28.9208 16.477 24.5399 17.0926 20.7858 17.1701C16.8357 17.2513 12.675 16.8157 9.08053 15.6841C3.52598 13.9782 3.76877 11.87 3.27823 11.1762C2.56533 10.1701 1.3858 10.783 1.52447 12.4339ZM17.1975 20.7658C13.1435 20.5593 8.61402 19.7159 5.32312 18.2091C-4.91256 13.5243 2.41527 5.07525 5.06151 11.2794C7.63743 17.3208 30.0423 16.6045 33.9597 12.4947C34.93 11.4765 34.8442 8.55574 37.85 9.32578C42.437 10.5019 39.6757 21.9108 17.1975 20.7658Z" fill="#A4B49F"/>
<path fill-rule="evenodd" clip-rule="evenodd" d="M17.6357 10.3178C18.2217 11.2247 18.9279 12.2815 19.4365 13.0951C19.6401 13.4209 19.7619 13.5756 19.8813 13.5945C20.0007 13.5756 20.1225 13.4209 20.3261 13.0951C20.8346 12.2815 21.5409 11.2247 22.1268 10.3178C22.5498 9.6627 22.5986 9.58051 22.2482 9.3306C22.1723 9.27644 22.0321 9.1851 21.8773 9.08165C21.159 8.59968 21.3171 8.64413 21.3127 7.80155C21.3031 6.08918 21.291 3.75227 21.3161 2.28509C21.3297 1.48935 21.174 1.33611 20.4943 1.30562C20.0945 1.28824 19.5149 1.28147 19.1266 1.3143C18.5668 1.36168 18.4339 1.54829 18.4464 2.28509C18.4711 3.75227 18.4595 6.08918 18.4499 7.80155C18.4455 8.64413 18.6036 8.59968 17.8852 9.08165C17.7305 9.1851 17.5903 9.27644 17.5144 9.3306C17.1639 9.58051 17.2128 9.6627 17.6357 10.3178ZM19.2021 14.9297C19.0401 14.8287 18.8884 14.6933 18.7568 14.527C18.256 13.8918 17.3587 12.5193 16.8555 11.6849C16.5422 11.1662 16.0163 10.3864 15.9486 9.77586C15.7847 8.31107 16.93 8.40049 17.1968 7.8431C17.2452 6.89509 17.147 4.17482 17.1799 2.41753C17.2074 0.966275 17.0556 0.00759261 18.3275 0.00327965C19.3795 -0.00109322 20.3831 -0.00109322 21.435 0.00327965C22.7069 0.00759261 22.5551 0.966275 22.5827 2.41753C22.6156 4.17482 22.5174 6.89509 22.5657 7.8431C22.8326 8.40049 23.9779 8.31107 23.814 9.77586C23.7463 10.3864 23.2204 11.1662 22.9071 11.6849C22.4038 12.5193 21.507 13.8918 21.0057 14.527C20.8679 14.702 20.7079 14.8417 20.5368 14.9442C20.064 15.2251 19.6719 15.2207 19.2021 14.9297Z" fill="#A4B49F"/>
</svg>
