<svg width="48" height="50" viewBox="0 0 48 50" fill="none" xmlns="http://www.w3.org/2000/svg">
<path fill-rule="evenodd" clip-rule="evenodd" d="M26.3472 27.567C26.6998 27.3017 27.0735 26.6091 27.1744 25.8491L36.9677 28.7908C38.5664 29.3024 38.1122 29.2299 39.0264 28.3995C40.8593 26.7337 45.1389 29.0833 45.6035 30.2712C44.8502 31.5758 42.1564 32.1337 41.9377 32.582C41.8572 33.6016 43.8148 35.0183 43.6889 36.4641C42.4447 37.3775 40.063 36.4128 39.541 36.8453C39.1301 37.1857 39.4631 38.3116 39.4985 38.8462C39.5481 39.6003 39.4289 40.5611 39.403 41.342C37.2431 41.2337 33.6873 38.622 34.3944 36.3624C34.5802 35.7691 34.6964 35.5883 34.2756 35.1212C33.5335 34.2991 31.6323 32.5645 30.7518 31.8345L26.3472 27.567ZM7.7923 36.7954C6.8044 36.4629 4.40277 37.4095 3.74654 36.4507C3.39276 35.4824 5.30817 33.7041 5.47314 32.7887C4.90569 31.6354 2.0878 31.6479 1.80446 30.1778C1.89653 29.6674 5.14314 27.247 7.50609 27.9487C8.49105 28.2408 8.49525 28.7374 9.09774 29.0783C9.42445 29.185 16.1453 27.0833 17.3765 26.7074C18.2285 26.447 19.344 26.1799 20.0748 25.8324C20.266 26.6612 20.6948 27.2137 21.0219 27.567C20.6639 28.3883 15.9769 32.3891 14.8523 33.5078C14.4302 33.9279 12.9294 35.117 12.826 35.6049C12.6457 36.4574 13.7648 36.8216 12.4648 38.6745C11.7648 39.6728 10.1136 40.8774 8.8561 41.2207C7.94649 41.4686 7.97189 41.3579 7.88108 40.4382C7.78859 39.507 8.31734 37.3099 7.7923 36.7954ZM21.4406 25.5154C21.1344 24.0646 22.116 22.9895 23.2073 22.7495C24.636 22.4349 25.7219 23.4546 25.9706 24.5045C26.671 27.4617 22.0639 28.4696 21.4406 25.5154ZM21.041 22.4384C20.6739 22.7829 20.1327 23.4254 20.0764 24.1741C19.1248 23.7275 9.99399 20.9204 9.09774 20.9154C8.53604 21.0646 8.23487 22.8349 5.12237 21.9374C3.91403 21.5891 2.11403 20.5328 1.78361 19.7341C2.63859 18.2579 4.38814 18.4158 5.44607 17.4058C5.52694 16.7041 4.72149 15.9658 4.39484 15.3921C4.20357 15.0562 3.51357 13.6071 3.44732 13.2462C4.1786 13.24 4.85191 13.1646 5.55815 13.1392C6.08984 13.1196 7.41528 13.3046 7.76942 13.1846C8.35688 12.9854 7.93564 11.8646 7.89233 11.3416C7.84022 10.7146 7.81735 9.66752 7.94985 9.06377C8.08109 8.46625 8.44775 8.57 9.45566 9.02334C10.8457 9.64835 12.5856 10.8616 13.0198 12.4558C13.504 14.2321 11.8536 13.9617 13.8848 15.6008C14.3015 15.9371 14.6998 16.36 15.1011 16.7162L19.9106 21.2312C20.1586 21.4574 20.8964 22.1442 21.041 22.4384ZM43.9377 13.245C43.7222 14.5633 41.8039 16.8804 41.9239 17.3095C42.4822 18.2633 45.3151 18.4325 45.5826 19.8271C44.8939 20.7858 43.723 21.4687 42.326 21.91C39.3043 22.8641 38.6635 21.087 38.3781 20.9417C37.4023 20.8179 29.0031 23.7529 27.1744 24.1562C27.0615 23.3041 26.6523 22.7983 26.3656 22.4384C27.3319 21.3908 27.5006 21.2058 27.9868 20.7171L33.2856 15.7587C33.5968 15.4929 33.9402 15.2362 34.1914 14.9871C35.341 13.8475 33.2897 13.5659 35.0002 11.2271C35.5543 10.4692 37.7702 8.56958 39.3105 8.70586C39.8218 9.86083 39.1405 12.7733 39.4477 13.0679C39.7364 13.345 41.1806 13.17 41.6447 13.155C42.4072 13.1299 43.151 13.2421 43.9377 13.245ZM17.1027 2.93628C18.4835 3.48253 19.1257 3.88043 20.2102 4.7054C20.5544 4.96669 20.8411 5.25877 21.4427 5.19126C22.0581 4.19042 22.4914 3.15708 23.0494 2.33085C23.664 1.42047 23.6394 1.19465 24.0035 1.79085C24.1794 2.0788 24.7073 2.80417 25.0623 3.48747C26.3814 6.02959 25.7785 5.46631 28.2068 3.96589C28.7848 3.60876 29.6719 3.17962 30.2852 2.93965C30.3302 4.74839 30.7552 5.79041 30.186 7.62622C29.7743 8.95544 29.0473 10.0238 27.4706 10.0504C26.8552 11.4417 25.2993 19.2383 24.7664 21.3979C24.0506 21.2599 23.4956 21.1966 22.619 21.3979L20.0852 10.3321C19.8744 9.86877 19.5352 10.0317 19.0256 9.89922C18.3331 9.71921 17.779 8.97541 17.4865 8.36208C16.5236 6.34465 17.0552 5.10922 17.1027 2.93628ZM20.9202 3.30084C19.5335 3.11125 18.4327 1.75004 16.9881 1.59172C15.134 1.38835 15.3386 7.03086 16.3535 9.02877C16.7615 9.83121 17.4277 10.5942 18.1935 11.0121C18.7452 11.3133 18.9794 11.2392 19.1527 11.92C19.2852 12.4409 19.3703 13.0021 19.4923 13.5333C19.9185 15.385 20.5382 17.6629 21.5048 21.1925C20.6377 20.2024 16.3777 16.1566 14.3031 14.3429C14.3986 12.2379 14.5703 11.9429 13.4469 10.4446C12.3348 8.96251 7.95272 6.14624 7.04192 7.32709C6.32399 8.25748 6.63734 10.5288 6.47776 11.7829C4.88485 11.7838 3.2457 11.8442 2.08066 12.5125C1.93732 14.2996 3.34399 15.4621 3.5794 16.8683C2.62649 17.3708 -1.01513 19.0191 0.373158 20.4392C1.91898 22.0196 5.91983 24.5841 8.50106 23.0533C9.96524 22.1849 9.55982 22.2904 11.3815 22.8596C14.0877 23.7041 15.954 24.2333 19.0019 25.0141C17.2761 25.3446 12.9169 26.6258 11.4165 27.0883C9.8319 27.5767 10.029 27.8775 8.6365 27.0037C7.72731 26.4333 6.46902 26.3966 5.31651 26.672C3.9211 27.0054 -0.861841 29.327 0.135704 30.7432C0.740652 31.6028 2.6453 32.7775 3.64069 33.1212C3.23779 34.595 1.82069 35.7578 2.10151 37.4725C3.0857 38.1237 5.04898 38.222 6.47608 38.2237C6.94439 41.6511 5.47733 44.5024 10.631 41.8774C11.1856 41.5953 11.6073 41.2899 12.0931 40.9137C12.429 40.6541 13.1152 40.0191 13.374 39.6766C14.4911 38.1949 14.4027 37.9295 14.3115 35.7728C14.4752 35.597 14.5194 35.5795 14.7231 35.4286C15.3769 34.9465 17.5556 32.7404 18.4573 31.9829C19.139 31.4108 20.2794 30.1158 20.9669 29.7299C20.8714 30.6558 20.4965 31.9608 20.2911 32.8891L19.2231 37.6974C19.0631 38.432 19.0806 38.6212 18.4786 38.9078C15.424 40.362 15.1031 44.3558 15.9581 47.3761C16.3906 48.9049 17.0931 48.5778 18.3135 47.9758C18.9519 47.6612 20.3319 46.7849 20.9202 46.704C21.4598 47.7436 22.6744 49.8686 23.676 49.9965C24.5427 50.107 26.0323 47.5561 26.4665 46.7074C27.5315 46.8716 28.7577 47.9849 29.9968 48.3549C31.0548 48.6707 31.1768 48.2466 31.4323 47.3815C32.6031 43.4161 31.291 39.6203 28.6219 38.792C27.4431 38.4262 27.2498 39.5733 27.8368 39.9241C28.0543 40.0541 28.364 40.1516 28.6923 40.3266C29.3289 40.6657 29.7297 41.1308 30.0098 41.9028C30.7565 43.9636 30.3319 44.9924 30.2852 47.067C29.1302 46.6191 28.106 46.0212 27.1639 45.3078C26.8339 45.0582 26.5477 44.7487 25.9606 44.822C25.1107 45.9033 25.0435 47.3561 23.7381 48.1941C22.6623 47.8712 22.1331 45.9136 21.4485 44.8103C20.5843 44.7332 19.3148 46.1974 17.1027 47.0703C17.0598 44.9336 16.5356 43.7082 17.4515 41.6999C17.7336 41.082 18.2881 40.3616 18.8802 40.1508C20.1865 39.6857 19.9543 40.3699 20.416 38.6024C20.8015 37.1266 22.4673 29.8158 22.5602 28.6271C23.5685 28.9083 24.2664 28.7766 24.8265 28.61C24.8802 29.3108 25.3964 33.8495 25.9102 35.5303C26.1756 36.3978 26.8631 36.5479 27.1393 35.6804C27.2177 35.4345 26.2185 29.4242 26.2339 29.1729C29.176 32.2962 30.9531 33.7428 33.0752 35.7728C33.3973 36.6582 31.726 38.9528 36.7485 41.877C41.8856 44.8678 40.556 40.9011 40.9102 38.2237C42.0197 38.2232 45.1835 38.1845 45.3285 37.1595C45.5051 35.9079 44.0402 34.167 43.746 33.1232C44.8343 32.7445 46.4384 31.7279 47.1406 30.8287C47.5789 30.2675 47.4531 30.0087 47.0018 29.5737C45.6635 28.2833 44.1239 27.0641 42.1414 26.7033C38.826 26.0991 38.2989 27.5516 37.7497 27.6895C36.4047 27.3212 30.2919 25.5303 28.1956 25.0354C33.8139 23.3966 36.0243 22.7604 37.8081 22.2937C38.2918 22.51 39.3297 23.9453 42.0489 23.3146C43.7781 22.9299 44.6384 22.3445 45.8943 21.3766C46.2501 21.1025 46.6935 20.7812 46.9585 20.482C47.8101 19.5187 47.0656 18.9904 46.2197 18.3274C45.656 17.8854 44.5051 17.1495 43.746 16.8821C43.8735 16.4304 44.4377 15.4804 44.671 15.0217C44.9305 14.5108 45.3247 13.5733 45.2993 12.9245C45.266 12.0646 44.2505 12.0433 43.576 11.9408C42.6989 11.8075 41.8047 11.7838 40.9085 11.7829C40.4776 8.31085 41.8276 5.52254 36.7431 8.1221C35.793 8.6079 34.4868 9.68292 33.9706 10.3846C32.7393 12.0579 33.0685 12.0921 33.0714 14.3296C31.6947 15.5091 27.0151 19.9129 26.0065 21.0316C26.9577 17.8495 27.4727 15.5096 27.8127 13.9225C28.0635 12.7496 28.154 11.4554 28.8398 11.1262C29.8331 10.6504 30.3897 10.1796 30.8969 9.27085C32.1018 7.11127 32.0989 1.6559 30.6356 1.57796C29.111 1.49674 27.831 3.01794 26.5356 3.29588C26.3473 3.1363 25.6127 1.81082 25.3377 1.44332C25.0419 1.04791 24.311 -0.0049543 23.7419 1.75481e-05C22.8502 0.00798449 21.3919 2.40166 20.9202 3.30084Z" fill="#9EA4BD"/>
</svg>
