<svg width="50" height="42" viewBox="0 0 50 42" fill="none" xmlns="http://www.w3.org/2000/svg">
<path fill-rule="evenodd" clip-rule="evenodd" d="M23.4634 22.8448C23.642 22.6557 24.1935 22.2138 24.4642 21.6037C24.6783 21.1385 24.8969 20.6365 25.1344 20.3932C25.3279 20.195 25.7496 20.172 26.3855 20.9168C26.8086 21.4124 27.2742 21.9143 27.5299 22.1384C27.4081 22.5333 26.1725 24.7006 25.7733 25.0763C25.2099 24.6002 24.197 23.5586 23.4634 22.8448ZM34.2884 7.05474C34.2051 6.47309 33.9766 5.20221 33.8193 4.63792C33.3668 3.01412 32.2628 4.40078 32.3256 4.54819C31.8041 4.31704 31.4512 4.39801 31.2056 4.68323C30.9973 5.54607 31.7503 6.07104 32.4578 6.96331C33.8188 8.67995 32.9243 9.89022 33.2914 11.6112C33.3963 12.1034 33.8312 12.4942 34.2917 12.1001C34.6919 11.7574 34.4146 9.19154 34.4194 8.50161C34.9249 8.35193 37.2308 6.54818 37.9248 6.04011C38.5028 5.61699 38.8252 4.71698 37.8178 4.62947C37.8325 4.28656 37.631 3.70154 37.1592 3.73388C36.7082 3.77663 36.4411 4.47597 36.2511 4.91161C35.8215 5.89718 35.3085 6.74136 34.2884 7.05474ZM26.5207 16.5141C27.9011 18.3547 28.0069 17.9745 27.9486 21.0238C27.1455 20.4692 26.4714 18.9494 25.0426 19.1021C23.9657 19.2322 24.0982 20.033 23.4725 21.1177C23.3372 21.3522 23.0775 21.6536 22.9194 21.7186L21.2261 18.1587C21.776 17.2565 22.5828 16.507 23.0953 15.8829C23.8133 15.0085 23.3486 14.7971 22.5257 13.1246C22.2491 12.5625 21.8382 11.8797 21.6585 11.3136C22.2028 10.7836 22.5778 10.5638 22.9381 10.2909C24.1813 11.0353 25.8888 11.8141 27.5132 12.6667C27.3122 13.1894 26.6894 14.0094 26.3712 14.5589C25.7205 15.6826 25.8478 15.617 26.5207 16.5141ZM20.716 10.5093C19.8909 9.75453 19.381 9.36344 18.7971 8.70097C18.9128 8.12661 18.9704 7.9023 19.0826 7.38865C19.2303 6.7127 19.3768 6.06089 19.5462 5.38554C19.6643 4.91484 19.7765 4.49523 19.8666 4.06864C19.8666 4.06864 20.366 4.08714 20.7447 4.00969L23.0582 8.46358C22.3794 9.0396 21.9392 9.57543 20.716 10.5093ZM26.1612 5.59456C25.9979 5.94717 25.8926 6.26141 26.1204 6.56845C26.6976 7.13808 28.668 9.14014 29.3331 9.8013C29.054 10.3551 28.4973 11.2396 28.1908 11.664L23.7912 9.45613C24.2472 8.93041 24.3989 8.82042 24.5557 8.56326C23.5332 6.66934 22.6781 5.20725 21.799 3.38384C22.2463 3.1294 22.9027 2.67318 23.3135 2.40929C23.9563 1.99637 23.9164 1.16828 23.1161 1.09732C23.1755 0.793443 22.791 -0.0667379 22.132 0.343007C21.8612 0.511342 21.5756 1.38073 21.4034 1.76346C20.8115 3.07926 19.2697 3.02675 18.8277 2.0438C18.6081 1.5555 18.6566 0.701351 18.349 0.295076C17.8063 -0.421664 17.1925 0.342557 17.2066 0.741691C16.7007 0.603734 16.1581 0.788312 16.1624 1.36373C16.1656 1.77986 16.6236 2.044 16.8796 2.25041C17.4127 2.68017 18.1213 3.26826 18.7112 3.58511C18.6764 4.58304 18.0348 6.39136 17.7908 7.44206C17.3013 9.54938 17.5794 9.30324 18.9607 10.5858L20.1423 11.7838C20.912 12.5098 21.5203 13.6608 21.9587 14.7406C22.1337 15.1716 22.0854 15.1392 21.817 15.4697C21.6418 15.6856 21.5033 15.9283 21.3035 16.0537C19.9618 15.3152 18.4588 14.4675 17.0041 13.7441C16.4776 13.4823 15.1565 12.7791 14.9544 12.4659C14.2544 11.3806 13.5135 8.80397 13.268 7.47304C12.9893 5.96266 13.309 5.94898 12.1814 5.22213C11.2664 4.63228 11.1961 4.38338 11.0278 3.0362C10.9636 2.52139 10.9048 2.01362 10.396 1.97314C9.78945 1.92486 9.75584 2.40099 9.65316 2.92249C9.02463 2.95659 9.00633 2.92073 8.58558 3.24895C8.51806 3.93838 8.78215 4.03393 9.12832 4.31543C9.42573 4.55724 9.6312 4.77768 9.9278 5.01995L11.6702 6.37341C12.0463 6.77763 12.1582 8.17831 12.3304 8.81222C12.5507 9.62311 12.8507 10.3494 13.0069 11.1848L9.13627 10.8367C8.94711 10.2085 8.5133 9.71057 8.30688 8.88192C7.84597 7.03201 8.08525 8.16413 6.98567 7.42571C6.40536 7.03603 6.5078 6.06471 5.92239 5.70199C5.58942 5.49568 5.17113 5.5761 5.05193 5.93802C4.92679 6.31784 5.11126 6.76953 5.16167 7.12843C4.61898 7.13376 3.73952 7.0292 3.86937 7.77928C3.95975 8.30164 4.58077 8.48627 5.13942 8.54752C7.26547 8.78059 6.76424 8.35761 7.55922 10.269C8.26812 11.9736 7.69952 11.9611 9.7841 12.1702C11.0528 12.2974 12.3257 12.3654 13.6002 12.4775C13.766 12.6772 13.91 13.1583 14.0885 13.4141C14.5799 14.1183 15.9727 14.5528 16.7462 14.9579C18.1241 15.6798 19.0754 16.1247 20.3505 16.9754C19.9547 18.297 19.4132 17.6349 20.5334 19.5887C20.8662 20.1693 21.6834 21.4201 21.568 22.218C21.225 22.5389 20.2465 22.6816 19.6635 22.6169C19.2607 22.5723 18.5283 22.0187 18.2415 21.8149C17.5754 21.3416 16.0481 20.5449 15.8777 19.7506C16.1356 19.5567 16.7931 19.2831 17.1144 19.1028C17.5407 18.8635 17.8419 18.4004 17.3201 18.0421C16.6748 17.5992 15.5219 18.768 14.7307 18.9025C14.4986 18.4264 14.2864 18.3825 13.9535 18.0088C13.6793 17.701 13.5526 17.4468 12.9774 17.3143C8.06749 16.1826 9.18309 17.5067 6.85812 13.5994C6.31173 12.6812 6.39536 12.226 5.32468 11.7986C4.5256 11.4796 1.24609 10.0077 0.645931 9.97833C0.125047 9.95284 -0.134795 10.47 0.135551 10.8847C0.199373 10.9827 0.959392 11.4812 1.05293 11.5402C0.768775 11.9729 0.144701 12.1401 0 12.7463C0.564199 14.3919 2.02441 11.811 3.32907 12.2929C3.6888 12.4257 4.90008 12.9124 5.08855 13.0709C5.33513 13.2783 5.86302 14.3024 5.96131 14.7433L4.63919 15.3914C4.04098 15.5978 3.70171 15.7537 3.01036 15.4812C2.62853 15.3306 1.91078 14.8987 1.53589 15.1331C0.981248 15.4799 1.51669 16.136 1.76162 16.3977C1.61187 16.908 1.28826 17.7511 2.30677 17.5911C2.76863 17.5185 3.40976 17.2116 3.8185 17.0355C4.62659 16.6875 5.91364 16.051 6.84412 15.9304C6.95726 16.2149 7.38205 16.9577 7.57247 17.1797C8.04419 17.7295 11.4632 18.2266 12.2767 18.4159C13.458 18.6909 14.4118 20.494 15.4 21.2481L16.466 22.1606C16.2175 22.3364 15.4434 22.6691 15.116 22.8238C14.6413 23.0481 14.1421 23.2963 13.5289 23.1289C11.7576 22.6454 10.6729 18.2509 9.52601 19.351C8.97027 19.8841 10.3798 21.3489 10.5952 22.0794C7.62889 21.4916 7.31328 20.4458 5.18533 19.6595C4.58592 19.438 0.695347 18.3779 0.58951 19.6804C0.546945 20.204 1.18147 20.4056 1.38599 20.7853C1.19803 20.9753 0.95689 21.0839 0.967094 21.4164C0.976447 21.7214 1.19432 21.9456 1.46512 21.9889C1.90207 22.0587 2.54925 21.5604 2.88742 21.352C4.82795 20.1558 4.92894 20.8652 6.97141 22.0816C7.48689 22.3886 7.78125 22.4572 8.33089 22.706C8.90054 22.9639 8.79775 23.4509 8.95211 24.1534C9.08621 24.7637 9.25152 25.1638 9.30108 25.8266C8.23226 26.3054 8.38441 26.4809 6.83456 26.5804C6.35424 26.6113 5.99042 26.8374 6.19764 27.3969C6.34859 27.8045 6.82011 27.7739 7.232 27.9488C7.29863 28.3957 7.09541 29.0216 7.3512 29.3432C7.58368 29.6355 8.15903 29.6125 8.33434 29.2964C8.67806 28.6764 8.14963 27.6867 9.14523 27.2465C10.1422 26.8058 10.755 27.3246 10.5621 25.7214C10.4627 24.8956 10.159 24.1738 10.0604 23.2884C11.0857 23.5146 13.7016 24.7272 14.5017 24.4338C15.1843 24.1836 15.7974 23.8326 16.4553 23.5351C17.4172 23.1003 17.6366 22.8207 18.4582 23.5091L17.0505 27.3233C16.0573 27.1371 14.9401 26.8073 14.0213 26.6675C12.5988 26.4508 12.4624 27.5283 13.8383 27.9111C14.5679 28.1142 15.3892 28.2425 16.7972 28.5892L16.4948 30.9013C15.3299 31.122 14.8499 30.8494 13.6866 30.6895C12.2524 30.4924 11.9646 31.121 12.8995 32.035C12.7357 32.4457 12.2202 32.9943 12.6778 33.3771C13.2333 33.8416 13.7127 33.1785 14.0041 32.9286C15.6451 31.5212 16.013 32.7214 17.2208 32.2775C17.765 32.0032 17.9266 28.9294 18.204 27.9194C18.3924 27.2336 19.3861 24.2376 19.6995 23.9326C20.8436 23.9125 21.6721 23.6859 22.3219 23.4649C23.1976 24.294 24.1134 25.2476 25.2066 26.2564C24.965 27.3502 24.5447 28.6691 24.217 29.7602C23.9502 30.6487 23.6983 31.5721 23.7112 32.4069C23.7236 33.2143 23.9647 33.8778 24.2903 34.4372C24.9591 35.5859 25.8953 36.338 26.666 37.3826C27.1606 38.053 26.7191 38.2519 26.2978 39.0774C24.747 42.1158 26.7425 42.5393 26.915 41.4662C27.334 38.86 28.4245 38.3299 28.4188 37.6615C28.4138 37.0608 26.5294 35.466 26.045 34.8224C25.087 33.5494 24.6958 32.8636 25.1613 30.7762C25.3487 29.9356 25.584 29.5071 26.1391 29.1319C26.6434 28.7909 27.2445 28.5472 27.829 28.2049C28.6549 27.7212 28.7683 27.5838 29.932 27.8178C30.936 28.0198 30.891 28.2329 31.2755 29.0833C31.8075 30.2599 32.3121 31.6062 32.7342 32.8729C32.9782 33.6048 34.15 36.2965 34.2369 36.3886C34.63 36.4159 35.9557 36.0843 36.8265 36.3949C37.2675 36.5522 38.65 37.5117 38.9451 36.675C39.039 36.4086 39.0197 36.1723 38.8248 35.8914C39.1502 35.5237 39.0421 35.0709 38.7646 34.8402C38.1813 34.5804 35.8453 35.1803 34.9142 35.1635L33.9435 32.7407C34.7121 32.5104 35.8389 32.1935 36.6434 31.9002C37.6776 31.5233 37.4598 30.5223 36.2359 30.7719C35.3851 30.9454 34.2765 31.3855 33.5967 31.5877C33.3418 30.8415 32.1909 28.2386 32.1077 27.8515C31.9814 26.31 34.7881 28.269 35.2206 28.4587C36.1935 28.8854 36.7913 28.1398 37.819 27.951C38.1609 28.8763 38.5395 29.243 39.0398 29.9536C39.7725 30.9943 39.4702 31.4064 40.571 31.6021C41.4008 31.7498 42.4315 32.1311 43.2525 32.1288C43.7773 32.1273 44.2235 31.9206 44.0234 31.3223C43.9554 31.119 43.421 30.6729 43.2337 30.5211C43.3825 30.3772 43.4653 30.3016 43.6329 30.0808C44.1079 29.4552 43.3375 28.9115 42.652 29.3369C42.147 29.6503 41.369 30.3175 40.7886 30.5033C40.38 29.3499 39.3361 28.7532 39.0015 27.4778C39.6644 27.0253 40.4924 26.9342 41.2117 26.5363C41.8925 26.1596 42.4265 25.6786 43.0896 25.3202C44.3985 24.6129 45.1502 26.0579 45.9062 26.7909C46.8631 27.7183 47.2397 26.3905 46.8516 25.9721C47.3108 25.9 47.6117 25.3455 47.2062 24.9024C46.7118 24.5281 45.7838 24.369 45.0292 24.1687C44.23 23.9567 43.4201 23.5712 42.6898 24.044C41.5841 24.7597 40.5871 25.8484 38.8385 26.0314C38.9697 25.608 39.1569 25.1783 39.3758 24.848C39.6439 24.4433 39.8833 24.2139 39.8384 23.628C39.5223 23.3814 39.359 23.0568 38.9168 23.4287C38.367 23.8911 37.6087 25.3815 37.2393 26.0449C36.8953 26.6628 36.6337 27.4582 35.5847 27.2322C35.1013 27.128 34.0457 26.4654 33.7267 26.1978C33.9225 25.9063 34.8748 25.1261 35.1725 24.7642C35.7358 24.0793 36.6972 22.7067 37.5146 22.504C38.5383 22.2501 39.5036 22.0237 40.5324 21.793C41.2725 21.627 41.354 21.6757 41.7424 21.1795C41.9644 20.8959 42.3263 20.436 42.4425 20.0403C43.3543 20.1709 44.2421 20.7947 44.9979 21.1736C46.0607 21.7063 47.0457 22.3339 46.8948 20.6939C46.9622 20.6478 47.5852 20.2252 47.6302 20.1741C47.8429 19.9331 47.7654 19.517 47.5597 19.3146C46.7971 18.9852 46.0238 19.6768 45.2922 19.7201C44.63 19.7594 43.7703 19.2575 43.5101 18.875C43.5929 18.5211 43.9346 18.1124 44.1281 17.8494C44.4355 17.4314 44.3868 17.2717 44.9033 17.0373C46.3883 16.3634 48.1476 16.0118 49.5921 15.2261C50.167 14.9134 50.0099 14.7971 49.8554 14.2213C49.6597 13.4922 50.1361 13.5936 49.9603 12.8293C48.8497 11.6555 48.517 14.0677 48.0513 14.4713C47.7345 14.7459 45.7701 15.3594 45.198 15.581C43.6495 16.1809 43.8237 16.1709 42.9794 17.3302C42.4211 18.0968 41.876 18.8561 41.3303 19.6525C40.9952 20.1415 40.9202 20.4347 40.225 20.6137C39.7009 20.7487 39.1525 20.8612 38.6186 20.9826C37.2783 21.2874 36.4365 21.257 35.7919 22.1224C34.6073 23.7129 34.564 22.2334 33.4039 21.9989C32.7398 21.8646 32.4867 22.6414 32.9209 23.0528C33.2567 23.371 33.7689 23.5345 34.0406 23.8895C33.9146 24.3986 33.7435 24.474 33.4373 24.7681C33.1822 25.0133 32.8933 25.1968 32.5933 25.4321C32.2652 25.6896 31.308 26.6529 30.8258 26.7034C30.1192 26.7773 28.7523 26.2167 28.2086 26.4354C27.6467 26.6614 27.3157 27.3588 26.2662 27.4395C26.933 25.5948 27.7072 24.1655 28.7396 22.5921C29.4587 21.4962 29.1248 21.638 29.2545 20.3071C29.7715 20.0739 30.1626 19.9606 30.719 19.7292C31.2718 19.4992 31.8437 19.2983 32.4543 19.0845C33.5882 18.6874 35.01 18.3073 36.0343 17.8288C36.5801 17.5738 36.55 16.7405 37.21 16.5508C38.2118 16.263 40.3627 16.2488 41.5294 16.0225C42.0276 15.9259 42.0433 15.9186 42.2537 15.5661L43.6938 13.3528C44.0675 12.7721 44.3504 12.4552 45.3092 12.5763C45.8763 12.6478 47.0541 13.0196 47.1833 12.3265C47.2542 11.9469 47.0068 11.7489 46.9337 11.4365C46.8305 10.9959 47.022 10.761 46.7322 10.4281C46.1916 10.1293 44.729 11.0398 44.2432 11.2765C43.9947 11.3975 43.3307 11.7387 43.128 11.9076C42.6507 12.3054 41.8556 14.6103 40.8333 14.8522C40.0702 15.0328 38.5237 15.1888 37.7142 15.2128C37.9192 14.5161 38.527 13.392 38.8589 12.7061C39.2255 11.9482 39.4484 10.8741 40.1758 10.4498C40.9478 9.99946 41.6898 9.54002 42.493 9.12218C43.2035 8.75257 44.0604 8.36737 44.2488 7.72536C44.3958 7.22444 43.8555 6.98448 43.4956 7.04252C43.5468 6.48044 43.1238 6.12732 42.6691 6.27096C42.2603 6.40012 41.8741 7.43074 41.6142 7.91885C41.1937 8.70867 40.0215 9.10936 39.2272 9.57548C38.857 9.79275 38.7403 9.81498 38.5599 10.26C37.7668 12.2166 36.8721 13.9089 35.9656 15.7692C35.609 16.501 35.3975 16.8416 34.4467 16.9872C34.4556 16.5937 34.5492 15.7836 34.4903 15.4507C34.426 15.0873 34.0449 14.7715 33.6213 14.997C33.048 15.3023 33.1931 16.7712 33.1448 17.4767C32.8633 17.7112 29.4297 18.9801 29.1378 18.9038C29.0276 17.9014 28.8934 17.5316 28.3808 16.8722C27.0516 15.1626 27.1033 15.6412 28.4239 13.6004C28.7873 13.0388 29.1288 12.5198 29.4857 11.9621C30.0021 11.1552 30.3617 10.3292 30.5736 9.97783C30.833 9.54772 30.8459 9.56286 30.5563 9.28332C29.63 8.38915 28.0858 6.8924 27.2139 5.97046C27.4525 5.3708 29.0311 2.83166 28.7713 2.15404C28.5988 1.70437 27.9824 1.59241 27.7628 1.80752C27.6605 1.43409 26.2832 0.316451 26.6628 3.45269C26.7039 4.33218 26.6226 4.59823 26.1612 5.59456Z" fill="#A4B49F"/>
</svg>
