<svg width="44" height="44" viewBox="0 0 44 44" fill="none" xmlns="http://www.w3.org/2000/svg">
<path fill-rule="evenodd" clip-rule="evenodd" d="M12.3722 21.2257C12.4177 20.301 15.8693 15.9098 16.5669 15.0521C17.0091 14.5087 17.1632 14.1226 18.1561 14.1109C20.0555 14.0893 22.5108 15.2399 23.8957 16.2273C25.8908 17.6493 27.4669 19.3084 28.7633 21.7636C29.32 22.8182 29.9207 24.4762 29.8602 25.8901C29.8161 26.9205 29.0829 27.2838 28.0301 27.9816C27.7293 28.1811 27.4643 28.4399 27.2335 28.5521C27.0556 28.0733 26.0644 26.3686 25.5484 25.959C24.9947 25.5197 23.1375 24.4539 22.4264 25.4031C22.2924 26.157 22.7016 26.2747 23.3706 26.3337C24.1129 26.3994 24.2909 26.468 24.7125 26.8772C25.165 27.3161 25.9345 28.5983 26.1334 29.3592L22.2466 31.9496C21.4202 32.4945 19.072 34.1262 18.2611 34.3737C17.9382 34.0184 17.4813 32.8949 16.7723 32.0289C16.4186 31.5969 15.2697 30.487 14.2415 30.7547C13.9031 31.1224 13.8242 31.6233 14.4345 31.9049C15.0165 32.1733 15.309 32.2257 15.6792 32.628C15.9067 32.8751 16.2241 33.3657 16.4245 33.7639L17.1547 34.986C16.6913 35.7238 10.5679 38.9108 9.73303 39.3446C8.26923 40.105 3.04051 42.7121 1.27764 42.6809C1.39402 41.2971 2.43725 39.0007 2.97815 37.8401C3.39534 36.9455 4.71565 33.9065 5.20374 33.4427C7.41023 34.1273 7.3684 35.371 7.7082 35.8414C8.38853 36.7838 9.91135 35.3413 7.41903 33.1839C7.12323 32.9279 6.20404 32.5073 5.84039 32.2012C6.00847 31.4498 6.77463 30.3176 7.14751 29.6393C8.48944 27.1973 9.64536 25.2535 11.0853 22.9256C11.2306 22.6905 11.2651 22.5094 11.4335 22.2861C12.5825 22.5387 14.3816 23.6311 15.0708 24.4704C15.3981 24.8686 15.8062 25.7695 15.9804 25.9359C16.532 26.4617 18.3311 25.9579 15.328 22.9843C14.1108 21.7794 13.0595 21.7882 12.3722 21.2257ZM32.8509 14.3734C33.6567 14.4097 34.5862 14.5465 35.3689 14.5091C35.8819 14.4845 36.0826 14.416 36.5432 14.6466C36.8448 14.7973 37.0936 15.0595 37.3373 15.1691C37.917 15.4287 38.3038 14.6543 39.2135 14.6997C40.1632 14.7471 40.0182 15.4852 40.2384 16.2797C40.8274 16.6413 41.4471 16.3281 41.8016 16.6838C42.0464 17.2349 41.6299 17.368 41.7154 17.8406C41.8358 18.5068 43.1425 18.3217 42.6489 19.5731C42.4276 20.1338 42.1381 19.9219 41.8853 20.2885C41.497 20.8514 42.6845 21.7933 41.5914 22.2055C40.5995 22.5791 40.4751 21.3849 40.034 21.0017C39.2902 20.8377 39.1885 21.2279 38.9078 21.7303C38.6946 22.1116 38.2087 22.4874 37.8415 22.0324C37.4558 21.5553 37.8752 20.9635 37.8004 20.5111C37.6976 19.8892 36.9233 20.0612 36.3296 20.0975C36.4676 18.6763 36.9923 18.1564 35.3898 18.2572C35.6133 17.2551 36.1666 17.1931 34.8364 16.0256C33.9924 15.2846 33.7264 15.2985 33.2871 14.9528C32.9143 14.6598 33.0725 14.6774 32.8509 14.3734ZM29.8279 13.8212C29.9901 13.1326 30.1724 12.9826 30.3996 12.4114C31.4175 9.85134 30.9178 8.11774 31.4043 7.51896C32.2766 6.44571 33.3408 8.81551 34.1403 7.95527C34.7543 7.29529 33.1723 6.23595 33.8123 5.02343C35.1436 4.76123 35.4889 6.15973 36.2757 5.75525C36.7252 5.52426 36.5391 5.01647 36.3957 4.55628C36.2261 4.01359 36.2305 3.6341 36.2804 3.04597C37.5537 2.48388 37.3879 3.21977 37.9086 3.7826C38.499 4.42059 38.9893 3.5087 39.3845 3.1241C40.0252 2.50075 40.8332 3.16917 40.954 3.71112C41.2105 4.85986 38.9155 5.20677 40.4894 6.19747C41.9014 7.08591 41.5418 8.18337 39.9485 7.72281C39.5808 7.61648 39.2476 7.40162 38.8928 7.62491C38.5761 7.82401 38.5776 8.2706 38.7791 8.56211C39.132 9.0718 39.827 9.27897 39.7155 10.2726C38.5622 11.1167 37.7325 9.68265 36.6522 9.844C36.3274 10.2796 36.2199 10.2976 36.4907 10.9301C37.0878 12.3241 36.6922 13.3075 34.9598 13.2477C33.9598 13.2133 33.1562 13.0685 32.1258 13.2331C31.3394 13.3589 30.4994 13.7707 29.8279 13.8212ZM22.968 3.9535C22.5956 3.57543 21.4 3.2931 21.7897 2.34346C22.1963 1.35344 23.336 2.59495 23.7922 2.04462C24.0725 1.70583 23.9614 1.50341 24.5419 1.31274C25.7235 0.92445 25.4622 2.24077 26.1935 2.29211C26.6776 2.32585 26.6926 2.04462 27.3586 2.21288C27.6005 2.7222 27.374 3.41634 27.6669 3.69609C27.9619 3.97806 28.5682 3.70342 29.0195 4.14595C29.9816 5.09016 28.3847 6.0842 28.8602 6.75593C28.9633 6.90184 29.1479 7.01001 29.302 7.22197C29.7262 7.80493 29.9413 8.59917 29.876 9.34824C29.8147 10.0486 29.4892 11.7184 29.2874 12.3674C28.8155 11.5486 28.6797 10.4097 28.1168 9.55066C26.879 7.6616 26.6402 8.38463 25.7664 8.63655C25.8391 6.98107 25.1492 7.51311 23.9159 7.68432C23.8777 7.1798 24.0436 6.65803 23.7452 6.302C23.361 6.07723 22.913 6.33458 22.4275 6.30379C22.0481 6.27965 21.6562 5.98446 21.7431 5.63649C21.9442 4.83203 23.2403 5.19317 22.968 3.9535ZM21.178 4.43493C21.0635 4.57974 19.9627 5.22691 20.6614 6.51797C21.3464 7.78332 22.4051 7.16292 22.6547 7.79691C22.6612 7.81373 22.6708 7.83867 22.6778 7.85775C22.7148 7.96118 22.7324 8.06566 22.7695 8.17567C23.0278 8.93944 23.5805 8.89726 24.3848 8.81914L24.4347 8.95889C24.5111 9.25183 24.4747 9.35082 24.5925 9.5525C24.6854 9.71165 24.9246 9.90521 25.1411 9.98555C25.954 10.2877 26.1154 9.86051 26.6324 9.7516C26.8416 10.0141 26.9466 10.0277 27.141 10.3625C28.3531 12.4459 27.6603 14.7276 26.0244 16.1301C25.6608 16.0344 25.1698 15.626 24.8769 15.41C23.0403 14.0559 20.3083 12.7179 17.9059 12.865C16.5867 12.9456 16.0612 13.6214 15.5126 14.3261C13.9152 16.3765 10.7337 20.9933 9.27396 23.41C8.33127 24.9705 7.39772 26.5651 6.47302 28.2265C4.84225 31.1569 2.68162 35.2621 1.35731 38.3513C0.929779 39.3486 -0.998956 43.4476 0.666317 43.9389C2.67941 44.5333 9.99908 40.6147 11.6119 39.7531C15.3974 37.7306 22.6649 33.3521 25.8486 31.0422C26.5543 30.5303 29.8712 28.2801 30.3527 27.8448C31.7441 26.5853 30.9526 23.4397 30.2146 21.8714C29.782 20.9529 29.3398 20.1668 28.8158 19.4184L27.5674 17.8003C27.3675 17.5407 27.2563 17.5143 27.0856 17.2943C27.4085 16.5041 29.3428 15.7338 30.5409 15.6733C31.7056 15.6146 32.6186 15.9333 33.4945 16.5456C33.7628 16.7333 33.9594 16.9764 34.2354 17.1139C34.1051 18.4203 33.1778 18.9076 35.1 19.5878C35.3238 20.7006 34.8585 21.1817 36.4206 21.3038C36.4771 22.2814 36.8114 22.9586 37.4536 23.3219C38.5534 23.9442 39.1386 23.1687 39.6421 22.8105C40.3327 23.103 40.4083 23.7136 41.6622 23.4983C42.4313 23.3663 42.9788 22.8765 43.2265 22.2762C43.4871 21.6448 43.2581 21.566 43.2302 21.0508C43.207 20.6266 43.5275 20.429 43.7117 20.1422C44.1065 19.528 44.1054 18.4863 43.6492 17.9477C43.3285 17.5696 43.1297 17.7167 43.148 17.0527C43.1682 16.3307 42.9267 15.5086 42.1084 15.3169C41.4813 15.1698 41.5364 15.3257 41.2086 14.8164C39.6887 12.4536 38.5779 13.6735 37.5299 13.7644C37.7526 12.9284 37.9402 12.7007 37.9622 11.6777C38.7196 11.4401 39.2737 12.2328 40.4211 11.2868C41.4666 10.4248 40.82 9.39151 40.7947 9.05013C41.8137 8.98857 42.3704 8.55663 42.5494 7.59893C42.7605 6.47064 42.1084 5.95294 41.6182 5.41794C41.7187 5.18437 42.9909 3.87869 41.6046 2.38267C40.9917 1.72159 40.1052 1.35966 39.1628 1.75675C38.822 1.90013 38.7717 2.0424 38.484 2.22279C37.7475 2.04641 37.3575 1.22988 36.065 1.7733C35.1799 2.14541 35.0192 2.73797 35.0474 3.87759C34.2435 3.75587 33.6413 3.52156 33.0376 4.07115C32.3312 4.71469 32.3933 4.90904 32.4758 6.08893C30.9269 6.05925 30.6007 6.79404 30.4991 7.31432C30.4392 6.70348 30.0437 6.50364 30.0789 6.42003C30.335 5.80955 30.8858 5.42637 30.4979 4.22371C30.2396 3.42182 29.5582 2.91767 28.7431 2.62068C28.7186 1.11037 27.948 0.841954 26.5161 0.87606C26.0181 0.221143 25.2083 -0.17226 24.3639 0.0741242C23.7459 0.254564 23.7918 0.369692 23.3878 0.657879C22.9368 0.979803 22.7868 0.633679 22.1746 0.667047C21.3597 0.711011 20.7344 1.44917 20.5391 2.14836C20.1553 3.5223 20.9153 3.62936 21.178 4.43493Z" fill="#98ACCB"/>
</svg>
