<svg width="50" height="50" viewBox="0 0 50 50" fill="none" xmlns="http://www.w3.org/2000/svg">
<path fill-rule="evenodd" clip-rule="evenodd" d="M24.9405 12.4551C30.3003 12.4551 34.6446 16.7993 34.6446 22.1583C34.6446 27.5177 30.3003 31.8619 24.9405 31.8619C19.5819 31.8619 15.2377 27.5177 15.2377 22.1583C15.2377 16.7993 19.5819 12.4551 24.9405 12.4551ZM24.9409 13.8851C29.5101 13.8851 33.2146 17.5896 33.2146 22.1583C33.2146 26.7274 29.5101 30.4319 24.9409 30.4319C20.3722 30.4319 16.6677 26.7274 16.6677 22.1583C16.6677 17.5896 20.3722 13.8851 24.9409 13.8851Z" fill="#CCAE9C"/>
<path fill-rule="evenodd" clip-rule="evenodd" d="M9.29815 12.0917C5.96524 12.3952 3.01865 9.93957 2.71554 6.60792C2.41208 3.27501 4.86771 0.328411 8.19978 0.0253642C11.5323 -0.278161 14.4789 2.17754 14.782 5.50955C15.0855 8.84204 12.6298 11.7887 9.29815 12.0917ZM9.17541 10.7471C6.58607 10.9825 4.29606 9.07452 4.06022 6.48476C3.82486 3.89589 5.73282 1.60583 8.32252 1.37005C10.9114 1.13463 13.2015 3.04259 13.4373 5.63229C13.6727 8.22121 11.7647 10.5112 9.17541 10.7471Z" fill="#CCAE9C"/>
<path fill-rule="evenodd" clip-rule="evenodd" d="M41.6678 12.11C38.7943 12.3714 36.2529 10.2542 35.9914 7.38031C35.73 4.50685 37.8473 1.96543 40.7212 1.70395C43.5946 1.44254 46.136 3.55979 46.3975 6.43367C46.659 9.30713 44.5417 11.8485 41.6678 12.11ZM41.5404 10.7082C39.4408 10.899 37.5845 9.35254 37.3933 7.25296C37.2024 5.15332 38.7489 3.29705 40.8485 3.10579C42.9481 2.915 44.8044 4.46144 44.9957 6.56101C45.1864 8.66065 43.64 10.5169 41.5404 10.7082Z" fill="#CCAE9C"/>
<path d="M25.6549 31.312H24.2648V40.441H25.6549V31.312Z" fill="#CCAE9C"/>
<path d="M32.3745 26.341L31.6049 27.4985L39.207 32.5529L39.9767 31.3953L32.3745 26.341Z" fill="#CCAE9C"/>
<path d="M17.1327 27.0179L17.9207 28.1631L10.3999 33.3377L9.61191 32.1926L17.1327 27.0179Z" fill="#CCAE9C"/>
<path d="M32.1365 16.4577L31.1777 15.4512L37.7876 9.15446L38.7464 10.1609L32.1365 16.4577Z" fill="#CCAE9C"/>
<path d="M18.3499 16.4293L19.3087 15.4229L12.6988 9.12614L11.74 10.1326L18.3499 16.4293Z" fill="#CCAE9C"/>
<path fill-rule="evenodd" clip-rule="evenodd" d="M5.30065 6.51928C5.29395 6.47136 5.28885 6.42302 5.28424 6.37426C5.1098 4.46002 6.52009 2.76813 8.43349 2.59411C8.75673 2.56464 9.07409 2.58064 9.37839 2.63652C7.56587 3.32337 5.95089 4.64661 5.30065 6.51928Z" fill="#CCAE9C"/>
<path fill-rule="evenodd" clip-rule="evenodd" d="M6.60798 41.6909C3.27506 41.9944 0.328461 39.5387 0.0253552 36.2071C-0.27811 32.8742 2.17754 29.9275 5.50961 29.6245C8.84216 29.321 11.7888 31.7766 12.0918 35.1087C12.3953 38.4412 9.93963 41.3878 6.60798 41.6909ZM6.48523 40.3462C3.89589 40.5816 1.60588 38.6736 1.37005 36.0839C1.13469 33.495 3.04265 31.205 5.63235 30.9692C8.22127 30.7337 10.5113 32.6417 10.7471 35.2315C10.9825 37.8203 9.07458 40.1104 6.48523 40.3462Z" fill="#CCAE9C"/>
<path fill-rule="evenodd" clip-rule="evenodd" d="M2.61047 36.1184C2.60376 36.0705 2.59867 36.0221 2.59405 35.9733C2.41962 34.0591 3.8299 32.3672 5.74331 32.1932C6.06654 32.1638 6.3839 32.1797 6.68827 32.2357C4.87574 32.9225 3.26077 34.2458 2.61047 36.1184Z" fill="#CCAE9C"/>
<path fill-rule="evenodd" clip-rule="evenodd" d="M44.4218 40.8569C41.0889 41.1604 38.1423 38.7047 37.8392 35.3731C37.5357 32.0402 39.9914 29.0935 43.3235 28.7905C46.6559 28.487 49.6026 30.9427 49.9057 34.2747C50.2092 37.6072 47.7535 40.5538 44.4218 40.8569ZM44.2991 39.5122C41.7097 39.7476 39.4197 37.8397 39.1839 35.2499C38.9485 32.661 40.8564 30.371 43.4462 30.1352C46.0351 29.8998 48.3252 31.8077 48.561 34.3975C48.7964 36.9863 46.8884 39.2764 44.2991 39.5122Z" fill="#CCAE9C"/>
<path fill-rule="evenodd" clip-rule="evenodd" d="M40.4244 35.2844C40.4177 35.2365 40.4126 35.1881 40.408 35.1394C40.2336 33.2251 41.6439 31.5332 43.5573 31.3592C43.8805 31.3298 44.1979 31.3457 44.5022 31.4017C42.6896 32.0885 41.0747 33.4118 40.4244 35.2844Z" fill="#CCAE9C"/>
<path fill-rule="evenodd" clip-rule="evenodd" d="M38.7245 7.29365C38.7161 7.24112 38.7098 7.18774 38.7048 7.13395C38.5795 5.75901 39.593 4.54294 40.9679 4.41768C41.3261 4.38492 41.6737 4.43026 41.994 4.53832C40.1171 5.2163 39.4732 5.66023 38.7245 7.29365Z" fill="#CCAE9C"/>
<path fill-rule="evenodd" clip-rule="evenodd" d="M25.434 49.9781C22.5606 50.2396 20.0191 48.1224 19.7577 45.2484C19.4962 42.375 21.6135 39.8336 24.4874 39.5721C27.3609 39.3107 29.9023 41.428 30.1638 44.3018C30.4252 47.1753 28.308 49.7167 25.434 49.9781ZM25.3067 48.5763C23.207 48.7671 21.3508 47.2207 21.1596 45.1211C20.9687 43.0215 22.5152 41.1652 24.6148 40.974C26.7144 40.7831 28.5707 42.3296 28.7619 44.4292C28.9527 46.5288 27.4063 48.385 25.3067 48.5763Z" fill="#CCAE9C"/>
<path fill-rule="evenodd" clip-rule="evenodd" d="M22.4907 45.1614C22.4823 45.1088 22.476 45.0555 22.4709 45.0016C22.3457 43.6267 23.3591 42.4106 24.7341 42.2854C25.0922 42.2526 25.4399 42.298 25.7602 42.406C23.8833 43.084 23.2393 43.5279 22.4907 45.1614Z" fill="#CCAE9C"/>
<path fill-rule="evenodd" clip-rule="evenodd" d="M24.9405 16.0547C25.2398 16.0547 25.534 16.0765 25.822 16.1181C23.9914 16.9542 19.9439 18.6528 18.9476 23.3149C18.8757 22.9403 18.8375 22.5536 18.8375 22.1581C18.8375 18.7873 21.5702 16.0547 24.9405 16.0547Z" fill="#CCAE9C"/>
</svg>
