<svg width="34" height="50" viewBox="0 0 34 50" fill="none" xmlns="http://www.w3.org/2000/svg">
<path fill-rule="evenodd" clip-rule="evenodd" d="M2.7161 25.645C4.21625 25.645 5.43216 26.8609 5.43216 28.3611C5.43216 29.8613 4.21625 31.0772 2.7161 31.0772C1.2159 31.0772 0 29.8613 0 28.3611C0 26.8609 1.2159 25.645 2.7161 25.645ZM2.7161 27.0235C3.45471 27.0235 4.05367 27.6225 4.05367 28.3611C4.05367 29.0997 3.45471 29.6987 2.7161 29.6987C1.97744 29.6987 1.37847 29.0997 1.37847 28.3611C1.37847 27.6225 1.97744 27.0235 2.7161 27.0235Z" fill="#CCAE9C"/>
<path fill-rule="evenodd" clip-rule="evenodd" d="M3.05148 13.7432C4.63836 13.7432 5.92429 15.029 5.92429 16.6159C5.92429 18.2028 4.63836 19.4887 3.05148 19.4887C1.46459 19.4887 0.178711 18.2028 0.178711 16.6159C0.178711 15.029 1.46459 13.7432 3.05148 13.7432ZM3.05148 15.0966C3.89054 15.0966 4.57083 15.7769 4.57083 16.6159C4.57083 17.455 3.89054 18.1353 3.05148 18.1353C2.21242 18.1353 1.53214 17.455 1.53214 16.6159C1.53214 15.7769 2.21242 15.0966 3.05148 15.0966Z" fill="#CCAE9C"/>
<path fill-rule="evenodd" clip-rule="evenodd" d="M11.5003 17.9497C13.5311 17.9497 15.1767 19.5954 15.1767 21.6261C15.1767 23.657 13.5311 25.3026 11.5003 25.3026C9.46952 25.3026 7.82385 23.657 7.82385 21.6261C7.82385 19.5954 9.46952 17.9497 11.5003 17.9497ZM11.5003 19.2952C12.7875 19.2952 13.8312 20.3389 13.8312 21.6261C13.8312 22.9133 12.7875 23.9571 11.5003 23.9571C10.2132 23.9571 9.1694 22.9133 9.1694 21.6261C9.1694 20.3389 10.2132 19.2952 11.5003 19.2952Z" fill="#CCAE9C"/>
<path fill-rule="evenodd" clip-rule="evenodd" d="M23.2655 19.6162C25.7098 19.6162 27.6906 21.597 27.6906 24.0414C27.6906 26.4856 25.7098 28.4665 23.2655 28.4665C20.8212 28.4665 18.8405 26.4856 18.8405 24.0414C18.8405 21.597 20.8212 19.6162 23.2655 19.6162ZM23.2655 21.0781C24.902 21.0781 26.2287 22.4049 26.2287 24.0414C26.2287 25.6779 24.902 27.0046 23.2655 27.0046C21.629 27.0046 20.3023 25.6779 20.3023 24.0414C20.3023 22.4049 21.629 21.0781 23.2655 21.0781Z" fill="#CCAE9C"/>
<path fill-rule="evenodd" clip-rule="evenodd" d="M29.8854 13.4453C31.3856 13.4453 32.6014 14.6612 32.6014 16.1614C32.6014 17.6616 31.3856 18.8775 29.8854 18.8775C28.3852 18.8775 27.1693 17.6616 27.1693 16.1614C27.1693 14.6612 28.3852 13.4453 29.8854 13.4453ZM29.8854 14.8296C30.6211 14.8296 31.2172 15.4257 31.2172 16.1614C31.2172 16.8971 30.6211 17.4932 29.8854 17.4932C29.1497 17.4932 28.5536 16.8971 28.5536 16.1614C28.5536 15.4257 29.1497 14.8296 29.8854 14.8296Z" fill="#CCAE9C"/>
<path fill-rule="evenodd" clip-rule="evenodd" d="M29.8609 28.709C31.6253 28.709 33.0554 30.1391 33.0554 31.9035C33.0554 33.668 31.6253 35.0982 29.8609 35.0982C28.0964 35.0982 26.6663 33.668 26.6663 31.9035C26.6663 30.1391 28.0964 28.709 29.8609 28.709ZM29.8609 30.1566C30.8254 30.1566 31.6078 30.939 31.6078 31.9035C31.6078 32.8681 30.8254 33.6505 29.8609 33.6505C28.8963 33.6505 28.1139 32.8681 28.1139 31.9035C28.1139 30.939 28.8963 30.1566 29.8609 30.1566Z" fill="#CCAE9C"/>
<path fill-rule="evenodd" clip-rule="evenodd" d="M13.0002 13.4909C10.7827 13.0345 8.24917 12.3371 6.57728 11.8536C5.02537 11.4046 3.72782 10.7661 2.79034 9.15791C0.824567 5.78447 3.49354 0.846683 7.93031 1.40983C8.45967 1.47698 14.7125 3.07135 15.5274 3.41316C15.612 4.16931 14.5525 7.57019 14.2957 8.52061L13.0002 13.4909ZM17.4686 3.3877C18.752 3.11634 20.0071 2.7162 21.2693 2.37607C23.8357 1.68497 26.4922 0.596586 28.8006 2.40733C32.4649 5.28219 30.9598 10.2079 27.6522 11.4593C26.9132 11.7389 20.6294 13.4442 20.0709 13.4651C19.1122 9.94492 18.2822 6.38602 17.4686 3.3877ZM16.5733 5.06253C17.2173 8.1392 17.8654 10.1008 18.8508 13.9973C19.1718 15.2662 19.419 15.0524 20.7103 14.756C22.02 14.4551 23.7177 13.9944 24.4192 13.8106C25.9436 13.4113 28.109 12.9361 29.2495 12.2196C33.9518 9.26586 33.0327 2.10051 27.8948 0.333556C26.0382 -0.305009 24.2663 0.0834566 22.4464 0.580351C20.7799 1.03513 19.0855 1.50029 17.3878 1.94339C16.1831 2.25812 15.888 2.06888 14.7534 1.75667C13.8893 1.51904 13.0723 1.28062 12.2095 1.04179C8.95819 0.140192 6.34552 -0.843541 3.42646 1.28271C0.0355346 3.75245 -0.0995436 8.48059 2.58321 11.2242C3.81325 12.4822 4.76445 12.7986 6.8686 13.3617C8.5593 13.8143 10.2279 14.2766 11.9315 14.7135C14.1919 15.2929 13.8609 15.6047 14.8772 11.8932C15.2461 10.5468 16.2548 6.91245 16.5733 5.06253Z" fill="#CCAE9C"/>
<path fill-rule="evenodd" clip-rule="evenodd" d="M25.1417 4.05421C24.2521 4.27639 24.4901 5.33141 25.1437 5.36513C25.318 5.37388 25.5201 5.35392 25.7498 5.35847C27.1112 5.38555 26.6777 6.84155 27.6977 6.78153C29.2178 6.69192 27.6155 3.34891 25.1417 4.05421Z" fill="#CCAE9C"/>
<path fill-rule="evenodd" clip-rule="evenodd" d="M14.9241 29.0449C20.7105 29.0449 25.4015 33.736 25.4015 39.5224C25.4015 45.3089 20.7105 49.9999 14.9241 49.9999C10.0843 49.9999 6.01104 46.7182 4.80807 42.2585C4.65508 41.3136 5.95724 40.9667 6.2065 42.2298C7.35909 45.9483 10.8263 48.649 14.9241 48.649C19.9644 48.649 24.0506 44.5628 24.0506 39.5224C24.0506 34.4821 19.9644 30.3959 14.9241 30.3959C10.7825 30.3959 7.28613 33.1553 6.17067 36.9352C5.99144 38.0298 4.53047 38.0319 4.79057 36.8526C5.97059 32.3592 10.0601 29.0449 14.9241 29.0449Z" fill="#CCAE9C"/>
<path d="M18.7166 37.1028C18.7166 37.6993 18.533 38.227 18.1659 38.6629C17.7759 39.0988 17.2712 39.3741 16.6288 39.4888C18.2807 39.7641 19.1066 40.5901 19.1066 41.9896C19.1066 43.9397 17.5694 44.9033 14.4951 44.9033C14.2427 44.9033 13.3251 44.8804 11.7191 44.8345C11.5585 44.8345 11.4208 44.7657 11.3061 44.6509C11.1914 44.5362 11.1226 44.3986 11.1226 44.238V35.1067C11.1226 34.9461 11.1914 34.7856 11.3061 34.6708C11.4208 34.5561 11.5585 34.5102 11.7191 34.5102C13.2333 34.4643 14.1509 34.4414 14.4492 34.4414C17.2941 34.4414 18.7166 35.3362 18.7166 37.1028ZM14.7933 40.0853H12.3156V43.7332C13.5086 43.7562 14.2886 43.7791 14.6328 43.7791C16.7664 43.7791 17.8447 43.1367 17.8447 41.8749C17.8447 40.6818 16.8353 40.0853 14.7933 40.0853ZM12.3156 35.6115V39.0988H15.0457C15.8028 39.0988 16.3764 38.9382 16.8123 38.5941C17.2482 38.2729 17.4547 37.8369 17.4547 37.2863C17.4547 36.1392 16.4911 35.5656 14.5869 35.5656C14.0821 35.5656 13.3251 35.5885 12.3156 35.6115Z" fill="#CCAE9C"/>
</svg>
