<svg width="48" height="46" viewBox="0 0 48 46" fill="none" xmlns="http://www.w3.org/2000/svg">
<path fill-rule="evenodd" clip-rule="evenodd" d="M44.6597 28.5722C43.6478 33.6103 38.8676 39.4638 36.2187 41.2141C32.8178 43.4608 28.9201 44.7281 23.8766 44.7757C19.1141 44.8209 14.5788 43.4347 11.4861 41.2616C9.32177 39.7413 7.08772 37.4099 5.72342 35.1138C5.04954 33.9795 3.25479 30.651 3.20575 29.0962C7.87966 35.4181 16.0186 37.9148 21.3696 38.4327C29.2187 39.1928 40.1709 35.4891 44.6597 28.5722ZM21.5114 1.43681C27.9713 0.878662 33.3292 2.4764 37.7394 5.27239C41.922 7.92433 45.3267 12.0766 46.1168 17.058C46.8068 21.4084 45.3681 25.4001 42.9087 28.6017C39.6457 32.3127 33.1241 36.4025 26.1367 37.0411C15.9251 37.975 3.23485 32.3725 1.52595 21.4928C0.435769 14.5513 4.44583 8.57178 10.0015 5.08575C13.3196 3.00387 17.4319 1.78908 21.5114 1.43681ZM20.5151 0.158374C13.5036 1.14892 5.81277 4.50422 2.206 11.0297C-0.460491 15.8547 -0.409138 20.2569 0.779967 25.7125C1.73987 30.1174 3.41383 34.4905 6.07266 37.894C8.4447 40.9308 11.6103 43.4378 15.2765 44.7059C18.9829 45.9877 23.067 46.171 27.1272 45.8804C30.2023 45.6604 33.6938 44.3068 35.9293 43.0119C40.7789 40.2033 44.064 34.8792 45.7089 29.4902C47.7049 22.9498 48.8929 16.4949 45.0903 10.529C42.0761 5.80101 36.5806 2.39435 31.3136 0.914326C28.651 0.165659 23.3733 -0.245691 20.5151 0.158374Z" fill="#CCAE9C"/>
<path fill-rule="evenodd" clip-rule="evenodd" d="M30.7059 19.3083C30.4008 21.1789 29.1422 22.1763 27.9543 22.9531C26.7953 23.7109 25.2137 24.7522 23.4258 24.853C21.3899 24.9678 20.0751 23.8081 18.8772 23.002C17.4027 22.0097 16.2381 21.288 16.0897 19.3707C15.9357 17.3811 16.9442 15.7716 18.1665 15.1628C19.5742 14.4616 21.8403 14.2908 23.5642 14.1472C25.3377 13.9994 27.9342 13.4958 29.1383 14.5685C29.9783 15.3167 30.9826 17.6117 30.7059 19.3083ZM24.7015 12.5947C22.5096 12.7566 19.815 12.9774 17.8762 13.6559C14.7707 14.7427 13.8446 19.0132 15.1778 21.5732C15.8459 22.8558 18.1422 24.3747 19.4047 25.171C20.1752 25.657 21.1399 26.1547 22.241 26.3227C25.1339 26.764 28.5458 24.5931 30.4805 22.8685C33.0124 20.6115 32.4973 16.6579 30.8035 14.2093C30.257 13.4193 29.7247 12.8812 28.4708 12.6234C27.2733 12.3772 25.9166 12.505 24.7015 12.5947Z" fill="#CCAE9C"/>
<path fill-rule="evenodd" clip-rule="evenodd" d="M24.6589 10.2261C25.3056 9.54607 26.8029 6.90113 24.732 6.7288C23.9944 6.66741 23.358 7.377 23.6777 8.29116C23.8403 8.75613 24.3769 9.90957 24.6589 10.2261Z" fill="#CCAE9C"/>
<path fill-rule="evenodd" clip-rule="evenodd" d="M34.5698 16.9568C35.942 17.452 38.4284 18.6507 38.0409 16.3662C37.708 14.4042 34.7147 16.7909 34.5698 16.9568Z" fill="#CCAE9C"/>
<path fill-rule="evenodd" clip-rule="evenodd" d="M28.9008 10.2816C29.477 10.135 30.9965 9.29493 31.273 8.96907C31.5019 8.69931 31.6943 7.77336 30.9568 7.42401C29.2163 6.59952 29.0315 9.04711 28.9008 10.2816Z" fill="#CCAE9C"/>
<path fill-rule="evenodd" clip-rule="evenodd" d="M33.9307 21.9173C34.0639 22.3461 34.9106 22.9254 35.3237 23.1649C36.0278 23.5732 36.8482 23.4803 37.0963 22.7037C37.3628 21.8697 36.9282 21.2271 36.0606 21.3152C35.7211 21.3497 34.2193 21.6582 33.9307 21.9173Z" fill="#CCAE9C"/>
<path fill-rule="evenodd" clip-rule="evenodd" d="M27.804 28.252C27.8739 28.875 28.0593 30.0158 28.2698 30.5658C28.9399 32.3173 31.5282 30.5021 29.6262 29.208C29.204 28.9208 28.3133 28.3829 27.804 28.252Z" fill="#CCAE9C"/>
<path fill-rule="evenodd" clip-rule="evenodd" d="M33.2655 13.2436C33.9997 13.1304 34.7903 12.8514 35.4633 12.637C35.8818 12.5037 36.1795 12.4511 36.2386 12.0008C36.2876 11.628 36.0892 11.1169 35.925 10.911C34.9247 9.65689 33.5593 12.0734 33.2655 13.2436Z" fill="#CCAE9C"/>
<path fill-rule="evenodd" clip-rule="evenodd" d="M15.0733 12.3465C15.0051 11.2677 14.9948 9.4812 14.0588 9.21502C13.0937 8.94046 11.9867 10.0674 13.3918 11.274C13.6294 11.4779 14.7968 12.2559 15.0733 12.3465Z" fill="#CCAE9C"/>
<path fill-rule="evenodd" clip-rule="evenodd" d="M12.6539 15.8175C12.5459 15.6084 10.6648 12.9521 9.62474 14.1858C8.85111 15.1035 9.90652 15.8825 10.062 15.9273C10.4902 16.0507 12.1347 15.8773 12.6539 15.8175Z" fill="#CCAE9C"/>
<path fill-rule="evenodd" clip-rule="evenodd" d="M31.0833 25.6997C31.2809 26.2742 31.8274 26.8962 32.1693 27.3617C33.636 29.3585 35.265 26.6073 33.4767 26.0552C32.8879 25.8735 31.7257 25.7382 31.0833 25.6997Z" fill="#CCAE9C"/>
<path fill-rule="evenodd" clip-rule="evenodd" d="M11.7337 20.4385C11.3913 19.8509 8.15386 18.9165 8.53693 20.8202C8.86186 22.4349 10.4697 21.4256 11.4024 20.8335C11.6723 20.6622 11.6486 20.7477 11.7337 20.4385Z" fill="#CCAE9C"/>
<path fill-rule="evenodd" clip-rule="evenodd" d="M19.6209 10.4462C19.812 9.8583 19.9035 8.79715 19.8915 8.08822C19.8785 7.31712 19.0673 7.02598 18.3283 7.40949C16.891 8.15562 19.1376 10.3798 19.6209 10.4462Z" fill="#CCAE9C"/>
<path fill-rule="evenodd" clip-rule="evenodd" d="M14.1632 24.7739C12.9224 24.7799 10.0238 24.8442 11.3111 26.6551C12.2331 27.9523 13.8681 25.5093 14.1632 24.7739Z" fill="#CCAE9C"/>
<path fill-rule="evenodd" clip-rule="evenodd" d="M17.883 27.4559C15.2921 28.1546 15.3597 29.7018 16.1885 30.0434C16.9894 30.3735 17.6379 29.7208 17.8504 29.194C17.9968 28.8311 18.5271 27.2822 17.883 27.4559Z" fill="#CCAE9C"/>
<path fill-rule="evenodd" clip-rule="evenodd" d="M23.2153 29.1304C22.6231 29.4505 21.1406 31.4563 22.4483 31.9813C23.1211 32.2514 23.6317 31.7993 23.6628 31.114C23.6871 30.5779 23.4262 29.5469 23.2153 29.1304Z" fill="#CCAE9C"/>
</svg>
