<svg width="40" height="50" viewBox="0 0 40 50" fill="none" xmlns="http://www.w3.org/2000/svg">
<path fill-rule="evenodd" clip-rule="evenodd" d="M28.5156 38.2148C30.8183 38.2148 32.6853 40.0818 32.6853 42.3846C32.6853 44.6869 30.8183 46.5539 28.5156 46.5539C26.2132 46.5539 24.3461 44.6869 24.3461 42.3846C24.3461 42.1136 24.3724 41.8481 24.4219 41.5917L19.9753 40.0372C19.2674 41.3316 17.8936 42.2094 16.3145 42.2094C15.056 42.2094 13.9273 41.6516 13.1628 40.7693L7.95585 44.083C8.20183 44.6145 8.33914 45.2063 8.33914 45.8306C8.33914 48.133 6.47211 50 4.16937 50C1.86699 50 0 48.133 0 45.8306C0 43.5278 1.86699 41.6608 4.16937 41.6608C5.37961 41.6608 6.46922 42.1769 7.23084 43.0005L12.4736 39.6644C12.2622 39.1653 12.1452 38.6164 12.1452 38.04C12.1452 36.5721 12.9043 35.281 14.0505 34.5381L11.898 29.8669C11.6587 29.923 11.4089 29.953 11.1526 29.953C9.36007 29.953 7.90672 28.4997 7.90672 26.7072C7.90672 24.9142 9.36007 23.4609 11.1526 23.4609C12.9455 23.4609 14.3989 24.9142 14.3989 26.7072C14.3989 27.7784 13.8799 28.7286 13.0795 29.3196L15.2404 34.01C15.5829 33.9189 15.9429 33.8702 16.3145 33.8702C18.6173 33.8702 20.4843 35.7372 20.4843 38.04C20.4843 38.3034 20.4598 38.561 20.4132 38.8108L24.866 40.3673C25.5769 39.0838 26.9448 38.2148 28.5156 38.2148ZM16.315 35.1782C17.8952 35.1782 19.1763 36.4593 19.1763 38.04C19.1763 39.6203 17.8952 40.9013 16.315 40.9013C14.7343 40.9013 13.4533 39.6203 13.4533 38.04C13.4533 36.4593 14.7343 35.1782 16.315 35.1782ZM4.16937 42.9689C5.75004 42.9689 7.03108 44.2499 7.03108 45.8306C7.03108 47.4108 5.75004 48.6919 4.16937 48.6919C2.58911 48.6919 1.30808 47.4108 1.30808 45.8306C1.30808 44.2499 2.58911 42.9689 4.16937 42.9689ZM11.153 24.7344C12.2422 24.7344 13.1257 25.618 13.1257 26.7072C13.1257 27.7963 12.2422 28.6799 11.153 28.6799C10.0638 28.6799 9.18028 27.7963 9.18028 26.7072C9.18028 25.618 10.0638 24.7344 11.153 24.7344ZM28.516 39.5229C30.0962 39.5229 31.3773 40.8039 31.3773 42.3846C31.3773 43.9648 30.0962 45.2458 28.516 45.2458C26.9352 45.2458 25.6542 43.9648 25.6542 42.3846C25.6542 40.8039 26.9352 39.5229 28.516 39.5229Z" fill="#CCAE9C"/>
<path fill-rule="evenodd" clip-rule="evenodd" d="M26.7671 18.246C27.0572 18.246 27.3382 18.2843 27.6058 18.3555L29.4266 14.5914C28.9484 14.1486 28.6487 13.5156 28.6487 12.8127C28.6487 11.4746 29.7337 10.3896 31.0714 10.3896C32.4098 10.3896 33.4944 11.4746 33.4944 12.8127C33.4944 14.1507 32.4098 15.2353 31.0714 15.2353C30.9049 15.2353 30.7426 15.2187 30.5853 15.1866L28.7715 18.9369C29.5311 19.532 30.0193 20.458 30.0193 21.4981C30.0193 23.2939 28.5634 24.7498 26.7671 24.7498C24.9713 24.7498 23.5155 23.2939 23.5155 21.4981C23.5155 19.7019 24.9713 18.246 26.7671 18.246ZM31.0718 11.6856C31.694 11.6856 32.1988 12.19 32.1988 12.8127C32.1988 13.4349 31.694 13.9397 31.0718 13.9397C30.4492 13.9397 29.9448 13.4349 29.9448 12.8127C29.9448 12.19 30.4492 11.6856 31.0718 11.6856ZM26.7676 19.5541C27.8413 19.5541 28.7112 20.4243 28.7112 21.4981C28.7112 22.5719 27.8413 23.4417 26.7676 23.4417C25.6938 23.4417 24.8236 22.5719 24.8236 21.4981C24.8236 20.4243 25.6938 19.5541 26.7676 19.5541Z" fill="#CCAE9C"/>
<path fill-rule="evenodd" clip-rule="evenodd" d="M28.6093 1.46815C29.3007 2.03866 32.9781 7.48528 33.4445 8.2341C34.9561 10.6587 36.3441 12.8465 37.5132 15.781C40.706 23.7981 32.4268 30.8914 25.1661 28.0312C22.4581 26.9645 20.1953 24.5672 19.3326 21.7829C18.7778 19.9925 18.811 18.0479 19.6518 15.8395C20.6308 13.269 22.3748 10.2803 23.7189 8.28615C24.4107 7.25929 27.7306 2.27758 28.6093 1.46815ZM28.1542 0.0993524C27.2336 0.484259 22.1831 8.20938 21.3871 9.54055C20.1902 11.5438 18.9293 13.8036 18.1778 16.1037C15.9035 23.0639 21.5836 30.3264 29.1569 29.9641C33.0366 29.7783 36.0109 27.5486 37.4945 25.4289C39.5315 22.5175 40.2186 19.1896 38.7462 15.3162C37.6061 12.3173 35.7763 9.35321 34.1858 6.95229L30.1322 1.23409C29.728 0.673155 29.1499 -0.316668 28.1542 0.0993524Z" fill="#CCAE9C"/>
<path fill-rule="evenodd" clip-rule="evenodd" d="M15.9047 8.92336C16.2975 9.38946 16.7408 10.017 17.1133 10.4075C17.8923 11.2248 18.8199 10.4559 18.1795 9.6042C17.8387 9.15055 17.5165 8.68564 17.1781 8.31982C16.7949 7.90536 16.4107 7.51117 15.9309 7.4937C15.4177 7.47497 14.9994 7.94945 14.6136 8.37474C12.6609 10.5281 8.12905 17.2321 7.10016 18.7121C6.19961 20.0073 5.45748 21.2363 4.6276 22.645C2.15792 26.8365 -0.64339 31.8241 0.268468 37.0685C0.393759 37.7885 0.656365 38.9809 0.920229 39.566C1.2736 40.3497 2.53793 40.2639 2.00978 38.6987C0.167334 33.2379 2.67239 28.7722 5.30684 24.0763C7.2513 20.6094 10.6191 15.7792 13.0192 12.5737C13.4829 11.9548 15.4597 9.25167 15.9047 8.92336Z" fill="#CCAE9C"/>
<path fill-rule="evenodd" clip-rule="evenodd" d="M24.151 47.6018C24.5541 46.9356 23.7812 46.4526 23.1102 46.7666C22.6025 47.0043 22.1441 47.2958 21.5874 47.5266C20.4967 47.978 19.2633 48.328 18.0196 48.4949C16.4361 48.708 15.0883 48.6957 13.5203 48.4585C11.6808 48.1799 10.3701 47.313 10.048 48.0731C9.30672 49.8219 15.9997 50.0108 17.2391 49.904C18.6062 49.7859 19.8826 49.5224 21.0974 49.1063C21.7839 48.8713 23.8789 48.0505 24.151 47.6018Z" fill="#CCAE9C"/>
<path fill-rule="evenodd" clip-rule="evenodd" d="M31.6748 35.7023C31.8006 34.8433 31.8069 33.4982 31.5593 32.6637C31.2577 31.6474 30.2965 31.5532 30.3655 32.8339C30.3963 33.4128 30.4574 34.2964 30.4458 34.6822C30.4412 35.0252 30.4038 35.3656 30.4038 35.6569C30.4042 36.6291 31.4784 37.0445 31.6748 35.7023Z" fill="#CCAE9C"/>
</svg>
