<svg width="30" height="46" viewBox="0 0 30 46" fill="none" xmlns="http://www.w3.org/2000/svg">
<path fill-rule="evenodd" clip-rule="evenodd" d="M19.3186 31.7797C20.3261 31.6616 21.752 31.6445 22.8245 31.8327C23.2859 31.9137 24.7353 32.3407 25.0156 32.5566C23.1467 33.5085 20.7715 32.8006 19.3186 31.7797ZM2.03201 21.2193C3.11703 21.0359 3.51917 20.9173 4.69246 21.0924C5.59503 21.2271 6.45297 21.2806 7.39296 21.2969C6.2297 22.0146 2.72029 21.6381 2.03201 21.2193ZM2.90218 14.4294C3.40565 14.2296 4.08088 13.9096 4.47789 13.881C5.89738 13.7787 7.89813 14.6465 9.01759 15.3441C8.17419 15.3855 5.97584 14.9263 5.18986 14.7783C4.4365 14.6365 3.66254 14.5607 2.90218 14.4294ZM7.37389 11.015C6.73079 10.5295 6.40029 9.37888 6.21509 8.54723C7.10207 8.36302 6.74033 7.7985 6.67156 7.23481C6.69625 7.00002 9.73463 10.6947 10.2092 9.13798C10.3897 8.5458 9.94793 8.2542 9.77932 7.90794C9.58966 7.51869 9.28516 5.45914 9.29282 4.94961C9.3218 3.0245 9.47477 3.75604 9.88363 2.93491C10.02 2.66127 9.93763 2.59597 10.1287 2.35148C10.6439 3.07316 10.6549 2.89584 11.0212 3.09471C11.5349 3.37369 12.1041 5.8227 12.9982 6.21029C13.4865 6.42194 13.4528 5.62863 13.529 5.08637C13.6215 4.42922 13.5311 3.80028 14.2865 1.63251C14.331 2.0001 14.3209 2.35622 14.3746 2.72855C14.4258 3.08445 14.5211 3.40173 14.5424 3.76634C14.5777 4.37434 14.1817 5.44961 14.5424 5.91726C14.9558 6.38651 15.6074 5.9642 15.8501 5.52675C15.9121 5.41505 15.8676 5.46949 15.9486 5.34678C15.8366 5.98674 15.411 6.61822 15.6336 7.35686C15.8317 8.01423 16.5001 8.06866 17.1058 7.71529C17.8752 7.26638 18.3995 6.62389 18.9046 5.97578C19.0705 5.76286 19.1343 5.63117 19.4371 5.47242C19.2111 6.14632 18.5398 7.75254 18.1688 8.18813C17.6993 8.7392 15.8613 9.40092 15.9739 9.93586C16.0968 10.378 16.4286 10.4448 17.0857 10.306C17.7673 10.162 19.4188 9.31755 19.8888 8.81728C20.1052 8.58679 20.391 8.50435 20.6711 8.36511C20.4144 9.56777 19.409 10.1911 18.5582 10.7182C17.8813 11.1376 17.1712 11.4576 16.5711 11.8925C15.6753 12.5416 16.1582 12.8666 16.9106 12.7171C17.7303 12.5544 19.2343 11.6567 19.673 11.3765C20.2156 11.03 22.3519 10.287 22.9767 10.2075C22.7824 10.5931 22.0035 11.4277 21.6235 11.6624C20.5213 12.3432 19.388 13.0588 18.119 13.4297C17.5645 13.5917 16.7969 13.4425 16.4519 13.696C16.0065 14.0232 16.4319 14.6122 16.963 14.63C17.264 14.64 17.8539 14.6036 18.2928 14.538C20.7215 14.1748 20.6667 13.3272 24.2323 13.0864L24.1315 13.1953C24.1165 13.2097 24.0973 13.2295 24.0808 13.2446C24.0651 13.259 24.0463 13.2747 24.03 13.2888L23.5442 13.7914C23.7652 14.0166 24.089 14.5366 24.4524 14.479C24.8207 14.4206 25.4385 14.03 25.7451 14.2478C25.3262 14.4886 25.0165 14.7521 24.6209 15.0611C24.0736 15.4886 23.884 15.176 23.6826 15.9811C23.7941 16.794 25.5725 16.4128 26.9275 16.6055C26.7611 16.7732 26.5464 16.8446 26.3145 16.9254C25.753 17.1212 25.3097 17.486 24.7502 17.7184C22.9325 18.4737 20.6617 17.9503 18.7138 18.0646C16.4201 18.1992 16.0453 19.4364 19.2245 19.3265C19.6885 19.24 23.2571 19.569 23.8313 19.6069C24.9544 19.6809 25.4196 20.1145 27.1951 20.4209C24.25 20.7578 25.2108 20.6986 22.1895 20.5052C21.1484 20.4386 20.4266 20.6465 19.5606 20.6285C18.7753 20.6123 17.5779 20.2806 17.4763 21.2201C17.3753 22.155 18.6805 22.09 19.4061 21.9897C20.6559 21.817 20.7652 21.8053 21.9787 22.0706C24.7717 22.6813 23.7345 21.8105 26.2347 23.54C26.9133 24.0094 27.5361 23.9876 28.3855 24.2581C28.2367 24.4306 28.2337 24.393 28.112 24.613C28.0609 24.7054 28.0414 24.7652 28.0018 24.836C27.9175 24.987 27.9905 24.8933 27.8988 24.9891C26.8572 24.4703 26.6285 24.8149 25.5994 25.0483C24.8099 25.2274 24.0522 25.4278 23.2479 25.5539C21.6555 25.8035 19.3295 25.9117 18.4981 26.456C17.8217 27.2586 18.723 27.5137 19.6462 27.4851C20.4691 27.4597 21.2808 27.4728 22.0067 27.2696C23.015 26.9872 25.7341 26.5421 26.8011 26.4381C26.5982 26.6794 26.2432 26.9834 25.9705 27.1923C25.1996 27.7829 24.7952 28.7033 25.8017 28.8535C26.1989 28.9128 26.8442 28.8254 27.2885 28.8487C26.2369 30.3185 21.8007 30.257 19.8995 30.3323C18.975 30.3688 18.0287 30.6818 18.6063 31.6614C18.392 31.8623 17.7829 32.2549 18.3372 32.7838C18.8408 33.2641 20.6493 33.4562 21.8105 34.5831L20.9515 34.7863C20.0965 34.808 19.8969 34.5514 19.2631 34.532C18.1448 34.4979 18.0314 34.6454 16.9741 34.2063C16.0402 34.1521 15.9183 34.6423 15.3503 34.8468C14.9876 34.3355 14.9386 33.9778 14.2762 33.8115C13.7321 33.6749 13.0842 33.8464 12.5327 33.9598C11.8118 34.1081 11.3492 34.073 10.6551 33.9047C9.74598 33.6842 9.91052 33.6501 9.56508 33.0158C10.3638 32.8564 13.0067 33.3033 12.648 31.9233C12.5659 31.0692 7.80121 30.9834 5.9328 30.3348C7.31344 30.1023 8.64802 30.2346 9.87586 30.1947C10.7739 30.203 10.5621 29.1473 9.87834 29.1493C8.73018 29.0084 7.72418 29.1398 6.38453 29.1975C5.31495 29.2435 4.2404 28.8843 3.2512 28.126C3.74045 28.1913 3.89766 27.9295 4.48208 27.8933C4.94714 27.8644 5.33583 27.7512 5.83037 27.8157C6.65415 27.9231 7.26628 28.2164 8.27267 28.2556C10.1402 28.3285 11.1952 27.4911 10.1866 26.9543C9.90303 26.8033 9.13165 27.0986 8.77751 27.0977C8.03693 27.0959 7.85505 26.9436 7.17746 26.8726C6.54824 26.8067 5.89522 26.5686 5.26607 26.4866C4.71069 26.4143 2.84009 25.6855 2.41299 25.4365C3.01564 25.34 3.96737 25.5883 4.65388 25.5937C5.41953 25.5998 6.16897 25.4917 6.92734 25.4526C7.69729 25.4128 8.61661 25.5752 9.33426 25.3745C9.88479 25.2206 10.4064 24.7276 10.0985 24.0158C9.63385 22.942 7.16842 23.5163 6.19124 23.7454C4.55073 24.13 3.49376 24.0353 1.81893 23.7719C4.20596 23.1357 5.55557 23.6802 7.07633 23.1188C7.84595 22.8347 8.65253 22.7405 9.33591 22.4336C9.72962 22.2569 10.0282 22.0904 10.1397 21.7161C10.2492 21.3487 10.0727 21.1029 9.84942 20.8749L9.75342 20.7814C10.673 19.3036 8.36854 19.393 7.48586 19.1251C7.07997 19.0019 6.95258 18.8604 6.41235 18.7781C5.1055 18.579 2.87408 18.6775 1.96743 17.5812C2.44329 17.2218 3.33176 16.7985 3.97569 16.5658C6.31521 15.7205 7.57198 17.1573 9.11578 16.9158C9.89438 16.794 10.2845 16.1041 9.4524 15.3073C10.1665 14.8256 10.0939 14.2061 9.18631 13.9713C8.29371 13.7405 8.02542 13.6287 7.23206 13.3191C5.707 12.7241 4.47618 12.7844 3.83 11.5778C4.98026 11.7777 6.13707 12.0465 7.11469 12.4808C7.80854 12.789 10.1252 13.3378 10.2896 12.8704C10.8863 11.7161 8.6835 12.0055 7.97941 11.5054C7.74743 11.3406 7.6062 11.1904 7.37389 11.015ZM15.9293 5.33775C16.1293 3.63262 15.2976 3.02417 16.7404 2.30018C16.6884 3.12754 16.3964 4.47777 16.0069 5.213C15.9988 5.22843 15.975 5.28843 15.9688 5.27526C15.9626 5.26181 15.9431 5.31731 15.9293 5.33775ZM12.6132 3.48323C12.3978 3.13901 12.1346 2.80889 12.0403 2.34129C11.912 1.70508 11.9018 1.51498 11.2253 1.39094C10.5359 1.26454 10.8463 0.820252 10.1762 0.69192C9.11738 0.489199 9.07925 2.04584 8.6694 2.64843C7.75735 3.9894 8.2957 5.89323 8.4572 7.31972C7.65332 6.92805 6.72831 4.82233 5.74457 5.52879C5.36255 5.80315 5.38178 6.28721 5.44746 6.82528C4.03073 7.24439 5.6563 10.2671 6.01964 11.0118C5.13393 10.8343 3.50765 10.0434 2.7041 10.4119C2.16702 10.6582 2.37116 11.467 2.60606 11.8808C2.86345 12.3341 3.2561 12.6989 3.55531 13.0334C2.81137 13.5134 1.25138 13.3185 0.780698 14.2202C0.168568 15.3929 2.47019 15.4224 3.1178 15.647C2.83232 15.8757 2.37795 15.9922 2.02865 16.2173C1.44138 16.5957 -0.299743 16.6607 0.357681 17.8321C0.544533 18.165 0.999072 18.3649 1.36875 18.5934C3.94301 20.1838 5.10026 19.5608 6.43616 19.9258L6.7957 20.1427C5.83907 20.1222 5.04466 19.9497 4.14303 19.8799C3.47006 19.8277 0.93625 20.0595 0.387708 20.4732C0.146415 20.6552 -0.150581 21.0884 0.0876806 21.5532C0.354485 22.0737 1.49714 22.3279 2.15396 22.4723C1.59594 22.7706 0.855411 22.6739 0.363073 23.1437C-0.237761 23.7171 0.078141 24.3939 0.699142 24.6523C-0.833855 26.5116 1.43416 25.9923 2.4984 26.7595C1.62999 26.7976 1.22245 26.9934 0.961104 27.6032C1.4055 28.5116 1.69082 28.3726 2.41277 28.9197C2.69439 29.1331 2.83038 29.2868 3.21593 29.4615C3.52688 29.6024 3.92444 29.681 4.20463 29.8644C3.11702 30.8083 3.95326 31.435 5.32855 31.4984C6.6094 31.5574 6.92707 32.0434 8.37967 32.1484C7.9102 32.7225 7.74831 33.0805 8.4361 33.6766C8.77299 33.9686 8.671 34.0924 8.95505 34.3354C9.10878 34.467 9.51246 34.7001 9.75193 34.8036C11.6146 35.6091 13.6368 34.7594 14.0028 34.923C14.8719 35.7238 14.0542 36.7379 13.6622 37.7059C13.2102 38.8215 13.0653 39.5715 12.867 40.8655C12.6431 42.3261 11.9723 41.2388 10.9306 42.8918C10.6141 43.3942 10.3592 43.6412 9.99108 43.9741C9.60729 44.3212 9.3612 45.0268 10.2685 44.9808C10.2708 45.2209 10.3194 45.3619 10.407 45.5071L10.8252 45.5541C11.293 45.0514 11.5612 44.0907 12.065 43.5847C11.9003 44.3829 11.2845 44.8387 11.4014 45.545C11.6736 45.6785 11.7853 45.6559 12.0931 45.5348C12.1839 45.7308 12.1068 45.695 12.3284 45.7952C12.4822 45.8647 12.7044 45.8229 12.7748 45.7943C12.9356 45.0674 12.421 44.6399 12.9896 43.8462C13.2099 44.9478 12.7295 45.9018 13.6529 45.8735C14.1044 45.8596 14.0192 46.0589 14.6223 45.9825L14.7965 45.3263L15.2561 45.3042C15.3776 44.5325 15.0285 44.428 14.8588 43.8879C16.0814 45.4446 17.1668 44.8543 16.452 43.8536C15.345 42.304 14.6068 42.2999 14.0049 41.9202C13.7049 40.2461 14.9831 37.6812 15.7086 36.2156C15.8594 35.911 16.0783 35.7711 16.3348 35.5773C16.6968 35.3038 16.7728 35.2959 17.2227 35.4956C18.5236 36.073 18.5124 35.5258 19.2453 35.7439C19.9255 35.9463 20.5137 36.3441 21.2454 36.1029C21.7823 35.9259 22.687 36.4671 23.2367 35.9942C23.8958 35.4272 23.2267 34.6655 23.0924 34.1974C25.6495 34.0617 27.1398 32.505 26.1258 31.7341C25.7524 31.4503 25.034 31.4085 24.6665 31.1446C25.6186 31.0163 27.2547 30.4519 27.8153 29.9617C28.8055 29.0959 29.1835 27.5477 27.1984 27.6831C27.4125 27.3588 27.8096 27.0801 28.067 26.7607C28.267 26.5125 28.2011 26.5586 28.4165 26.4957C29.5029 26.1785 29.4832 26.4305 29.4961 25.1609C30.5159 24.1424 29.4949 23.3926 28.5207 23.1053C27.501 22.8046 27.2992 22.9224 26.4125 22.2678L25.9838 21.9262C25.8685 21.803 25.9482 21.9112 25.8489 21.7544C28.1941 21.4832 29.5433 21.7229 29.5735 19.931C28.489 19.4395 27.5346 19.3845 26.3724 19.1034C25.9931 19.0116 25.6866 18.8529 25.3368 18.7739C25.4193 18.6875 25.3714 18.7277 25.4921 18.6369C25.5508 18.5928 25.6449 18.5343 25.7036 18.4983C26.551 17.9777 28.0619 17.6377 28.5926 17.1808C29.1631 16.6897 28.8539 15.97 28.2155 15.7477C27.6113 15.5374 26.8181 15.4431 26.1308 15.3779L27.0507 14.4613C27.4288 14.016 27.2787 13.566 27.1527 13.0187L26.1177 12.8595C26.1275 12.0084 25.6908 11.8034 24.7974 11.8666C24.0971 11.9161 23.3542 12.044 22.6439 12.1037C23.1878 11.4354 24.4205 11.1193 24.1553 9.78559C23.8837 8.42 22.2443 9.36021 21.3214 9.51884C21.5431 9.01846 22.6316 7.98353 22.1808 7.13027C21.7314 6.27961 20.2916 7.11182 19.9096 7.43715C20.1684 6.32507 21.113 5.23289 20.7726 3.82123C18.6532 3.42344 18.0435 5.8912 16.8382 6.44856C17.1051 5.08423 17.7273 4.26403 17.8651 2.57818C18.0637 0.147787 16.3813 0.957675 15.4701 1.79683C15.2494 0.654337 15.2599 0.00958778 13.9383 0C13.2717 1.03173 12.7004 1.86213 12.6132 3.48323Z" fill="#A4B49F"/>
</svg>
