<svg width="49" height="38" viewBox="0 0 49 38" fill="none" xmlns="http://www.w3.org/2000/svg">
<path fill-rule="evenodd" clip-rule="evenodd" d="M33.1244 29.4371C33.5179 29.0691 34.8669 28.527 35.5624 28.7253C36.4162 28.9687 36.2804 29.1096 37.9542 29.4919C36.7075 29.6691 34.2767 29.7478 33.1244 29.4371ZM39.5682 28.5504C38.6255 28.7469 36.5864 28.3281 35.9648 27.8083C36.497 27.8239 37.0459 27.9315 37.6027 27.9479C38.2012 27.9655 38.7324 27.8458 39.3132 27.8783C39.1886 28.0392 39.0639 28.1426 38.9387 28.3L39.5682 28.5504ZM23.9798 28.7288C24.7966 28.5164 25.821 27.7954 26.283 27.2527C27.3094 26.0467 27.1191 25.4933 27.3697 24.7551C27.417 24.6159 27.4095 24.6391 27.4611 24.5613C27.4793 25.9563 26.8686 26.9593 26.2933 27.7318C25.9151 28.2397 24.8075 29.399 24.0743 29.6924L23.9798 28.7288ZM20.025 33.8693C20.6369 33.8643 21.3385 33.8087 21.3179 33.125C21.3067 32.754 20.7442 32.2552 20.5314 31.941C19.9675 31.1089 19.3901 30.4049 18.8109 29.6872C18.213 28.9461 17.5765 28.297 16.9047 27.6374C16.5581 27.2971 16.2719 26.9417 15.9266 26.6018C13.5671 24.2787 11.594 21.6197 9.9247 18.6493C8.98713 16.981 8.11886 15.1677 7.29728 13.2507C5.85419 9.88351 5.64562 9.33341 3.20133 7.34741C2.47859 6.76017 1.71964 6.25149 1.23128 5.36741C0.959305 4.87503 0.885963 4.3582 0.870641 3.69927C1.40658 3.57177 1.88574 3.48697 2.46543 3.69754C4.04978 4.27309 3.80569 6.05744 5.88566 4.84053C7.22578 4.05646 6.95436 3.42989 6.92984 2.15408C6.90605 0.914587 8.35121 0.671012 8.95124 1.49791C9.52721 2.29168 9.39898 3.50877 10.0698 4.25738C10.8402 5.11729 11.9981 4.80721 12.5251 4.00297C12.7356 3.6817 13.0889 2.94202 13.3227 2.84019C13.7455 2.65602 14.1956 3.26902 14.3008 3.60131C14.5562 4.4085 13.8789 5.98925 13.6797 6.7562C13.0931 9.01382 13.5316 11.5161 14.5398 13.1106C15.5161 14.6546 16.6051 16.1203 17.7142 17.521C18.0196 17.9068 18.2584 18.2289 18.5561 18.6276C18.8334 18.9988 19.0479 19.3118 19.3097 19.756C20.5059 21.7857 21.5293 23.9941 22.3736 26.2431C22.5438 26.6965 22.8102 27.1415 22.9471 27.5632C25.2505 26.6881 24.6325 24.7048 23.7734 22.5145C22.8141 20.0687 22.817 18.791 23.679 16.2465C24.1928 17.0975 24.3211 17.8658 25.2782 19.2972C26.5194 21.1533 26.537 20.988 26.5649 22.6451C26.6057 25.0689 26.3187 26.4747 24.423 27.4755C23.7826 27.8136 23.5881 27.8525 23.0156 28.2757C23.1238 29.7604 23.2327 31.471 24.8492 30.3694C27.8726 28.309 29.4796 24.7912 27.4279 21.0794C26.5957 19.5739 25.5738 18.3687 24.8789 16.7666C24.0397 14.8319 23.9463 13.666 21.8232 13.0877C21.2342 12.9273 20.6053 12.8327 20.012 12.7245C19.4084 12.6144 18.7078 12.5659 18.6205 11.9415C19.4457 11.2651 21.1251 12.4136 21.6058 11.4781C22.1754 10.3696 20.456 9.28843 20.4254 8.94235C21.1254 8.41246 21.9964 9.67126 23.0096 9.62938C23.8972 9.59274 23.7848 8.58644 23.3893 8.00029C23.2103 7.73496 23.111 7.75162 23.0094 7.4735C23.4617 7.28932 24.524 8.02615 24.8603 8.26003C25.425 8.65267 25.8742 9.00171 26.2721 9.60384C27.8367 11.9715 29.7483 13.6622 30.4904 16.695C30.8324 18.0927 30.9331 20.3316 31.3489 21.5393C31.6555 22.4299 32.6342 22.1391 33.1224 21.6306C33.6325 21.0991 33.5541 20.2014 33.6454 19.2973C33.7815 17.9508 34.2842 15.7893 34.7084 14.6135C35.3181 12.9236 36.7815 10.7618 37.7308 9.17591C39.3765 6.42687 38.3069 8.03129 40.2326 7.41332C40.134 7.69969 39.9202 7.98768 40.0602 8.3659C40.1623 8.6412 40.4641 8.75282 40.7941 8.63715C41.3734 8.43404 41.6566 7.95227 41.967 7.4953C42.356 6.92285 42.6981 6.66831 43.4206 7.18204C44.6111 8.02856 43.8201 7.58661 45.1524 7.71179C45.1447 8.49904 44.3395 8.83393 43.8138 9.21497C43.2576 9.61813 42.749 9.99444 42.1865 10.3969C41.0949 11.1779 39.6681 11.424 38.3775 12.0748C36.3069 13.1188 37.019 13.8492 37.9201 15.572C38.7675 17.1923 39.1624 19.4836 38.0515 21.2569C37.7771 21.695 37.7365 21.7005 37.4142 22.0448C37.1235 22.3554 36.4217 23.1752 36.1948 23.6754C35.7395 24.6788 36.3275 25.154 37.266 25.0096C38.0058 24.8958 38.6408 24.5989 39.2312 24.2784C40.2351 23.7332 40.7069 23.0438 41.3755 22.1721C42.094 21.2352 42.7083 20.8563 43.8551 20.5197C44.572 20.3092 45.1119 19.8787 45.7153 19.6848C45.7987 19.8921 45.7531 19.7888 45.8926 19.9861C45.7387 20.2593 45.3908 20.4867 45.3185 20.8033C45.0074 22.1671 47.1982 21.2812 47.9949 21.3354C47.7685 21.8702 45.4075 22.7835 44.6697 23.1357C41.0432 24.8668 41.9843 24.0891 38.8972 24.9272C38.1948 25.1179 37.6866 25.4155 37.0292 25.6124C36.4416 25.7883 35.584 25.9453 35.1579 26.2915C34.4668 26.8528 34.8511 27.5284 35.5941 27.6911C31.4445 28.1362 30.7074 30.4211 34.1858 30.6177C36.0691 30.7241 40.5234 29.9467 41.7659 31.1272C40.8373 31.2278 40.6134 31.0632 40.1161 31.8026C40.3179 32.5976 40.7616 32.5435 41.1929 32.9679C40.2028 33.3703 37.1555 32.6926 36.2897 32.2246C34.7353 31.3844 31.8955 29.4554 29.9587 30.1193C29.4126 30.3065 28.2915 30.8024 28.5616 31.5609C28.7918 32.2071 30.0845 32.1879 30.7623 32.2838C31.5981 32.402 32.352 32.559 33.1342 32.7247C32.7616 33.6334 32.9892 33.2153 33.2315 33.9131C32.3617 33.7914 30.926 33.0463 30.009 32.7118C28.7057 32.2364 28.1033 31.5225 26.7965 32.3538C25.9387 32.8995 24.733 33.7162 25.6662 35.1373C26.1156 35.8214 26.8748 36.207 27.5778 36.5562C27.7073 36.6205 27.8093 36.6627 27.9235 36.7198C27.9809 36.7485 28.057 36.7891 28.1148 36.8338C28.2319 36.9242 28.1553 36.8492 28.2372 36.96C26.947 37.1362 25.3932 36.2253 24.4216 35.6446C23.8716 35.3158 23.3925 34.8595 22.9322 34.4663C22.2657 33.8969 21.7244 34.0503 20.8126 34.1619C18.7445 34.4148 16.2531 33.9615 14.5668 32.709C14.1296 32.3843 13.4491 31.9088 13.3096 31.3257C13.3404 31.267 14.1225 30.2131 14.1913 30.1547C14.6767 29.7431 15.3708 30.0395 15.6481 30.3497C15.9854 30.7271 16.2979 31.0714 16.6392 31.3719C16.8851 31.5884 17.3502 32.1269 17.5443 32.4096C18.1172 33.2445 18.6714 33.8804 20.025 33.8693ZM0.00793344 3.07065C-0.180804 7.53203 3.0414 7.59458 5.04582 10.4826C5.58792 11.2637 6.55476 13.7831 7.00893 14.813C8.26333 17.6577 9.75823 20.3862 11.4671 22.8206C12.0113 23.5959 12.5486 24.2881 13.1633 24.9436C14.0432 25.8818 14.8474 26.8955 15.7637 27.7961C16.8307 28.8447 19.4151 31.5856 20.046 32.8947C18.5743 32.8635 18.4998 31.9285 17.6821 31.0854C17.2007 30.5891 16.0158 29.2985 15.4343 29.0957C14.6504 28.8222 13.7681 29.0997 13.407 29.6051L12.7889 30.4121C11.8504 31.4885 12.8708 32.5075 13.5965 33.1503C16.9431 36.1147 21.7185 34.8038 22.2511 35.1346C22.4284 35.2448 22.75 35.617 22.9946 35.8053C24.1815 36.7182 27.4844 38.8237 28.8476 37.656C29.0908 37.4476 29.318 37.1113 29.2259 36.7009C28.9896 35.648 26.3261 35.5251 26.225 34.04C27.5527 32.7662 27.525 32.737 29.3169 33.4719C30.0558 33.7749 32.0426 34.6212 32.669 34.7977C34.6201 35.3475 33.977 33.3661 33.9943 33.0693C34.0189 32.6507 34.0464 32.4389 33.81 32.1335C33.2859 31.4563 31.0095 31.3212 30.0263 31.2037L30.4003 30.9873C30.5798 30.9338 30.701 30.9257 30.9064 30.9398C31.208 30.9605 31.5599 31.0694 31.8531 31.1568C33.9496 31.7813 35.1812 32.9149 36.5756 33.3955C37.6581 33.7686 41.4075 34.5983 42.3822 33.5233C42.5723 33.3137 42.6751 32.9359 42.4761 32.6216C42.3392 32.4055 42.0428 32.2964 41.8039 32.1252C42.2698 32.0233 42.6545 31.9864 42.7432 31.478C43.0179 29.9048 40.8417 29.742 39.8955 29.5085C40.3627 29.3147 40.9831 29.1658 40.9486 28.5172C40.9249 28.0706 40.6759 28.1002 40.5767 27.8401C40.4368 27.4736 40.6062 27.3119 40.1955 27.0719C39.3395 26.5718 37.2686 27.295 36.3166 26.8078C37.8046 26.4231 38.782 25.8944 40.3666 25.6005C42.2218 25.2563 42.7025 25.2005 44.403 24.3304C45.5738 23.7314 49.4401 22.5152 48.9587 20.9623C48.719 20.189 47.5793 20.3376 46.8295 20.3944C47.0842 19.8262 47.0869 19.6773 46.6581 19.266C46.1513 18.7797 46.4806 18.1951 44.9004 19.0064C43.9242 19.5076 42.6704 19.7714 41.9423 20.2952C41.0837 20.9128 40.5692 21.7966 39.899 22.5849C39.4021 23.1694 38.1177 23.9926 37.0462 24.041C37.5404 22.8106 40.9629 21.0356 39.1499 16.0974C38.8272 15.2183 38.116 14.2925 37.9328 13.5734C38.3794 12.8156 40.5805 12.2717 41.54 11.8753C42.1864 11.6082 42.6508 11.2276 43.1738 10.8549C44.1065 10.1904 45.7055 9.25148 45.9762 8.30258C46.2251 7.42975 45.8107 6.75347 45.0092 6.72079C44.3046 6.69211 44.5076 6.90318 44.0153 6.45204C43.7916 6.24702 43.5018 6.0832 43.1531 5.99384C42.2221 5.75523 41.7096 6.25363 41.3756 6.75903C41.121 6.44135 41.0781 6.16891 40.402 6.31922C39.8796 6.43538 39.7866 6.69962 39.2236 6.55669C38.2334 6.30529 37.9459 7.05636 37.5441 7.71889C35.9528 10.3428 34.17 12.8352 33.3844 15.9746C33.0585 17.2767 32.7991 18.6284 32.7032 19.9865C32.6593 20.6084 32.6888 20.9697 32.1956 21.1025C31.8496 20.4142 31.583 16.8488 30.9943 15.2846C30.0616 12.806 28.3939 11.1316 27.0005 9.03676C26.0412 7.59471 22.2217 5.05329 22.1108 7.40358C22.0731 8.20244 22.4231 8.17021 22.6423 8.55526C21.7022 8.33991 20.9254 7.13128 19.7044 8.2928C18.7059 9.24269 20.4511 10.1246 20.7724 10.8753C19.9204 10.9452 19.244 10.3599 18.266 11.0167C17.4449 11.568 17.6786 12.7137 18.3686 13.2032C19.5238 14.0229 21.4679 13.601 22.673 14.4963C22.875 14.6463 22.875 14.7217 23.08 14.8721C22.9761 15.7967 22.5538 16.6752 22.3573 17.6181C21.659 20.9691 22.9406 21.986 23.5527 24.7928C23.6029 25.023 23.6688 25.2908 23.6677 25.5402C23.6661 25.8656 23.5801 26.0732 23.3702 26.2001L23.0773 25.5472C22.4017 23.567 20.61 20.0053 19.5376 18.4114C18.646 17.0862 17.2212 15.3624 16.2194 14C15.9466 13.629 15.7138 13.2341 15.4728 12.866C14.6195 11.5632 14.1359 9.82307 14.3211 8.09689C14.4457 6.93628 14.9046 6.01128 15.1474 4.93133C15.4773 3.46366 15.0267 2.73163 14.2831 2.12968C13.1951 1.24888 12.4674 2.29728 12.0318 3.07115C11.3054 4.36181 10.5545 3.80442 10.2767 2.46283C10.0424 1.33182 9.54046 0.478106 8.7037 0.12911C7.60583 -0.328859 6.55811 0.525489 6.22182 1.22243C5.56938 2.57463 6.90301 3.23279 5.27671 4.09292C5.06529 4.20476 4.87659 4.33286 4.63333 4.21865C4.10651 3.97134 3.76869 3.25627 3.04719 2.90341C1.76961 2.27857 1.09688 2.6246 0.00793344 3.07065Z" fill="#A4B49F"/>
</svg>
