<svg width="50" height="50" viewBox="0 0 50 50" fill="none" xmlns="http://www.w3.org/2000/svg">
<path fill-rule="evenodd" clip-rule="evenodd" d="M1.51077 26.2111C2.35989 21.6824 6.76704 19.2973 11.375 18.9436C13.9617 18.7448 17.2409 19.1665 19.2822 20.189C21.0176 21.0586 23.2917 22.8978 23.7043 25.069C21.4601 25.0545 20.513 24.5394 17.4109 24.9444C13.1846 25.497 10.9375 27.6737 7.37121 28.0991C5.44954 28.3282 3.89201 27.9491 2.27824 27.6324C1.15489 27.412 1.3216 27.2216 1.51077 26.2111ZM11.3967 17.5769C5.73456 17.9953 1.80615 20.6924 0.398678 25.2237C-0.036753 26.6262 -0.404675 27.9528 0.938219 28.5908C1.90073 29.0478 3.53997 29.3595 4.68536 29.4591C11.2229 30.027 13.5154 26.0765 19.9155 26.1157C20.8822 26.1216 23.6285 26.5062 24.2897 26.2499C26.7514 25.297 22.7047 16.741 11.3967 17.5769Z" fill="#CCAE9C"/>
<path fill-rule="evenodd" clip-rule="evenodd" d="M2.69665 32.7676C7.17293 33.0918 9.36752 33.181 13.4251 31.3747C14.986 30.6801 16.6118 29.9918 18.5264 29.7776C19.5447 29.6635 20.6581 29.6722 21.6793 29.7747C22.7172 29.8789 23.2347 29.9693 23.9064 30.2572C24.4189 30.476 24.2966 30.7542 24.2336 31.2334C23.617 35.9264 19.1171 38.5291 14.1618 38.9206C11.4417 39.1356 8.49797 38.6856 6.32087 37.6127C4.82541 36.8756 2.99706 35.3989 2.23582 33.5993C1.82249 32.6214 2.1383 32.7272 2.69665 32.7676ZM19.2372 28.3268C13.9422 28.7009 10.9109 32.3534 4.12832 31.6335C2.75829 31.4885 0.949952 30.9339 0.659964 32.4768C0.4412 33.6393 1.52286 35.2043 1.99166 35.8077C5.80457 40.7127 14.228 41.4198 19.5622 38.9994C22.6652 37.5914 25.0439 34.9644 25.6202 31.1109C25.8768 29.3934 24.8456 29.1076 23.4452 28.7526C22.1351 28.4209 20.6593 28.2263 19.2372 28.3268Z" fill="#CCAE9C"/>
<path fill-rule="evenodd" clip-rule="evenodd" d="M28.1759 44.0858C27.6731 43.3763 27.3414 42.7079 26.983 41.4845C25.3213 35.8133 30.3693 29.9832 35.2369 27.6286C37.0175 26.7676 40.1059 26.2738 41.9727 27.2571C42.5981 27.5865 42.5092 27.5523 42.0318 27.9618C40.8241 28.998 39.8529 29.5259 38.4956 31.2582C36.0898 34.3303 35.979 36.0362 34.5297 38.9074C34.1835 39.5941 33.5277 40.6379 33.0214 41.2133C32.4197 41.8978 30.5663 43.7341 29.1301 44.3055C28.6819 44.4839 28.4895 44.5296 28.1759 44.0858ZM37.7835 25.4765C33.7256 25.9982 28.6447 29.9894 26.7426 33.9091C25.546 36.3753 24.7901 38.7208 25.6776 41.86C25.9905 42.9675 26.6922 44.3508 27.2713 45.0979C28.3163 46.4458 29.5714 45.6625 30.7106 44.9416C37.6135 40.5728 35.5465 35.9258 40.7936 30.7686C41.2207 30.349 41.5174 30.0061 42.0469 29.6078C42.4577 29.2986 43.2382 28.8445 43.4807 28.5307C44.4461 27.2811 43.4557 26.2614 42.1777 25.8236C40.9402 25.4002 39.1361 25.3023 37.7835 25.4765Z" fill="#CCAE9C"/>
<path fill-rule="evenodd" clip-rule="evenodd" d="M34.8735 46.1303C39.9603 41.7906 39.5886 37.3386 42.3577 34.1931C43.2046 33.2315 44.5225 31.825 45.87 31.1714C47.0535 30.5971 47.1662 31.2204 47.6961 32.296C48.5478 34.0256 48.8678 36.0477 48.4761 37.9894C48.1341 39.684 47.2711 41.2973 46.2757 42.5711C44.6811 44.6123 42.8478 46.5707 40.1369 47.7707C38.2215 48.6186 35.554 49.0841 33.5073 48.2311C32.7135 47.9003 32.7427 47.8928 33.4135 47.3382L34.8735 46.1303ZM46.0419 29.6589C43.9632 30.291 41.7727 32.729 40.7203 34.134C38.0765 37.6631 38.624 41.704 32.9968 45.9257C32.5918 46.2298 31.8843 46.7011 31.6789 47.0248C31.3027 47.6165 31.3897 48.3603 31.8098 48.8324C32.4802 49.5862 34.3185 49.9216 35.5594 49.9874C43.4861 50.4095 53.3196 40.1131 48.862 31.5964C48.1374 30.2114 47.4991 29.2155 46.0419 29.6589Z" fill="#CCAE9C"/>
<path fill-rule="evenodd" clip-rule="evenodd" d="M24.5763 3.00827C25.8001 1.71365 28.8189 1.27367 30.6985 1.40492C34.7361 1.687 39.6303 4.35038 41.6103 7.80454C42.8336 9.93833 42.919 11.3567 42.582 13.55C42.4411 14.4684 42.5565 15.1029 41.3786 14.918C39.7107 14.6551 38.0569 13.7542 36.8906 12.9871C34.6794 11.5325 33.9889 10.1204 32.3156 8.4579C30.4968 6.65082 29.4568 5.7754 26.9935 4.5758C26.5434 4.35703 26.1397 4.19452 25.6788 4.0341C25.0559 3.81701 23.8401 3.57285 24.5763 3.00827ZM28.7964 0.0716164C26.6589 0.326621 22.9693 1.61907 22.8967 3.48246C22.8213 5.42246 26.2222 4.75582 30.6156 8.57916C31.2306 9.11456 32.8893 11.0829 33.4206 11.7179C34.7544 13.3125 36.4385 14.6071 38.9985 15.528C42.4732 16.7776 43.7953 16.7872 44.1415 12.7633C44.4107 9.63416 43.1873 7.53954 41.8223 5.73498C39.8744 3.15911 34.1098 -0.562991 28.7964 0.0716164Z" fill="#CCAE9C"/>
<path fill-rule="evenodd" clip-rule="evenodd" d="M21.9423 7.87803C23.5369 8.00197 25.8321 9.23237 26.6294 9.77275C27.4298 10.3157 27.9961 10.8048 28.6202 11.4086C28.8731 11.654 29.2902 12.0586 29.5302 12.3549C29.8152 12.7065 30.059 13.0228 30.3711 13.3744C32.6944 15.9899 34.6557 17.5549 37.9778 18.6674C38.2611 18.7624 38.6878 18.8749 39.0661 19.0195C40.3136 19.4957 37.5628 20.6895 37.0824 20.8578C35.8427 21.2933 34.3169 21.452 33.0277 21.3907C29.2447 21.2102 23.9462 18.3779 22.013 15.0423C21.3172 13.8415 20.9806 12.9132 20.8789 11.942C20.7787 10.9863 20.723 9.682 21.058 8.51043C21.2447 7.85737 21.2355 7.8231 21.9423 7.87803ZM20.9793 6.62726C19.188 7.21934 19.2185 11.7969 19.9968 13.8982C22.0006 19.3078 29.3069 23.5578 35.4407 22.5995C36.8003 22.3874 40.5661 21.1445 40.7582 19.4645C41.0524 16.8902 37.2115 18.4716 32.4886 13.6736C32.2785 13.4603 32.1573 13.3078 31.9539 13.0911C31.7186 12.8407 31.5769 12.7519 31.3623 12.4774C30.4561 11.3161 28.9968 9.84314 27.8473 8.92813C26.4285 7.79813 22.5035 6.12354 20.9793 6.62726Z" fill="#CCAE9C"/>
</svg>
