<svg width="28" height="46" viewBox="0 0 28 46" fill="none" xmlns="http://www.w3.org/2000/svg">
<path fill-rule="evenodd" clip-rule="evenodd" d="M9.17228 20.1291C9.73328 20.91 10.1012 21.5077 10.9948 22.0322C11.7976 22.5035 12.8207 22.8269 13.9399 22.8119C14.9895 22.798 16.0808 22.4611 16.8355 21.9863C17.9449 21.2882 18.0466 20.891 18.5595 20.0818C21.0643 20.8547 23.2494 23.0888 24.2868 25.1544C25.7258 28.0196 25.393 31.1828 23.8911 33.7317C22.5 36.0927 20.3473 37.5342 17.7156 38.4081C15.8269 39.0352 16.0462 39.7385 15.1335 41.2949C14.5498 42.2904 13.4579 43.5181 12.4745 43.9996C12.5418 42.4231 13.1515 40.9453 12.2272 39.6435C11.383 38.4546 10.2787 38.6039 8.80607 37.9403C6.40277 36.8575 4.73556 35.3898 3.47887 33.0248C2.06191 30.3582 2.39874 27.3945 3.64804 24.7743C4.46398 23.0629 7.66252 20.2768 9.17228 20.1291ZM10.4092 19.6365C12.4439 18.9315 15.3948 19.0006 17.3294 19.6958C16.5964 21.9773 11.6369 22.5154 10.4092 19.6365ZM3.08083 6.58184C3.39007 5.69132 3.93501 5.8917 4.34891 6.4535C4.65095 6.86335 4.97752 7.70651 5.72487 7.32212C6.26143 7.04612 6.00576 6.22721 7.11923 6.32345C7.4674 6.86947 8.34433 8.30701 8.1326 9.02446C7.35182 11.6698 9.66402 12.4772 9.97891 12.717C10.3576 13.0054 10.6084 13.3283 10.8624 13.7443C11.3279 14.5068 11.7569 15.586 11.8867 16.6075C10.9423 16.4541 10.4265 16.153 9.3382 16.123C8.33859 16.0955 7.6233 16.2995 6.71012 16.3635C5.05346 16.4794 5.73094 14.9039 5.72981 14.656C5.72491 13.6021 4.29449 14.0461 3.52685 13.9622C0.793164 13.6636 4.63998 11.2117 2.17133 10.7199C0.923629 10.4713 1.00259 9.75005 1.55967 9.13929C2.24134 8.3919 1.4647 8.11147 1.28861 7.06416C2.24487 7.11967 2.77422 7.46484 3.08083 6.58184ZM18.0742 8.65787C19.9803 8.93834 19.3991 8.83156 20.1228 7.21261C21.0008 5.24831 21.5608 6.86194 21.9215 7.19821C22.9815 8.18657 23.2173 5.97273 24.0975 5.99236C24.6954 6.00573 24.6196 6.72804 24.9567 7.03026C25.2651 7.30669 25.9897 7.09919 26.5087 7.12951C26.3598 8.0949 25.4941 8.31737 26.2043 9.1675C26.9714 10.0856 26.5655 10.5227 25.4801 10.7532C24.2219 11.0204 24.8241 11.763 25.1169 12.5101C25.5676 13.6601 24.9134 14.0081 23.8374 13.9917C22.8519 13.9766 21.8105 13.7194 22.102 15.0047C22.6083 17.2371 20.4967 15.9083 17.8613 16.1562C16.8386 16.2524 16.4539 16.5551 15.5874 16.7674C15.8147 13.5892 18.6544 12.6301 18.8744 10.9206C19.0218 9.77604 18.418 9.39735 18.0742 8.65787ZM13.8517 1.18275C14.4017 1.65763 14.1842 1.95985 14.5027 2.37785C14.8932 2.89031 15.2827 2.47692 15.7913 2.64783C16.2617 2.80588 16.3068 3.35595 16.0786 3.86459C15.9073 4.24615 15.6119 4.71684 15.865 5.17962C16.0716 5.55722 16.6557 5.46852 17.1429 5.63576C17.5759 5.78449 17.9194 6.07683 17.8128 6.63886C17.6616 7.43574 16.5921 8.22584 16.4661 8.78179C16.2001 9.95604 18.047 9.5976 17.688 10.8541C17.4635 11.6399 15.9321 12.3446 14.7858 14.9027C14.3224 15.9369 14.4032 16.7562 14.3373 17.9461L13.3856 17.9075C13.2335 16.0847 12.4526 13.7527 11.3353 12.4044C10.3402 11.2035 8.86525 11.2512 9.17699 9.64327C9.381 8.59111 10.1751 9.21486 10.6144 8.64045C11.034 8.09179 10.4422 7.43579 10.196 6.9457C9.73704 6.03239 9.67941 6.00988 10.1078 5.11502C10.8663 5.09068 11.8284 5.32501 11.797 4.3325C11.7703 3.49127 11.2084 3.34913 11.6933 2.34179C12.3651 2.20482 12.7898 2.58346 13.2015 2.29089C13.5048 2.0753 13.6014 1.47829 13.8517 1.18275ZM12.5873 1.05209C11.5412 1.07003 11.2913 1.12992 10.7327 1.73164C10.1078 2.40469 10.3918 2.88597 10.3716 3.80856C9.84749 4.11366 9.52776 4.0556 9.13377 4.47417C8.72956 4.90362 8.78436 5.38768 8.46863 5.83817C7.85579 5.62789 7.79445 5.14543 6.99276 5.0855C6.13995 5.0217 5.88909 5.49658 5.34293 5.65125C4.95911 5.39172 3.97272 4.1203 2.7116 5.08347C1.85017 5.74141 2.41253 5.83261 1.61302 5.89575C0.97735 5.94589 0.595368 6.066 0.315413 6.50769C-0.0592263 7.09872 0.0829622 7.47209 0.307454 8.06707C0.627053 8.914 -0.604027 9.84968 0.406985 11.0903C0.749749 11.511 0.991003 11.6373 1.58971 11.8051C1.39206 12.8419 1.03503 13.6327 1.74612 14.4397C2.36936 15.1469 3.30127 15.0785 4.35574 15.2146C4.75284 19.8669 9.74895 15.8088 11.6789 18.0783C10.2981 18.4193 9.81755 18.5499 9.06818 18.8198C6.85076 19.6184 4.82464 21.0835 3.49064 22.8803C-0.931675 28.8367 1.92894 36.5524 8.75084 39.2109C10.8935 40.046 11.9418 39.6184 11.4256 42.7884C11.1705 44.3551 10.6329 44.5813 10.5191 45.1011C10.4182 45.5621 10.7076 45.9886 11.1591 45.9997C12.4304 46.0311 14.9231 43.6885 15.7501 42.5185C16.2168 41.8582 16.5175 41.2722 16.9049 40.4643C17.3644 39.506 17.8716 39.6376 18.969 39.228C28.578 35.6414 29.1721 22.8686 18.7796 18.8492C18.019 18.555 17.39 18.3955 16.1711 18.1123C17.9267 15.9482 23.281 19.7351 23.4014 15.1855C26.0445 15.1775 26.8303 14.3922 26.1952 11.9518C26.9349 11.3678 27.8814 11.2504 27.7555 9.70994C27.6982 9.00845 27.2367 8.87935 27.4246 8.18704C27.5921 7.57039 27.8903 7.28164 27.4955 6.57318C26.8948 5.49531 26.0509 6.24426 25.5787 5.62653C25.3724 5.35669 25.4029 5.27007 25.0932 5.07043C23.6939 4.16828 22.7249 5.45227 22.4118 5.67888C21.8939 5.42158 21.3988 4.92245 20.5533 5.11851C19.8226 5.28796 19.5233 5.92951 19.0558 6.23475C18.6084 4.68793 18.361 5.06445 17.2545 4.33909C17.3727 3.50794 17.5928 2.93786 17.0836 2.22615C16.4011 1.27215 15.8635 1.67043 15.4129 1.29028C15.065 0.996675 15.1434 0.142353 14.0927 0.0118393C13.2682 -0.0906132 12.7754 0.490016 12.5873 1.05209Z" fill="#A4B49F"/>
<path fill-rule="evenodd" clip-rule="evenodd" d="M22.9754 29.5732C22.6521 29.4173 22.6384 29.3839 22.1576 29.4189C21.5018 30.4705 21.8301 33.7681 17.5837 35.3239C17.1819 35.471 16.6662 35.5902 16.2853 35.7599C15.6167 36.0577 15.3961 37.8291 18.908 36.0427C20.4024 35.2824 21.7777 34.0247 22.4504 32.4633C22.7898 31.6754 23.2004 30.5064 22.9754 29.5732Z" fill="#A4B49F"/>
</svg>
