<svg width="170" height="35" viewBox="0 0 170 35" fill="none" xmlns="http://www.w3.org/2000/svg">
<g clip-path="url(#clip0_364_2243)">
<path d="M14.761 11.7659H7.23759C4.96524 16.4486 3.25537 19.9568 2.10799 22.2905H1.25586C5.98743 12.6468 9.53797 5.40158 11.9075 0.554932L22.5591 22.2905H19.8794C17.5996 17.6231 15.8934 14.1149 14.761 11.7659ZM14.4134 11.0852C12.896 7.96599 11.7524 5.62465 10.9825 4.06122C9.46509 7.19572 8.32144 9.53706 7.55154 11.0852H14.4134Z" fill="white"/>
<path d="M44.6192 21.6154V22.2904H26.0293V0.589111H28.681V21.6154H44.6192Z" fill="white"/>
<path d="M50.5267 1.2929V11.1139H61.1783V11.7946H50.5267V21.6157H66.4649V22.2906H47.875V0.589355H66.4649V1.2929H50.5267Z" fill="white"/>
<path d="M81.5402 10.8506C85.6738 15.9298 88.7665 19.7431 90.8183 22.2903H87.8807C84.3638 17.9775 81.7308 14.7363 79.9817 12.5665C76.0387 16.8793 73.0899 20.1206 71.1353 22.2903H70.2383C74.3681 17.7411 77.472 14.3302 79.55 12.0575C75.4015 6.95913 72.2976 3.14587 70.2383 0.617676H73.2095L81.1085 10.3415C85.0291 6.02869 87.9779 2.78742 89.955 0.617676H90.8183C86.6885 5.16689 83.5958 8.57785 81.5402 10.8506Z" fill="white"/>
<path d="M107.424 3.11753C107.145 2.6785 106.794 2.29157 106.387 1.97355C105.928 1.60842 105.423 1.31004 104.884 1.08696C103.816 0.645077 102.673 0.425324 101.521 0.440614C100.397 0.414233 99.2913 0.733093 98.3474 1.3558C97.7505 1.77154 97.2571 2.32391 96.9067 2.9688C96.5131 3.76185 96.3204 4.6428 96.346 5.53132C96.3125 6.16336 96.4676 6.79093 96.7909 7.33116C97.1142 7.87139 97.5904 8.29886 98.1568 8.55714C99.4871 9.2322 100.878 9.77431 102.311 10.1759C103.157 10.4333 103.993 10.6964 104.817 10.9709C105.627 11.2094 106.41 11.5334 107.155 11.9376C107.978 12.3933 108.702 13.0139 109.285 13.7622C109.865 14.5953 110.159 15.6009 110.12 16.6222C110.115 17.0908 110.047 17.5565 109.918 18.0064C109.758 18.5272 109.526 19.0221 109.229 19.4764C108.498 20.4898 107.536 21.3065 106.426 21.8559C104.817 22.5958 103.059 22.9387 101.296 22.8569C99.6514 22.9096 98.0158 22.5871 96.5086 21.9131C95.4666 21.4193 94.4814 20.8093 93.571 20.0942C93.2799 19.8535 93.0098 19.5875 92.7637 19.2991L92.5059 18.9731L93.0216 18.3553C93.4948 19.0265 94.0929 19.596 94.7819 20.0312C95.6486 20.6234 96.5921 21.0893 97.585 21.4154C98.1787 21.616 98.7857 21.7728 99.4014 21.8845C100.019 22.0041 100.646 22.0634 101.274 22.0618C102.149 22.045 103.016 21.8768 103.836 21.5642C104.718 21.2552 105.518 20.7423 106.174 20.0656C106.52 19.7123 106.795 19.2924 106.981 18.8301C107.193 18.3584 107.3 17.8447 107.295 17.3257C107.311 16.6355 107.115 15.9573 106.734 15.3867C106.33 14.8617 105.829 14.4226 105.26 14.094C103.955 13.3648 102.56 12.8202 101.111 12.4753C99.5728 12.1034 98.0972 11.5 96.7329 10.6849C95.909 10.1747 95.2002 9.49247 94.653 8.68298C94.0631 7.73679 93.7715 6.62886 93.8177 5.50844C93.8177 4.09372 94.511 2.81818 95.8976 1.68183C97.4337 0.490606 99.3292 -0.116277 101.257 -0.0341377C101.963 -0.0420866 102.668 0.0269442 103.359 0.171779C103.935 0.29499 104.498 0.473093 105.041 0.703733C105.786 0.981756 106.478 1.38805 107.087 1.90491L107.749 2.52265L107.424 3.11753Z" fill="white"/>
<path d="M123.014 8.11645L123.501 8.20797C123.81 8.28232 124.236 8.40244 124.774 8.55688C126.023 8.98089 127.245 9.48134 128.435 10.0555C129.974 10.8105 131.376 11.8259 132.583 13.0584C133.681 14.1745 134.581 15.4771 135.241 16.9079C136.003 18.6033 136.377 20.4539 136.334 22.3189H133.598C133.488 20.5206 133.006 18.7663 132.185 17.171C131.469 15.8498 130.545 14.6576 129.45 13.6419C128.278 12.5452 126.919 11.6767 125.441 11.0794C124.319 10.5992 123.163 10.2072 121.982 9.90677C121.592 9.80673 121.197 9.72844 120.799 9.67226L120.368 9.60934L117.688 11.108V22.3132H115.059V0.577637H117.71V10.1928L135.033 0.577637L135.465 1.10387C129.93 4.21167 125.779 6.5492 123.014 8.11645Z" fill="white"/>
<path d="M141.492 0.589355H144.144V22.2906H141.492V0.589355Z" fill="white"/>
<path d="M150.311 22.3191H149.705V0.583496L169.018 17.9033V0.589222H169.652V22.3248L150.311 4.41583V22.3191Z" fill="white"/>
<path d="M34.3319 30.407V31.2993H0V30.407H34.3319Z" fill="white"/>
<path d="M170 30.407V31.2993H135.668V30.407H170Z" fill="white"/>
<path d="M41.9844 27.2954H42.6964V33.1697H41.9844V27.2954Z" fill="white"/>
<path d="M47.6916 33.1699L47.6355 32.6665C47.4922 32.8511 47.3086 32.999 47.0993 33.0983C46.89 33.1977 46.6609 33.2457 46.4302 33.2385C46.2765 33.2495 46.1222 33.2281 45.977 33.1755C45.8317 33.123 45.6987 33.0405 45.5861 32.9331C45.4735 32.8258 45.3839 32.6959 45.3227 32.5516C45.2615 32.4073 45.2301 32.2517 45.2305 32.0945C45.2305 31.1279 46.077 30.5959 47.5906 30.6074V30.5216C47.6068 30.3975 47.595 30.2713 47.5561 30.1526C47.5173 30.0338 47.4524 29.9257 47.3665 29.8364C47.2806 29.7471 47.1758 29.6789 47.0602 29.6371C46.9446 29.5952 46.8212 29.5808 46.6993 29.5949C46.3387 29.5954 45.9854 29.6984 45.679 29.8924L45.5164 29.4119C45.9062 29.1752 46.3522 29.0526 46.8058 29.0573C48.0055 29.0573 48.297 29.8924 48.297 30.6989V32.1918C48.2916 32.5135 48.3141 32.835 48.3643 33.1527L47.6916 33.1699ZM47.585 31.1279C46.8058 31.1279 45.9032 31.2537 45.9032 32.0316C45.8957 32.124 45.9078 32.2169 45.9389 32.3039C45.9699 32.391 46.0191 32.4702 46.0831 32.536C46.147 32.6018 46.2242 32.6526 46.3093 32.6851C46.3944 32.7175 46.4854 32.7307 46.5759 32.7237C46.783 32.7293 46.9865 32.6674 47.1569 32.5471C47.3272 32.4268 47.4556 32.2542 47.5234 32.0545C47.5473 31.9786 47.5605 31.8996 47.5626 31.82L47.585 31.1279Z" fill="white"/>
<path d="M51.0156 33.1697C51.0156 32.8952 51.0493 32.4891 51.0493 32.1344V27.2954H51.7556V29.8122C51.8907 29.5764 52.0864 29.383 52.3217 29.2529C52.5569 29.1228 52.8226 29.0611 53.0899 29.0743C54.0654 29.0743 54.7717 29.9037 54.7717 31.1163C54.7717 32.552 53.886 33.2613 53.0114 33.2613C52.744 33.2777 52.4775 33.2152 52.2439 33.0813C52.0103 32.9475 51.8194 32.7478 51.694 32.5062L51.6603 33.1697H51.0156ZM51.7556 31.5624C51.7582 31.653 51.7695 31.743 51.7893 31.8313C51.8518 32.0733 51.9904 32.2877 52.1838 32.4416C52.3772 32.5956 52.6148 32.6806 52.86 32.6835C53.6057 32.6835 54.0485 32.0601 54.0485 31.1449C54.0485 30.3384 53.6449 29.652 52.8825 29.652C52.6283 29.6537 52.3822 29.7435 52.1845 29.9067C51.9869 30.0699 51.8495 30.2967 51.7949 30.55C51.7709 30.6474 51.7577 30.7471 51.7556 30.8475V31.5624Z" fill="white"/>
<path d="M60.8381 31.1333C60.8618 31.4072 60.8287 31.6831 60.7408 31.943C60.653 32.2029 60.5125 32.441 60.3284 32.6418C60.1443 32.8425 59.9208 33.0015 59.6725 33.1082C59.4241 33.2149 59.1566 33.267 58.8872 33.2611C58.6273 33.2644 58.3697 33.2123 58.1307 33.1081C57.8918 33.0039 57.6767 32.85 57.4994 32.6562C57.3221 32.4624 57.1864 32.2329 57.101 31.9825C57.0156 31.7321 56.9824 31.4662 57.0035 31.202C56.9799 30.9286 57.0129 30.6532 57.1004 30.3937C57.1879 30.1342 57.3279 29.8964 57.5114 29.6957C57.6948 29.495 57.9176 29.336 58.1653 29.2289C58.4129 29.1218 58.6799 29.0691 58.9488 29.0742C59.2096 29.0683 59.4687 29.1187 59.7092 29.2219C59.9496 29.3251 60.1661 29.4788 60.3443 29.6731C60.5226 29.8674 60.6587 30.0979 60.7438 30.3495C60.8289 30.6011 60.861 30.8682 60.8381 31.1333ZM57.7267 31.1791C57.7267 32.0542 58.22 32.7178 58.9152 32.7178C59.6104 32.7178 60.1093 32.06 60.1093 31.1619C60.1093 30.4813 59.7785 29.6233 58.932 29.6233C58.0855 29.6233 57.7267 30.4126 57.7267 31.1791Z" fill="white"/>
<path d="M63.3618 30.4124C63.3618 29.9434 63.3618 29.5373 63.3281 29.1655H63.956V29.9491H63.9896C64.0562 29.7042 64.1976 29.4874 64.3931 29.33C64.5887 29.1727 64.8283 29.083 65.0772 29.074C65.1444 29.0678 65.2119 29.0678 65.2791 29.074V29.7661C65.1971 29.756 65.1143 29.756 65.0324 29.7661C64.7886 29.7765 64.557 29.8777 64.3814 30.0506C64.2058 30.2234 64.0983 30.4559 64.0793 30.7041C64.0584 30.8154 64.0471 30.9283 64.0457 31.0416V33.1751H63.3393L63.3618 30.4124Z" fill="white"/>
<path d="M69.7677 33.1699L69.7117 32.6665C69.569 32.8518 69.3855 33.0002 69.1761 33.0996C68.9666 33.199 68.7372 33.2466 68.5064 33.2385C68.3526 33.2495 68.1984 33.2281 68.0531 33.1755C67.9079 33.123 67.7749 33.0405 67.6623 32.9331C67.5497 32.8258 67.46 32.6959 67.3988 32.5516C67.3376 32.4073 67.3063 32.2517 67.3066 32.0945C67.3066 31.1279 68.1532 30.5959 69.6668 30.6074V30.5216C69.6829 30.3975 69.6711 30.2713 69.6323 30.1526C69.5935 30.0338 69.5286 29.9257 69.4427 29.8364C69.3568 29.7471 69.252 29.6789 69.1364 29.6371C69.0208 29.5952 68.8973 29.5808 68.7754 29.5949C68.4149 29.5954 68.0615 29.6984 67.7551 29.8924L67.5926 29.4119C67.9823 29.1752 68.4284 29.0526 68.882 29.0573C70.0817 29.0573 70.3732 29.8924 70.3732 30.6989V32.1918C70.3678 32.5135 70.3903 32.835 70.4405 33.1527L69.7677 33.1699ZM69.6612 31.1279C68.882 31.1279 67.9794 31.2537 67.9794 32.0316C67.9718 32.124 67.984 32.2169 68.015 32.3039C68.0461 32.391 68.0953 32.4702 68.1593 32.536C68.2232 32.6018 68.3004 32.6526 68.3855 32.6851C68.4706 32.7175 68.5615 32.7307 68.6521 32.7237C68.8592 32.7293 69.0627 32.6674 69.233 32.5471C69.4034 32.4268 69.5317 32.2542 69.5995 32.0545C69.6235 31.9786 69.6367 31.8996 69.6388 31.82L69.6612 31.1279Z" fill="white"/>
<path d="M73.9547 28.0161V29.1601H74.975V29.7321H73.9547V31.8885C73.9547 32.3861 74.0892 32.6664 74.4872 32.6664C74.6268 32.6681 74.7661 32.6528 74.9021 32.6206L74.9357 33.164C74.7325 33.2374 74.5178 33.2723 74.3022 33.267C74.1591 33.2752 74.0159 33.2519 73.8824 33.1986C73.7489 33.1453 73.6282 33.0633 73.5286 32.9581C73.3131 32.6581 73.2152 32.2869 73.2539 31.9171V29.7206H72.6484V29.1486H73.2539V28.1877L73.9547 28.0161Z" fill="white"/>
<path d="M80.902 31.1333C80.9257 31.4072 80.8926 31.6831 80.8048 31.943C80.7169 32.2029 80.5764 32.441 80.3923 32.6418C80.2082 32.8425 79.9848 33.0015 79.7364 33.1082C79.4881 33.2149 79.2205 33.267 78.9511 33.2611C78.6913 33.2644 78.4336 33.2123 78.1947 33.1081C77.9557 33.0039 77.7407 32.85 77.5634 32.6562C77.3861 32.4624 77.2504 32.2329 77.165 31.9825C77.0796 31.7321 77.0464 31.4662 77.0675 31.202C77.0447 30.9288 77.0783 30.6538 77.1661 30.3947C77.254 30.1356 77.394 29.8981 77.5773 29.6976C77.7606 29.4972 77.9831 29.3381 78.2303 29.2307C78.4775 29.1233 78.7441 29.07 79.0128 29.0742C79.2736 29.0683 79.5327 29.1187 79.7731 29.2219C80.0136 29.3251 80.23 29.4788 80.4083 29.6731C80.5866 29.8674 80.7227 30.0979 80.8078 30.3495C80.8928 30.6011 80.925 30.8682 80.902 31.1333ZM77.7906 31.1791C77.7906 32.0542 78.284 32.7178 78.9847 32.7178C79.6855 32.7178 80.1732 32.06 80.1732 31.1619C80.1732 30.4813 79.8425 29.6233 78.996 29.6233C78.1494 29.6233 77.7906 30.4126 77.7906 31.1791Z" fill="white"/>
<path d="M83.4238 30.4127C83.4238 29.9437 83.4238 29.5376 83.4238 29.1658H84.0461V29.9494H84.0797C84.1471 29.705 84.2886 29.4886 84.484 29.3314C84.6794 29.1741 84.9187 29.0841 85.1673 29.0743C85.2344 29.0677 85.302 29.0677 85.3691 29.0743V29.7664C85.2891 29.7566 85.2082 29.7566 85.1281 29.7664C84.8833 29.7754 84.6503 29.876 84.4736 30.049C84.2968 30.222 84.1885 30.4553 84.1694 30.7044C84.1485 30.8157 84.1372 30.9286 84.1358 31.0419V33.1754H83.4294L83.4238 30.4127Z" fill="white"/>
<path d="M88.1515 29.1655L89.0149 31.5336C89.1046 31.7967 89.1999 32.1056 89.2615 32.3515C89.3344 32.1113 89.4185 31.7795 89.5138 31.5164L90.2931 29.1655H91.0499L89.9791 32.0255C89.469 33.3982 89.1158 34.1018 88.6337 34.5308C88.3846 34.7628 88.0817 34.9262 87.7535 35.0055L87.5797 34.3935C87.8061 34.3138 88.0168 34.1937 88.202 34.0389C88.4606 33.8189 88.6659 33.5409 88.8018 33.2267C88.8317 33.1718 88.8507 33.1116 88.8579 33.0493C88.8509 32.9841 88.8339 32.9204 88.8075 32.8606L87.3555 29.1713L88.1515 29.1655Z" fill="white"/>
<path d="M100.237 31.1333C100.26 31.4072 100.227 31.6831 100.139 31.943C100.051 32.2029 99.9109 32.441 99.7268 32.6418C99.5427 32.8425 99.3192 33.0015 99.0709 33.1082C98.8226 33.2149 98.555 33.267 98.2856 33.2611C98.0258 33.2644 97.7681 33.2123 97.5292 33.1081C97.2902 33.0039 97.0752 32.85 96.8979 32.6562C96.7206 32.4624 96.5849 32.2329 96.4995 31.9825C96.4141 31.7321 96.3809 31.4662 96.402 31.202C96.3783 30.9286 96.4113 30.6532 96.4988 30.3937C96.5863 30.1342 96.7263 29.8964 96.9098 29.6957C97.0933 29.495 97.3161 29.336 97.5637 29.2289C97.8114 29.1218 98.0783 29.0691 98.3473 29.0742C98.6081 29.0683 98.8672 29.1187 99.1076 29.2219C99.3481 29.3251 99.5645 29.4788 99.7428 29.6731C99.9211 29.8674 100.057 30.0979 100.142 30.3495C100.227 30.6011 100.259 30.8682 100.237 31.1333ZM97.1251 31.1791C97.1251 32.0542 97.6185 32.7178 98.3192 32.7178C99.02 32.7178 99.5077 32.06 99.5077 31.1619C99.5077 30.4813 99.177 29.6233 98.3361 29.6233C97.4951 29.6233 97.1195 30.4126 97.1195 31.1791H97.1251Z" fill="white"/>
<path d="M102.834 33.1694V29.7375H102.273V29.1655H102.834V28.9767C102.802 28.476 102.965 27.9826 103.288 27.6039C103.549 27.3589 103.892 27.2257 104.247 27.2322C104.456 27.2312 104.663 27.27 104.858 27.3466L104.757 27.9185C104.614 27.8537 104.459 27.8224 104.303 27.827C103.697 27.827 103.54 28.3704 103.54 28.971V29.1884H104.493V29.7603H103.54V33.1923L102.834 33.1694Z" fill="white"/>
<path d="M112.89 33.021C112.538 33.1819 112.155 33.2619 111.769 33.2555C111.504 33.2685 111.24 33.2239 110.994 33.1248C110.748 33.0257 110.525 32.8743 110.341 32.6806C110.156 32.487 110.014 32.2555 109.924 32.0016C109.834 31.7477 109.798 31.4771 109.818 31.2078C109.805 30.9231 109.851 30.6388 109.952 30.3734C110.054 30.108 110.209 29.8674 110.408 29.6672C110.607 29.467 110.845 29.3118 111.106 29.2116C111.368 29.1114 111.647 29.0685 111.926 29.0857C112.266 29.0795 112.602 29.1498 112.913 29.2916L112.75 29.8636C112.495 29.7302 112.212 29.6652 111.926 29.6749C111.733 29.6691 111.542 29.7052 111.364 29.7806C111.187 29.8561 111.027 29.9693 110.895 30.1127C110.764 30.256 110.664 30.4263 110.602 30.6121C110.54 30.798 110.517 30.9952 110.536 31.1906C110.518 31.3824 110.541 31.5757 110.602 31.758C110.662 31.9403 110.76 32.1074 110.889 32.2483C111.018 32.3893 111.174 32.5009 111.348 32.5759C111.522 32.6509 111.709 32.6876 111.898 32.6835C112.202 32.686 112.502 32.6196 112.778 32.4891L112.89 33.021Z" fill="white"/>
<path d="M117.522 33.1699L117.466 32.6665C117.324 32.8517 117.142 33.0001 116.933 33.0995C116.725 33.199 116.496 33.2466 116.266 33.2385C116.112 33.2495 115.958 33.2281 115.813 33.1755C115.668 33.123 115.535 33.0405 115.422 32.9331C115.309 32.8258 115.22 32.6959 115.159 32.5516C115.097 32.4073 115.066 32.2517 115.066 32.0945C115.066 31.1279 115.907 30.5959 117.427 30.6074V30.5216C117.443 30.3975 117.431 30.2713 117.392 30.1526C117.353 30.0338 117.288 29.9257 117.202 29.8364C117.117 29.7471 117.012 29.6789 116.896 29.6371C116.781 29.5952 116.657 29.5808 116.535 29.5949C116.173 29.5946 115.817 29.6976 115.509 29.8924L115.347 29.4119C115.736 29.1752 116.183 29.0526 116.636 29.0573C117.841 29.0573 118.133 29.8924 118.133 30.6989V32.1918C118.126 32.5133 118.147 32.8348 118.195 33.1527L117.522 33.1699ZM117.421 31.1279C116.642 31.1279 115.739 31.2537 115.739 32.0316C115.732 32.124 115.744 32.2169 115.775 32.3039C115.806 32.391 115.855 32.4702 115.919 32.536C115.983 32.6018 116.06 32.6526 116.145 32.6851C116.23 32.7175 116.321 32.7307 116.412 32.7237C116.619 32.7293 116.822 32.6674 116.993 32.5471C117.163 32.4268 117.292 32.2542 117.359 32.0545C117.388 31.9796 117.403 31.9002 117.404 31.82L117.421 31.1279Z" fill="white"/>
<path d="M120.88 30.4127C120.88 29.9437 120.88 29.5376 120.852 29.1658H121.474V29.9494H121.507C121.575 29.705 121.716 29.4886 121.912 29.3314C122.107 29.1741 122.346 29.0841 122.595 29.0743C122.662 29.0677 122.73 29.0677 122.797 29.0743V29.7664C122.717 29.7566 122.636 29.7566 122.556 29.7664C122.311 29.7754 122.078 29.876 121.901 30.049C121.725 30.222 121.616 30.4553 121.597 30.7044C121.576 30.8157 121.565 30.9286 121.564 31.0419V33.1754H120.857L120.88 30.4127Z" fill="white"/>
<path d="M125.471 31.2993C125.455 31.4844 125.478 31.6709 125.54 31.8457C125.602 32.0206 125.7 32.1797 125.828 32.3119C125.956 32.4441 126.111 32.5464 126.281 32.6115C126.452 32.6767 126.634 32.7032 126.816 32.6892C127.189 32.7016 127.56 32.6314 127.904 32.4833L128.027 33.0038C127.614 33.1798 127.169 33.2656 126.721 33.2555C126.459 33.2721 126.197 33.2309 125.952 33.1346C125.707 33.0383 125.485 32.8892 125.302 32.6975C125.119 32.5058 124.979 32.276 124.891 32.0238C124.803 31.7716 124.769 31.503 124.792 31.2363C124.792 30.0237 125.487 29.0742 126.631 29.0742C127.915 29.0742 128.251 30.2182 128.251 30.9618C128.259 31.0741 128.259 31.1869 128.251 31.2993H125.471ZM127.562 30.7787C127.582 30.6332 127.572 30.4849 127.533 30.3436C127.493 30.2023 127.424 30.0713 127.331 29.9592C127.237 29.8472 127.122 29.7568 126.991 29.6939C126.861 29.6311 126.719 29.5973 126.575 29.5947C126.276 29.6106 125.994 29.7416 125.786 29.9614C125.578 30.1811 125.459 30.4732 125.454 30.7787H127.562Z" fill="white"/>
</g>
<defs>
<clipPath id="clip0_364_2243">
<rect width="170" height="35" fill="white"/>
</clipPath>
</defs>
</svg>
